<svg width="236" height="100" viewBox="0 0 236 100" fill="none" xmlns="http://www.w3.org/2000/svg">
<path d="M140.422 0.180993C145.091 1.49453 146.567 7.33749 143.058 10.6591C139.835 13.7089 134.654 12.5463 133.012 8.40946C132.546 7.23181 132.561 5.19356 133.027 3.98571C133.434 2.95904 134.323 1.78139 135.166 1.16237C136.582 0.150796 138.796 -0.271951 140.422 0.180993Z" fill="#D2A57A"/>
<path d="M100.398 0.180993C105.067 1.49453 106.543 7.33749 103.034 10.6591C99.8109 13.7089 94.6301 12.5463 92.9885 8.40946C92.5216 7.23181 92.5367 5.19356 93.0036 3.98571C93.4102 2.95904 94.2988 1.78139 95.1422 1.16237C96.5578 0.150796 98.7717 -0.271951 100.398 0.180993Z" fill="url(#paint0_linear_105_1054)"/>
<path d="M103.669 14.2773C105.158 14.7755 106.393 15.8777 107.245 17.4328C107.818 18.4896 108.824 22.0981 110.16 27.8656C111.179 32.2289 111.191 32.5007 110.491 33.3311C110.058 33.8444 109.371 34.1011 108.824 33.935C108.646 33.8746 108.302 33.6179 108.06 33.3462C107.653 32.9083 107.5 32.4554 106.418 28.4091C105.756 25.9632 105.12 23.5173 105.005 22.9738C104.725 21.6753 104.522 21.313 104.051 21.313C103.274 21.313 103.262 21.1771 105.311 31.6854C107.755 44.247 107.551 43.1297 107.386 43.5827C107.245 43.9299 107.195 43.945 105.807 43.9903L104.369 44.0356L104.305 52.5812L104.242 61.1267L103.873 61.6853C103.452 62.3496 102.663 62.8328 102.014 62.8328C101.365 62.8328 100.576 62.3496 100.156 61.6853L99.7868 61.1267L99.7231 52.5812L99.6595 44.0356L98.9212 43.9903L98.1957 43.945V52.2188C98.1957 59.9188 98.1703 60.5379 97.9539 61.0965C97.1393 63.2555 94.6064 63.3612 93.7536 61.2928C93.4863 60.6284 93.4863 60.4775 93.4863 52.2943V43.9601H92.0862C90.0752 43.9601 90.1388 44.2017 91.0043 39.6572C91.3862 37.6642 92.2899 32.9536 93.0281 29.1791C93.7663 25.4046 94.3773 22.1736 94.3773 21.9924C94.3773 21.5697 94.1482 21.313 93.7281 21.313C93.2827 21.313 93.1681 21.5093 92.9135 22.6718C92.4681 24.7705 89.6424 35.5958 89.4642 35.9279C89.0951 36.5923 88.5223 36.8791 87.7332 36.8187C86.944 36.7583 86.5113 36.4413 86.1549 35.626C85.7857 34.7805 85.9258 34.086 88.2677 25.314C88.8914 22.9889 89.5151 20.5732 89.6678 19.9542C90.4315 16.8439 92.0989 14.8057 94.3518 14.232C95.3192 13.9904 102.905 14.0357 103.669 14.2773Z" fill="url(#paint1_linear_105_1054)"/>
<path d="M144.184 14.3113C145.393 14.6887 146.233 15.2776 147.188 16.3948C148.18 17.5574 148.677 18.5689 148.944 19.9278C149.033 20.4109 149.339 23.9741 149.606 27.8241C150.077 34.6937 150.077 34.8447 149.86 35.4033C149.555 36.1582 148.995 36.5961 148.269 36.6716C147.506 36.7471 146.882 36.3545 146.5 35.5543C146.246 34.9957 146.182 34.3616 145.775 28.4884C145.317 21.7848 145.253 21.3168 144.718 21.3168C144.591 21.3168 144.426 21.3923 144.336 21.498C144.222 21.6339 144.184 26.118 144.184 40.7632C144.184 54.8648 144.146 60.0132 144.031 60.4511C143.815 61.3117 142.962 62.1874 142.224 62.3081C141.091 62.5195 139.92 61.6136 139.614 60.3152C139.525 59.9377 139.474 56.0424 139.474 49.052V38.3626L138.736 38.4079L138.011 38.4531L137.947 49.5503C137.896 57.9297 137.845 60.7228 137.731 60.9644C137.489 61.4627 136.865 62.0364 136.343 62.2327C135.325 62.6403 134.116 62.0062 133.632 60.8436L133.365 60.1793V41.0349C133.365 28.1411 133.327 21.7999 133.237 21.6037C133.161 21.4527 132.996 21.3168 132.868 21.3168C132.346 21.3168 132.206 21.8301 131.379 26.7068C130.934 29.349 130.501 31.7194 130.437 31.9761C130.234 32.6857 129.534 33.4104 128.935 33.501C128.235 33.6067 127.853 33.4708 127.319 32.9272C126.492 32.0666 126.492 32.0063 127.624 25.5443C128.528 20.426 128.693 19.6258 129.152 18.4935C130.068 16.2438 131.723 14.6283 133.543 14.2358C134.752 13.9791 143.305 14.0395 144.184 14.3113Z" fill="url(#paint2_linear_105_1054)"/>
<path d="M119.642 28.2758C123.052 29.2353 124.131 33.5037 121.567 35.9302C119.213 38.1582 115.428 37.3089 114.229 34.2868C113.888 33.4265 113.899 31.9376 114.24 31.0552C114.537 30.3052 115.186 29.4449 115.802 28.9927C116.836 28.2537 118.454 27.9449 119.642 28.2758Z" fill="#FDF9F3"/>
<path d="M127.272 34.4843C128.15 35.1335 128.226 36.4017 127.462 37.9417C126.533 39.8139 125.171 41.2029 123.619 41.8672L122.855 42.1994L122.791 51.7112C122.728 61.0418 122.728 61.2381 122.46 61.6609C121.862 62.6422 120.691 62.8687 119.864 62.1591C119.126 61.5401 119.1 61.3287 119.1 55.7424V50.6845H118.527H117.955V55.7424C117.955 61.3287 117.929 61.5401 117.191 62.1591C116.325 62.8838 115.142 62.6271 114.556 61.5703L114.263 61.0569V51.6357C114.263 42.8033 114.251 42.2145 114.034 42.139C113.321 41.8522 112.074 41.0671 111.489 40.5537C110.381 39.5572 109.045 37.1717 109.045 36.1904C109.045 35.0731 109.77 34.2276 110.738 34.2276C111.298 34.2276 111.412 34.288 111.832 34.8013C112.087 35.1184 112.494 35.7072 112.736 36.1149C113.309 37.0812 114.251 37.9115 115.218 38.3192C116.173 38.7268 119.469 38.8929 120.844 38.6061C122.549 38.2588 123.809 37.2623 124.751 35.526C124.993 35.0731 125.375 34.59 125.579 34.4541C126.075 34.1521 126.839 34.1672 127.272 34.4843Z" fill="url(#paint3_linear_105_1054)"/>
<path d="M13.5308 38.5072V63.1266H50.0383V45.4314H60.2502V63.1266H70.9727V38.2508H83.7376L69.6962 24.6588V12.6056H61.5267V15.683L45.6983 0.552368H37.2734L0 38.5072H13.5308Z" fill="#D2A57A"/>
<path d="M165.793 38.5072V63.1266H202.301V45.4314H212.512V63.1266H223.235V38.2508H236L221.958 24.6588V12.6056H213.789V15.683L197.96 0.552368H189.536L152.262 38.5072H165.793Z" fill="#98723F"/>
<path d="M163.698 66.8508H73.0004L72.9999 71.8734H118H163.698V66.8508Z" fill="url(#paint4_linear_105_1054)"/>
<path d="M6.06901 99.8915V76.0863H15.4609C17.2664 76.0863 18.8046 76.4311 20.0755 77.1208C21.3463 77.8027 22.315 78.752 22.9814 79.9686C23.6556 81.1774 23.9927 82.5723 23.9927 84.1531C23.9927 85.7339 23.6517 87.1287 22.9698 88.3376C22.2879 89.5464 21.2998 90.488 20.0058 91.1621C18.7194 91.8363 17.1618 92.1734 15.333 92.1734H9.34687V88.14H14.5194C15.488 88.14 16.2862 87.9734 16.9139 87.6402C17.5493 87.2992 18.022 86.8304 18.3319 86.2337C18.6497 85.6293 18.8085 84.9357 18.8085 84.1531C18.8085 83.3627 18.6497 82.673 18.3319 82.0841C18.022 81.4874 17.5493 81.0263 16.9139 80.7009C16.2784 80.3676 15.4725 80.201 14.4961 80.201H11.102V99.8915H6.06901ZM28.616 99.8915H23.2226L31.4405 76.0863H37.9265L46.1328 99.8915H40.7394L34.7765 81.5261H34.5905L28.616 99.8915ZM28.2789 90.5344H41.0184V94.4632H28.2789V90.5344ZM48.998 99.8915V76.0863H58.3899C60.1877 76.0863 61.722 76.4079 62.9929 77.051C64.2715 77.6865 65.244 78.5892 65.9104 79.7593C66.5846 80.9217 66.9217 82.2894 66.9217 83.8625C66.9217 85.4433 66.5807 86.8033 65.8988 87.9424C65.2169 89.0737 64.2289 89.9416 62.9348 90.5461C61.6484 91.1505 60.0908 91.4527 58.262 91.4527H51.9737V87.4077H57.4484C58.4093 87.4077 59.2074 87.276 59.8429 87.0125C60.4783 86.749 60.951 86.3538 61.2609 85.8269C61.5787 85.2999 61.7375 84.6451 61.7375 83.8625C61.7375 83.0721 61.5787 82.4057 61.2609 81.8632C60.951 81.3208 60.4744 80.9101 59.8312 80.6311C59.1958 80.3444 58.3938 80.201 57.4251 80.201H54.031V99.8915H48.998ZM61.8538 89.0582L67.7702 99.8915H62.2141L56.4255 89.0582H61.8538ZM70.4785 99.8915V76.0863H86.5191V80.2359H75.5115V85.9082H85.6938V90.0579H75.5115V95.7418H86.5656V99.8915H70.4785ZM110.432 76.0863V99.8915H106.085L95.7279 84.9086H95.5536V99.8915H90.5206V76.0863H94.9375L105.213 91.0575H105.422V76.0863H110.432ZM113.684 80.2359V76.0863H133.235V80.2359H125.946V99.8915H120.972V80.2359H113.684ZM144.03 99.8915V76.0863H153.422C155.227 76.0863 156.766 76.4311 158.036 77.1208C159.307 77.8027 160.276 78.752 160.942 79.9686C161.617 81.1774 161.954 82.5723 161.954 84.1531C161.954 85.7339 161.613 87.1287 160.931 88.3376C160.249 89.5464 159.261 90.488 157.967 91.1621C156.68 91.8363 155.123 92.1734 153.294 92.1734H147.308V88.14H152.48C153.449 88.14 154.247 87.9734 154.875 87.6402C155.51 87.2992 155.983 86.8304 156.293 86.2337C156.611 85.6293 156.769 84.9357 156.769 84.1531C156.769 83.3627 156.611 82.673 156.293 82.0841C155.983 81.4874 155.51 81.0263 154.875 80.7009C154.239 80.3676 153.433 80.201 152.457 80.201H149.063V99.8915H144.03ZM165.223 99.8915V76.0863H170.256V95.7418H180.461V99.8915H165.223ZM188.505 99.8915H183.112L191.329 76.0863H197.815L206.022 99.8915H200.628L194.665 81.5261H194.479L188.505 99.8915ZM188.168 90.5344H200.907V94.4632H188.168V90.5344ZM228.798 76.0863V99.8915H224.451L214.094 84.9086H213.92V99.8915H208.887V76.0863H213.304L223.579 91.0575H223.788V76.0863H228.798Z" fill="url(#paint5_linear_105_1054)"/>
<defs>
<linearGradient id="paint0_linear_105_1054" x1="92.4072" y1="7.75025" x2="105.018" y2="7.65555" gradientUnits="userSpaceOnUse">
<stop stop-color="#D2A57A"/>
<stop offset="0.500637" stop-color="#F6EBDF"/>
</linearGradient>
<linearGradient id="paint1_linear_105_1054" x1="86" y1="44" x2="111.061" y2="44.4955" gradientUnits="userSpaceOnUse">
<stop stop-color="#D2A57A"/>
<stop offset="0.497101" stop-color="#F6EBDF"/>
</linearGradient>
<linearGradient id="paint2_linear_105_1054" x1="146.5" y1="38" x2="127" y2="38" gradientUnits="userSpaceOnUse">
<stop offset="1" stop-color="#D2A57A"/>
</linearGradient>
<linearGradient id="paint3_linear_105_1054" x1="108.975" y1="51.7639" x2="128.054" y2="51.8724" gradientUnits="userSpaceOnUse">
<stop offset="0.349508" stop-color="#FDF9F3"/>
<stop offset="1" stop-color="#D2A57A"/>
</linearGradient>
<linearGradient id="paint4_linear_105_1054" x1="73" y1="71.1059" x2="163.698" y2="71.1059" gradientUnits="userSpaceOnUse">
<stop offset="0.0857682" stop-color="#D2A57A"/>
<stop offset="0.439022" stop-color="#FFFCF8"/>
<stop offset="0.787" stop-color="#98723F"/>
</linearGradient>
<linearGradient id="paint5_linear_105_1054" x1="4" y1="87.9457" x2="231" y2="87.9457" gradientUnits="userSpaceOnUse">
<stop stop-color="#D2A57A"/>
<stop offset="0.299119" stop-color="#D2A57A"/>
<stop offset="0.424754" stop-color="#FFFCF8"/>
<stop offset="0.564396" stop-color="#D2A57A"/>
<stop offset="0.66138" stop-color="#98723F"/>
<stop offset="1" stop-color="#98723F"/>
</linearGradient>
</defs>
</svg>
