<svg width="24" height="24" viewBox="0 0 24 24" fill="none" xmlns="http://www.w3.org/2000/svg">
<path d="M11.2801 2.79994L10.7801 3.29994C9.4401 2.54994 7.8401 2.39994 6.4101 2.86994L6.3301 2.79994C5.3601 1.81994 3.7701 1.81994 2.8001 2.79994C1.8301 3.77994 1.8201 5.35994 2.8001 6.32994L2.8701 6.40994C2.4001 7.83994 2.5501 9.43994 3.3001 10.7799L2.8001 11.2799C2.2101 11.8699 2.2101 12.8099 2.8001 13.3999L4.2101 14.8199C4.8001 15.3999 5.7401 15.3999 6.3301 14.8199L6.6801 14.4599L13.7601 21.5299C14.3401 22.1199 15.2901 22.1199 15.8801 21.5299L21.5301 15.8799C22.1201 15.2899 22.1201 14.3399 21.5301 13.7499L14.4601 6.67994L14.8201 6.32994C15.4001 5.73994 15.4001 4.79994 14.8201 4.20994L13.4001 2.78994C12.8201 2.20994 11.8701 2.20994 11.2801 2.79994ZM4.2501 7.04994C4.3301 6.70994 4.4701 6.37994 4.6601 6.06994L3.8601 5.26994C3.7501 5.15994 3.6701 5.03994 3.6301 4.89994C3.5001 4.55994 3.5701 4.13994 3.8601 3.85994C4.1501 3.57994 4.5601 3.49994 4.9001 3.62994C5.0401 3.66994 5.1601 3.74994 5.2701 3.85994L6.0701 4.65994C6.3801 4.46994 6.7101 4.32994 7.0501 4.24994C7.9101 3.99994 8.8301 4.05994 9.6501 4.41994L4.4201 9.64994C4.0601 8.82994 4.0001 7.90994 4.2501 7.04994ZM20.4701 14.8199L14.8201 20.4699L7.7501 13.3999L13.4001 7.74994L20.4701 14.8199ZM13.7601 5.26994L5.2701 13.7599L3.8601 12.3399L12.3401 3.85994L13.7601 5.26994ZM14.8201 11.6299L11.6301 14.8199L10.5701 13.7599L13.7601 10.5699L14.8201 11.6299ZM16.9401 13.7599L13.7601 16.9399L12.6901 15.8799L15.8801 12.6899L16.9401 13.7599Z" fill="white"/>
</svg>
