<svg width="18" height="18" viewBox="0 0 18 18" fill="none" xmlns="http://www.w3.org/2000/svg">
<path d="M13.4966 2.13117H12.7863V0.710449H11.3655V2.13117H5.68266V0.710449H4.26194V2.13117H3.55158C3.17478 2.13117 2.81342 2.28085 2.54698 2.54729C2.28054 2.81373 2.13086 3.17509 2.13086 3.55189V13.4969C2.13086 13.8737 2.28054 14.2351 2.54698 14.5015C2.81342 14.768 3.17478 14.9177 3.55158 14.9177H7.10338V13.4969H3.55158V5.68297H13.4966V6.39333H14.9173V3.55189C14.9173 3.17509 14.7677 2.81373 14.5012 2.54729C14.2348 2.28085 13.8734 2.13117 13.4966 2.13117ZM15.4146 9.4834L14.7042 10.1938L13.248 8.77304L13.9584 8.06268C14.1004 7.91351 14.342 7.9064 14.5053 8.06268L15.4146 8.97194C15.5496 9.11401 15.5496 9.34133 15.4146 9.4834ZM8.5241 13.4543L12.836 9.14953L14.2922 10.5703L9.98745 14.9177H8.5241V13.4543Z" fill="#391448"/>
</svg>
