<svg width="24" height="24" viewBox="0 0 24 24" fill="none" xmlns="http://www.w3.org/2000/svg">
<path d="M18.1469 18.0305L18.1703 17.9177L18.0674 17.866L16.3174 16.986L16.1465 16.9001L16.1038 17.0865C15.9833 17.612 15.7647 18.0509 15.4288 18.3581C15.0954 18.6629 14.6332 18.85 14 18.85H9.41091C10.1655 17.859 10.75 16.5698 10.75 15C10.75 14.7085 10.7297 14.4213 10.6827 14.15H14H14.15V14V12V11.85H14H9.91066C9.71522 11.482 9.51143 11.1555 9.31573 10.8521C9.26539 10.7741 9.21577 10.6979 9.16702 10.623C9.0113 10.3838 8.86453 10.1583 8.73197 9.93175C8.38711 9.34231 8.15 8.76385 8.15 8C8.15 6.15284 9.65284 4.65 11.5 4.65C12.9356 4.65 14.1704 5.55936 14.6392 6.83186L14.6935 6.97924L14.8383 6.91822L16.6883 6.13822L16.8228 6.08149L16.7697 5.94547C15.948 3.83975 13.9038 2.35 11.5 2.35C8.37716 2.35 5.85 4.87716 5.85 8C5.85 9.70214 6.55642 10.8206 7.22406 11.85H6H5.85V12V14V14.15H6H8.35218C8.41321 14.4162 8.45 14.6972 8.45 15C8.45 16.2979 7.82593 17.2623 7.19293 17.9074C6.87661 18.2299 6.55994 18.4704 6.32249 18.6302C6.20389 18.7101 6.10538 18.7695 6.03703 18.8088C6.00286 18.8284 5.97626 18.843 5.95848 18.8525L5.9386 18.8629L5.93392 18.8653L5.93295 18.8658L5.93292 18.8658L5.93284 18.8659L5.93282 18.8659L5.85 18.9073V19V21V21.15H6H14C15.9876 21.15 17.7498 19.9425 18.1469 18.0305Z" fill="white" stroke="white" stroke-width="0.3"/>
</svg>
