<svg width="328" height="132" viewBox="0 0 328 132" fill="none" xmlns="http://www.w3.org/2000/svg">
<path d="M287.909 108.519H77.5425V28.7378H287.909C309.94 28.7378 327.8 46.5978 327.8 68.6286C327.8 90.66 309.94 108.519 287.909 108.519Z" fill="url(#paint0_linear_327_1261)"/>
<path opacity="0.6" d="M77.5425 108.519H132.451C142.196 97.0533 148.105 82.2261 148.105 65.999C148.105 52.1568 143.805 39.3302 136.497 28.7371H77.5425V108.519Z" fill="url(#paint1_linear_327_1261)"/>
<path d="M65.9328 131.733C102.236 131.733 131.665 102.303 131.665 66.0002C131.665 29.6971 102.236 0.267578 65.9328 0.267578C29.6297 0.267578 0.200195 29.6971 0.200195 66.0002C0.200195 102.303 29.6297 131.733 65.9328 131.733Z" fill="url(#paint2_linear_327_1261)"/>
<path opacity="0.3" d="M67.1842 129.103C30.8818 129.103 1.45235 99.6729 1.45235 63.3705C1.45235 54.3418 3.27818 45.7412 6.57238 37.9094C2.52907 46.4372 0.200195 55.9354 0.200195 66C0.200195 102.302 29.6296 131.733 65.9328 131.733C93.2066 131.733 116.595 115.118 126.545 91.4604C116.004 113.691 93.4228 129.103 67.1842 129.103Z" fill="url(#paint3_linear_327_1261)"/>
<path opacity="0.2" d="M65.1186 9.21973C33.241 9.21973 7.39917 35.0615 7.39917 66.9392C7.39917 98.8168 33.241 124.659 65.1186 124.659C96.9963 124.659 122.838 98.8168 122.838 66.9392C122.838 35.0615 96.9963 9.21973 65.1186 9.21973ZM65.1186 115.393C38.3581 115.393 16.6644 93.699 16.6644 66.9385C16.6644 40.1779 38.3581 18.4843 65.1186 18.4843C91.8792 18.4843 113.573 40.1779 113.573 66.9385C113.573 93.699 91.8792 115.393 65.1186 115.393Z" fill="url(#paint4_linear_327_1261)"/>
<path d="M65.9329 8.28052C34.0552 8.28052 8.21338 34.1223 8.21338 66C8.21338 97.8777 34.0552 123.719 65.9329 123.719C97.8105 123.719 123.652 97.8777 123.652 66C123.652 34.1223 97.8105 8.28052 65.9329 8.28052ZM65.9329 114.453C39.1723 114.453 17.4786 92.7598 17.4786 65.9993C17.4786 39.2387 39.1723 17.545 65.9329 17.545C92.6934 17.545 114.387 39.2394 114.387 66C114.387 92.7605 92.6934 114.453 65.9329 114.453Z" fill="url(#paint5_linear_327_1261)"/>
<g opacity="0.3">
<path d="M17.0388 67.6437C17.0388 94.4043 38.7325 116.098 65.493 116.098C87.7727 116.098 106.492 101.041 112.152 80.5628C105.968 100.206 87.6177 114.453 65.9328 114.453C39.1722 114.453 17.4785 92.7597 17.4785 65.9992C17.4785 61.5183 18.1352 57.1991 19.2738 53.0808C17.8265 57.6789 17.0388 62.5681 17.0388 67.6437Z" fill="url(#paint6_linear_327_1261)"/>
<path d="M65.4932 9.92507C97.3708 9.92507 123.213 35.7669 123.213 67.6445C123.213 73.0849 122.407 78.3279 121.001 83.3191C122.719 77.8511 123.652 72.0358 123.652 66.0007C123.652 34.1231 97.8105 8.28125 65.9329 8.28125C39.4955 8.28125 17.2624 26.0757 10.425 50.3262C17.7822 26.9115 39.6506 9.92507 65.4932 9.92507Z" fill="url(#paint7_linear_327_1261)"/>
</g>
<path d="M64.3429 49.8077C64.3429 51.1676 63.9592 52.2865 63.1978 53.1499C62.4297 54.0206 61.3479 54.6009 59.9458 54.8906V55.0049C61.6595 55.2226 62.9313 55.7671 63.7598 56.6436C64.5839 57.5201 65.0017 58.6682 65.0017 60.0885C65.0017 62.1255 64.2948 63.6907 62.8833 64.7848C61.4687 65.8848 59.4624 66.4287 56.8634 66.4287C55.7328 66.4287 54.6998 66.3442 53.7592 66.1746C52.8194 66.005 51.9072 65.7036 51.0183 65.2741V62.9707C51.9458 63.4242 52.9315 63.7751 53.9769 64.0103C55.026 64.2527 56.0175 64.3728 56.9508 64.3728C60.641 64.3728 62.4872 62.9219 62.4872 60.0339C62.4872 57.4408 60.4495 56.1471 56.3793 56.1471H54.2761V54.0563H56.4099C58.0741 54.0563 59.3954 53.6879 60.3687 52.9563C61.3421 52.2188 61.8313 51.1975 61.8313 49.8914C61.8313 48.8526 61.4717 48.0358 60.7553 47.4381C60.039 46.8455 59.0693 46.5492 57.8419 46.5492C56.9056 46.5492 56.0262 46.6758 55.1978 46.9299C54.3693 47.184 53.4244 47.6492 52.3637 48.332L51.137 46.694C52.0135 46.0046 53.0225 45.4608 54.1684 45.0619C55.3135 44.6687 56.5191 44.4751 57.7858 44.4751C59.8591 44.4751 61.4702 44.9468 62.6212 45.8954C63.7685 46.8462 64.3429 48.1522 64.3429 49.8077Z" fill="url(#paint8_linear_327_1261)"/>
<path d="M82.3722 55.4289C82.3722 59.122 81.7891 61.8783 80.6257 63.6975C79.4617 65.5226 77.6824 66.4297 75.2851 66.4297C72.9854 66.4297 71.2396 65.4993 70.0421 63.6313C68.8423 61.7698 68.2439 59.0383 68.2439 55.4296C68.2439 51.7132 68.8248 48.9504 69.9816 47.1494C71.1421 45.3483 72.9097 44.4478 75.2851 44.4478C77.6031 44.4478 79.3619 45.3847 80.5675 47.2644C81.768 49.1434 82.3722 51.869 82.3722 55.4289ZM70.698 55.4289C70.698 58.536 71.0642 60.8023 71.7951 62.216C72.5238 63.6305 73.6872 64.344 75.2851 64.344C76.902 64.344 78.0719 63.624 78.7999 62.1862C79.5257 60.7535 79.8883 58.4989 79.8883 55.4289C79.8883 52.364 79.5257 50.116 78.7999 48.6898C78.0719 47.2637 76.902 46.5502 75.2851 46.5502C73.6864 46.5502 72.5238 47.2513 71.7951 48.6592C71.0642 50.0679 70.698 52.3218 70.698 55.4289Z" fill="url(#paint9_linear_327_1261)"/>
<path d="M55.0929 78.6607C55.0929 80.9692 54.4675 82.7332 53.2132 83.9511C51.9617 85.1734 50.1614 85.7835 47.8085 85.7835H43.9363V71.8044H48.2184C50.3936 71.8044 52.0811 72.4065 53.286 73.6113C54.4908 74.8162 55.0929 76.4993 55.0929 78.6607ZM53.3712 78.7168C53.3712 76.8939 52.9154 75.5223 51.9996 74.5978C51.086 73.6725 49.7253 73.2102 47.9228 73.2102H45.5612V84.3777H47.5399C49.4778 84.3777 50.936 83.9016 51.9101 82.9494C52.8841 81.9957 53.3712 80.5848 53.3712 78.7168Z" fill="url(#paint10_linear_327_1261)"/>
<path d="M66.9953 85.7832L65.2553 81.3365H59.6534L57.9324 85.7832H56.2871L61.8126 71.7473H63.1798L68.6777 85.7832H66.9953ZM64.7487 79.874L63.1245 75.5424C62.9141 74.9942 62.6979 74.3223 62.4744 73.5258C62.3346 74.1374 62.1344 74.8115 61.8716 75.5424L60.227 79.874H64.7487Z" fill="url(#paint11_linear_327_1261)"/>
<path d="M74.1564 78.794L77.886 71.8044H79.6455L74.9805 80.3614V85.7835H73.336V80.4385L68.679 71.8037H70.4575L74.1564 78.794Z" fill="url(#paint12_linear_327_1261)"/>
<path d="M89.4549 82.0656C89.4549 83.2952 89.0086 84.254 88.1175 84.9419C87.2243 85.6299 86.0129 85.975 84.4834 85.975C82.8272 85.975 81.5524 85.7602 80.6592 85.3336V83.7655C81.2328 84.0072 81.8575 84.1987 82.5338 84.3392C83.2086 84.4789 83.8791 84.5488 84.5423 84.5488C85.6256 84.5488 86.4417 84.3435 86.9899 83.9329C87.5381 83.5223 87.8111 82.9487 87.8111 82.2156C87.8111 81.7329 87.7135 81.3362 87.5199 81.0275C87.3262 80.7174 86.9993 80.432 86.5451 80.1699C86.0864 79.9107 85.3948 79.613 84.4644 79.2817C83.1628 78.8165 82.2353 78.2662 81.6784 77.6277C81.1193 76.9914 80.8412 76.1594 80.8412 75.1329C80.8412 74.0569 81.2452 73.1986 82.0548 72.5608C82.865 71.9246 83.9345 71.6042 85.2682 71.6042C86.6579 71.6042 87.9348 71.859 89.1003 72.3694L88.5951 73.7861C87.4398 73.3012 86.3187 73.0595 85.2288 73.0595C84.3669 73.0595 83.6949 73.2444 83.2123 73.6121C82.7274 73.9826 82.4857 74.4966 82.4857 75.1532C82.4857 75.6359 82.5731 76.0334 82.7515 76.3421C82.9298 76.6507 83.2319 76.9354 83.6564 77.1924C84.0808 77.4515 84.728 77.7362 85.6009 78.0492C87.0678 78.5705 88.0753 79.1318 88.6264 79.7324C89.1797 80.3301 89.4549 81.109 89.4549 82.0656Z" fill="url(#paint13_linear_327_1261)"/>
<path d="M155.862 78.8485H151.617V58.4922H163.284V62.031H155.861V67.2777H162.767V70.8027H155.861L155.862 78.8485Z" fill="url(#paint14_linear_327_1261)"/>
<path d="M171.58 71.0393V78.8485H167.266V58.4922H173.196C175.962 58.4922 178.009 58.9982 179.337 60.0035C180.664 61.0118 181.328 62.5391 181.328 64.5928C181.328 65.7889 181 66.8533 180.339 67.7858C179.679 68.7199 178.746 69.4515 177.539 69.9808C180.602 74.5548 182.6 77.5112 183.526 78.8485H178.739L173.878 71.0393H171.58ZM171.58 67.5296H172.972C174.336 67.5296 175.345 67.3032 175.995 66.846C176.645 66.3932 176.968 65.6768 176.968 64.7006C176.968 63.7382 176.636 63.0509 175.973 62.6411C175.309 62.2334 174.284 62.0295 172.89 62.0295H171.58V67.5296Z" fill="url(#paint15_linear_327_1261)"/>
<path d="M197.816 78.8485H186.094V58.4922H197.816V62.031H190.408V66.4995H197.3V70.0368H190.408V75.2842H197.816V78.8485Z" fill="url(#paint16_linear_327_1261)"/>
<path d="M213.784 78.8485H202.061V58.4922H213.784V62.031H206.375V66.4995H213.268V70.0368H206.375V75.2842H213.784V78.8485Z" fill="url(#paint17_linear_327_1261)"/>
<path d="M233.289 78.8485H228.972V62.0863H223.446V58.4922H238.815V62.0863H233.288V78.8485H233.289Z" fill="url(#paint18_linear_327_1261)"/>
<path d="M246.263 71.0393V78.8485H241.949V58.4922H247.88C250.647 58.4922 252.692 58.9982 254.021 60.0035C255.348 61.0118 256.011 62.5391 256.011 64.5928C256.011 65.7889 255.683 66.8533 255.023 67.7858C254.362 68.7199 253.429 69.4515 252.223 69.9808C255.285 74.5548 257.283 77.5112 258.209 78.8485H253.422L248.563 71.0393H246.263ZM246.263 67.5296H247.656C249.02 67.5296 250.029 67.3032 250.679 66.846C251.329 66.3932 251.651 65.6768 251.651 64.7006C251.651 63.7382 251.32 63.0509 250.656 62.6411C249.992 62.2334 248.967 62.0295 247.574 62.0295H246.263V67.5296Z" fill="url(#paint19_linear_327_1261)"/>
<path d="M260.775 78.8485V58.4922H265.089V78.8485H260.775Z" fill="url(#paint20_linear_327_1261)"/>
<path d="M282.673 78.8483L281.197 74.002H273.779L272.301 78.8483H267.652L274.837 58.4089H280.114L287.325 78.8483H282.673ZM280.169 70.3816C278.803 65.9918 278.037 63.5078 277.863 62.9335C277.692 62.3583 277.57 61.9055 277.494 61.5699C277.189 62.7595 276.312 65.697 274.863 70.3816H280.169Z" fill="url(#paint21_linear_327_1261)"/>
<path d="M289.887 78.8485V58.4922H294.201V75.2842H302.458V78.8485H289.887Z" fill="url(#paint22_linear_327_1261)"/>
<defs>
<linearGradient id="paint0_linear_327_1261" x1="202.671" y1="124.31" x2="202.671" y2="13.6659" gradientUnits="userSpaceOnUse">
<stop stop-color="#98723F"/>
<stop offset="1" stop-color="#D2A57A"/>
</linearGradient>
<linearGradient id="paint1_linear_327_1261" x1="129.225" y1="68.6288" x2="170.464" y2="68.6288" gradientUnits="userSpaceOnUse">
<stop stop-color="#98723F"/>
<stop offset="1" stop-color="#D2A57A"/>
</linearGradient>
<linearGradient id="paint2_linear_327_1261" x1="65.9326" y1="140.278" x2="65.9326" y2="5.15828" gradientUnits="userSpaceOnUse">
<stop stop-color="#98723F"/>
<stop offset="1" stop-color="#D2A57A"/>
</linearGradient>
<linearGradient id="paint3_linear_327_1261" x1="63.3726" y1="137.831" x2="63.3726" y2="41.3998" gradientUnits="userSpaceOnUse">
<stop stop-color="#98723F"/>
<stop offset="1" stop-color="#D2A57A"/>
</linearGradient>
<linearGradient id="paint4_linear_327_1261" x1="93.4093" y1="13.9579" x2="38.3195" y2="117.126" gradientUnits="userSpaceOnUse">
<stop offset="0.0106" stop-color="#FFF4E5"/>
<stop offset="1" stop-color="#FFDBA3"/>
</linearGradient>
<linearGradient id="paint5_linear_327_1261" x1="94.2235" y1="13.0189" x2="39.1337" y2="116.187" gradientUnits="userSpaceOnUse">
<stop offset="0.0106" stop-color="#391448"/>
<stop offset="1" stop-color="#3E214C"/>
</linearGradient>
<linearGradient id="paint6_linear_327_1261" x1="71.3853" y1="57.4429" x2="43.2127" y2="110.202" gradientUnits="userSpaceOnUse">
<stop stop-color="#98723F"/>
<stop offset="1" stop-color="#D2A57A"/>
</linearGradient>
<linearGradient id="paint7_linear_327_1261" x1="93.3751" y1="13.6048" x2="59.9521" y2="76.1967" gradientUnits="userSpaceOnUse">
<stop stop-color="#98723F"/>
<stop offset="1" stop-color="#D2A57A"/>
</linearGradient>
<linearGradient id="paint8_linear_327_1261" x1="57.8332" y1="44.7664" x2="57.8332" y2="65.9997" gradientUnits="userSpaceOnUse">
<stop offset="0.0106" stop-color="#391448"/>
<stop offset="1" stop-color="#3E214C"/>
</linearGradient>
<linearGradient id="paint9_linear_327_1261" x1="75.0222" y1="44.7667" x2="75.0222" y2="66" gradientUnits="userSpaceOnUse">
<stop offset="0.0106" stop-color="#391448"/>
<stop offset="1" stop-color="#3E214C"/>
</linearGradient>
<linearGradient id="paint10_linear_327_1261" x1="49.5148" y1="71.6823" x2="49.7445" y2="86.2224" gradientUnits="userSpaceOnUse">
<stop offset="0.0106" stop-color="#391448"/>
<stop offset="1" stop-color="#3E214C"/>
</linearGradient>
<linearGradient id="paint11_linear_327_1261" x1="62.4832" y1="71.6819" x2="62.889" y2="86.2221" gradientUnits="userSpaceOnUse">
<stop offset="0.0106" stop-color="#391448"/>
<stop offset="1" stop-color="#3E214C"/>
</linearGradient>
<linearGradient id="paint12_linear_327_1261" x1="74.1624" y1="71.6823" x2="74.0112" y2="86.2224" gradientUnits="userSpaceOnUse">
<stop offset="0.0106" stop-color="#391448"/>
<stop offset="1" stop-color="#3E214C"/>
</linearGradient>
<linearGradient id="paint13_linear_327_1261" x1="85.0566" y1="71.6826" x2="85.1331" y2="86.2222" gradientUnits="userSpaceOnUse">
<stop offset="0.0106" stop-color="#391448"/>
<stop offset="1" stop-color="#3E214C"/>
</linearGradient>
<linearGradient id="paint14_linear_327_1261" x1="157.428" y1="58.9222" x2="157.428" y2="79.1444" gradientUnits="userSpaceOnUse">
<stop offset="0.0106" stop-color="#391448"/>
<stop offset="1" stop-color="#3E214C"/>
</linearGradient>
<linearGradient id="paint15_linear_327_1261" x1="175.122" y1="58.9222" x2="175.122" y2="79.1444" gradientUnits="userSpaceOnUse">
<stop offset="0.0106" stop-color="#391448"/>
<stop offset="1" stop-color="#3E214C"/>
</linearGradient>
<linearGradient id="paint16_linear_327_1261" x1="191.806" y1="58.9222" x2="191.806" y2="79.1444" gradientUnits="userSpaceOnUse">
<stop offset="0.0106" stop-color="#391448"/>
<stop offset="1" stop-color="#3E214C"/>
</linearGradient>
<linearGradient id="paint17_linear_327_1261" x1="207.478" y1="58.9222" x2="207.478" y2="79.1444" gradientUnits="userSpaceOnUse">
<stop offset="0.0106" stop-color="#391448"/>
<stop offset="1" stop-color="#3E214C"/>
</linearGradient>
<linearGradient id="paint18_linear_327_1261" x1="231.13" y1="59.0511" x2="230.734" y2="79.1444" gradientUnits="userSpaceOnUse">
<stop offset="0.0106" stop-color="#391448"/>
<stop offset="1" stop-color="#3E214C"/>
</linearGradient>
<linearGradient id="paint19_linear_327_1261" x1="250.079" y1="59.0511" x2="249.945" y2="79.1444" gradientUnits="userSpaceOnUse">
<stop offset="0.0106" stop-color="#391448"/>
<stop offset="1" stop-color="#3E214C"/>
</linearGradient>
<linearGradient id="paint20_linear_327_1261" x1="262.932" y1="59.0511" x2="263.089" y2="79.1444" gradientUnits="userSpaceOnUse">
<stop offset="0.0106" stop-color="#391448"/>
<stop offset="1" stop-color="#3E214C"/>
</linearGradient>
<linearGradient id="paint21_linear_327_1261" x1="277.488" y1="59.0505" x2="277.245" y2="79.1444" gradientUnits="userSpaceOnUse">
<stop offset="0.0106" stop-color="#391448"/>
<stop offset="1" stop-color="#3E214C"/>
</linearGradient>
<linearGradient id="paint22_linear_327_1261" x1="296.172" y1="59.0511" x2="296.456" y2="79.1444" gradientUnits="userSpaceOnUse">
<stop offset="0.0106" stop-color="#391448"/>
<stop offset="1" stop-color="#3E214C"/>
</linearGradient>
</defs>
</svg>
