<svg width="339" height="230" viewBox="0 0 339 230" fill="none" xmlns="http://www.w3.org/2000/svg">
<path opacity="0.5" d="M23.6567 186.659C23.6567 186.659 -3.32175 161.403 10.7522 129.851C25.2445 97.3612 55.0445 98.5006 85.9057 59.2909C116.766 20.0813 153.158 -0.0908766 202.298 19.4862C245.155 36.5595 240.927 77.6104 281.101 91.5387C340.706 112.205 341.103 161.235 320.258 186.659H23.6567V186.659Z" fill="#EBD9C2"/>
<path d="M274.37 22.1663H75.2949V126.418H274.37V22.1663Z" fill="#F4EDE7"/>
<path d="M183.512 126.416H75.3018V22.1658H79.2611L183.512 126.416Z" fill="white"/>
<path d="M274.373 22.1658V126.416H264.833L160.588 22.1658H274.373Z" fill="white"/>
<path d="M253.246 126.416H220.938L116.688 22.1658H149.002L253.246 126.416Z" fill="white"/>
<path d="M274.37 22.1663H75.2949V126.418H274.37V22.1663Z" stroke="#DDC4A8" stroke-width="2.59189" stroke-miterlimit="10"/>
<path d="M123.374 22.1663V126.418" stroke="#DDC4A8" stroke-width="2.59189" stroke-miterlimit="10"/>
<path d="M171.452 22.1663V126.418" stroke="#DDC4A8" stroke-width="2.59189" stroke-miterlimit="10"/>
<path d="M73.7383 17.8525H275.901" stroke="#DDC4A8" stroke-width="1.03676" stroke-miterlimit="10"/>
<path d="M17.8045 144.358C17.8045 144.358 11.2621 131.254 9.54053 120.188C9.54053 120.188 19.5261 130.7 23.0842 144.358C23.0842 144.358 25.265 125.994 29.2819 120.714C29.2819 120.714 31.5773 127.715 30.2 144.932" fill="#98723F"/>
<path d="M18.879 151.015C18.879 151.015 4.87602 137.395 3.61377 124.157C3.61377 124.157 13.2934 128.06 21.1749 143.899C21.1749 143.899 15.5505 123.469 19.3383 112.22C19.3383 112.22 27.0284 119.566 28.5203 143.554C28.5203 143.554 31.1516 123.911 37.3851 115.54C37.3851 115.54 36.959 127.584 33.2261 138.439C33.2261 138.439 38.85 125.534 46.196 121.058C46.196 121.058 46.196 132.344 35.9808 151.015" fill="url(#paint0_linear_165_7815)"/>
<path d="M10.3848 148.49L18.2133 186.659H27.0273H35.8413L43.6698 148.49H10.3848Z" fill="white"/>
<path d="M7.1792 186.659H335.147" stroke="#2D2D2D" stroke-width="0.518378" stroke-miterlimit="10"/>
<path d="M181.729 191.188C181.729 191.188 168.051 199.503 166.886 200.28C165.72 201.057 162.267 201.663 158.848 203.14C155.428 204.617 149.589 207.919 147.957 208.413C146.325 208.906 144.143 207.896 143.329 209.706C142.229 212.152 144.848 215.183 144.848 215.183H177.688C177.688 215.183 179.834 212.807 180.59 210.633C181.161 208.992 180.641 207.119 180.641 207.119L191.366 201.213" fill="url(#paint1_linear_165_7815)"/>
<path d="M191.363 201.215L181.566 206.611C178.269 201.946 177.108 197.016 176.704 194.248C179.467 192.563 181.727 191.189 181.727 191.189L191.363 201.215Z" fill="url(#paint2_linear_165_7815)"/>
<path d="M264.474 183.216C264.474 183.216 231.493 168.752 224.743 167.428C217.993 166.104 177.897 193.044 177.897 193.044C177.897 193.044 178.459 201.488 186.201 207.94C186.201 207.94 219.602 196.098 223.837 191.024C223.837 191.024 243.007 202.501 251.213 204.09C259.419 205.678 268.444 186.657 264.474 183.216Z" fill="url(#paint3_linear_165_7815)"/>
<path d="M251.61 196.264C251.61 196.264 224.08 194.3 214.552 195.735C201.772 197.658 202.371 206.293 204.651 211.952C208.382 221.217 223.837 223.132 223.837 223.132H272.256C272.256 223.132 286.683 219.955 286.948 205.132C277.774 200.731 265.273 198.175 251.61 196.264Z" fill="url(#paint4_linear_165_7815)"/>
<path d="M245.533 144.412L239.577 148.084L211.768 136.046C211.063 134.81 209.692 132.43 209.068 131.496C208.208 130.21 205.791 129.1 204.653 127.553C203.514 126.005 203.146 125.85 202.544 126.438C201.941 127.026 201.673 127.728 201.687 128.652C201.702 129.577 203.526 132.237 203.526 132.237L197.379 130.771C197.379 130.771 194.145 129.277 193.165 128.747C192.185 128.217 190.505 128.688 190.6 129.698C190.618 129.886 190.979 130.279 191.5 130.755C191.032 131.11 190.93 132.22 191.182 132.715C191.35 133.046 192.02 133.58 192.589 134.236C192.191 134.717 192.098 135.579 192.269 135.915C192.607 136.579 195.496 139.103 195.86 139.296C196.223 139.49 200.911 141.642 200.911 141.642C203.131 142.26 205.913 142.348 206.663 142.522C206.943 142.587 207.392 142.826 207.76 143.039C207.843 143.102 229.201 161.369 240.257 165.056C244.314 166.409 256.126 155.878 256.126 155.878L245.533 144.412Z" fill="url(#paint5_linear_165_7815)"/>
<path d="M245.536 144.411L242.514 146.277C243.11 148.335 245.199 155.1 248.662 161.709C252.549 159.065 256.126 155.877 256.126 155.877L245.536 144.411Z" fill="url(#paint6_linear_165_7815)"/>
<path d="M191.777 130.631C191.777 130.631 192.132 130.317 192.828 130.763C193.522 131.21 196.401 133.071 196.401 133.071L201.166 134.411" stroke="#2D2D2D" stroke-width="0.259189" stroke-miterlimit="10" stroke-linecap="round" stroke-linejoin="round"/>
<path d="M192.828 134.187C192.828 134.187 193.183 133.889 193.663 134.187C194.143 134.484 196.691 136.206 196.691 136.206L200.446 137.198" stroke="#2D2D2D" stroke-width="0.259189" stroke-miterlimit="10" stroke-linecap="round" stroke-linejoin="round"/>
<path d="M260.253 132.228L243.185 145.341C243.185 145.341 245.531 151.435 252.983 159.055" fill="url(#paint7_linear_165_7815)"/>
<path d="M254.28 154.274L252.984 159.058C245.53 151.438 243.187 145.342 243.187 145.342L246.048 143.144C247.453 145.477 250.584 150.375 254.28 154.274Z" fill="white"/>
<path d="M287.69 183.028C288.079 187.118 289.095 206.453 289.095 206.453C289.095 206.453 282.387 207.723 272.196 206.07C272.299 203.234 272.149 200.943 272.149 200.943L268.354 205.334C261.647 203.846 253.788 201.078 245.515 196.07C245.515 196.07 250.019 163.765 252.274 153.149C254.529 142.532 260.252 132.227 260.252 132.227L278.779 125.239C278.779 125.239 284.559 132.833 289.38 142.081C294.201 151.329 287.301 178.943 287.69 183.028Z" fill="url(#paint8_linear_165_7815)"/>
<path d="M288.858 149.953C288.858 149.953 286.707 165.405 286.046 169.177C286.046 169.177 283.399 169.044 279.23 168.581C275.061 168.118 280.553 154.75 280.553 154.75" fill="url(#paint9_linear_165_7815)"/>
<path d="M265.441 159L263.546 168.517L237.646 188.783C237.646 188.783 231.517 188.51 230.424 188.733C228.716 189.082 225.303 189.961 223.774 190.792C222.445 191.514 218.856 193.861 216.794 195.329C215.973 195.912 217.106 198.634 219.042 198.031C219.662 198.979 220.579 198.902 221.119 198.783C221.688 198.658 223.349 198.096 223.349 198.096C222.921 198.816 223.29 199.965 224.37 200.148C225.189 200.287 231.055 198.72 232.798 198.251C234.445 198.783 236.006 198.728 236.505 198.734C240.724 198.784 242.387 196.426 242.387 196.426C242.389 196.425 272.513 183.423 278.072 179.601C281.876 176.985 284.325 161.231 284.325 161.231L265.441 159Z" fill="url(#paint10_linear_165_7815)"/>
<path d="M284.326 161.232C284.326 161.232 283.584 165.991 282.288 170.708C271.895 169.262 265.882 166.753 264.067 165.898L265.441 158.998L284.326 161.232Z" fill="url(#paint11_linear_165_7815)"/>
<path d="M223.657 197.865C223.657 197.865 228.786 195.781 229.514 195.45C230.242 195.119 232.111 194.954 232.111 194.954" stroke="#2D2D2D" stroke-width="0.259189" stroke-miterlimit="10" stroke-linecap="round" stroke-linejoin="round"/>
<path d="M218.96 197.865C218.96 197.865 218.488 197.046 218.588 196.724C218.687 196.402 224.295 193.275 225.04 192.927C225.784 192.58 228.018 191.935 228.762 191.711C229.507 191.488 231.616 191.215 231.616 191.215" stroke="#2D2D2D" stroke-width="0.259189" stroke-miterlimit="10" stroke-linecap="round" stroke-linejoin="round"/>
<path d="M267.45 140.788C265.441 145.355 262.625 163.489 262.625 163.489C267.975 166.338 281.034 168.018 284.955 166.956C284.955 166.956 287.65 155.281 288.743 150.495C289.387 147.674 289.883 142.178 285.813 138.754C280.301 134.115 270.119 134.72 267.45 140.788Z" fill="url(#paint12_linear_165_7815)"/>
<path d="M285.803 163.272C285.306 165.439 284.953 166.958 284.953 166.958C281.034 168.021 267.976 166.336 262.626 163.49C262.626 163.49 262.886 161.826 263.3 159.374C266.706 160.292 276.104 162.629 285.803 163.272Z" fill="white"/>
<path d="M277.482 115.661C277.249 115.997 276.986 116.284 276.735 116.59L277.649 125.669L263.298 131.078L265.521 121.99C259.109 123.865 256.103 120.396 255.427 117.047C254.176 110.819 256.53 102.337 256.53 102.337C258.053 96.9492 260.654 90.9334 270.06 92.0137C281.611 93.3392 284.122 106.121 277.482 115.661Z" fill="url(#paint13_linear_165_7815)"/>
<path d="M255.281 100.436C255.281 100.436 258.565 102.962 263.539 101.766C268.512 100.57 270.931 98.5799 270.931 98.5799C270.931 98.5799 268.567 101.362 269.172 105.057C269.482 106.953 270.441 107.804 270.441 107.804C270.441 107.804 273.18 104.365 275.355 105.929C278.608 108.268 274.415 113.907 274.415 113.907L277.192 121.113C277.192 121.113 300.309 107.319 282.067 95.2654C282.067 95.2654 286.131 88.1185 280.582 84.6226C275.033 81.1266 264.624 87.9967 264.624 87.9967C264.624 87.9967 261.943 85.3716 257.888 87.5022C253.834 89.6327 256.267 95.9351 256.267 95.9351C256.267 95.9351 251.904 93.394 251.914 95.6257C251.924 97.8578 255.281 100.436 255.281 100.436Z" fill="url(#paint14_linear_165_7815)"/>
<path d="M265.52 121.991C265.52 121.991 270.233 119.88 271.845 117.639C271.845 117.639 271.874 122.535 264.783 125.008L265.52 121.991Z" fill="url(#paint15_linear_165_7815)"/>
<path d="M188.365 126.615C188.365 126.615 191.393 125.137 191.618 124.534C194.023 118.077 197.192 110.162 198.064 108.664C197.482 106.222 197.358 104.892 196.935 102.129C196.541 99.5624 197.616 99.2581 198.29 99.5147C199.212 99.8651 199.618 101.489 199.834 102.398C200.038 102.427 200.073 102.434 200.073 102.434C200.073 102.434 201.218 97.5884 201.821 97.0622C202.351 96.5983 203.553 96.7963 203.468 97.7325C203.406 98.4027 202.098 102.979 202.098 102.979C202.098 102.979 203.846 98.2493 204.167 97.8901C204.745 97.2421 205.855 97.5884 205.696 98.6013C205.519 99.7324 203.85 103.71 203.85 103.71C203.85 103.71 206.013 99.8127 206.292 99.4737C206.679 99.002 207.747 99.3006 207.736 100.072C207.725 100.86 205.546 105.22 205.546 105.22C205.546 105.22 207.387 102.65 207.668 102.416C208.113 102.046 209.063 102.115 208.921 103.221C208.827 103.955 206.545 109.097 204.611 110.427C204.611 110.427 202.306 128.306 199.626 131.417C190.18 142.381 187.831 130.628 188.365 126.615Z" fill="url(#paint16_linear_165_7815)"/>
<path d="M197.668 133.466C189.851 140.713 187.871 130.34 188.364 126.613C188.364 126.613 191.391 125.135 191.619 124.534C191.619 124.534 195.745 126.83 197.668 133.466Z" fill="url(#paint17_linear_165_7815)"/>
<path d="M201.55 181.354C201.55 181.354 206.268 180.658 207.24 180.407C207.24 180.407 208.031 172.739 205.448 169.516L198.332 170.662" fill="url(#paint18_linear_165_7815)"/>
<path d="M203.94 180.987V180.992C202.681 181.189 201.551 181.355 201.551 181.355L198.332 170.661L200.701 170.278C201.38 171.335 203.225 174.705 203.94 180.987Z" fill="url(#paint19_linear_165_7815)"/>
<path d="M216.549 186.095C215.113 186.873 212.059 187.163 210.67 186.137C208.752 184.716 207.752 182.342 207.492 182.041C207.238 181.746 206.264 181.782 205.808 181.031C205.761 180.953 205.709 180.834 205.663 180.694L207.06 178.348L206.585 172.892V172.866C206.533 172.4 205.823 172.379 205.041 171.337C204.258 170.295 204.32 169.694 204.32 169.694C204.667 166.962 212.795 166.07 213.734 166.195C213.983 166.231 214.237 166.319 214.485 166.48L216.549 186.095Z" fill="url(#paint20_linear_165_7815)"/>
<path d="M212.74 166.221C212.847 165.833 214.182 165.713 214.441 166.043L216.596 186.575C216.54 186.916 215.018 186.827 214.884 186.647L212.74 166.221Z" fill="url(#paint21_linear_165_7815)"/>
<path d="M165.122 201.075C165.122 201.075 165.321 205.839 165.469 206.832C165.469 206.832 173.013 208.42 176.488 206.187L176.09 198.99" fill="url(#paint22_linear_165_7815)"/>
<path d="M176.26 202.039C172.123 203.682 166.996 203.138 165.203 202.873C165.156 201.867 165.12 201.074 165.12 201.074L176.089 198.99L176.26 202.039Z" fill="url(#paint23_linear_165_7815)"/>
<path d="M163.635 157.082C163.635 157.082 162.363 158.064 161.685 161.825C160.407 168.901 163.445 201.075 163.445 201.075C165.987 202.465 174.82 202.532 176.864 200.391L175.305 170.584L175.729 170.398C175.729 170.398 178.852 182.685 184.141 185.317C187.119 186.799 202.066 183.055 202.066 183.055C202.845 179.791 201.612 171.701 199.362 170.123L190.937 171.508L188.526 164.893C188.526 164.893 188.419 159.322 187.062 155.376L163.635 157.082Z" fill="url(#paint24_linear_165_7815)"/>
<path d="M158.47 124.824C155.859 123.267 149.62 111.459 149.62 111.459C149.62 111.459 149.835 109.504 149.984 107.022C150.133 104.54 148.197 103.697 146.559 101.959C144.922 100.222 143.623 100.669 143.676 101.959C143.686 102.2 143.772 102.487 143.905 102.794C143.724 102.823 143.569 102.889 143.532 103.026C143.433 103.398 144.376 108.337 144.376 108.337L144.804 108.128C144.758 108.284 144.713 108.442 144.678 108.61L140.033 110.726C140.033 110.726 141.514 113.184 143.676 113.788C144.475 116.576 146.179 124.068 150.925 131.185C153.503 135.051 162.662 138.317 162.662 138.317L165.876 128.144C165.876 128.145 161.081 126.38 158.47 124.824Z" fill="url(#paint25_linear_165_7815)"/>
<path d="M165.876 128.147L162.662 138.317C162.662 138.317 155.783 135.866 152.268 132.688C154.134 129.142 157.213 125.778 158.261 124.684C158.333 124.736 158.4 124.783 158.468 124.824C161.08 126.379 165.876 128.147 165.876 128.147Z" fill="url(#paint26_linear_165_7815)"/>
<path d="M188.021 155.374C188.141 156.526 187.497 156.864 187.497 156.864C169.039 158.934 163.34 157.845 163.34 157.845C162.674 157.839 162.383 155.975 162.189 154.906C160.73 146.86 161.961 140.738 161.961 140.738C158.198 139.515 155.506 138.286 153.125 137.008C153.441 132.547 157.067 126.48 159.023 124.994C161.444 126.282 163.83 127.205 165.85 127.58C166.837 127.763 167.797 127.795 168.516 127.698C169.567 128.065 171.079 128.392 171.079 128.392C175.112 128.463 178.493 127.742 181.778 127.296C182.639 127.508 183.57 127.519 184.663 127.246C187.196 126.613 189.304 125.329 190.844 124.753C193.823 126.671 196.513 133.416 196.513 137.598C192.565 139.881 187.601 142.141 187.601 142.141C186.727 145.898 187.704 152.392 188.021 155.374Z" fill="url(#paint27_linear_165_7815)"/>
<g opacity="0.4">
<mask id="mask0_165_7815" style="mask-type:luminance" maskUnits="userSpaceOnUse" x="153" y="124" width="44" height="35">
<path d="M188.021 155.374C188.141 156.526 187.497 156.864 187.497 156.864C169.039 158.934 163.34 157.845 163.34 157.845C162.674 157.839 162.383 155.975 162.189 154.906C160.73 146.86 161.961 140.738 161.961 140.738C158.198 139.515 155.506 138.286 153.125 137.008C153.441 132.547 157.067 126.48 159.023 124.994C161.444 126.282 163.83 127.205 165.85 127.58C166.837 127.763 167.797 127.795 168.516 127.698C169.567 128.065 171.079 128.392 171.079 128.392C175.112 128.463 178.493 127.742 181.778 127.296C182.639 127.508 183.57 127.519 184.663 127.246C187.196 126.613 189.304 125.329 190.844 124.753C193.823 126.671 196.513 133.416 196.513 137.598C192.565 139.881 187.601 142.141 187.601 142.141C186.727 145.898 187.704 152.392 188.021 155.374Z" fill="white"/>
</mask>
<g mask="url(#mask0_165_7815)">
<path d="M151.509 134.411C151.509 134.411 157.531 129.904 160.112 132.467C162.693 135.029 156.671 142.688 156.671 142.688C156.671 142.688 149.144 138.768 151.509 134.411Z" fill="url(#paint28_linear_165_7815)"/>
<path d="M159.714 147.735C159.714 147.735 161.567 145.019 167.192 145.649C172.817 146.279 172.981 152.897 174.818 154.022C176.655 155.147 180.89 154.769 181.155 159.789C181.42 164.809 156.472 162.096 156.472 162.096L159.714 147.735Z" fill="url(#paint29_linear_165_7815)"/>
<path d="M179.06 125.021C179.06 125.021 181.746 131.022 185.782 132.852C189.819 134.682 191.097 130.513 196.547 130.447C201.996 130.381 200.142 121.645 200.142 121.645L191.871 119.991L179.06 125.021Z" fill="url(#paint30_linear_165_7815)"/>
<path d="M190.156 144.294C190.156 144.294 187.395 140.654 182.257 142.176C177.12 143.698 177.534 147.178 179.436 149.389C182.735 153.228 190.95 151.486 190.95 151.486L190.156 144.294Z" fill="url(#paint31_linear_165_7815)"/>
</g>
</g>
<path d="M181.175 103.487C175.763 101.821 168.615 102.057 167.07 108.643C166.77 109.923 165.609 113.316 165.007 115.391C163.803 119.54 164.213 124.548 169.591 126.693C169.747 126.755 169.913 126.816 170.083 126.875L169.567 129.814C169.567 129.814 171.452 132.776 175.864 131.928C179.412 131.247 180.516 129.062 180.516 129.062L179.66 126.855C181.927 125.952 184.007 124.231 185.359 121.244C188.855 113.52 187.575 105.457 181.175 103.487Z" fill="url(#paint32_linear_165_7815)"/>
<path d="M165.849 127.579C165.849 127.579 161.248 143.141 164.804 159.141L168.255 158.967C168.255 158.967 164.639 144.057 168.516 127.697L165.849 127.579Z" fill="url(#paint33_linear_165_7815)"/>
<path d="M181.778 127.295C181.778 127.295 179.614 140.872 181.745 158.131H184.662C184.662 158.131 183.365 147.332 184.662 127.246L181.778 127.295Z" fill="url(#paint34_linear_165_7815)"/>
<path d="M167.069 108.643C167.069 108.643 161.915 103.762 163.554 100.949C164.712 98.9623 168.353 101.483 168.353 101.483C168.353 101.483 167.482 95.8193 170.06 94.2632C175.547 90.9518 184.258 102.617 184.258 102.617C184.258 102.617 191.071 102.323 192.067 106.182C192.959 109.64 192.689 113.651 189.733 118.039C187.648 121.133 184.959 122.047 184.959 122.047C184.959 122.047 182.544 120.653 181.33 117.354C180.219 114.334 181.307 110.212 181.307 110.212C181.307 110.212 179.94 112.394 176.079 112.079C171.504 111.706 167.911 106.506 167.911 106.506L167.069 108.643Z" fill="url(#paint35_linear_165_7815)"/>
<path d="M181.207 118.133C182.112 117.06 184.599 115.157 186.585 116.521C189.814 118.737 185.508 122.945 182.871 123.056C180.235 123.168 180.168 119.364 181.207 118.133Z" fill="url(#paint36_linear_165_7815)"/>
<path d="M170.083 126.875C170.083 126.875 172.616 127.918 176.504 127.421C176.504 127.421 174.028 129.372 169.716 128.967L170.083 126.875Z" fill="url(#paint37_linear_165_7815)"/>
<path d="M147.687 120.435L146.393 120.71L139.66 88.9827L140.955 88.708L147.687 120.435Z" fill="url(#paint38_linear_165_7815)"/>
<path d="M139.728 86.6636C139.728 86.6636 140.358 82.0242 140.802 81.4897C141.169 81.0486 148.008 79.3861 150.38 78.8201C150.678 78.749 150.933 78.9087 150.802 79.1855C149.974 80.9174 147.761 84.4341 146.889 85.5813C145.801 87.0125 142.706 89.1384 142.706 89.1384L139.728 86.6636Z" fill="url(#paint39_linear_165_7815)"/>
<path d="M142.49 88.2656C142.49 88.2656 147.13 88.8955 147.664 89.3397C148.105 89.7067 149.767 96.5452 150.333 98.9178C150.404 99.2158 150.245 99.4709 149.968 99.3392C148.237 98.5119 144.72 96.2984 143.573 95.4265C142.141 94.339 140.016 91.2432 140.016 91.2432L142.49 88.2656Z" fill="url(#paint40_linear_165_7815)"/>
<path d="M140.887 91.0262C140.887 91.0262 140.258 95.6662 139.813 96.2002C139.446 96.6413 132.608 98.3037 130.235 98.8698C129.937 98.9408 129.682 98.7812 129.814 98.5049C130.641 96.773 132.855 93.2563 133.727 92.1091C134.815 90.6779 137.91 88.552 137.91 88.552L140.887 91.0262Z" fill="url(#paint41_linear_165_7815)"/>
<path d="M138.128 89.4243C138.128 89.4243 133.488 88.7945 132.954 88.3503C132.513 87.9838 130.85 81.1448 130.285 78.7722C130.214 78.4741 130.374 78.2191 130.65 78.3507C132.382 79.1781 135.899 81.3915 137.046 82.2635C138.477 83.351 140.603 86.4468 140.603 86.4468L138.128 89.4243Z" fill="url(#paint42_linear_165_7815)"/>
<path d="M140.308 91.5585C141.806 91.5585 143.021 90.3437 143.021 88.8453C143.021 87.3468 141.806 86.1321 140.308 86.1321C138.809 86.1321 137.595 87.3468 137.595 88.8453C137.595 90.3437 138.809 91.5585 140.308 91.5585Z" fill="url(#paint43_linear_165_7815)"/>
<path d="M143.841 108.233C144.197 108.242 144.51 108.16 144.765 107.954C145.285 107.532 145.296 106.609 144.804 106.252C143.84 105.554 141.701 103.806 141.001 103.387C140.301 102.967 138.796 103.273 138.872 104.739C138.887 105.024 139.186 105.413 139.601 105.818C139.054 105.978 138.577 106.435 138.621 107.277C138.637 107.57 138.949 107.971 139.382 108.388C138.934 108.597 138.583 109.038 138.621 109.764C138.665 110.608 140.585 111.803 141.408 112.219C142.465 112.752 143.692 112.864 144.12 112.241C144.549 111.619 144.187 110.892 143.978 110.727C143.978 110.727 143.968 110.72 143.949 110.706C144.272 110.659 144.538 110.532 144.695 110.304C145.124 109.681 144.761 108.955 144.552 108.79C144.552 108.79 144.261 108.561 143.841 108.233Z" fill="url(#paint44_linear_165_7815)"/>
<path d="M139.572 108.476C139.572 108.476 142.004 110.337 143.493 110.635" stroke="#2D2D2D" stroke-width="0.259189" stroke-miterlimit="10" stroke-linecap="round" stroke-linejoin="round"/>
<path d="M139.771 105.871C139.771 105.871 141.98 107.558 143.394 108.129" stroke="#2D2D2D" stroke-width="0.259189" stroke-miterlimit="10" stroke-linecap="round" stroke-linejoin="round"/>
<path d="M141.943 100.197C141.943 100.197 140.33 100.385 140.033 101.241C139.735 102.096 140.328 102.761 140.888 103.329C141.447 103.896 142.706 104.844 143.038 104.898C143.371 104.951 144.227 104.368 143.892 103.313C143.557 102.258 142.237 100.121 141.943 100.197Z" fill="url(#paint45_linear_165_7815)"/>
<path d="M178.926 214.773C178.864 215.016 178.749 215.26 178.563 215.493H158.839C158.217 213.985 158.248 210.921 159.414 209.646C161.026 207.883 163.494 207.137 163.815 206.914C164.136 206.691 164.204 205.717 164.997 205.343C165.79 204.97 169.74 204.955 170.803 205.276C171.871 205.597 172.565 206.966 173.037 206.966C173.509 206.966 173.602 206.261 174.717 205.592C175.836 204.924 176.427 205.048 176.427 205.048C179.107 205.675 179.149 213.855 178.926 214.773Z" fill="url(#paint46_linear_165_7815)"/>
<path d="M179.004 213.783C179.379 213.93 179.358 215.27 179.004 215.494H158.358C158.025 215.403 158.273 213.897 158.465 213.783H179.004Z" fill="url(#paint47_linear_165_7815)"/>
<path d="M166.107 158.421C165.743 158.548 165.42 158.938 165.49 159.836C165.581 160.997 166.512 161.39 167.128 161.175C168.295 160.766 167.744 157.85 166.107 158.421Z" fill="url(#paint48_linear_165_7815)"/>
<path d="M182.884 157.631C182.52 157.758 182.197 158.149 182.267 159.046C182.358 160.208 183.289 160.601 183.905 160.385C185.071 159.977 184.521 157.061 182.884 157.631Z" fill="url(#paint49_linear_165_7815)"/>
<path d="M58.9363 99.6833C58.9363 99.6833 55.6374 101.185 54.5809 108.77C53.8355 114.12 56.5336 122.889 56.5336 122.889H79.8887C79.8887 122.889 82.1172 113.454 80.2873 105.137" fill="#2D2D2D"/>
<path d="M115.114 197.307C115.114 197.307 115.394 201.573 115.114 203.742C114.834 205.91 113.716 206.959 113.156 210.736C112.596 214.513 114.554 216.891 118.332 218.779C122.109 220.668 128.299 221.323 131.586 222.302C134.873 223.281 137.444 224.637 141.011 224.567C144.578 224.497 149.561 220.903 151.45 219.295C153.338 217.686 152.814 213.864 147.306 213.079C145.418 211.96 142.812 210.666 140.154 209.477C137.497 208.287 131.238 203.917 131.238 203.917L131.538 195.437" fill="url(#paint50_linear_165_7815)"/>
<mask id="mask1_165_7815" style="mask-type:luminance" maskUnits="userSpaceOnUse" x="113" y="195" width="40" height="30">
<path d="M115.114 197.307C115.114 197.307 115.394 201.573 115.114 203.742C114.834 205.91 113.716 206.959 113.156 210.736C112.596 214.513 114.554 216.891 118.332 218.779C122.109 220.668 128.299 221.323 131.586 222.302C134.873 223.281 137.444 224.637 141.011 224.567C144.578 224.497 149.561 220.903 151.45 219.295C153.338 217.686 152.814 213.864 147.306 213.079C145.418 211.96 142.812 210.666 140.154 209.477C137.497 208.287 131.238 203.917 131.238 203.917L131.538 195.437" fill="white"/>
</mask>
<g mask="url(#mask1_165_7815)">
<path d="M112.458 201.478C112.458 201.478 123.033 205.421 135.029 202.492" stroke="url(#paint51_linear_165_7815)" stroke-width="1.03676" stroke-miterlimit="10"/>
<path d="M112.458 205.99C112.458 205.99 122.958 208.913 136.776 205.796" stroke="url(#paint52_linear_165_7815)" stroke-width="1.03676" stroke-miterlimit="10"/>
<path d="M107.225 212.705C107.225 212.705 129.228 213.81 140.042 207.674" stroke="url(#paint53_linear_165_7815)" stroke-width="1.03676" stroke-miterlimit="10"/>
<path d="M152.207 213.81C152.207 213.81 143.59 221.754 133.057 224.57" stroke="url(#paint54_linear_165_7815)" stroke-width="1.03676" stroke-miterlimit="10"/>
<path d="M126.074 223.388C126.074 223.388 143.478 216.122 147.927 210.659" stroke="url(#paint55_linear_165_7815)" stroke-width="1.03676" stroke-miterlimit="10"/>
<path d="M113.853 219.952C113.853 219.952 133.622 216.798 143.704 208.913" stroke="url(#paint56_linear_165_7815)" stroke-width="1.03676" stroke-miterlimit="10"/>
</g>
<path d="M131.537 195.438L131.296 202.327C129.678 203.205 122.882 205.12 115.054 204.15C115.071 204.021 115.095 203.885 115.113 203.744C115.395 201.574 115.113 197.309 115.113 197.309L131.537 195.438Z" fill="url(#paint57_linear_165_7815)"/>
<path d="M115.535 151.2C100.383 157.32 86.3813 186.4 86.3813 186.4C86.3813 186.4 80.9388 199.6 80.2888 205.139C79.6387 210.677 79.2261 213.258 79.2261 213.258C79.2261 213.258 93.7925 215.634 100.384 210.527C103.437 208.161 109.734 198.385 113.451 193.43C113.644 196.995 113.683 200.069 113.683 200.069C120.505 202.148 129.622 202.041 133.045 200.67C133.045 200.67 134.137 174.347 134.16 164.187C134.184 153.096 124.211 147.696 115.535 151.2Z" fill="url(#paint58_linear_165_7815)"/>
<path d="M113.458 191.828C113.458 191.828 113.458 182.591 113.458 179.737C113.458 176.884 112.256 170.651 112.814 160.493" stroke="white" stroke-width="0.388784" stroke-miterlimit="10" stroke-linecap="round"/>
<path d="M108.313 146.207C108.313 146.207 110.086 151.806 111.141 156.917C112.387 162.953 109.458 169.43 103.995 166.821L97.4052 161.46L90.7041 150.667L108.313 146.207Z" fill="url(#paint59_linear_165_7815)"/>
<path d="M110.13 148.948C110.13 148.948 104.954 124.597 98.927 121.162C94.3621 118.559 70.553 117.332 70.553 117.332C70.553 117.332 64.5549 118.258 58.0228 119.917L56.9476 156.42C55.7839 156.608 54.1069 156.758 54.1069 156.758C54.1069 156.758 59.5141 182.742 59.0637 188.9C59.0637 188.9 84.4466 193.255 98.4148 184.544L96.6124 152.703C96.6124 152.703 105.624 151.801 110.13 148.948Z" fill="url(#paint60_linear_165_7815)"/>
<path d="M68.1454 166.821L67.9163 157.433L61.8093 158.334L54.9568 158.935L55.0144 151.484L39.2054 151.3C39.2054 151.3 37.6471 166.727 40.632 170.444C45.1501 176.07 62.9171 166.145 62.9171 166.145C64.6832 166.781 66.4285 167.045 68.1454 166.821Z" fill="url(#paint61_linear_165_7815)"/>
<path d="M61.5277 158.335C61.5277 158.335 52.4032 158.898 46.3579 160.325" stroke="#2D2D2D" stroke-width="0.259189" stroke-miterlimit="10" stroke-linecap="round" stroke-linejoin="round"/>
<path d="M58.0222 119.917C54.1152 120.91 50.0169 122.164 46.8968 123.64C38.5608 127.583 35.8574 155.519 35.8574 155.519C35.8574 155.519 47.1104 156.957 54.1059 156.758C54.1059 156.758 55.7828 156.607 56.9466 156.42L58.0222 119.917Z" fill="url(#paint62_linear_165_7815)"/>
<path d="M64.2448 89.8456C59.9702 95.3336 59.4887 103.796 61.2563 110.789L58.1616 124.39C58.1616 124.39 63.9441 129.722 73.5564 125.667L72.9867 119.278C74.2194 119.015 75.4941 118.546 76.7854 117.857C83.544 114.252 88.0119 105.556 88.0498 96.4544C88.0881 87.5175 70.3274 82.0357 64.2448 89.8456Z" fill="url(#paint63_linear_165_7815)"/>
<path d="M72.9873 119.278C72.9873 119.278 65.321 119.659 63.7435 110.723C63.7435 110.723 62.3729 121.987 73.3092 122.889L72.9873 119.278Z" fill="url(#paint64_linear_165_7815)"/>
<path d="M41.0004 166.321C36.9928 171.254 36.7507 179.69 38.1856 187.697C40.2508 199.225 44.0059 209.813 50.6142 212.517C57.223 215.22 74.9459 215.671 79.2266 208.574C79.2266 208.574 46.9399 173.129 41.0004 166.321Z" fill="url(#paint65_linear_165_7815)"/>
<path d="M84.7448 87.1427C84.7448 87.1427 85.4498 80.1886 76.9723 79.2576C66.2014 78.0747 63.5675 84.5518 63.5675 84.5518C63.5675 84.5518 59.6735 82.5695 56.9214 87.1427C52.6842 94.1828 60.2898 104.04 60.2898 104.04C60.2898 104.04 60.2628 98.3324 63.2669 94.8779C66.2709 91.4234 69.4998 92.7002 74.8319 93.526C80.1639 94.3518 82.5671 92.0242 82.5671 92.0242C82.5671 92.0242 82.9424 95.1034 84.0689 96.9805C85.1953 98.858 87.0729 99.9845 87.0729 99.9845C87.2662 101.421 86.6188 105.194 86.0973 106.668C86.0973 106.668 92.4049 100.961 93.7568 95.0282C95.1082 89.0949 88.9504 84.514 84.7448 87.1427Z" fill="#2D2D2D"/>
<path d="M83.6934 209.252C84.4658 210.683 84.2481 212.694 83.9992 213.918C83.8593 214.623 83.3875 215.208 82.7344 215.493H68.5619C68.3494 215.208 68.3183 214.996 68.3183 214.996C68.2613 211.393 74.1863 209.434 74.3107 208.589C74.43 207.744 73.7094 196.075 73.6524 195.225C73.5124 193.172 73.1392 187.185 73.1392 187.185H85.3263C85.3263 187.185 84.6524 194.774 84.7094 196.07C84.7664 197.366 83.6934 209.252 83.6934 209.252Z" fill="url(#paint66_linear_165_7815)"/>
<path d="M100.121 194.38C100.007 195.23 98.0577 207.298 97.8193 208.464C98.0111 208.858 98.742 209.812 99.2033 210.848C99.7269 212.01 99.2759 214.996 99.2759 214.996C99.2759 214.996 99.3018 215.218 98.9286 215.493H86.7571C86.4305 215.218 86.3787 214.996 86.3787 214.996C86.1921 211.222 88.6751 209.397 88.6751 209.397C88.6751 209.397 88.955 197.365 89.0846 194.831C89.209 192.296 89.2142 186.495 89.2142 186.495L100.183 183.717C100.183 183.717 100.919 188.672 100.121 194.38Z" fill="url(#paint67_linear_165_7815)"/>
<path d="M70.7024 171.627C70.7024 171.627 70.0265 175.607 69.8761 179.362C69.7258 183.117 71.7537 192.429 71.7537 192.429C71.7537 192.429 80.9907 192.954 85.7219 191.753L86.247 183.325L87.3367 183.004L88.4631 191.734C88.4631 191.734 98.5637 191.903 101.943 188.599C101.943 188.599 100.741 175.607 98.6389 168.698" fill="url(#paint68_linear_165_7815)"/>
<path d="M99.3648 171.431C97.1233 172.784 88.0408 177.479 70.022 177.143C70.2692 174.19 70.7042 171.625 70.7042 171.625L98.6406 168.696C98.8941 169.531 99.1351 170.455 99.3648 171.431Z" fill="url(#paint69_linear_165_7815)"/>
<path d="M61.3861 145.732C61.3861 145.732 57.2691 146.831 56.6595 147.037C50.4229 149.145 44.0303 152.243 42.5239 153.101C40.0875 152.496 38.7552 152.378 35.9995 151.91C32.9002 151.383 33.0723 152.646 33.3226 153.323C33.6642 154.248 35.3345 154.59 36.2421 154.814C36.2691 155.019 36.2758 155.051 36.2758 155.051C36.2758 155.051 31.4197 156.151 30.8878 156.748C30.4192 157.275 30.6058 158.478 31.5425 158.402C32.2133 158.347 36.802 157.081 36.802 157.081C36.802 157.081 32.0562 158.785 31.6939 159.102C31.0402 159.674 31.3766 160.787 32.3911 160.638C33.5238 160.471 37.5168 158.839 37.5168 158.839C37.5168 158.839 33.6 160.966 33.2578 161.241C32.7825 161.624 33.0712 162.695 33.8431 162.692C34.6305 162.687 39.0108 160.55 39.0108 160.55C39.0108 160.55 36.4246 162.366 36.1872 162.646C35.8134 163.086 35.8731 164.037 36.9803 163.906C37.7154 163.818 42.3875 161.664 43.7353 159.743L43.7363 159.749C43.7363 159.749 55.7954 157.634 56.9529 157.267C58.111 156.9 63.4995 155.808 65.262 154.873C67.025 153.938 65.4035 145.236 61.3861 145.732Z" fill="url(#paint70_linear_165_7815)"/>
<path opacity="0.8" d="M65.2642 154.875C63.7869 155.657 59.7487 156.554 57.8048 157.036C56.4673 153.47 55.7209 149.043 55.4824 147.446C55.8764 147.306 56.2652 147.171 56.6591 147.037C57.2708 146.829 61.3868 145.73 61.3868 145.73C65.4042 145.238 67.0267 153.936 65.2642 154.875Z" fill="url(#paint71_linear_165_7815)"/>
<path d="M96.7627 138.256C96.7627 138.256 100.82 136.952 101.444 136.796C107.83 135.193 114.882 134.339 116.612 134.246C118.334 132.419 119.378 131.585 121.455 129.714C123.385 127.976 124.228 128.707 124.384 129.413C124.598 130.375 123.463 131.606 122.822 132.285C122.909 132.472 122.923 132.506 122.923 132.506C122.923 132.506 127.602 130.803 128.372 131.017C129.051 131.207 129.545 132.32 128.716 132.762C128.122 133.078 123.578 134.497 123.578 134.497C123.578 134.497 128.491 133.362 128.968 133.433C129.827 133.56 130.147 134.678 129.213 135.101C128.17 135.574 123.929 136.362 123.929 136.362C123.929 136.362 128.374 136.031 128.81 136.078C129.417 136.143 129.754 137.2 129.102 137.614C128.438 138.037 123.597 138.609 123.597 138.609C123.597 138.609 126.755 138.737 127.105 138.844C127.659 139.012 128.122 139.844 127.12 140.333C126.455 140.657 120.904 141.571 118.732 140.685C118.732 140.685 107.904 145.239 106.732 145.557C105.56 145.875 100.437 147.872 98.4495 148.04C96.461 148.208 93.1154 140.012 96.7627 138.256Z" fill="url(#paint72_linear_165_7815)"/>
<path opacity="0.8" d="M105.869 145.834C103.966 146.477 100.11 147.897 98.4509 148.042C96.4603 148.208 93.1168 140.013 96.761 138.255C96.761 138.255 100.82 136.954 101.442 136.799C101.846 136.695 102.256 136.596 102.665 136.503C103.153 137.597 105.019 141.946 105.869 145.834Z" fill="url(#paint73_linear_165_7815)"/>
<path d="M77.9868 141.1C77.9868 141.1 68.9188 142.508 64.976 143.803C61.0333 145.099 56.0454 147.084 56.0454 147.084C56.0454 147.084 57.7255 156.476 61.7808 159.292L67.9158 157.433C67.9158 157.433 68.9748 166.22 69.3879 173.354C69.3879 173.354 85.6334 177.747 100.591 169.749C100.591 169.749 98.1517 157.108 96.8361 151.951L104.532 149.696C104.532 149.696 103.745 139.41 101.868 136.632C101.868 136.632 93.1945 137.833 80.2962 140.875" fill="url(#paint74_linear_165_7815)"/>
<mask id="mask2_165_7815" style="mask-type:luminance" maskUnits="userSpaceOnUse" x="56" y="136" width="49" height="39">
<path d="M77.9868 141.1C77.9868 141.1 68.9188 142.508 64.976 143.803C61.0333 145.099 56.0454 147.084 56.0454 147.084C56.0454 147.084 57.7255 156.476 61.7808 159.292L67.9158 157.433C67.9158 157.433 68.9748 166.22 69.3879 173.354C69.3879 173.354 85.6334 177.747 100.591 169.749C100.591 169.749 98.1517 157.108 96.8361 151.951L104.532 149.696C104.532 149.696 103.745 139.41 101.868 136.632C101.868 136.632 93.1945 137.833 80.2962 140.875" fill="white"/>
</mask>
<g mask="url(#mask2_165_7815)">
<g opacity="0.26">
<path d="M63.6873 142.339C63.6873 142.339 65.0963 152.026 54.9946 153.941" stroke="white" stroke-width="1.03676" stroke-miterlimit="10" stroke-linecap="round"/>
<path d="M90.2529 134.904C90.2529 134.904 72.4663 146.706 80.2897 179.161" stroke="white" stroke-width="1.03676" stroke-miterlimit="10" stroke-linecap="round"/>
<path d="M95.1362 136.632C95.1362 136.632 79.6382 151.463 89.1697 178.498" stroke="white" stroke-width="1.03676" stroke-miterlimit="10" stroke-linecap="round"/>
<path d="M104.533 139.261C104.533 139.261 94.4591 144.029 98.8897 156.252" stroke="white" stroke-width="1.03676" stroke-miterlimit="10" stroke-linecap="round"/>
</g>
</g>
<path d="M70.6093 135.749L70.46 140.41C70.46 140.41 65.6344 143.09 63.2685 139.654C60.9031 136.219 60.4807 119.714 74.4826 117.482C88.6167 115.229 92.2547 128.202 92.2189 133.008C92.193 136.434 86.5489 136.632 86.5489 136.632L84.2965 131.186L70.6093 135.749Z" fill="url(#paint75_linear_165_7815)"/>
<path d="M124.243 229.452H103.771C102.813 229.452 100.11 226.711 102.708 223.123C102.332 221.505 100.871 216.804 98.2592 215.163C95.6471 213.521 80.2881 205.139 80.2881 205.139L94.218 195.138C94.218 195.138 103.183 203.197 105.795 203.921C108.406 204.645 111.536 203.862 113.29 207.633C115.043 211.404 117.861 213.51 120.549 217.434C122.184 219.816 127.125 226.811 124.243 229.452Z" fill="url(#paint76_linear_165_7815)"/>
<mask id="mask3_165_7815" style="mask-type:luminance" maskUnits="userSpaceOnUse" x="80" y="195" width="46" height="35">
<path d="M124.243 229.452H103.771C102.813 229.452 100.11 226.711 102.708 223.123C102.332 221.505 100.871 216.804 98.2592 215.163C95.6471 213.521 80.2881 205.139 80.2881 205.139L94.218 195.138C94.218 195.138 103.183 203.197 105.795 203.921C108.406 204.645 111.536 203.862 113.29 207.633C115.043 211.404 117.861 213.51 120.549 217.434C122.184 219.816 127.125 226.811 124.243 229.452Z" fill="white"/>
</mask>
<g mask="url(#mask3_165_7815)">
<path d="M98.8129 197.385C98.8129 197.385 96.6668 206.322 88.9751 211.729" stroke="url(#paint77_linear_165_7815)" stroke-width="1.03676" stroke-miterlimit="10"/>
<path d="M101.404 199.526C101.404 199.526 100.027 206.341 93.7817 214.132" stroke="url(#paint78_linear_165_7815)" stroke-width="1.03676" stroke-miterlimit="10"/>
<path d="M103.713 201.816C103.713 201.816 103.62 209.026 97.1611 215.972" stroke="url(#paint79_linear_165_7815)" stroke-width="1.03676" stroke-miterlimit="10"/>
<path d="M98.5137 216.911C98.5137 216.911 107.095 211.842 109.515 203.675" stroke="url(#paint80_linear_165_7815)" stroke-width="1.03676" stroke-miterlimit="10"/>
<path d="M99.6592 217.812C99.6592 217.812 111.544 215.165 115.035 208.632" stroke="url(#paint81_linear_165_7815)" stroke-width="1.03676" stroke-miterlimit="10"/>
<path d="M100.644 220.008C100.644 220.008 113.626 219.383 120.329 213.81" stroke="url(#paint82_linear_165_7815)" stroke-width="1.03676" stroke-miterlimit="10"/>
<path d="M100.672 222.6C100.672 222.6 114.753 223.67 123.765 219.051" stroke="url(#paint83_linear_165_7815)" stroke-width="1.03676" stroke-miterlimit="10"/>
<path d="M100.672 226.317C100.672 226.317 120.667 227.105 126.806 225.247" stroke="url(#paint84_linear_165_7815)" stroke-width="1.03676" stroke-miterlimit="10"/>
</g>
<path d="M97.3651 197.874C97.0867 200.577 95.2708 206.109 92.4296 211.827C87.1058 208.862 80.2876 205.139 80.2876 205.139L94.2175 195.138C94.2175 195.138 95.5647 196.35 97.3651 197.874Z" fill="url(#paint85_linear_165_7815)"/>
<path d="M96.6676 196.992C96.6676 196.992 64.92 162.009 51.1021 162.014C46.4165 162.015 43.1621 163.66 40.9999 166.321C37.8306 175.898 45.7218 185.351 51.1021 189.988C56.8094 194.907 79.2262 208.574 79.2262 208.574L84.7459 211.728C84.7459 211.728 92.7626 206.755 96.6676 196.992Z" fill="url(#paint86_linear_165_7815)"/>
<path d="M74.9089 141.105C74.9089 141.105 74.2392 144.592 75.0997 145.944C75.9602 147.296 79.0274 147.392 81.7054 146.807C84.8877 146.113 87.8632 144.019 85.573 140.95" fill="url(#paint87_linear_165_7815)"/>
<path opacity="0.5" d="M74.9089 141.105C74.9089 141.105 74.2392 144.592 75.0997 145.944C75.9602 147.296 79.0274 147.392 81.7054 146.807C84.8877 146.113 87.8632 144.019 85.573 140.95" fill="url(#paint88_linear_165_7815)"/>
<path d="M80.2878 145.006C73.1108 145.729 69.4459 141.123 67.9224 136.105C74.1709 134.152 76.6171 128.971 76.1102 126.417C79.4895 131.974 86.4736 130.097 87.9349 129.346C89.9234 136.041 87.6176 144.264 80.2878 145.006Z" fill="url(#paint89_linear_165_7815)"/>
<path d="M74.7354 160.419C75.2382 160.01 75.8722 159.495 75.9463 159.199C76.106 158.56 74.9796 157.734 74.0501 158.1C74.6981 157.706 75.1942 157.453 75.2517 157.143C75.4109 156.284 74.3974 155.678 73.7966 155.678C72.7169 155.678 71.9217 156.252 71.1109 156.538C70.3002 156.824 67.7456 157.492 67.7456 157.492L68.1458 166.821C68.1458 166.821 71.6801 166.837 72.3794 166.614C73.0787 166.392 75.1683 165.36 75.3269 164.503C75.4855 163.644 74.8515 163.34 74.2098 163.47C75.0895 162.88 75.8142 162.291 76.1112 161.93C76.8758 161 75.5985 160.264 74.7354 160.419Z" fill="url(#paint90_linear_165_7815)"/>
<path d="M71.1305 91.1976C71.1305 91.1976 69.7226 96.0999 67.1971 98.9328C63.7789 102.767 59.183 101.878 59.183 101.878C59.183 101.878 56.4205 94.1269 64.995 89.8462C65.6036 89.5424 66.9706 89.1883 67.6481 89.2454C70.4266 89.4797 71.1305 91.1976 71.1305 91.1976Z" fill="#2D2D2D"/>
<path d="M64.9633 101.73C64.9633 99.9847 64.6818 95.4785 60.739 96.172C57.4934 96.7433 57.6692 101.758 60.2906 104.29C61.9209 105.864 64.9633 105.03 64.9633 101.73Z" fill="url(#paint91_linear_165_7815)"/>
<path d="M95.9971 161.038C95.9971 161.038 99.7144 164.248 103.995 166.82C108.67 168.697 112.444 158.165 108.417 155.677C108.417 155.677 103.376 154.729 97.4055 153.941" fill="url(#paint92_linear_165_7815)"/>
<path d="M98.2515 154.054C98.2515 154.054 104.205 154.673 108.418 155.678" stroke="#2D2D2D" stroke-width="0.259189" stroke-miterlimit="10" stroke-linecap="round" stroke-linejoin="round"/>
<path d="M98.9535 151.331C98.9535 151.331 96.8551 151.917 95.2507 151.808C93.0559 151.39 91.9652 151.249 91.0057 151.542C90.3132 151.753 89.6885 153.277 91.0016 153.904C91.0016 153.904 90.4619 153.832 89.9741 154.063C89.4345 154.32 88.9555 154.914 89.2681 155.662C89.4345 156.061 90.5946 156.266 90.5946 156.266C90.5946 156.266 90.0477 156.709 90.0405 157.215C90.0296 157.966 91.8113 158.474 91.8113 158.474C91.8113 158.474 91.267 158.752 91.3235 159.394C91.3763 159.996 93.2586 161.407 93.9045 161.794C94.5504 162.182 98.2537 162.007 98.7632 161.663C99.6331 161.078 99.1961 159.658 99.1961 159.658C99.1961 159.658 99.9254 158.702 99.9254 158.211C99.9254 157.72 99.4553 157.229 99.4553 157.229C99.4553 157.229 99.9514 156.574 99.9254 155.954C99.8995 155.334 99.2961 154.643 99.2961 154.643C99.2961 154.643 99.9514 153.629 99.8223 152.828C99.6927 152.026 98.9535 151.331 98.9535 151.331Z" fill="url(#paint93_linear_165_7815)"/>
<path d="M42.4062 179.162C42.4062 179.162 44.8753 185.401 51.1031 189.988C57.3309 194.576 72.8211 204.61 72.8211 204.61" stroke="white" stroke-width="0.388784" stroke-miterlimit="10" stroke-linecap="round"/>
<path d="M73.8626 158.166C73.8626 158.166 71.6849 159.405 70.5393 159.893C69.9406 160.149 68.9624 160.325 68.9624 160.325" stroke="#2D2D2D" stroke-width="0.259189" stroke-miterlimit="10" stroke-linecap="round" stroke-linejoin="round"/>
<path d="M74.4814 160.517C74.4814 160.517 71.9045 161.996 71.4116 162.263C70.9186 162.53 69.1587 162.741 69.1587 162.741" stroke="#2D2D2D" stroke-width="0.259189" stroke-miterlimit="10" stroke-linecap="round" stroke-linejoin="round"/>
<path d="M74.0309 163.502C74.0309 163.502 72.2005 164.544 71.6935 164.756C71.1866 164.967 69.1592 165.009 69.1592 165.009" stroke="#2D2D2D" stroke-width="0.259189" stroke-miterlimit="10" stroke-linecap="round" stroke-linejoin="round"/>
<path d="M91.3511 154.054C91.3511 154.054 93.9891 154.542 94.8335 154.617C95.6785 154.692 98.2507 154.617 98.2507 154.617" stroke="#2D2D2D" stroke-width="0.259189" stroke-miterlimit="10" stroke-linecap="round" stroke-linejoin="round"/>
<path d="M90.9468 156.25C90.9468 156.25 93.3832 156.866 94.6366 157.001C95.89 157.136 98.2497 157.207 98.2497 157.207" stroke="#2D2D2D" stroke-width="0.259189" stroke-miterlimit="10" stroke-linecap="round" stroke-linejoin="round"/>
<path d="M91.9414 158.504C91.9414 158.504 93.4919 159.18 94.5473 159.405C95.6027 159.63 98.0246 159.574 98.0246 159.574" stroke="#2D2D2D" stroke-width="0.259189" stroke-miterlimit="10" stroke-linecap="round" stroke-linejoin="round"/>
<path d="M257.109 36.3812C257.109 37.2448 257.809 37.9451 258.674 37.9451C259.538 37.9451 260.238 37.2448 260.238 36.3812C260.238 35.5165 259.538 34.8157 258.674 34.8157C257.809 34.8162 257.109 35.5165 257.109 36.3812Z" fill="white"/>
<path d="M23.8457 102.88C23.8457 103.465 24.32 103.939 24.9047 103.939C25.4895 103.939 25.9633 103.465 25.9633 102.88C25.9633 102.295 25.4895 101.822 24.9047 101.822C24.32 101.822 23.8457 102.295 23.8457 102.88Z" fill="url(#paint94_linear_165_7815)"/>
<path d="M302.721 87.1901C302.721 87.7749 303.194 88.2492 303.779 88.2492C304.364 88.2492 304.838 87.7749 304.838 87.1901C304.838 86.6054 304.364 86.1316 303.779 86.1316C303.194 86.1316 302.721 86.6054 302.721 87.1901Z" fill="url(#paint95_linear_165_7815)"/>
<path d="M333.208 63.2359C333.208 64.3074 334.076 65.1757 335.147 65.1757C336.219 65.1757 337.087 64.3069 337.087 63.2359C337.087 62.1644 336.219 61.2961 335.147 61.2961C334.076 61.2961 333.208 62.1644 333.208 63.2359Z" fill="url(#paint96_linear_165_7815)"/>
<path d="M297.355 137.709C297.355 138.297 297.831 138.774 298.42 138.774C299.008 138.774 299.484 138.297 299.484 137.709C299.484 137.121 299.008 136.645 298.42 136.645C297.832 136.645 297.355 137.121 297.355 137.709Z" fill="url(#paint97_linear_165_7815)"/>
<path d="M30.6401 53.9264C30.6401 55.2561 31.7184 56.3343 33.048 56.3343C34.3782 56.3343 35.4559 55.2561 35.4559 53.9264C35.4559 52.5968 34.3776 51.5186 33.048 51.5186C31.7184 51.5186 30.6401 52.5968 30.6401 53.9264Z" fill="white"/>
<path d="M36.5845 15.6383C36.5845 16.8612 37.5756 17.8529 38.799 17.8529C40.0218 17.8529 41.0135 16.8612 41.0135 15.6383C41.0135 14.4155 40.0224 13.4238 38.799 13.4238C37.5756 13.4238 36.5845 14.4155 36.5845 15.6383Z" fill="url(#paint98_linear_165_7815)"/>
<path d="M142.713 151.486C142.713 152.017 143.144 152.448 143.674 152.448C144.205 152.448 144.636 152.018 144.636 151.486C144.636 150.955 144.206 150.525 143.674 150.525C143.143 150.525 142.713 150.955 142.713 151.486Z" fill="url(#paint99_linear_165_7815)"/>
<path d="M64.6895 44.8981C64.6895 45.6051 65.2628 46.1785 65.9698 46.1785C66.6769 46.1785 67.2502 45.6051 67.2502 44.8981C67.2502 44.191 66.6769 43.6177 65.9698 43.6177C65.2623 43.6177 64.6895 44.191 64.6895 44.8981Z" fill="url(#paint100_linear_165_7815)"/>
<path d="M0.074707 40.4962C0.074707 41.2033 0.648034 41.7766 1.3551 41.7766C2.06217 41.7766 2.6355 41.2033 2.6355 40.4962C2.6355 39.7891 2.06217 39.2158 1.3551 39.2158C0.648034 39.2158 0.074707 39.7891 0.074707 40.4962Z" fill="url(#paint101_linear_165_7815)"/>
<path d="M210.433 1.61838C210.433 2.51206 211.158 3.23676 212.051 3.23676C212.945 3.23676 213.67 2.51206 213.67 1.61838C213.67 0.724693 212.945 0 212.051 0C211.158 0 210.433 0.724693 210.433 1.61838Z" fill="url(#paint102_linear_165_7815)"/>
<path d="M286.529 58.7457C286.529 60.1542 287.671 61.2962 289.08 61.2962C290.488 61.2962 291.63 60.1542 291.63 58.7457C291.63 57.3373 290.488 56.1953 289.08 56.1953C287.671 56.1953 286.529 57.3373 286.529 58.7457Z" fill="white"/>
<path d="M1.35513 89.5892C2.08575 89.5892 2.67803 88.9969 2.67803 88.2663C2.67803 87.5356 2.08575 86.9434 1.35513 86.9434C0.624509 86.9434 0.0322266 87.5356 0.0322266 88.2663C0.0322266 88.9969 0.624509 89.5892 1.35513 89.5892Z" fill="white"/>
<path d="M0 169.813C0 170.562 0.607022 171.169 1.35556 171.169C2.1041 171.169 2.71112 170.562 2.71112 169.813C2.71112 169.065 2.1041 168.458 1.35556 168.458C0.607022 168.458 0 169.065 0 169.813Z" fill="white"/>
<path d="M324.939 107.693C324.939 108.968 325.973 110.002 327.248 110.002C328.524 110.002 329.558 108.968 329.558 107.693C329.558 106.417 328.524 105.384 327.248 105.384C325.973 105.384 324.939 106.418 324.939 107.693Z" fill="white"/>
<path d="M148.529 166.821C148.529 168.097 149.563 169.131 150.838 169.131C152.113 169.131 153.148 168.097 153.148 166.821C153.148 165.546 152.113 164.512 150.838 164.512C149.563 164.512 148.529 165.546 148.529 166.821Z" fill="white"/>
<path d="M232.194 132.439C232.194 133.078 232.712 133.597 233.352 133.597C233.992 133.597 234.51 133.078 234.51 132.439C234.51 131.799 233.992 131.281 233.352 131.281C232.713 131.281 232.194 131.799 232.194 132.439Z" fill="white"/>
<path d="M320.321 170.277C320.321 171.553 321.355 172.587 322.631 172.587C323.906 172.587 324.94 171.553 324.94 170.277C324.94 169.002 323.906 167.968 322.631 167.968C321.355 167.968 320.321 169.002 320.321 170.277Z" fill="white"/>
<path d="M311.192 27.9215C311.923 27.9215 312.515 27.329 312.515 26.5981C312.515 25.8672 311.923 25.2747 311.192 25.2747C310.461 25.2747 309.868 25.8672 309.868 26.5981C309.868 27.329 310.461 27.9215 311.192 27.9215Z" fill="white"/>
<path d="M12.9361 105.871C5.78921 100.58 -2.92421 75.963 17.8996 69.8021C41.0125 62.9641 40.631 81.6257 31.9948 80.633C22.6671 79.561 9.49717 61.465 18.3957 46.1785C27.2941 30.8921 49.5191 30.5359 61.9996 40.496" stroke="white" stroke-width="0.518378" stroke-miterlimit="10" stroke-linecap="round"/>
<path d="M286.948 74.2909C286.948 74.2909 317.941 58.7458 333.207 83.6316C349.116 109.566 320.32 130.256 320.32 130.256" stroke="white" stroke-width="0.518378" stroke-miterlimit="10" stroke-linecap="round"/>
<defs>
<linearGradient id="paint0_linear_165_7815" x1="24.2907" y1="111.024" x2="26.1437" y2="145.965" gradientUnits="userSpaceOnUse">
<stop stop-color="#3E214C"/>
<stop offset="0.9947" stop-color="#391448"/>
</linearGradient>
<linearGradient id="paint1_linear_165_7815" x1="167.213" y1="214.905" x2="167.213" y2="195.281" gradientUnits="userSpaceOnUse">
<stop stop-color="#98723F"/>
<stop offset="1" stop-color="#D2A57A"/>
</linearGradient>
<linearGradient id="paint2_linear_165_7815" x1="184.034" y1="206.433" x2="184.034" y2="193.82" gradientUnits="userSpaceOnUse">
<stop stop-color="#98723F"/>
<stop offset="1" stop-color="#D2A57A"/>
</linearGradient>
<linearGradient id="paint3_linear_165_7815" x1="215.999" y1="170.202" x2="227.092" y2="208.192" gradientUnits="userSpaceOnUse">
<stop stop-color="#3E214C"/>
<stop offset="1" stop-color="#391448"/>
</linearGradient>
<linearGradient id="paint4_linear_165_7815" x1="239.968" y1="188.747" x2="250.823" y2="225.923" gradientUnits="userSpaceOnUse">
<stop stop-color="#3E214C"/>
<stop offset="1" stop-color="#391448"/>
</linearGradient>
<linearGradient id="paint5_linear_165_7815" x1="217.114" y1="121.932" x2="229.604" y2="164.708" gradientUnits="userSpaceOnUse">
<stop stop-color="#E8A770"/>
<stop offset="0.9947" stop-color="#D78970"/>
</linearGradient>
<linearGradient id="paint6_linear_165_7815" x1="247.303" y1="144.17" x2="251.745" y2="159.383" gradientUnits="userSpaceOnUse">
<stop stop-color="#E8A770"/>
<stop offset="0.9947" stop-color="#D78970"/>
</linearGradient>
<linearGradient id="paint7_linear_165_7815" x1="269.672" y1="119.638" x2="245.917" y2="155.467" gradientUnits="userSpaceOnUse">
<stop stop-color="#D2A57A"/>
<stop offset="0.9947" stop-color="#98723F"/>
</linearGradient>
<linearGradient id="paint8_linear_165_7815" x1="256.981" y1="132.878" x2="277.526" y2="203.239" gradientUnits="userSpaceOnUse">
<stop stop-color="#D2A57A"/>
<stop offset="0.9947" stop-color="#98723F"/>
</linearGradient>
<linearGradient id="paint9_linear_165_7815" x1="-55.4957" y1="-94.4797" x2="1592.91" y2="1138.08" gradientUnits="userSpaceOnUse">
<stop stop-color="#D2A57A"/>
<stop offset="0.9947" stop-color="#98723F"/>
</linearGradient>
<linearGradient id="paint10_linear_165_7815" x1="245.748" y1="162.717" x2="253.489" y2="189.226" gradientUnits="userSpaceOnUse">
<stop stop-color="#E8A770"/>
<stop offset="0.9947" stop-color="#D78970"/>
</linearGradient>
<linearGradient id="paint11_linear_165_7815" x1="271.993" y1="156.019" x2="276.05" y2="169.911" gradientUnits="userSpaceOnUse">
<stop stop-color="#E8A770"/>
<stop offset="0.9947" stop-color="#D78970"/>
</linearGradient>
<linearGradient id="paint12_linear_165_7815" x1="276.31" y1="133.662" x2="275.767" y2="162.212" gradientUnits="userSpaceOnUse">
<stop stop-color="#D2A57A"/>
<stop offset="0.9947" stop-color="#98723F"/>
</linearGradient>
<linearGradient id="paint13_linear_165_7815" x1="269.024" y1="92.0932" x2="266.906" y2="129.152" gradientUnits="userSpaceOnUse">
<stop stop-color="#E8A770"/>
<stop offset="0.9947" stop-color="#D78970"/>
</linearGradient>
<linearGradient id="paint14_linear_165_7815" x1="268.188" y1="118.538" x2="272.953" y2="82.0085" gradientUnits="userSpaceOnUse">
<stop stop-color="#A6714C"/>
<stop offset="0.9947" stop-color="#BD8A62"/>
</linearGradient>
<linearGradient id="paint15_linear_165_7815" x1="264.783" y1="121.323" x2="271.845" y2="121.323" gradientUnits="userSpaceOnUse">
<stop stop-color="#E8A770"/>
<stop offset="0.9947" stop-color="#D78970"/>
</linearGradient>
<linearGradient id="paint16_linear_165_7815" x1="204.826" y1="97.1581" x2="192.716" y2="132.893" gradientUnits="userSpaceOnUse">
<stop stop-color="#FFD2B6"/>
<stop offset="1" stop-color="#FFB793"/>
</linearGradient>
<linearGradient id="paint17_linear_165_7815" x1="194.572" y1="125.447" x2="191.398" y2="134.813" gradientUnits="userSpaceOnUse">
<stop stop-color="#FFD2B6"/>
<stop offset="1" stop-color="#FFB793"/>
</linearGradient>
<linearGradient id="paint18_linear_165_7815" x1="197.055" y1="175.954" x2="212.672" y2="174.696" gradientUnits="userSpaceOnUse">
<stop stop-color="#D2A57A"/>
<stop offset="0.9947" stop-color="#98723F"/>
</linearGradient>
<linearGradient id="paint19_linear_165_7815" x1="197.816" y1="176.083" x2="206.546" y2="175.38" gradientUnits="userSpaceOnUse">
<stop stop-color="#D2A57A"/>
<stop offset="0.9947" stop-color="#98723F"/>
</linearGradient>
<linearGradient id="paint20_linear_165_7815" x1="209.398" y1="168.095" x2="211.779" y2="187.485" gradientUnits="userSpaceOnUse">
<stop stop-color="#D2A57A"/>
<stop offset="0.9947" stop-color="#98723F"/>
</linearGradient>
<linearGradient id="paint21_linear_165_7815" x1="212.912" y1="176.765" x2="216.8" y2="175.868" gradientUnits="userSpaceOnUse">
<stop stop-color="#3E214C"/>
<stop offset="1" stop-color="#391448"/>
</linearGradient>
<linearGradient id="paint22_linear_165_7815" x1="166.842" y1="206.726" x2="175.484" y2="199.977" gradientUnits="userSpaceOnUse">
<stop stop-color="#D2A57A"/>
<stop offset="0.9947" stop-color="#98723F"/>
</linearGradient>
<linearGradient id="paint23_linear_165_7815" x1="167.394" y1="204.13" x2="174.577" y2="198.521" gradientUnits="userSpaceOnUse">
<stop stop-color="#D2A57A"/>
<stop offset="0.9947" stop-color="#98723F"/>
</linearGradient>
<linearGradient id="paint24_linear_165_7815" x1="183.442" y1="122.711" x2="181.324" y2="189.681" gradientUnits="userSpaceOnUse">
<stop stop-color="#3E214C"/>
<stop offset="1" stop-color="#391448"/>
</linearGradient>
<linearGradient id="paint25_linear_165_7815" x1="156.355" y1="105.288" x2="147.986" y2="140.11" gradientUnits="userSpaceOnUse">
<stop stop-color="#FFD2B6"/>
<stop offset="1" stop-color="#FFB793"/>
</linearGradient>
<linearGradient id="paint26_linear_165_7815" x1="160.186" y1="125.784" x2="157.015" y2="138.976" gradientUnits="userSpaceOnUse">
<stop stop-color="#FFD2B6"/>
<stop offset="1" stop-color="#FFB793"/>
</linearGradient>
<linearGradient id="paint27_linear_165_7815" x1="175.343" y1="159.127" x2="174.549" y2="125.972" gradientUnits="userSpaceOnUse">
<stop stop-color="#98723F"/>
<stop offset="1" stop-color="#D2A57A"/>
</linearGradient>
<linearGradient id="paint28_linear_165_7815" x1="155.901" y1="162.36" x2="155.901" y2="125.601" gradientUnits="userSpaceOnUse">
<stop stop-color="#98723F"/>
<stop offset="1" stop-color="#D2A57A"/>
</linearGradient>
<linearGradient id="paint29_linear_165_7815" x1="168.814" y1="162.36" x2="168.814" y2="125.601" gradientUnits="userSpaceOnUse">
<stop stop-color="#98723F"/>
<stop offset="1" stop-color="#D2A57A"/>
</linearGradient>
<linearGradient id="paint30_linear_165_7815" x1="189.753" y1="161.616" x2="189.753" y2="124.857" gradientUnits="userSpaceOnUse">
<stop stop-color="#98723F"/>
<stop offset="1" stop-color="#D2A57A"/>
</linearGradient>
<linearGradient id="paint31_linear_165_7815" x1="184.539" y1="162.36" x2="184.539" y2="125.601" gradientUnits="userSpaceOnUse">
<stop stop-color="#98723F"/>
<stop offset="1" stop-color="#D2A57A"/>
</linearGradient>
<linearGradient id="paint32_linear_165_7815" x1="178.73" y1="104.402" x2="171.046" y2="136.371" gradientUnits="userSpaceOnUse">
<stop stop-color="#FFD2B6"/>
<stop offset="1" stop-color="#FFB793"/>
</linearGradient>
<linearGradient id="paint33_linear_165_7815" x1="166.799" y1="122.185" x2="164.681" y2="189.155" gradientUnits="userSpaceOnUse">
<stop stop-color="#3E214C"/>
<stop offset="1" stop-color="#391448"/>
</linearGradient>
<linearGradient id="paint34_linear_165_7815" x1="183.576" y1="122.715" x2="181.459" y2="189.685" gradientUnits="userSpaceOnUse">
<stop stop-color="#3E214C"/>
<stop offset="1" stop-color="#391448"/>
</linearGradient>
<linearGradient id="paint35_linear_165_7815" x1="175.931" y1="76.5977" x2="178.425" y2="114.012" gradientUnits="userSpaceOnUse">
<stop stop-color="#8A4447"/>
<stop offset="0.9947" stop-color="#6E373D"/>
</linearGradient>
<linearGradient id="paint36_linear_165_7815" x1="187.266" y1="106.334" x2="179.417" y2="138.99" gradientUnits="userSpaceOnUse">
<stop stop-color="#FFD2B6"/>
<stop offset="1" stop-color="#FFB793"/>
</linearGradient>
<linearGradient id="paint37_linear_165_7815" x1="173.37" y1="126.829" x2="172.569" y2="130.162" gradientUnits="userSpaceOnUse">
<stop stop-color="#FFD2B6"/>
<stop offset="1" stop-color="#FFB793"/>
</linearGradient>
<linearGradient id="paint38_linear_165_7815" x1="144.057" y1="90.4051" x2="143.111" y2="125.727" gradientUnits="userSpaceOnUse">
<stop stop-color="#8A4447"/>
<stop offset="0.9947" stop-color="#6E373D"/>
</linearGradient>
<linearGradient id="paint39_linear_165_7815" x1="148.185" y1="78.878" x2="141.137" y2="86.4716" gradientUnits="userSpaceOnUse">
<stop stop-color="#3E214C"/>
<stop offset="0.9947" stop-color="#391448"/>
</linearGradient>
<linearGradient id="paint40_linear_165_7815" x1="150.84" y1="97.7783" x2="142.75" y2="89.4897" gradientUnits="userSpaceOnUse">
<stop stop-color="#3E214C"/>
<stop offset="0.9947" stop-color="#391448"/>
</linearGradient>
<linearGradient id="paint41_linear_165_7815" x1="131.049" y1="98.4427" x2="139.884" y2="91.5438" gradientUnits="userSpaceOnUse">
<stop stop-color="#3E214C"/>
<stop offset="0.9947" stop-color="#391448"/>
</linearGradient>
<linearGradient id="paint42_linear_165_7815" x1="131.43" y1="80.3558" x2="136.839" y2="87.4531" gradientUnits="userSpaceOnUse">
<stop stop-color="#3E214C"/>
<stop offset="0.9947" stop-color="#391448"/>
</linearGradient>
<linearGradient id="paint43_linear_165_7815" x1="141.357" y1="91.6253" x2="139.644" y2="87.084" gradientUnits="userSpaceOnUse">
<stop stop-color="#98723F"/>
<stop offset="1" stop-color="#D2A57A"/>
</linearGradient>
<linearGradient id="paint44_linear_165_7815" x1="137.595" y1="104.973" x2="144.18" y2="110.234" gradientUnits="userSpaceOnUse">
<stop stop-color="#FFD2B6"/>
<stop offset="1" stop-color="#FFB793"/>
</linearGradient>
<linearGradient id="paint45_linear_165_7815" x1="140.648" y1="101.153" x2="147.232" y2="106.414" gradientUnits="userSpaceOnUse">
<stop stop-color="#FFD2B6"/>
<stop offset="1" stop-color="#FFB793"/>
</linearGradient>
<linearGradient id="paint46_linear_165_7815" x1="167.873" y1="205.758" x2="169.241" y2="216.89" gradientUnits="userSpaceOnUse">
<stop stop-color="#D2A57A"/>
<stop offset="0.9947" stop-color="#98723F"/>
</linearGradient>
<linearGradient id="paint47_linear_165_7815" x1="168.499" y1="212.853" x2="168.986" y2="216.814" gradientUnits="userSpaceOnUse">
<stop stop-color="#3E214C"/>
<stop offset="1" stop-color="#391448"/>
</linearGradient>
<linearGradient id="paint48_linear_165_7815" x1="167.08" y1="156.44" x2="166.527" y2="160.431" gradientUnits="userSpaceOnUse">
<stop stop-color="#98723F"/>
<stop offset="1" stop-color="#D2A57A"/>
</linearGradient>
<linearGradient id="paint49_linear_165_7815" x1="183.857" y1="155.651" x2="183.304" y2="159.642" gradientUnits="userSpaceOnUse">
<stop stop-color="#98723F"/>
<stop offset="1" stop-color="#D2A57A"/>
</linearGradient>
<linearGradient id="paint50_linear_165_7815" x1="135.244" y1="197.341" x2="131.339" y2="223.926" gradientUnits="userSpaceOnUse">
<stop stop-color="#D2A57A"/>
<stop offset="0.9947" stop-color="#98723F"/>
</linearGradient>
<linearGradient id="paint51_linear_165_7815" x1="112.277" y1="202.543" x2="135.153" y2="202.543" gradientUnits="userSpaceOnUse">
<stop stop-color="#D2A57A"/>
<stop offset="0.9947" stop-color="#98723F"/>
</linearGradient>
<linearGradient id="paint52_linear_165_7815" x1="112.319" y1="206.521" x2="136.89" y2="206.521" gradientUnits="userSpaceOnUse">
<stop stop-color="#D2A57A"/>
<stop offset="0.9947" stop-color="#98723F"/>
</linearGradient>
<linearGradient id="paint53_linear_165_7815" x1="107.198" y1="210.262" x2="140.298" y2="210.262" gradientUnits="userSpaceOnUse">
<stop stop-color="#D2A57A"/>
<stop offset="0.9947" stop-color="#98723F"/>
</linearGradient>
<linearGradient id="paint54_linear_165_7815" x1="132.923" y1="219.25" x2="152.558" y2="219.25" gradientUnits="userSpaceOnUse">
<stop stop-color="#D2A57A"/>
<stop offset="0.9947" stop-color="#98723F"/>
</linearGradient>
<linearGradient id="paint55_linear_165_7815" x1="125.875" y1="217.099" x2="148.329" y2="217.099" gradientUnits="userSpaceOnUse">
<stop stop-color="#D2A57A"/>
<stop offset="0.9947" stop-color="#98723F"/>
</linearGradient>
<linearGradient id="paint56_linear_165_7815" x1="113.771" y1="214.484" x2="144.023" y2="214.484" gradientUnits="userSpaceOnUse">
<stop stop-color="#D2A57A"/>
<stop offset="0.9947" stop-color="#98723F"/>
</linearGradient>
<linearGradient id="paint57_linear_165_7815" x1="123.932" y1="194.863" x2="122.375" y2="205.462" gradientUnits="userSpaceOnUse">
<stop stop-color="#D2A57A"/>
<stop offset="0.9947" stop-color="#98723F"/>
</linearGradient>
<linearGradient id="paint58_linear_165_7815" x1="124.655" y1="153.153" x2="102.069" y2="213.984" gradientUnits="userSpaceOnUse">
<stop stop-color="#3E214C"/>
<stop offset="1" stop-color="#391448"/>
</linearGradient>
<linearGradient id="paint59_linear_165_7815" x1="90.7042" y1="156.811" x2="111.426" y2="156.811" gradientUnits="userSpaceOnUse">
<stop stop-color="#E8A770"/>
<stop offset="0.9947" stop-color="#D78970"/>
</linearGradient>
<linearGradient id="paint60_linear_165_7815" x1="79.6996" y1="119.141" x2="83.3043" y2="169.382" gradientUnits="userSpaceOnUse">
<stop stop-color="#D2A57A"/>
<stop offset="0.9947" stop-color="#98723F"/>
</linearGradient>
<linearGradient id="paint61_linear_165_7815" x1="53.1458" y1="150.936" x2="53.8217" y2="176.845" gradientUnits="userSpaceOnUse">
<stop stop-color="#E8A770"/>
<stop offset="0.9947" stop-color="#D78970"/>
</linearGradient>
<linearGradient id="paint62_linear_165_7815" x1="45.7815" y1="121.575" x2="49.3861" y2="171.815" gradientUnits="userSpaceOnUse">
<stop stop-color="#D2A57A"/>
<stop offset="0.9947" stop-color="#98723F"/>
</linearGradient>
<linearGradient id="paint63_linear_165_7815" x1="76.8632" y1="91.8049" x2="64.4722" y2="128.753" gradientUnits="userSpaceOnUse">
<stop stop-color="#E8A770"/>
<stop offset="0.9947" stop-color="#D78970"/>
</linearGradient>
<linearGradient id="paint64_linear_165_7815" x1="63.6884" y1="116.806" x2="73.309" y2="116.806" gradientUnits="userSpaceOnUse">
<stop stop-color="#E8A770"/>
<stop offset="0.9947" stop-color="#D78970"/>
</linearGradient>
<linearGradient id="paint65_linear_165_7815" x1="37.3848" y1="190.332" x2="95.5612" y2="190.332" gradientUnits="userSpaceOnUse">
<stop stop-color="#3E214C"/>
<stop offset="1" stop-color="#391448"/>
</linearGradient>
<linearGradient id="paint66_linear_165_7815" x1="76.822" y1="184.344" x2="76.822" y2="211.099" gradientUnits="userSpaceOnUse">
<stop stop-color="#FFD2B6"/>
<stop offset="1" stop-color="#FFB793"/>
</linearGradient>
<linearGradient id="paint67_linear_165_7815" x1="93.4306" y1="184.403" x2="93.4306" y2="211.107" gradientUnits="userSpaceOnUse">
<stop stop-color="#FFD2B6"/>
<stop offset="1" stop-color="#FFB793"/>
</linearGradient>
<linearGradient id="paint68_linear_165_7815" x1="83.4911" y1="171.836" x2="87.9969" y2="193.764" gradientUnits="userSpaceOnUse">
<stop stop-color="#98723F"/>
<stop offset="1" stop-color="#D2A57A"/>
</linearGradient>
<linearGradient id="paint69_linear_165_7815" x1="83.7717" y1="169.802" x2="85.1408" y2="176.465" gradientUnits="userSpaceOnUse">
<stop stop-color="#98723F"/>
<stop offset="1" stop-color="#D2A57A"/>
</linearGradient>
<linearGradient id="paint70_linear_165_7815" x1="47.0838" y1="148.99" x2="49.4878" y2="160.217" gradientUnits="userSpaceOnUse">
<stop stop-color="#FFD2B6"/>
<stop offset="1" stop-color="#FFB793"/>
</linearGradient>
<linearGradient id="paint71_linear_165_7815" x1="59.5469" y1="146.348" x2="62.1149" y2="155.142" gradientUnits="userSpaceOnUse">
<stop stop-color="#FFD2B6"/>
<stop offset="1" stop-color="#FFB793"/>
</linearGradient>
<linearGradient id="paint72_linear_165_7815" x1="110.554" y1="133.257" x2="114.606" y2="143.998" gradientUnits="userSpaceOnUse">
<stop stop-color="#FFD2B6"/>
<stop offset="1" stop-color="#FFB793"/>
</linearGradient>
<linearGradient id="paint73_linear_165_7815" x1="98.6504" y1="137.769" x2="101.22" y2="146.569" gradientUnits="userSpaceOnUse">
<stop stop-color="#FFD2B6"/>
<stop offset="1" stop-color="#FFB793"/>
</linearGradient>
<linearGradient id="paint74_linear_165_7815" x1="79.0469" y1="140.758" x2="85.0383" y2="171.164" gradientUnits="userSpaceOnUse">
<stop stop-color="#3E214C"/>
<stop offset="0.9947" stop-color="#391448"/>
</linearGradient>
<linearGradient id="paint75_linear_165_7815" x1="72.6506" y1="118.222" x2="78.2909" y2="137.538" gradientUnits="userSpaceOnUse">
<stop stop-color="#8A4447"/>
<stop offset="0.9947" stop-color="#6E373D"/>
</linearGradient>
<linearGradient id="paint76_linear_165_7815" x1="80.2879" y1="212.295" x2="125.128" y2="212.295" gradientUnits="userSpaceOnUse">
<stop stop-color="#D2A57A"/>
<stop offset="0.9947" stop-color="#98723F"/>
</linearGradient>
<linearGradient id="paint77_linear_165_7815" x1="88.6771" y1="204.709" x2="99.3171" y2="204.709" gradientUnits="userSpaceOnUse">
<stop stop-color="#D2A57A"/>
<stop offset="0.9947" stop-color="#98723F"/>
</linearGradient>
<linearGradient id="paint78_linear_165_7815" x1="93.3772" y1="206.94" x2="101.912" y2="206.94" gradientUnits="userSpaceOnUse">
<stop stop-color="#D2A57A"/>
<stop offset="0.9947" stop-color="#98723F"/>
</linearGradient>
<linearGradient id="paint79_linear_165_7815" x1="96.7815" y1="209.067" x2="104.232" y2="209.067" gradientUnits="userSpaceOnUse">
<stop stop-color="#D2A57A"/>
<stop offset="0.9947" stop-color="#98723F"/>
</linearGradient>
<linearGradient id="paint80_linear_165_7815" x1="98.2499" y1="210.442" x2="110.012" y2="210.442" gradientUnits="userSpaceOnUse">
<stop stop-color="#D2A57A"/>
<stop offset="0.9947" stop-color="#98723F"/>
</linearGradient>
<linearGradient id="paint81_linear_165_7815" x1="99.5464" y1="213.353" x2="115.493" y2="213.353" gradientUnits="userSpaceOnUse">
<stop stop-color="#D2A57A"/>
<stop offset="0.9947" stop-color="#98723F"/>
</linearGradient>
<linearGradient id="paint82_linear_165_7815" x1="100.619" y1="216.969" x2="120.661" y2="216.969" gradientUnits="userSpaceOnUse">
<stop stop-color="#D2A57A"/>
<stop offset="0.9947" stop-color="#98723F"/>
</linearGradient>
<linearGradient id="paint83_linear_165_7815" x1="100.633" y1="220.908" x2="124.001" y2="220.908" gradientUnits="userSpaceOnUse">
<stop stop-color="#D2A57A"/>
<stop offset="0.9947" stop-color="#98723F"/>
</linearGradient>
<linearGradient id="paint84_linear_165_7815" x1="100.652" y1="225.876" x2="126.956" y2="225.876" gradientUnits="userSpaceOnUse">
<stop stop-color="#D2A57A"/>
<stop offset="0.9947" stop-color="#98723F"/>
</linearGradient>
<linearGradient id="paint85_linear_165_7815" x1="92.8908" y1="195.306" x2="86.3573" y2="208.486" gradientUnits="userSpaceOnUse">
<stop stop-color="#D2A57A"/>
<stop offset="0.9947" stop-color="#98723F"/>
</linearGradient>
<linearGradient id="paint86_linear_165_7815" x1="37.3253" y1="186.871" x2="96.6674" y2="186.871" gradientUnits="userSpaceOnUse">
<stop stop-color="#3E214C"/>
<stop offset="1" stop-color="#391448"/>
</linearGradient>
<linearGradient id="paint87_linear_165_7815" x1="77.9638" y1="136.401" x2="80.3575" y2="143.244" gradientUnits="userSpaceOnUse">
<stop stop-color="#FFD2B6"/>
<stop offset="1" stop-color="#FFB793"/>
</linearGradient>
<linearGradient id="paint88_linear_165_7815" x1="77.9638" y1="136.401" x2="80.3575" y2="143.244" gradientUnits="userSpaceOnUse">
<stop stop-color="#FFD2B6"/>
<stop offset="1" stop-color="#FFB793"/>
</linearGradient>
<linearGradient id="paint89_linear_165_7815" x1="76.6534" y1="126.939" x2="80.3983" y2="143.674" gradientUnits="userSpaceOnUse">
<stop stop-color="#FFD2B6"/>
<stop offset="1" stop-color="#FFB793"/>
</linearGradient>
<linearGradient id="paint90_linear_165_7815" x1="71.811" y1="150.434" x2="72.4869" y2="176.343" gradientUnits="userSpaceOnUse">
<stop stop-color="#E8A770"/>
<stop offset="0.9947" stop-color="#D78970"/>
</linearGradient>
<linearGradient id="paint91_linear_165_7815" x1="65.8144" y1="88.1909" x2="53.5451" y2="124.776" gradientUnits="userSpaceOnUse">
<stop stop-color="#E8A770"/>
<stop offset="0.9947" stop-color="#D78970"/>
</linearGradient>
<linearGradient id="paint92_linear_165_7815" x1="95.9973" y1="160.492" x2="110.121" y2="160.492" gradientUnits="userSpaceOnUse">
<stop stop-color="#E8A770"/>
<stop offset="0.9947" stop-color="#D78970"/>
</linearGradient>
<linearGradient id="paint93_linear_165_7815" x1="89.1695" y1="156.673" x2="99.9265" y2="156.673" gradientUnits="userSpaceOnUse">
<stop stop-color="#E8A770"/>
<stop offset="0.9947" stop-color="#D78970"/>
</linearGradient>
<linearGradient id="paint94_linear_165_7815" x1="246.97" y1="-63.1642" x2="-20.7799" y2="137.04" gradientUnits="userSpaceOnUse">
<stop stop-color="#98723F"/>
<stop offset="1" stop-color="#D2A57A"/>
</linearGradient>
<linearGradient id="paint95_linear_165_7815" x1="359.054" y1="45.8604" x2="91.2982" y2="246.069" gradientUnits="userSpaceOnUse">
<stop stop-color="#98723F"/>
<stop offset="1" stop-color="#D2A57A"/>
</linearGradient>
<linearGradient id="paint96_linear_165_7815" x1="436.411" y1="-12.4812" x2="-54.122" y2="354.305" gradientUnits="userSpaceOnUse">
<stop stop-color="#98723F"/>
<stop offset="1" stop-color="#D2A57A"/>
</linearGradient>
<linearGradient id="paint97_linear_165_7815" x1="353.996" y1="96.1531" x2="84.7765" y2="297.454" gradientUnits="userSpaceOnUse">
<stop stop-color="#98723F"/>
<stop offset="1" stop-color="#D2A57A"/>
</linearGradient>
<linearGradient id="paint98_linear_165_7815" x1="225.303" y1="-123.816" x2="-42.4505" y2="76.3907" gradientUnits="userSpaceOnUse">
<stop stop-color="#98723F"/>
<stop offset="1" stop-color="#D2A57A"/>
</linearGradient>
<linearGradient id="paint99_linear_165_7815" x1="273.195" y1="54.6405" x2="5.44208" y2="254.847" gradientUnits="userSpaceOnUse">
<stop stop-color="#98723F"/>
<stop offset="1" stop-color="#D2A57A"/>
</linearGradient>
<linearGradient id="paint100_linear_165_7815" x1="212.358" y1="-64.5611" x2="-55.3947" y2="135.645" gradientUnits="userSpaceOnUse">
<stop stop-color="#98723F"/>
<stop offset="1" stop-color="#D2A57A"/>
</linearGradient>
<linearGradient id="paint101_linear_165_7815" x1="147.744" y1="-68.9627" x2="-120.008" y2="131.244" gradientUnits="userSpaceOnUse">
<stop stop-color="#98723F"/>
<stop offset="1" stop-color="#D2A57A"/>
</linearGradient>
<linearGradient id="paint102_linear_165_7815" x1="328.228" y1="-85.2501" x2="60.474" y2="114.958" gradientUnits="userSpaceOnUse">
<stop stop-color="#98723F"/>
<stop offset="1" stop-color="#D2A57A"/>
</linearGradient>
</defs>
</svg>
