<svg width="360" height="209" viewBox="0 0 360 209" fill="none" xmlns="http://www.w3.org/2000/svg">
<path d="M13.8167 144.098C13.8167 166.133 20.2907 186.656 31.4383 203.869H291.883C323.29 184.474 344.221 149.739 344.221 110.114C344.221 64.7832 316.83 25.8509 277.695 8.96453C277.46 8.86253 277.223 8.76195 276.987 8.66137C263.808 3.08404 249.317 0 234.106 0C201.144 0 171.566 14.4838 151.386 37.4334C142.61 35.1824 133.41 33.9839 123.931 33.9839C63.1173 33.9839 13.8167 83.2831 13.8167 144.098Z" fill="#D2A57A" fill-opacity="0.3"/>
<path opacity="0.6" d="M112.555 98.7667C112.555 98.7667 93.9142 123.388 63.8489 116.774C63.8489 116.774 63.851 182.217 107.521 207.56H117.588C161.258 182.217 161.26 116.774 161.26 116.774C131.195 123.388 112.555 98.7667 112.555 98.7667Z" fill="#BEC9ED"/>
<path d="M374 206.136C374 206.836 373.731 207.469 373.299 207.927C372.866 208.386 372.267 208.669 371.606 208.669H-0.606437C-1.92845 208.669 -3 207.536 -3 206.136C-3 205.436 -2.7314 204.802 -2.29933 204.343C-1.86583 203.884 -1.26744 203.601 -0.606437 203.601H371.607C372.928 203.601 374 204.736 374 206.136Z" fill="#2A1E68"/>
<path d="M188.925 42.1945C188.925 39.98 187.818 38.8728 185.604 38.8728C187.818 38.8728 188.925 37.7655 188.925 35.551C188.925 37.7655 190.033 38.8728 192.247 38.8728C190.033 38.8728 188.925 39.98 188.925 42.1945Z" fill="white"/>
<path d="M235.823 40.6371V194.278C235.823 199.406 231.665 203.563 226.536 203.563H158.618C153.489 203.563 149.331 199.406 149.331 194.276V40.6371C149.331 35.5075 153.489 31.3501 158.618 31.3501H226.536C231.665 31.3501 235.823 35.5091 235.823 40.6371Z" fill="#2A1E68"/>
<path d="M243.446 40.6371V194.278C243.446 199.406 239.288 203.563 234.159 203.563H166.243C161.113 203.563 156.954 199.406 156.954 194.276V40.6371C156.954 35.5075 161.113 31.3501 166.243 31.3501H234.159C239.288 31.3501 243.446 35.5091 243.446 40.6371Z" fill="#391448"/>
<path opacity="0.6" d="M228.85 45.0822V198.723C228.85 203.851 224.692 208.009 219.562 208.009H151.647C146.517 208.009 142.358 203.851 142.358 198.722V45.0822C142.358 39.9527 146.517 35.7953 151.647 35.7953H219.563C224.692 35.7951 228.85 39.9543 228.85 45.0822Z" fill="#D2A57A"/>
<path d="M166.242 33.2999L234.159 33.3005C238.205 33.3005 241.496 36.5919 241.496 40.6376V194.278C241.496 198.323 238.205 201.615 234.159 201.615L166.242 201.614C162.196 201.614 158.905 198.323 158.905 194.277V40.6369C158.904 36.5912 162.196 33.2999 166.242 33.2999Z" fill="white"/>
<path d="M166.242 33.2999L234.159 33.3005C238.205 33.3005 241.496 36.5919 241.496 40.6376V194.278C241.496 198.323 238.205 201.615 234.159 201.615L166.242 201.614C162.196 201.614 158.905 198.323 158.905 194.277V40.6369C158.904 36.5912 162.196 33.2999 166.242 33.2999Z" fill="white"/>
<path d="M190.562 41.1853H209.838C210.623 41.1853 211.259 40.5491 211.259 39.7643C211.259 38.9795 210.623 38.3433 209.838 38.3433H190.562C189.778 38.3433 189.141 38.9795 189.141 39.7643C189.141 40.5491 189.778 41.1853 190.562 41.1853Z" fill="#391448"/>
<path d="M333.45 142.305C332.96 141.803 332.444 141.422 331.912 141.141L331.914 141.141C331.914 141.141 328.907 138.412 325.099 139.401C322.194 140.156 321.441 143.262 321.246 144.693C319.775 145.44 316.164 147.696 312.928 153.065C312.851 153.193 312.776 153.325 312.7 153.456C312.517 153.561 312.333 153.669 312.146 153.784C312.122 154.046 312.111 154.284 312.114 154.503C310.267 157.972 308.917 162.043 308.089 166.637C308.07 166.624 308.051 166.61 308.032 166.597C307.995 165.123 307.96 163.593 307.93 162.005C307.677 148.93 308.633 143.578 309.394 141.4C309.738 141.603 310.105 141.793 310.496 141.965C316.358 144.544 317.078 146.343 317.078 146.343C317.078 146.343 320.106 143.704 319.087 136.957C318.067 130.21 310.721 132.279 309.671 134.618C304.577 133.042 304.578 138.237 308.985 141.145C308.14 143.46 307.209 148.959 307.462 162.015C307.49 163.499 307.522 164.933 307.557 166.318C307.508 166.294 307.458 166.271 307.407 166.248C307.05 163.31 306.678 160.812 306.311 158.696C306.598 157.389 306.318 156.053 305.623 155.099C305.504 154.539 305.387 154.018 305.274 153.536C304.447 150.027 303.68 148.019 303.15 146.914C303.252 146.39 304.586 138.787 296.537 137.947C291.344 137.405 287.769 141.18 285.811 144.104C283.634 146.347 283.274 148.782 283.274 148.782C291.131 142.94 300.067 145.739 302.502 146.677C303.002 147.606 303.892 149.664 304.856 153.806C304.904 154.01 304.952 154.222 305.001 154.44C303.728 153.411 301.708 153.364 299.375 155.464C299.095 154.662 298.184 152.61 296.028 152.011C293.406 151.282 288.58 153.44 290.832 162.713C289.482 162.723 288.442 162.963 287.904 163.121C287.484 162.155 286.211 160.167 282.994 160.836C278.796 161.71 277.556 171.651 277.556 171.651C280.795 164.455 288.081 163.615 288.081 163.615C288.081 163.615 288.066 163.554 288.032 163.451C288.567 163.3 289.598 163.069 290.92 163.067C290.961 163.228 291.004 163.39 291.05 163.555C292.459 167.723 294.888 170.272 294.888 170.272C294.888 170.272 296.118 168.242 298.504 165.938C299.845 167.063 301.197 168.615 302.449 170.75C302.423 171.53 302.458 172.36 302.545 173.2C302.167 173.003 301.777 172.845 301.376 172.728C298.478 171.881 295.801 173.432 294.712 174.199C294.622 173.622 294.222 172.724 292.589 172.759C290.19 172.811 287.631 177.809 287.631 183.386C287.631 183.386 292.189 180.927 296.047 179.588C299.421 178.417 298.255 174.234 295.209 174.285C296.387 173.516 298.753 172.325 301.28 173.066C301.733 173.199 302.171 173.387 302.594 173.628C302.904 176.138 303.652 178.679 304.544 180.187C304.544 180.187 305.423 179.524 306.666 178.457C306.821 178.768 306.971 179.094 307.118 179.431C307.158 182.841 307.399 186.435 307.85 190.203H303.304C303.304 202.197 305.823 203.596 306.982 203.596C308.142 203.596 309.381 203.596 309.381 203.596C309.381 203.596 310.621 203.596 311.78 203.596C312.94 203.596 315.458 202.197 315.458 190.203H310.114C310.368 182.347 312.509 176.848 316.483 173.843C318.587 175.858 322.495 177.109 322.495 177.109C322.495 177.109 323.915 173.831 323.722 171.326C325.369 171.233 326.796 171.403 327.726 171.568C327.734 171.816 327.854 172.062 328.086 172.217C329.595 173.22 332.27 175.64 332.987 180.487C332.987 180.487 334.698 166.769 328.099 170.864C327.953 170.955 327.851 171.082 327.791 171.224C326.835 171.054 325.372 170.881 323.684 170.978C323.548 170.041 323.151 169.248 322.315 168.833C319.992 167.678 318.725 169.166 318.236 169.982C316.995 169.086 315.905 169.165 315.418 170.252C314.862 171.494 315.327 172.624 316.234 173.592C312.193 176.671 310.017 182.254 309.763 190.203H309.381H309.222C309.134 188.091 309.036 186.081 308.928 184.166C309.236 180.905 309.554 178.018 309.875 175.464C310.774 174.545 311.666 173.549 312.44 172.531C314.552 169.752 313.216 167.872 311.058 167.433C312.138 161.226 313.116 158.385 313.632 157.201C314.503 157.926 315.78 158.82 317.556 160.36C321.849 164.082 330.212 166.936 330.212 166.936C330.212 166.936 327.599 145.758 313.511 153.013C316.423 148.31 319.657 146.107 321.187 145.263C321.181 145.365 321.179 145.423 321.179 145.423C321.179 145.423 332.451 141.945 337.568 154.859C337.568 154.859 338.168 147.142 333.45 142.305ZM308.61 190.203H308.407C308.444 189.738 308.481 189.28 308.518 188.828C308.549 189.315 308.581 189.774 308.61 190.203ZM307.592 177.644C307.699 177.548 307.808 177.45 307.918 177.349C307.969 178.595 308.022 179.775 308.075 180.89C307.919 180.461 307.759 180.048 307.594 179.652C307.585 178.969 307.585 178.3 307.592 177.644ZM306.914 166.073C306.59 165.985 306.231 165.939 305.839 165.954C305.089 164.038 304.424 162.764 303.909 161.935C304.924 161.321 305.603 160.512 305.997 159.642C306.304 161.497 306.614 163.63 306.914 166.073ZM298.76 165.693C300.034 164.495 301.617 163.242 303.498 162.173C303.986 162.958 304.626 164.173 305.352 166.005C305.047 166.055 304.725 166.14 304.383 166.274C303.213 166.732 302.64 168.233 302.485 170.126C301.296 168.195 300.024 166.759 298.76 165.693ZM307.114 178.068C307.113 178.237 307.112 178.405 307.112 178.575C307.055 178.455 306.997 178.337 306.939 178.221C306.997 178.171 307.055 178.12 307.114 178.068ZM308.136 182.154C308.214 183.721 308.293 185.146 308.368 186.427C308.3 187.207 308.232 188.008 308.165 188.828C307.852 185.914 307.675 183.193 307.613 180.65C307.794 181.13 307.968 181.631 308.136 182.154ZM308.444 176.863C308.778 176.549 309.119 176.221 309.462 175.88C309.237 177.714 309.013 179.715 308.794 181.898C308.684 180.134 308.567 178.457 308.444 176.863ZM310.694 167.373C310.139 167.304 309.543 167.325 308.944 167.445C308.836 167.311 308.695 167.154 308.522 166.992C309.389 162.037 310.761 158.22 312.217 155.327C312.38 155.949 312.743 156.417 313.345 156.954C312.811 158.114 311.805 160.948 310.694 167.373Z" fill="#391448"/>
<path d="M169.632 112.897L177.404 110.129H169.713C148.781 114.734 133.387 104.198 125.966 97.3724L128.698 92.1217H121.007C121.007 92.1217 105.513 112.586 79.9922 111.188V110.129H72.3015C72.3015 110.129 72.3015 180.514 121.007 203.564H128.698L127.01 200.342C164.426 177.786 169.059 125.495 169.632 112.897Z" fill="#D2A57A"/>
<path d="M128.698 92.1217C128.698 92.1217 110.058 116.743 79.9924 110.129C79.9924 110.129 79.9924 180.513 128.698 203.564C177.404 180.514 177.404 110.129 177.404 110.129C147.339 116.743 128.698 92.1217 128.698 92.1217Z" fill="#98723F"/>
<path d="M134.99 140.062C134.99 136.587 132.173 133.77 128.698 133.77C125.223 133.77 122.406 136.587 122.406 140.062C122.406 142.587 123.894 144.763 126.04 145.765L122.406 165.713H134.99L131.356 145.765C133.502 144.763 134.99 142.587 134.99 140.062Z" fill="#D2A57A"/>
<path d="M132.515 140.062C132.515 136.587 129.864 133.77 126.593 133.77C123.323 133.77 120.671 136.587 120.671 140.062C120.671 142.586 122.072 144.763 124.092 145.765L120.671 165.713H132.515L129.095 145.765C131.114 144.763 132.515 142.586 132.515 140.062Z" fill="#391448"/>
<path opacity="0.6" d="M276.364 116.091H198.201C196.04 116.091 194.289 114.34 194.289 112.179V81.7659C194.289 79.6054 196.04 77.8539 198.201 77.8539H276.364C278.524 77.8539 280.276 79.6053 280.276 81.7659V112.179C280.276 114.34 278.524 116.091 276.364 116.091Z" fill="#BEC9ED"/>
<path d="M279.469 112.986H201.306C199.146 112.986 197.394 111.235 197.394 109.074V78.6606C197.394 76.5001 199.146 74.7485 201.306 74.7485H279.469C281.63 74.7485 283.382 76.4999 283.382 78.6606V109.074C283.382 111.235 281.63 112.986 279.469 112.986Z" fill="#98723F"/>
<path d="M225.992 102.843C230.948 97.8861 230.948 89.85 225.992 84.8935C221.035 79.937 212.999 79.937 208.043 84.8935C203.086 89.85 203.086 97.8861 208.043 102.843C212.999 107.799 221.035 107.799 225.992 102.843Z" fill="white"/>
<path d="M262.962 86.092H238.307V88.1834H262.962V86.092Z" fill="white"/>
<path d="M270.667 92.8215H238.307V94.9129H270.667V92.8215Z" fill="white"/>
<path d="M258.083 99.5515H238.307V101.643H258.083V99.5515Z" fill="white"/>
<path opacity="0.6" d="M204.088 205.906H214.153C214.153 204.26 213.441 202.78 212.31 201.757L205.59 184.217L203.567 156.191C204.032 155.049 204.288 153.8 204.288 152.491V139.834C204.288 139.256 204.238 138.689 204.142 138.138C206.346 137.78 208.028 135.868 208.028 133.563C208.028 132.869 207.875 132.211 207.601 131.62C208.735 130.309 209.422 128.601 209.422 126.732C209.422 123.685 207.599 121.065 204.985 119.899C204.418 119.492 203.724 119.251 202.972 119.251C202.829 119.251 202.688 119.261 202.549 119.278C202.349 119.262 202.146 119.251 201.941 119.251C201.934 119.251 201.928 119.251 201.921 119.252C201.651 115.365 198.415 112.296 194.461 112.296C192.485 112.296 190.69 113.063 189.352 114.314C188.87 114.141 188.349 114.045 187.807 114.045C185.28 114.045 183.231 116.094 183.231 118.621C183.231 120.631 184.527 122.337 186.329 122.951C186.285 123.271 186.261 123.597 186.261 123.929C186.261 126.897 188.054 129.446 190.616 130.553V130.787C188.883 131.525 187.405 132.746 186.351 134.282L180.129 139.251L177.759 136.797C177.887 136.359 177.956 135.897 177.956 135.418C177.956 132.695 175.749 130.488 173.026 130.488C170.303 130.488 168.095 132.695 168.095 135.418C168.095 137.428 169.299 139.156 171.024 139.924L177.3 146.422C177.985 147.132 178.903 147.494 179.825 147.494C180.596 147.494 181.369 147.241 182.013 146.727L184.633 144.634V151.419V152.491V153.858V156.271V203.326C184.231 204.098 184.002 204.975 184.002 205.906H184.633H194.555H195.186C195.186 204.975 194.957 204.098 194.555 203.326V174.077L194.592 172.849L194.587 169.539L195.742 185.541C195.771 185.946 195.85 186.346 195.977 186.732L203.012 205.229C202.985 205.451 202.97 205.677 202.97 205.906H203.234L203.318 206.159L204.088 205.906Z" fill="#BEC9ED"/>
<path d="M207.462 203.851L200.121 181.512C199.994 181.126 199.915 180.726 199.886 180.321L197.705 150.092L207.597 149.378L209.734 178.997L216.884 200.756L207.462 203.851Z" fill="#391448"/>
<path d="M203.892 119.847C206.813 116.925 206.813 112.189 203.892 109.267C200.97 106.346 196.234 106.346 193.313 109.267C190.391 112.189 190.391 116.925 193.313 119.847C196.234 122.768 200.97 122.768 203.892 119.847Z" fill="#2D2D2D"/>
<path d="M213.37 123.25C214.319 119.229 211.829 115.2 207.808 114.25C203.788 113.301 199.759 115.791 198.809 119.812C197.86 123.832 200.35 127.861 204.37 128.811C208.391 129.76 212.42 127.27 213.37 123.25Z" fill="#2D2D2D"/>
<path d="M209.318 132.626C211.684 131.646 212.807 128.934 211.827 126.569C210.847 124.203 208.135 123.08 205.769 124.06C203.403 125.039 202.28 127.752 203.26 130.117C204.24 132.483 206.952 133.606 209.318 132.626Z" fill="#2D2D2D"/>
<path d="M198.699 146.198H188.777V203.598H198.699V146.198Z" fill="#391448"/>
<path d="M198.736 167.629L198.724 158.166L191.191 156.618L198.605 171.955L198.736 167.629Z" fill="#3E214C"/>
<path d="M188.777 148.638H200.477V160.338H198.064C192.935 160.338 188.777 156.18 188.777 151.051V148.638Z" fill="#391448"/>
<path d="M183.969 142.274C183.047 142.274 182.129 141.912 181.444 141.202L173.738 133.223C172.392 131.829 172.431 129.608 173.825 128.262C175.219 126.916 177.44 126.955 178.786 128.349L184.273 134.031L191.086 128.59C192.6 127.381 194.807 127.628 196.017 129.142C197.226 130.656 196.979 132.864 195.465 134.073L186.157 141.507C185.514 142.021 184.74 142.274 183.969 142.274Z" fill="#98723F"/>
<path d="M198.605 157.099C193.177 157.099 188.777 152.699 188.777 147.271V134.614C188.777 129.187 193.177 124.787 198.605 124.787C204.033 124.787 208.433 129.187 208.433 134.614V147.271C208.433 152.699 204.033 157.099 198.605 157.099Z" fill="#98723F"/>
<path d="M197.619 130.786C199.69 130.786 201.37 129.389 201.37 127.666C201.37 125.942 199.69 124.545 197.619 124.545C195.547 124.545 193.868 125.942 193.868 127.666C193.868 129.389 195.547 130.786 197.619 130.786Z" fill="white"/>
<path d="M200.477 124.368V126.516C200.477 127.615 199.859 128.567 198.949 129.042C198.618 129.217 198.249 129.328 197.856 129.359C197.777 129.368 197.699 129.372 197.621 129.372C196.038 129.372 194.76 128.094 194.76 126.516V124.368C194.76 122.788 196.038 121.512 197.621 121.512C198.972 121.512 200.103 122.447 200.4 123.707C200.45 123.919 200.477 124.141 200.477 124.368Z" fill="#FFACAD"/>
<path d="M200.477 123.707V126.516C200.477 127.615 199.859 128.567 198.949 129.042C198.205 128.992 197.619 128.373 197.619 127.617V123.707H200.477Z" fill="#FF9099"/>
<path d="M197.619 125.922C201.603 125.922 204.832 122.693 204.832 118.709C204.832 114.725 201.603 111.496 197.619 111.496C193.635 111.496 190.405 114.725 190.405 118.709C190.405 122.693 193.635 125.922 197.619 125.922Z" fill="#FFACAD"/>
<path d="M197.618 111.496C197.246 111.496 196.883 111.533 196.526 111.587C199.991 112.115 202.648 115.098 202.648 118.709C202.648 122.321 199.991 125.304 196.526 125.831C196.884 125.886 197.246 125.923 197.618 125.923C201.602 125.923 204.832 122.693 204.832 118.709C204.832 114.725 201.602 111.496 197.618 111.496Z" fill="#FF9099"/>
<path d="M193.738 198.007C190.649 198.007 188.146 200.51 188.146 203.598H199.329C199.329 200.51 196.826 198.007 193.738 198.007Z" fill="#3E214C"/>
<path d="M212.705 198.007C209.617 198.007 207.114 200.51 207.114 203.598H218.297C218.297 200.51 215.793 198.007 212.705 198.007Z" fill="#3E214C"/>
<path d="M207.117 120.941C209.025 120.941 210.572 119.394 210.572 117.486C210.572 115.578 209.025 114.031 207.117 114.031C205.209 114.031 203.662 115.578 203.662 117.486C203.662 119.394 205.209 120.941 207.117 120.941Z" fill="#2D2D2D"/>
<path d="M205.83 127.321C208.142 127.321 210.017 125.447 210.017 123.134C210.017 120.821 208.142 118.946 205.83 118.946C203.517 118.946 201.642 120.821 201.642 123.134C201.642 125.447 203.517 127.321 205.83 127.321Z" fill="#2D2D2D"/>
<path d="M202.328 120.712C203.554 120.712 204.548 119.718 204.548 118.492C204.548 117.266 203.554 116.272 202.328 116.272C201.102 116.272 200.108 117.266 200.108 118.492C200.108 119.718 201.102 120.712 202.328 120.712Z" fill="#FFACAD"/>
<path d="M200.679 118.492C203.491 118.492 205.77 116.213 205.77 113.401C205.77 110.589 203.491 108.31 200.679 108.31C197.868 108.31 195.589 110.589 195.589 113.401C195.589 116.213 197.868 118.492 200.679 118.492Z" fill="#2D2D2D"/>
<path d="M191.951 117.977C194.478 117.977 196.526 115.928 196.526 113.401C196.526 110.874 194.478 108.825 191.951 108.825C189.424 108.825 187.375 110.874 187.375 113.401C187.375 115.928 189.424 117.977 191.951 117.977Z" fill="#2D2D2D"/>
<path d="M180.653 133.684C182.579 131.759 182.579 128.637 180.653 126.712C178.728 124.786 175.606 124.786 173.681 126.712C171.755 128.637 171.755 131.759 173.681 133.684C175.606 135.61 178.728 135.61 180.653 133.684Z" fill="#FFACAD"/>
<path d="M224.736 148.983C223.859 145.998 221.873 143.534 219.142 142.044C216.412 140.553 213.264 140.216 210.28 141.092C208.055 141.746 206.121 143.017 204.662 144.752L160.101 120.431L157.868 124.522L160.279 125.838L155.772 134.095L157.773 135.186L159.228 132.519L160.954 133.461L159.499 136.128L161.91 137.444L165.324 131.188L166.914 132.056L163.499 138.312L165.581 139.448L167.575 135.795L168.89 136.513L166.897 140.166L169.07 141.352L173.576 133.096L202.429 148.844C201.758 151.009 201.736 153.324 202.39 155.549C203.267 158.533 205.254 160.997 207.984 162.488C209.72 163.435 211.623 163.917 213.547 163.917C214.65 163.917 215.759 163.758 216.846 163.439C219.831 162.562 222.295 160.575 223.785 157.845C225.275 155.114 225.613 151.967 224.736 148.983ZM220.611 156.113C219.584 157.995 217.885 159.365 215.827 159.97C213.769 160.575 211.599 160.342 209.716 159.314C207.833 158.286 206.463 156.587 205.859 154.529C205.254 152.472 205.487 150.301 206.515 148.419C207.542 146.536 209.241 145.166 211.299 144.561C212.049 144.341 212.814 144.232 213.574 144.232C214.9 144.232 216.213 144.564 217.41 145.217C221.297 147.338 222.733 152.226 220.611 156.113Z" fill="#D2A57A"/>
<path d="M197.397 149.708C196.081 149.708 194.819 148.964 194.221 147.694C193.395 145.942 194.146 143.851 195.899 143.025L206.081 138.225L202.777 133.281C201.701 131.67 202.134 129.491 203.745 128.415C205.356 127.338 207.534 127.771 208.611 129.382L214.178 137.712C214.746 138.561 214.915 139.615 214.642 140.599C214.369 141.583 213.681 142.4 212.757 142.835L198.89 149.372C198.407 149.6 197.898 149.708 197.397 149.708Z" fill="#D2A57A"/>
<path d="M196.954 151.129C199.677 151.129 201.884 148.922 201.884 146.199C201.884 143.476 199.677 141.268 196.954 141.268C194.231 141.268 192.023 143.476 192.023 146.199C192.023 148.922 194.231 151.129 196.954 151.129Z" fill="#FFACAD"/>
<path opacity="0.6" d="M289.048 68.938C289.733 69.2719 290.502 69.4596 291.316 69.4596C294.178 69.4596 296.499 67.139 296.499 64.2764C296.499 62.1667 295.238 60.3527 293.429 59.5437L295.522 55.0552H288.134H273.458L273.136 55.7469L264.933 49.6207C264.85 49.5589 264.765 49.5019 264.68 49.4474C264.248 48.9616 263.772 48.5172 263.257 48.1199L262.821 47.6596L262.839 47.0183C265.705 45.8718 267.765 43.1083 267.855 39.8264C267.881 38.8804 267.74 37.9686 267.46 37.1183L267.885 37.1299C269.634 37.1778 271.092 35.7984 271.14 34.0487L271.16 33.3087C271.208 31.559 269.828 30.1018 268.079 30.0538L268.075 30.0537C268.112 29.8281 268.135 29.5981 268.141 29.3633C268.22 26.5125 265.972 24.138 263.121 24.0598C260.972 24.0009 259.095 25.2636 258.266 27.1095C258.005 27.0186 257.725 26.9652 257.433 26.9573C255.903 26.9154 254.628 28.1218 254.587 29.652C254.586 29.6628 254.588 29.6733 254.587 29.6841C254.587 29.6841 254.586 29.6841 254.586 29.6839C252.117 29.6164 250.061 31.563 249.993 34.0319C249.966 34.9921 250.246 35.8891 250.741 36.6317C250.216 37.1919 249.886 37.9384 249.863 38.7663C249.821 40.2998 250.847 41.6138 252.266 41.9964C252.718 43.4364 253.567 44.7042 254.689 45.6668C254.347 45.6723 254.007 45.7993 253.739 46.0527C253.571 46.2116 253.452 46.4025 253.379 46.6063C251.931 47.1401 250.637 47.99 249.577 49.0709C248.265 49.5586 247.244 50.7152 247 52.1946L245.199 63.0976C244.975 64.4548 245.457 65.8326 246.48 66.7527C246.526 66.7944 246.573 66.8347 246.621 66.8738V69.6091C246.621 69.6558 246.624 69.7019 246.624 69.7486V74.7376H246.484V74.7827C246.484 77.9114 247.872 80.7162 250.066 82.6131C250.084 82.6285 250.103 82.6428 250.12 82.6581C251.293 83.659 252.692 84.4018 254.23 84.8001C254.445 84.8557 254.663 84.9049 254.883 84.9468C255.339 85.0335 255.804 85.0918 256.278 85.1165C256.461 85.1266 256.646 85.1316 256.831 85.1316C257.016 85.1316 257.201 85.1266 257.384 85.1165H262.334L258.967 103.206C258.853 103.815 258.852 104.417 258.946 104.995C258.157 105.995 257.685 107.26 257.685 108.633H261.443H266.691H269.442C269.442 107.731 269.239 106.877 268.875 106.113C269.005 105.794 269.105 105.457 269.171 105.105L272.148 89.1078L274.888 104.24H274.796V108.633H277.524H280.507H292.264C292.264 105.386 289.632 102.754 286.385 102.754C285.975 102.754 285.575 102.797 285.189 102.876L281.45 82.2304C280.665 77.8892 276.893 74.7382 272.48 74.7376H286.343L289.048 68.938ZM269.668 63.1832L267.285 68.2936V63.6239C267.726 63.2404 268.102 62.784 268.393 62.2727L269.242 62.9065C269.378 63.0084 269.521 63.0999 269.668 63.1832Z" fill="#BEC9ED"/>
<path d="M101.872 143.132C101.872 143.132 101.214 135.539 95.9504 131.043C90.9444 126.767 83.1118 130.328 81.6505 133.587C81.0141 133.994 80.2061 134.552 79.3766 135.23C78.7202 134.868 77.65 134.759 76.4484 134.767V128.815C79.0235 124.418 83.1155 122.044 83.157 122.02C84.7742 121.155 90.6618 118.435 96.8436 120.898C96.8436 120.898 92.2236 115.668 86.7333 116.761C82.3423 117.636 82.4083 120.633 82.6106 121.798C81.6488 122.413 78.6516 124.503 76.4483 127.905V118.438C78.2848 115.069 82.1112 112.432 82.8498 111.944C85.5646 110.797 91.9756 108.246 96.3522 107.773C96.3522 107.773 87.8981 105.349 85.4893 107.183C83.5507 108.659 82.1873 111.204 81.7286 112.142C80.389 113.118 78.0012 115.063 76.4483 117.501V105.93C81.0909 107.272 83.3737 103.257 83.767 101.043C84.2043 98.5819 86.7105 91.6213 86.7105 91.6213C86.7105 91.6213 81.0676 90.8304 75.8646 93.7147C70.6619 96.599 71.8326 103.76 74.7993 105.269C75.1482 105.446 75.486 105.595 75.8132 105.719V111.865C74.7088 109.641 73.0196 107.754 72.3284 107.03C71.9507 106.138 71.1634 104.538 70.0128 103.494C68.3449 101.98 61.9243 103.236 61.9243 103.236C65.3319 103.905 70.2843 106.451 71.9847 107.362C72.7548 108.175 74.826 110.507 75.8132 113.039V120.843C72.6731 117.052 68.2486 114.374 66.5979 113.452C67.1256 112.23 68.0037 108.758 61.2456 108.285C53.0217 107.709 48.5808 115.07 48.5808 115.07C53.7267 111.394 66.2123 113.843 66.3815 113.876C68.0785 114.825 72.7188 117.638 75.8132 121.603V127.028C74.5151 125.939 73.062 125.136 72.1396 124.681C70.6835 122.087 68.1045 120.091 62.7996 120.966C57.2625 121.879 55.7306 129.552 55.7306 129.552C61.6017 125.042 69.4236 124.923 71.6867 124.993C72.6228 125.442 74.3786 126.374 75.8132 127.658V134.78C74.4964 134.827 73.0876 134.98 71.9283 135.074C71.9283 135.074 64.7736 132.744 61.5663 135.101C58.359 137.459 69.2145 143.846 69.2145 143.846C69.2145 143.846 72.7778 142.314 75.8132 140.491V154.831C74.7901 153.373 74.0889 152.842 73.6824 152.653C71.7977 151.128 64.2895 145.694 55.7163 148.157C45.7928 151.008 44.5867 161.425 44.5867 161.425C51.5148 153.96 69.5138 153.138 73.3933 153.048C73.6313 153.133 74.4375 153.567 75.8132 155.684V163.232C75.1297 162.805 74.4245 162.653 73.7105 162.779C72.7908 162.941 72.0311 163.535 71.4997 164.091C60.6929 158.604 60.1764 176.091 60.1764 176.091C64.4529 176.543 73.129 173.747 73.787 170.211C74.4449 166.674 72.1012 164.413 72.1012 164.413C72.0466 164.382 71.9938 164.355 71.9398 164.325C72.4117 163.854 73.0506 163.379 73.7935 163.247C74.4718 163.127 75.1504 163.321 75.8135 163.813V179.462H64.6532C64.6532 179.462 65.9334 204.134 71.4434 204.134H76.1311H80.8188C86.3288 204.134 87.6091 179.462 87.6091 179.462H76.4487V171.497C77.6145 169.59 80.4651 168.945 82.0683 168.731C81.8848 169.421 81.8656 170.351 82.4696 171.375C83.7306 173.513 91.1046 175.569 91.1046 175.569C91.1046 175.569 91.9818 169.84 90.4467 168.415C88.9117 166.989 83.758 165.646 82.6614 167.51C82.6614 167.51 82.4399 167.774 82.2449 168.223C80.7691 168.39 77.956 168.935 76.4487 170.689V161.751C79.1537 158.622 82.5179 156.786 83.7488 156.181C83.8489 156.957 84.363 157.957 85.4427 159.241C85.4427 159.241 87.8276 161.16 90.8705 160.063C93.9133 158.967 95.5855 154.553 95.5855 154.553C95.5855 154.553 84.2475 152.084 83.7461 155.653C82.7345 156.134 79.3085 157.904 76.4487 161.034V151.71C78.6367 149.508 81.7307 147.9 82.9642 147.309C84.0601 146.82 90.7731 144.034 97.2303 145.97C97.2303 145.97 93.724 140.388 89.0907 141.329C84.7936 142.202 83.3142 144.427 82.8895 146.817C81.7828 147.339 78.739 148.884 76.4486 151.045V140.1C78.2136 138.984 79.6839 137.795 79.9743 136.801C80.1358 136.248 80.0432 135.838 79.7699 135.535C80.4931 134.95 81.1965 134.458 81.7735 134.081C83.7199 134.079 94.8376 134.452 101.872 143.132Z" fill="#391448"/>
<path d="M296.238 63.8069C295.939 63.8069 295.636 63.7736 295.333 63.704L275.258 59.1029C274.711 58.9775 274.195 58.7391 273.745 58.4032L264.61 51.5801C262.825 50.2471 262.459 47.72 263.792 45.9353C265.125 44.1509 267.652 43.7846 269.437 45.1173L277.89 51.4308L297.135 55.8416C299.306 56.3393 300.663 58.5028 300.165 60.6739C299.737 62.5418 298.076 63.8069 296.238 63.8069Z" fill="#98723F"/>
<path d="M261.457 41.468C255.751 41.468 251.125 46.0939 251.125 51.7999V65.106C251.125 65.1528 251.128 65.1988 251.128 65.2456V70.4464L253.414 71.5885C255.238 73.8487 257.994 75.3229 261.099 75.4288L261.104 75.4314L261.101 75.4288C261.22 75.4328 261.337 75.4378 261.457 75.4378C267.163 75.4378 271.789 70.8118 271.789 65.1059V51.7998C271.789 46.0939 267.163 41.468 261.457 41.468Z" fill="#98723F"/>
<path d="M253.682 63.285C252.698 63.2852 251.734 62.9246 250.984 62.2494C249.961 61.3292 249.478 59.9515 249.703 58.5944L251.504 47.6913C251.867 45.4936 253.941 44.0063 256.141 44.3695C258.338 44.7326 259.825 46.8084 259.462 49.0062L258.689 53.6892L267.314 51.3131C269.461 50.7218 271.682 51.9827 272.274 54.1302C272.865 56.2777 271.604 58.498 269.457 59.0896L254.753 63.14C254.4 63.2374 254.039 63.285 253.682 63.285Z" fill="#D2A57A"/>
<path d="M288.727 102.863C288.33 103.367 287.84 103.798 287.276 104.13H282.028C280.767 103.391 279.825 102.126 279.544 100.576L279.392 99.7367L275.929 80.6133H271.321C268.455 80.6133 266.132 78.29 266.132 75.4238C266.132 72.5578 268.455 70.2344 271.321 70.2344H276.983C281.396 70.2344 285.169 73.3856 285.954 77.7272L289.757 98.7275C290.032 100.249 289.614 101.736 288.727 102.863Z" fill="#391448"/>
<path d="M276.764 72.4338C275.381 71.211 273.609 70.4193 271.769 70.238C271.76 70.237 271.748 70.2357 271.738 70.2347H271.321C270.677 70.2347 270.061 70.3529 269.492 70.5674C269.354 70.9057 269.519 71.4719 269.46 71.8168C269.369 72.3559 269.148 72.8672 268.901 73.3516C268.216 74.696 267.326 75.9203 266.42 77.1296C267.126 79.1576 269.053 80.6136 271.321 80.6136H275.93L277.441 88.9587C277.526 88.7436 277.605 88.5265 277.682 88.3123C278.458 86.136 279.238 83.9414 279.56 81.6535C279.882 79.3656 279.717 76.9488 278.675 74.8867C278.204 73.9553 277.546 73.1241 276.764 72.4338Z" fill="#3E214C"/>
<path d="M290.889 98.251C294.136 98.251 296.768 100.883 296.768 104.129H285.01C285.01 100.883 287.642 98.251 290.889 98.251Z" fill="#3E214C"/>
<path d="M288.727 99.7367H279.301V104.13H288.727V99.7367Z" fill="#3E214C"/>
<path d="M275.543 73.3792C274.507 72.1326 273.166 71.2184 271.674 70.7057C270.774 70.3969 269.817 70.2343 268.839 70.2343H259.011C256.145 70.2343 253.821 72.5577 253.821 75.4237C253.821 76.4066 254.095 77.3257 254.57 78.1097C256.253 79.5665 258.413 80.4893 260.783 80.6132H266.839L263.471 98.7024C263.357 99.3115 263.356 99.9141 263.45 100.492C263.699 102.011 264.619 103.35 265.947 104.129H271.195C272.162 103.563 272.942 102.688 273.38 101.61C273.51 101.291 273.61 100.953 273.675 100.602L277.407 80.5456C277.884 77.991 277.204 75.3788 275.543 73.3792Z" fill="#391448"/>
<path d="M273.946 104.129H262.189C262.189 102.756 262.661 101.492 263.45 100.492C264.526 99.1275 266.195 98.2509 268.068 98.2509C270.414 98.2509 272.437 99.6239 273.38 101.61C273.743 102.374 273.946 103.228 273.946 104.129Z" fill="#3E214C"/>
<path d="M250.988 70.2344V70.2794C250.988 73.4081 252.376 76.2129 254.57 78.1098C256.253 79.5665 258.413 80.4895 260.782 80.6133C260.965 80.6233 261.15 80.6283 261.335 80.6283C261.52 80.6283 261.705 80.6233 261.888 80.6133C267.206 80.3345 271.459 76.0404 271.674 70.7058C271.681 70.5645 271.684 70.4219 271.684 70.2794V70.2344H250.988Z" fill="#391448"/>
<path d="M295.819 64.9562C298.682 64.9562 301.003 62.6355 301.003 59.7728C301.003 56.9101 298.682 54.5895 295.819 54.5895C292.957 54.5895 290.636 56.9101 290.636 59.7728C290.636 62.6355 292.957 64.9562 295.819 64.9562Z" fill="#FFACAD"/>
<path d="M268.386 60.3931C271.253 60.3931 273.577 58.0687 273.577 55.2014C273.577 52.3341 271.253 50.0096 268.386 50.0096C265.518 50.0096 263.194 52.3341 263.194 55.2014C263.194 58.0687 265.518 60.3931 268.386 60.3931Z" fill="#FFACAD"/>
<path d="M300.026 50.5519L290.847 70.2345H268.784L269.048 69.6671L277.962 50.5519H300.026Z" fill="white"/>
<path d="M272.159 69.1683H260.209C259.914 69.1683 259.676 69.407 259.676 69.7014C259.676 69.9958 259.914 70.2345 260.209 70.2345H272.159V69.1683Z" fill="white"/>
<path opacity="0.3" d="M292.638 50.5519C292.638 50.5519 287.192 63.0012 271.348 69.667H269.048L277.962 50.5519H292.638Z" fill="#DEE4F6"/>
<path d="M285.601 61.8219C286.321 61.195 286.542 60.2719 286.096 59.76C285.651 59.2481 284.706 59.3414 283.986 59.9682C283.267 60.5951 283.045 61.5182 283.491 62.0301C283.937 62.542 284.882 62.4488 285.601 61.8219Z" fill="#DEE4F6"/>
<path d="M267.763 47.0945C267.388 47.0945 267.013 46.9461 266.735 46.6519L263.948 43.7085C263.411 43.1408 263.435 42.2446 264.003 41.7071C264.571 41.1695 265.467 41.1941 266.005 41.7619L268.791 44.7053C269.329 45.2731 269.304 46.1693 268.736 46.7069C268.463 46.966 268.113 47.0945 267.763 47.0945Z" fill="white"/>
<path d="M261.051 41.275L260.986 43.6491C260.94 45.3084 262.177 46.6993 263.798 46.8738C263.884 46.8847 263.971 46.8915 264.057 46.8939C265.808 46.942 267.259 45.5681 267.307 43.8224L267.372 41.4482C267.419 39.7023 266.046 38.2513 264.295 38.2032C262.549 38.1554 261.098 39.5289 261.051 41.275Z" fill="#FFACAD"/>
<path d="M261.038 41.7383L260.986 43.6489C260.94 45.3082 262.177 46.6991 263.798 46.8736L263.936 41.8178L261.038 41.7383Z" fill="#FF9099"/>
<path d="M270.022 40.748C273.138 37.6321 273.138 32.5803 270.022 29.4644C266.906 26.3485 261.854 26.3485 258.738 29.4644C255.623 32.5803 255.623 37.6321 258.739 40.748C261.854 43.8639 266.906 43.8639 270.022 40.748Z" fill="#FFACAD"/>
<path d="M264.601 27.1288C265.013 27.1401 265.413 27.1918 265.806 27.2629C261.96 27.7413 258.931 30.959 258.822 34.9524C258.713 38.9457 261.56 42.3243 265.374 43.0126C264.978 43.0619 264.576 43.0917 264.164 43.0805C259.759 42.9598 256.286 39.2911 256.407 34.8862C256.527 30.4813 260.196 27.0081 264.601 27.1288Z" fill="#FF9099"/>
<path d="M262.003 46.9369C261.627 46.9369 261.253 46.7886 260.974 46.4943L258.188 43.551C257.65 42.9832 257.675 42.0871 258.243 41.5495C258.811 41.0119 259.707 41.0365 260.244 41.6043L263.031 44.5477C263.568 45.1155 263.544 46.0115 262.976 46.5491C262.702 46.8082 262.352 46.9369 262.003 46.9369Z" fill="white"/>
<path d="M263.414 30.0908C263.649 27.6323 261.847 25.4485 259.388 25.2131C256.93 24.9778 254.746 26.78 254.511 29.2384C254.275 31.6969 256.077 33.8808 258.536 34.1161C260.994 34.3515 263.178 32.5493 263.414 30.0908Z" fill="#2D2D2D"/>
<path d="M260.931 32.3129L272.389 32.6269C274.138 32.6749 275.596 31.2954 275.644 29.5457L275.664 28.8056C275.712 27.0559 274.332 25.5988 272.583 25.5509L261.125 25.2369L260.931 32.3129Z" fill="#2D2D2D"/>
<path d="M271.132 28.3718C273.149 26.3551 273.149 23.0855 271.132 21.0689C269.116 19.0523 265.846 19.0523 263.829 21.0689C261.813 23.0855 261.813 26.3551 263.829 28.3718C265.846 30.3884 269.116 30.3884 271.132 28.3718Z" fill="#2D2D2D"/>
<path d="M264.587 25.711C264.859 24.2048 263.86 22.7624 262.353 22.4895C260.847 22.2166 259.405 23.2164 259.132 24.7226C258.859 26.2289 259.859 27.6712 261.365 27.9441C262.871 28.2171 264.314 27.2173 264.587 25.711Z" fill="#2D2D2D"/>
<path d="M259.856 36.7076C261.161 35.4721 261.217 33.4125 259.982 32.1074C258.746 30.8023 256.687 30.7459 255.382 31.9815C254.077 33.217 254.02 35.2766 255.256 36.5817C256.491 37.8868 258.551 37.9432 259.856 36.7076Z" fill="#2D2D2D"/>
<path d="M259.182 37.1777C260.538 37.1777 261.638 36.0781 261.638 34.7218C261.638 33.3654 260.538 32.2659 259.182 32.2659C257.826 32.2659 256.726 33.3654 256.726 34.7218C256.726 36.0781 257.826 37.1777 259.182 37.1777Z" fill="#FFACAD"/>
<path d="M261.752 35.7935L261.881 35.7971C262.186 35.8054 262.439 35.5655 262.447 35.261L262.527 32.3565L261.296 32.3228L261.217 35.2273C261.208 35.5317 261.448 35.7853 261.752 35.7935Z" fill="#2D2D2D"/>
<path d="M263.243 34.837C264.158 34.6789 264.772 33.8088 264.614 32.8936C264.456 31.9785 263.586 31.3648 262.671 31.523C261.755 31.6811 261.142 32.5512 261.3 33.4663C261.458 34.3815 262.328 34.9951 263.243 34.837Z" fill="#2D2D2D"/>
<path opacity="0.6" d="M302.865 191.616H230.447C227.112 191.616 224.409 188.912 224.409 185.577V168.337C224.409 165.002 227.112 162.298 230.447 162.298H302.865C306.2 162.298 308.904 165.002 308.904 168.337V185.577C308.904 188.912 306.2 191.616 302.865 191.616Z" fill="#BEC9ED"/>
<path d="M305.653 188.828H233.235C229.9 188.828 227.197 186.125 227.197 182.79V165.549C227.197 162.214 229.9 159.51 233.235 159.51H305.653C308.988 159.51 311.692 162.214 311.692 165.549V182.79C311.692 186.125 308.988 188.828 305.653 188.828Z" fill="white"/>
<path d="M305.653 189.183H233.236C229.71 189.183 226.843 186.315 226.843 182.79V165.549C226.843 162.024 229.71 159.156 233.236 159.156H305.653C309.178 159.156 312.046 162.024 312.046 165.549V182.79C312.046 186.315 309.178 189.183 305.653 189.183ZM233.236 159.865C230.101 159.865 227.551 162.415 227.551 165.549V182.79C227.551 185.924 230.101 188.474 233.236 188.474H305.653C308.788 188.474 311.338 185.924 311.338 182.79V165.549C311.338 162.415 308.788 159.865 305.653 159.865H233.236Z" fill="#DEE4F6"/>
<path d="M252.313 172.559H238.25C236.189 172.559 234.518 170.888 234.518 168.827C234.518 166.765 236.189 165.094 238.25 165.094H252.313C254.375 165.094 256.046 166.765 256.046 168.827C256.046 170.888 254.375 172.559 252.313 172.559Z" fill="#391448"/>
<path d="M252.313 184.206H238.25C236.189 184.206 234.518 182.535 234.518 180.474C234.518 178.412 236.189 176.741 238.25 176.741H252.313C254.375 176.741 256.046 178.412 256.046 180.474C256.046 182.535 254.375 184.206 252.313 184.206Z" fill="#98723F"/>
<path d="M305.537 167.147H261.861V168.063H305.537V167.147Z" fill="#DEE4F6"/>
<path d="M288.463 169.59H261.861V170.507H288.463V169.59Z" fill="#DEE4F6"/>
<path d="M305.537 178.794H261.861V179.71H305.537V178.794Z" fill="#DEE4F6"/>
<path d="M288.463 181.237H261.861V182.153H288.463V181.237Z" fill="#DEE4F6"/>
</svg>
