<svg width="328" height="203" viewBox="0 0 328 203" fill="none" xmlns="http://www.w3.org/2000/svg">
<path d="M26.8953 179.615L26.9571 179.754C27.6527 181.376 29.3065 182.783 28.6109 184.73L28.1627 185.642C27.5445 184.22 26.6326 182.288 26.478 180.758C26.4162 180.14 26.5089 180.094 26.8953 179.615Z" fill="#FAE7D2"/>
<path d="M316.078 40.0933L320.189 44.2509L316.341 48.2541L315.97 48.3159L311.936 44.2046L316.078 40.0933Z" fill="#391448"/>
<path d="M30.4033 27.759L34.7619 32.2722L30.5887 36.4299L26.1992 32.1331L30.4033 27.759Z" fill="#391448"/>
<path d="M36.2155 170.712L36.3082 182.242H28.812L30.7131 172.196C32.336 172.335 34.4535 172.567 36.0454 172.32L36.2155 170.712Z" fill="#F9AD8D"/>
<path d="M303.791 172.15C304.224 171.717 304.749 171.083 305.414 171.083C305.97 171.083 306.511 171.315 306.882 171.717C307.717 172.66 308.304 174.159 308.891 175.272L312.616 182.273L317.469 191.145C318.289 192.66 319.262 194.221 319.881 195.828L318.01 198.595C317.454 199.012 317.068 199.26 316.357 199.167C315.893 199.105 315.646 198.95 315.321 198.61L315.29 198.456C315.414 197.405 316.573 196.601 317.33 195.936C314.533 190.079 311.225 184.375 307.995 178.749C306.82 176.725 305.568 173.68 303.791 172.15Z" fill="#391448"/>
<path d="M12.6142 198.796C12.3824 197.451 15.0717 171.609 15.5045 170.511C15.7209 169.955 16.0609 169.847 16.5555 169.584C17.2511 169.599 17.6375 169.878 18.1784 170.264L15.1181 199.028C14.1289 199.167 13.5261 199.167 12.6142 198.796Z" fill="#391448"/>
<path d="M288.381 177.946C289.246 178.564 291.905 178.023 293.033 177.853C293.172 177.837 294.007 177.683 294.022 177.698C294.254 177.853 297.129 187.76 297.361 188.827L289.061 189.244L288.381 177.946Z" fill="#F9A891"/>
<path d="M303.791 172.149C305.568 173.664 306.82 176.724 307.979 178.749C311.209 184.375 314.517 190.078 317.315 195.936C316.573 196.585 315.398 197.404 315.274 198.455C313.899 198.115 312.029 196.493 310.792 195.689L304.146 191.531C304.563 190.31 306.016 188.455 305.831 187.142L305.583 187.173L303.852 191.315L302.121 190.341C301.704 190.156 301.318 189.862 300.916 189.615L299.092 188.595L300.282 185.55C300.359 184.931 299.216 183.587 298.86 183.046C297.577 181.129 296.325 179.182 294.903 177.358L303.791 172.149Z" fill="#98723F"/>
<path d="M302.925 183.247C303.172 183.17 303.45 183.154 303.713 183.124C304.192 183.402 304.254 183.541 304.548 184.005C304.47 184.623 304.378 184.669 303.945 185.133L303.342 185.241C302.801 185.009 302.739 184.978 302.43 184.484C302.477 183.835 302.523 183.757 302.925 183.247Z" fill="#FEFEFE"/>
<path d="M300.931 189.63C301.317 188.363 301.688 187.157 302.245 185.967L302.477 185.859L303.358 186.462C303.512 187.435 302.538 189.46 302.121 190.357C301.719 190.156 301.333 189.877 300.931 189.63Z" fill="#FAE7D2"/>
<path d="M18.1783 170.264L27.9774 170.944L26.8955 179.615C26.5091 180.094 26.4164 180.14 26.4782 180.758C26.6327 182.289 27.5447 184.221 28.1629 185.643C28.3793 186.122 28.5648 186.554 28.8739 186.972L16.2463 199.043L15.1025 199.012L18.1783 170.264Z" fill="#98723F"/>
<path d="M24.0054 183.247C24.3763 183.123 24.6854 183.17 25.0718 183.216C25.3655 183.726 25.5201 184.112 25.5973 184.7C25.2728 184.885 24.9327 184.839 24.5772 184.823C24.2063 184.298 24.1136 183.865 24.0054 183.247Z" fill="#FEFEFE"/>
<path d="M22.3052 178.718L22.3825 178.703C22.9852 178.641 23.3253 178.548 23.8353 178.904C24.0363 179.337 24.1135 179.553 24.0517 180.032C23.5417 180.109 23.2635 180.109 22.7843 179.924C22.537 179.507 22.3052 179.228 22.3052 178.718Z" fill="#FEFEFE"/>
<path d="M25.2875 185.133L25.6585 185.117C26.1685 185.457 26.3386 186.261 26.5549 186.817L26.184 187.111L25.4266 187.08C25.0712 186.477 24.9011 186.014 24.7466 185.333L25.2875 185.133Z" fill="#FEFEFE"/>
<path d="M22.9697 180.604L23.1397 180.542C23.5261 180.434 23.9435 180.403 24.2989 180.604C24.5462 181.284 24.8399 181.918 24.6699 182.644C24.2835 182.721 24.1598 182.768 23.7734 182.644C23.4179 181.98 23.1861 181.33 22.9697 180.604Z" fill="#FEFEFE"/>
<path d="M273.095 21.1133C274.98 19.3204 276.928 17.6511 279.663 17.4811C280.483 17.4347 281.224 17.4965 282.028 17.6666L282.276 17.7129C283.852 18.0375 285.135 18.8876 286.17 20.0932L286.294 20.2477C287.16 21.2678 287.361 22.5661 287.762 23.7872L287.932 23.6635C289.277 22.7361 290.792 22.3497 292.415 22.628C294.378 22.9525 295.707 23.8335 296.82 25.4719C298.072 27.3421 298.504 29.6759 299.03 31.8243L267.144 31.7934L268.999 27.2802C269.478 26.2447 270.513 25.0236 270.606 23.9263L271.456 23.9572C272.291 23.4317 272.77 22.0406 273.095 21.1133Z" fill="#FAE7D2"/>
<path d="M270.606 23.9262L269.571 23.277L268.365 24.2971L268.473 24.9772C268.52 25.3172 268.566 25.9509 268.35 26.2137C267.84 26.8628 267.268 27.1874 266.449 27.2956C265.908 26.9556 265.66 26.5692 265.351 26.0282L265.227 25.8273L265.073 25.7964C264.872 25.7654 263.002 25.7654 262.863 25.8736C262.476 26.1364 262.538 26.8474 261.935 27.2338C261.271 27.2029 260.235 27.2956 259.694 26.8474C259.045 26.3219 259.122 25.2399 259.076 24.4671L257.206 23.0761C256.634 23.5089 256.17 23.8025 255.475 24.0344C254.532 23.7716 253.914 22.4578 253.419 21.6541L255.15 20.2631L254.3 17.5737C253.62 17.2955 252.523 17.3574 251.781 17.2955C251.734 16.1982 251.935 15.0853 252.074 13.9879L254.439 13.9261L255.784 11.1286L254.331 9.76843C254.856 8.93381 255.598 7.83643 256.495 7.3882C257.144 7.48094 258.056 8.51649 258.566 8.98018L261.595 7.6355C261.673 6.93998 261.843 6.27537 262.013 5.5953C262.677 5.28618 264.269 5.54893 265.042 5.57984L265.521 7.55822L267.731 8.67105C268.087 8.77925 269.756 7.46548 270.143 7.18727L272.214 9.32021L270.668 11.0977L272.245 13.8488L274.517 13.8334C274.656 14.6525 274.949 16.43 274.609 17.1719C273.976 17.4192 273.326 17.4655 272.662 17.5274C272.353 18.2847 271.765 19.413 271.796 20.2167C272.291 20.4331 272.662 20.7422 273.079 21.0823C272.77 22.0096 272.291 23.4007 271.441 23.9262H270.606Z" fill="#D2A57A"/>
<path d="M262.322 11.2987C263.265 11.2523 264.331 11.1441 265.228 11.4996C266.634 12.056 267.7 13.1534 268.303 14.529C268.813 15.7037 268.937 16.9865 268.442 18.1921C267.747 19.9077 266.51 20.9896 264.826 21.6852C263.836 21.8243 262.693 21.8088 261.734 21.4533C260.405 20.9742 259.385 19.985 258.829 18.6867C258.257 17.3575 258.133 15.7809 258.674 14.4208C259.339 12.7206 260.73 11.9788 262.322 11.2987Z" fill="#FEFEFE"/>
<path d="M262.538 13.4469C262.956 13.3541 263.512 13.2923 263.945 13.3696C264.826 13.5087 265.676 14.1424 266.201 14.8534C266.65 15.4716 266.881 16.229 266.696 17.0018C266.402 18.2692 265.49 18.9647 264.439 19.5829C263.759 19.7375 263.156 19.7993 262.476 19.5829C261.719 19.3356 260.993 18.7483 260.653 18.0219C260.266 17.2027 260.173 16.028 260.56 15.178C260.946 14.3279 261.719 13.8024 262.538 13.4469Z" fill="#F2CA98"/>
<path d="M28.1635 63.7099L4.90215 63.5863C4.80941 63.4626 4.73213 63.339 4.70122 63.1844C4.1448 61.1288 4.19117 58.7949 5.31946 56.9402C6.185 55.5182 7.68424 54.4054 9.30712 54.019C11.5637 53.478 13.0939 54.1117 15.0104 55.2555C15.5359 53.2153 16.7415 50.9896 18.5498 49.7995C20.2964 48.6557 22.2748 48.0993 24.3459 48.5475C25.3041 48.7485 26.046 49.0112 26.8652 49.5676C28.9981 51.036 29.6473 53.1071 30.0955 55.5182C31.2856 55.5646 32.3057 55.6728 33.4031 56.1519C34.856 56.7856 35.6751 57.8521 36.247 59.2741C36.5871 60.7424 36.6798 62.1952 36.6798 63.6945L28.1635 63.7099Z" fill="#FAE7D2"/>
<path d="M71.7952 0.0155791L74.5464 0.00012207L75.0255 2.3649C75.922 2.59674 76.7566 2.84404 77.6067 3.23044L77.8231 3.33863L79.5078 1.57664C80.2806 2.04032 80.9452 2.64311 81.6407 3.21498C81.4398 3.9105 80.837 4.59057 80.4351 5.19336L82.1971 7.6045L84.2991 7.15627L85.1338 9.35103L83.0781 10.6339L83.109 13.9569L85.041 15.0389C84.9019 15.7962 84.5155 16.569 84.2373 17.28C83.7427 17.4036 82.6299 17.0018 82.1198 16.8781C81.5325 17.8364 80.9606 18.6092 80.1878 19.3975L81.3316 21.4377L79.6314 22.8751C78.9359 22.6896 78.2095 21.9941 77.6221 21.5613C76.5866 21.9786 75.5201 22.2414 74.4382 22.5041C74.3764 23.3078 74.2682 24.4207 73.7117 25.0235L71.6561 25.0389L71.0842 22.3805C70.0023 22.0714 68.9976 21.7159 67.9775 21.2367L65.9837 22.6741L64.3917 21.2522L65.5664 19.042L63.9126 16.8781C63.2789 16.7854 62.5061 17.0636 61.8879 17.1872C61.3933 16.7236 61.0378 15.4716 60.7596 14.8225L62.8771 13.7096V10.6957C62.367 10.2166 61.3469 9.90745 60.6978 9.62924L61.7333 7.32629L63.8508 7.72815L65.6128 5.22427C65.5664 4.65239 64.8554 3.7714 64.5309 3.26135C65.18 2.59674 65.9064 2.05578 66.6638 1.51482L68.1939 3.07588L71.3933 2.31853L71.7952 0.0155791Z" fill="#98723F"/>
<path d="M71.9804 6.80095C72.9541 6.6773 74.0979 6.61548 75.0253 7.01734C76.4472 7.65103 77.6528 8.73296 78.2247 10.2013C78.7811 11.6541 78.7193 13.1688 78.0392 14.5599C77.2509 16.1828 75.8599 16.9865 74.237 17.5584C73.0469 17.6975 71.9959 17.6356 70.8676 17.1565C69.4765 16.5692 68.5492 15.4873 67.9928 14.1271C67.4209 12.7052 67.4672 11.4223 68.0855 10.0313C68.8892 8.22291 70.2184 7.46556 71.9804 6.80095Z" fill="#FEFEFE"/>
<path d="M47.5447 55.0232C47.622 54.5286 48.0547 54.0959 47.9929 53.6322C47.2974 53.3076 46.71 52.9676 46.1691 52.4266C45.5972 51.8547 44.9635 50.7574 45.0253 49.9227C45.0872 48.9954 45.7827 48.3153 46.4318 47.728L46.6173 47.5734C45.5663 46.5224 44.4071 45.3323 44.2371 43.7867C44.1443 42.9675 44.268 42.1638 44.8399 41.5455C45.7518 40.5409 47.3128 40.6027 48.5648 40.4945L48.5339 36.5378C48.5493 35.394 48.7348 34.2967 49.6158 33.4775C50.2495 32.8747 51.1768 32.5965 52.0424 32.6274C53.4489 32.6892 54.2526 33.5857 55.1181 34.5749C55.9991 33.122 56.8647 31.7619 58.3794 30.8963C59.0749 30.5099 60.0641 30.3554 60.8214 30.6181C62.4134 31.1591 62.9853 32.7047 63.6499 34.1112C64.5309 32.9365 65.7828 31.3136 67.0811 30.6027C67.7921 30.2163 68.7658 30.0462 69.5386 30.3245C71.3161 30.9427 71.8725 33.5857 72.5062 35.1158C73.6808 34.2039 75.1492 32.9056 76.6484 32.6892C77.4212 32.581 78.0704 32.7201 78.6886 33.2302C79.446 33.8793 79.8324 34.6676 79.8633 35.6877C79.9251 37.3415 78.6577 38.6244 77.6221 39.7526C78.2713 40.2627 79.0441 40.8346 79.3996 41.6074C79.6314 42.1329 79.7242 42.4729 79.4614 42.9984C78.6268 44.6677 75.1028 45.7187 73.4335 46.3678L71.857 55.7033C71.177 59.0263 69.8323 61.4838 66.942 63.3849C65.6128 64.2505 63.9281 64.7142 62.3361 64.6678C61.0687 64.4823 59.7549 64.3741 58.5185 63.9568C55.0872 62.7667 53.0934 60.0155 51.6096 56.8779C51.0996 57.5271 51.0068 57.6044 50.234 57.8826C49.8476 57.728 49.4458 57.558 49.0903 57.3107C48.2093 56.7079 47.7301 56.1051 47.5447 55.0232Z" fill="#2D2D2D"/>
<path d="M51.6096 56.8784C51.7951 56.2447 52.0578 55.5801 52.0578 54.9155C51.0995 54.6373 50.2958 54.1118 49.7703 53.2617C49.2603 52.4271 49.1366 51.1906 49.3994 50.2478C49.6312 49.3977 50.0795 48.7331 50.8523 48.3003C51.8569 47.7285 53.0006 47.6975 53.9125 48.4858C54.4844 48.9804 54.5617 49.4132 55.3345 49.6295C56.0455 49.2431 56.1228 48.3467 56.571 47.6975L59.6313 43.8026C60.5123 44.5136 61.3933 45.2709 62.3825 45.8274C65.9219 47.8366 69.6623 47.4039 73.4181 46.3374L71.857 55.7038C71.177 59.0268 69.8323 61.4843 66.942 63.3854C65.6128 64.251 63.9281 64.7146 62.3361 64.6683C61.0687 64.4828 59.7549 64.3746 58.5184 63.9573C55.0872 62.7672 53.1088 60.016 51.6096 56.8784Z" fill="#F9A891"/>
<path d="M52.2739 50.8042C52.5676 50.7269 52.9695 50.7424 53.2477 50.866C53.8504 51.1597 53.9432 51.4379 54.1441 52.0252C53.9895 52.7362 53.9277 52.7362 53.3404 53.1844C52.8922 53.2926 52.5521 53.3854 52.1194 53.1381C51.5939 52.8599 51.5939 52.4425 51.4702 51.917C51.6866 51.2833 51.733 51.2215 52.2739 50.8042Z" fill="#391448"/>
<path d="M142.089 196.74L142.615 196.833C142.738 197.498 142.723 198.162 142.738 198.827C142.847 198.92 142.939 199.074 143.078 199.121C143.357 199.213 144.238 199.09 144.562 199.074L148.782 199.012H161.641C163.496 199.028 165.691 199.306 167.499 199.09C167.684 199.074 167.808 199.012 167.978 198.935C171.147 200.543 175.335 199.955 178.813 199.955C180.065 199.955 181.672 200.141 182.878 199.832C183.558 199.662 184.315 199.198 184.933 198.873C187.02 199.213 189.338 199.028 191.456 199.043C192.986 199.043 194.733 199.213 196.247 198.981L196.278 197.297L223.419 197.142L223.512 198.951C225.32 198.765 227.252 198.858 229.076 198.858L238.69 198.827H291.194L307.933 198.873C310.097 198.873 312.647 199.136 314.78 198.842C314.996 198.811 315.151 198.734 315.352 198.626C315.661 198.966 315.923 199.121 316.387 199.182C317.098 199.275 317.5 199.028 318.041 198.611L318.226 198.734C318.597 198.966 319.308 198.858 319.741 198.858C321.209 198.842 325.599 198.379 326.789 198.935C327.175 199.121 327.516 199.538 327.794 199.862C327.948 200.512 328.041 201.053 327.655 201.655C327.315 202.196 326.82 202.521 326.202 202.614C323.852 202.969 321.132 202.768 318.752 202.768L301.256 202.598L236.928 202.629L6.83336 202.614C5.78235 202.614 3.03118 202.907 2.22746 202.351C1.74832 202.026 1.40829 201.578 1.36192 201.006C1.3001 200.373 1.53194 199.909 1.96471 199.476C3.32484 198.116 10.4501 199.213 12.6603 198.811C13.5722 199.182 14.1904 199.182 15.1642 199.043L16.3079 199.074L46.2927 199.059C48.8429 199.26 51.3932 199.105 53.928 199.09L64.4226 199.151L101.594 199.136L109.709 199.182C110.605 199.198 112.135 199.028 112.939 199.383L112.955 196.787L142.089 196.74Z" fill="#FAE7D2"/>
<path d="M196.247 197.297L223.388 197.142L223.48 198.951L223.341 199.878C222.383 200.11 221.208 199.986 220.219 199.986H214.624L196.432 199.955C196.185 199.584 196.216 199.399 196.2 198.966L196.247 197.297Z" fill="#391448"/>
<path d="M142.09 196.74L142.615 196.833C142.739 197.498 142.723 198.162 142.739 198.827L142.662 199.553C142.012 199.924 115.227 199.94 113.094 199.646L112.924 199.352L112.94 196.756L142.09 196.74Z" fill="#391448"/>
<path d="M250.297 155.874C250.483 154.808 251.487 153.695 252.09 152.783L277.314 162.613L269.045 176.554L279.864 177.095L288.072 177.405C288.226 177.59 288.319 177.714 288.381 177.946L289.061 189.259L289.246 191.98L280.699 193.062L266.51 194.963C262.507 195.488 258.411 196.369 254.408 196.725C253.404 196.817 252.306 196.848 251.317 196.616C248.643 196.014 246.51 194.453 245.073 192.134C244.099 190.558 243.636 188.687 243.682 186.833C243.728 185.086 244.161 183.34 244.532 181.64L246.047 174.808L250.297 155.874Z" fill="#391448"/>
<path d="M189.199 7.23362C189.385 6.59992 189.647 5.95077 190.219 5.54891C190.667 5.22433 191.193 5.11614 191.734 5.08523H204.562L225.351 5.05431L235.675 5.08523C237.638 5.08523 239.787 4.89975 241.734 5.22433C242.399 5.36344 242.863 5.6571 243.249 6.22897C243.744 6.95541 243.465 24.6371 243.45 27.0174C243.45 28.2384 243.574 29.3512 242.646 30.2786C242.198 30.7268 241.642 30.9896 241.085 31.2523L234.532 31.2214L192.847 31.1905C191.718 31.1132 190.76 31.0359 189.91 30.2168C189.555 29.8767 189.338 29.4594 189.246 28.9803C188.936 27.141 189.199 24.8071 189.199 22.9061V7.23362Z" fill="#98723F"/>
<path d="M229.246 15.8114C230.019 15.9814 230.606 16.1823 231.023 16.9242C231.224 17.2952 231.24 17.8516 231.116 18.2535C230.9 18.8872 230.467 19.1808 229.895 19.4436L229.74 19.5209L229.648 19.5672L229.416 19.5209C228.798 19.3972 228.303 19.1654 227.963 18.6244C227.623 18.0834 227.7 17.6198 227.839 17.017C228.241 16.3833 228.535 16.136 229.246 15.8114Z" fill="#FEFEFE"/>
<path d="M195.784 16.8473H205.258C206.896 16.8473 208.705 16.6927 210.312 16.94C210.467 17.4191 210.389 17.7592 210.312 18.2383C209.277 18.4083 208.102 18.3001 207.036 18.3001H200.977C199.493 18.3001 196.958 18.6402 195.583 18.161C195.536 17.5428 195.49 17.3728 195.784 16.8473Z" fill="#FEFEFE"/>
<path d="M195.691 13.4468C197.051 13.2459 198.55 13.385 199.926 13.385L208.489 13.3696C209.988 13.3696 212.368 13.045 213.713 13.4932C213.821 13.9878 213.805 14.2815 213.651 14.7761C211.626 15.1006 209.107 14.8379 207.02 14.8379H199.215C198.087 14.8379 196.68 15.0079 195.598 14.7142C195.475 14.2042 195.521 13.926 195.691 13.4468Z" fill="#FEFEFE"/>
<path d="M241.735 5.23938C242.399 5.37848 242.863 5.67215 243.249 6.24402C243.744 6.97046 243.466 24.6522 243.45 27.0324C243.45 28.2534 243.574 29.3663 242.646 30.2936C242.198 30.7419 241.642 31.0046 241.085 31.2674L234.532 31.2365L234.455 20.1854C234.455 19.5208 234.717 18.3616 234.532 17.7742C234.223 16.8778 234.424 15.2394 234.424 14.2348L234.377 5.27029L241.735 5.23938Z" fill="#D2A57A"/>
<path d="M235.954 16.09C236.155 16.0437 236.34 15.9973 236.541 15.9973C237.036 15.9973 237.638 16.2446 237.932 16.6465C238.287 17.1411 238.365 17.6666 238.195 18.2539C238.04 18.8258 237.731 19.0112 237.283 19.3204C237.005 19.3822 236.711 19.4595 236.433 19.4749C235.845 19.4904 235.459 19.2431 235.073 18.8258C234.825 18.1457 234.686 17.852 234.903 17.1256C235.073 16.5692 235.459 16.3373 235.954 16.09Z" fill="#FEFEFE"/>
<path d="M220.39 17.1411C220.034 16.631 220.22 14.9309 220.22 14.2817V5.25537L229.2 5.28628L229.246 15.8119C228.535 16.1364 228.241 16.3837 227.809 17.0329C227.685 17.6202 227.592 18.0993 227.932 18.6403C228.272 19.1813 228.782 19.4131 229.385 19.5368L229.617 19.5831L229.663 31.1752L220.034 31.1288V23.2462C220.034 21.4069 219.864 19.3977 220.359 17.6048L220.39 17.1411Z" fill="#D2A57A"/>
<path d="M220.39 17.1411C220.915 16.6156 221.286 16.0437 222.105 16.0282C222.863 16.0128 223.187 16.4455 223.651 16.9247C223.898 17.5584 223.898 17.8984 223.713 18.5476C223.357 18.9803 223.064 19.3513 222.476 19.3977C221.734 19.4595 221.487 19.3513 220.869 18.9649C220.606 18.4857 220.421 18.1303 220.343 17.5893L220.39 17.1411Z" fill="#FEFEFE"/>
<path d="M36.2308 59.2587L47.5447 55.0083C47.7301 56.1057 48.2093 56.693 49.1057 57.3113C49.4612 57.5431 49.8631 57.7131 50.2495 57.8831L50.7286 57.9759L50.3422 62.4272L49.2912 71.8554C46.7564 71.9172 44.1752 71.9945 41.6714 72.5046C36.339 73.571 30.9603 76.2758 27.189 80.248C24.0205 83.5865 21.7021 87.806 19.3065 91.701L13.0931 101.701L9.26002 107.914C8.36357 109.352 7.31256 110.82 6.63249 112.381C6.10698 113.587 5.99879 115.024 6.02971 116.307C6.09153 118.409 7.08072 120.588 8.61086 122.026C10.5892 123.865 13.5413 124.638 16.0298 125.534C21.9494 127.698 27.9 129.476 34.0206 130.959L34.0361 140.047C34.0361 141.145 33.8351 142.876 34.1443 143.896C34.4379 144.36 34.6079 144.592 35.1798 144.715L35.5044 144.746C36.0608 148.888 37.7146 152.103 40.2339 155.395C44.6698 160.851 50.6822 165.179 56.7719 168.657C58.3793 169.584 60.7905 170.295 62.1661 171.454L59.894 171.408L47.3437 170.975L40.4658 170.697C39.2602 170.635 37.2818 170.264 36.2154 170.712L36.0454 172.32C34.4534 172.567 32.3359 172.335 30.713 172.196C29.832 171.732 28.611 171.315 27.8227 170.759C26.6017 169.893 25.4734 168.688 24.376 167.652C19.8938 163.432 15.8598 158.734 12.4285 153.602C1.87203 137.822 -2.4093 119.29 1.33107 100.588C1.88749 97.7906 2.84576 95.0858 3.86586 92.4274C7.37438 83.3392 12.8613 75.1784 20.4347 68.9806C22.8459 67.0177 25.458 65.5339 28.0082 63.8028L28.1319 63.7101L36.6327 63.6791C36.6481 62.1799 36.5554 60.727 36.2308 59.2587Z" fill="#D2A57A" fill-opacity="0.3"/>
<path d="M50.2345 57.8826C51.0073 57.6044 51.1001 57.5271 51.6101 56.8779C53.1094 60.0155 55.0877 62.7667 58.519 63.9568C59.74 64.3741 61.0538 64.4823 62.3366 64.6678L62.3521 68.4854L62.3675 72.3649C67.9781 72.5967 74.1914 74.1423 78.1018 78.4082C80.6366 81.1594 82.0276 85.7653 83.5269 89.1811L90.8376 106.059C91.6413 107.883 92.6459 110.835 93.9752 112.303C94.6398 113.045 95.1962 112.968 96.0926 113.014L96.4636 113.092L90.4048 126.987L78.8746 124.946C78.4573 126.152 78.6737 128.594 78.751 129.908L78.7664 130.124L88.921 130.109L88.2873 131.716L87.5918 131.917L87.4218 132.288L87.4991 132.396C87.8391 132.922 88.0091 133.694 87.87 134.328C87.7309 134.946 87.2981 135.256 86.8499 135.626L86.2317 136.152L78.8901 136.137C77.7463 137.11 76.788 137.698 75.3506 138.13C71.2239 139.382 66.5407 139.661 62.2903 140.341L42.4756 143.432L37.7924 144.205C37.0814 144.313 36.1386 144.344 35.5513 144.73L35.2267 144.699C34.6548 144.591 34.4848 144.344 34.1912 143.88C33.8666 142.86 34.083 141.129 34.083 140.031L34.0675 130.943C27.9469 129.46 21.9963 127.682 16.0767 125.518C13.5882 124.606 10.6361 123.849 8.65776 122.01C7.11215 120.572 6.12297 118.393 6.0766 116.291C6.04569 114.993 6.15388 113.555 6.67939 112.365C7.35945 110.82 8.41046 109.336 9.30691 107.898L13.14 101.685L19.3533 91.685C21.749 87.7746 24.0674 83.5705 27.2359 80.232C31.0072 76.2598 36.3859 73.5705 41.7183 72.4885C44.2067 71.9939 46.8033 71.9012 49.3381 71.8394L50.3891 62.4112L50.7755 57.9599L50.2345 57.8826Z" fill="#98723F"/>
<path d="M33.8044 116.693C32.9234 116.508 31.9651 116.013 31.1305 115.673L26.231 113.695L33.4335 105.194L33.6189 105.225L33.789 106.585L33.8044 116.693Z" fill="#FAE7D2"/>
<path d="M34.1591 143.896C34.2055 141.98 33.8346 131.84 34.2364 131.006L41.1453 132.551C41.1762 134.978 41.5162 137.343 41.6708 139.769C41.7326 140.774 41.5471 142.567 42.0263 143.432L42.4591 143.463L37.7759 144.236C37.0649 144.344 36.1221 144.375 35.5347 144.762L35.2102 144.731C34.6228 144.592 34.4528 144.36 34.1591 143.896Z" fill="#D2A57A"/>
<path d="M33.7888 106.6C33.7888 106.075 33.696 105.302 33.8197 104.807C33.9124 104.421 34.4534 103.911 34.7161 103.602L37.1273 100.789C38.8893 98.6249 40.574 95.9201 41.1458 93.1689L41.1922 92.968C41.7795 90.3404 41.455 87.7438 40.4967 85.2399C40.373 84.8999 40.2339 84.8535 40.4967 84.5753C40.9913 85.6418 41.3468 86.6619 41.625 87.8056C41.965 89.2121 41.9496 91.6851 41.5631 93.0607L40.9913 94.9C40.6049 95.9819 39.8012 97.0329 39.492 98.0684C39.2757 98.764 39.5693 100.65 39.5848 101.484L40.4194 119.367L33.7888 116.693V106.6Z" fill="#D2A57A"/>
<path d="M78.7193 117.219V123.015C78.7193 123.525 78.5802 124.529 78.8738 124.947C78.4565 126.152 78.6729 128.594 78.7502 129.908L78.7656 130.124L78.3329 130.65C77.0191 130.789 75.6126 130.696 74.2988 130.696L67.05 130.712L67.4982 130.325C68.0701 129.8 68.3328 129.429 68.3483 128.625C67.4054 126.121 63.5569 124.591 61.3467 123.432C67.6527 122.906 74.0052 121.871 78.7193 117.219Z" fill="#98723F"/>
<path d="M46.6633 132.783C46.8024 131.794 47.2507 130.727 47.5443 129.769C48.2089 127.59 48.889 125.441 49.8164 123.37L56.7098 123.2C58.1781 123.154 59.9555 122.906 61.3466 123.432C63.5723 124.591 67.4054 126.121 68.3482 128.625C68.3173 129.429 68.07 129.8 67.4981 130.325L67.0499 130.712L59.2755 130.743L58.6572 130.835C58.1781 131.886 58.4718 134.267 58.5027 135.488C57.2198 135.209 55.7051 135.379 54.3759 135.209C52.8303 134.993 51.2847 134.359 49.8164 133.849C48.7654 133.463 47.6989 133.2 46.6633 132.783Z" fill="#F9AD8D"/>
<path d="M50.2339 57.8826C51.0067 57.6044 51.0995 57.5271 51.6095 56.8779C53.1087 60.0155 55.0871 62.7667 58.5184 63.9568C59.7394 64.3741 61.0531 64.4823 62.336 64.6678L62.3515 68.4854L62.3669 72.3649C62.3515 73.9723 62.6142 75.8889 61.5477 77.2026C60.5586 78.4237 59.2602 79.181 57.6992 79.3665C55.7363 79.5983 53.8043 79.181 52.2432 77.9291C50.2803 76.3526 49.5229 74.2814 49.2756 71.8394L50.3266 62.4112L50.713 57.9599L50.2339 57.8826Z" fill="#F9AD8D"/>
<path d="M50.2339 57.8826C51.0067 57.6044 51.0994 57.5271 51.6095 56.8779C53.1087 60.0155 55.0871 62.7667 58.5183 63.9568C59.7394 64.3741 61.0531 64.4823 62.336 64.6678L62.3514 68.4854C61.0995 68.47 59.693 68.5472 58.4565 68.2845C55.0562 67.5581 52.1504 65.3015 50.3112 62.4112L50.6976 57.9599L50.2339 57.8826Z" fill="#F37F70"/>
<path d="M78.7195 117.219L78.4104 87.6823L81.9653 102.845C83.0008 106.168 84.531 110.464 87.8386 112.134C89.7551 113.107 91.7799 113.231 93.8819 113.2C94.6238 113.185 95.3966 113.231 96.1076 112.999L96.4785 113.077L90.4198 126.972L78.8741 124.947C78.5804 124.529 78.7195 123.525 78.7195 123.015V117.219Z" fill="#D2A57A"/>
<path d="M78.7659 130.14L88.9206 130.125L88.2869 131.732L87.5914 131.933L87.4213 132.304L87.4986 132.412C87.8386 132.938 88.0087 133.71 87.8696 134.344C87.7305 134.962 87.2977 135.271 86.8495 135.642L86.2312 136.168L78.8896 136.152C77.7458 137.126 76.7876 137.713 75.3502 138.146C71.2234 139.398 66.5402 139.676 62.2898 140.356L42.4751 143.448L42.0424 143.417C41.5787 142.551 41.7642 140.758 41.6869 139.754C41.5323 137.342 41.2077 134.962 41.1614 132.536C42.7843 133.015 44.4999 133.37 46.1846 133.401C46.3701 133.2 46.5401 132.999 46.6792 132.767C47.7147 133.185 48.7812 133.463 49.8322 133.834C51.3005 134.359 52.8307 134.993 54.3918 135.194C55.721 135.38 57.2357 135.194 58.5185 135.472C58.4876 134.251 58.1939 131.871 58.6731 130.82L59.2913 130.727L67.0657 130.712L74.3146 130.696C75.6438 130.696 77.0349 130.789 78.3486 130.65L78.7659 130.14Z" fill="#98723F"/>
<path d="M78.7661 130.14L88.9207 130.125L88.287 131.732L87.5915 131.933L87.4215 132.304L87.4987 132.412C87.8388 132.938 88.0088 133.71 87.8697 134.344C87.7306 134.962 87.2978 135.271 86.8496 135.642L86.2313 136.168L78.8897 136.152C74.1293 135.766 69.106 136.044 64.3147 136.013C62.7536 136.013 60.9761 136.168 59.446 135.951C59.0596 135.89 58.8123 135.735 58.5186 135.488C58.4877 134.267 58.1941 131.886 58.6732 130.835L59.2914 130.743L67.0658 130.727L74.3147 130.712C75.6439 130.712 77.035 130.805 78.3488 130.665L78.7661 130.14Z" fill="#3E214C"/>
<path d="M78.333 130.665L78.4875 130.727C79.0594 130.975 79.5695 131.407 79.7549 132.026C79.925 132.613 79.9868 133.447 79.6313 133.973C79.4149 134.328 79.2294 134.56 78.7967 134.622C76.7565 134.9 74.2217 134.638 72.1196 134.622L64.7471 134.607C63.4179 134.607 62.0114 134.684 60.6976 134.529C60.2803 134.483 59.9712 134.328 59.6466 134.066C59.1057 133.138 59.2911 131.794 59.2602 130.727L67.0346 130.712L74.2835 130.696C75.6127 130.712 77.0192 130.805 78.333 130.665Z" fill="#D2A57A"/>
<path d="M270.823 37.6664C273.249 37.9137 275.29 38.4546 277.562 39.3202C279.772 39.5675 281.688 40.5258 283.744 41.2986C295.182 45.5799 306.434 53.0142 314.069 62.6279C324.78 76.1365 329.54 92.6745 327.562 109.8C325.244 129.815 314.038 148.069 299.803 161.887C297.314 164.313 294.857 166.663 292.121 168.826C290.019 170.496 287.732 172.088 285.46 173.541C284.393 174.221 280.359 176.075 279.895 176.833L279.865 177.08L269.045 176.539L277.314 162.598C282.013 164.483 286.882 166.168 291.936 164.669C295.722 163.54 299.185 160.727 301.055 157.219C304.1 151.485 303.342 144.267 301.503 138.27L299.262 131.423L299.061 131.361C296.866 132.026 294.61 132.01 292.353 132.01C287.917 132.01 283.543 131.516 279.123 131.222L278.443 130.418C277.778 130.016 276.912 130.14 276.155 130.124L271.518 130.094C270.498 130.325 268.86 130.186 267.84 130.001L259.679 130.109C259.153 130.372 258.783 130.604 258.164 130.511L257.871 130.078L258.102 129.043C257.453 128.981 256.912 129.429 256.34 129.738C256.093 129.893 255.892 130.078 255.599 130.094L255.089 128.362L254.826 127.373L254.316 125.689C256.201 124.359 259.184 122.814 261.441 122.35C262.307 122.18 263.265 122.257 264.146 122.211L260.606 111.067L260.405 110.727C259.787 110.403 259.277 110.016 258.736 109.583C258.072 108.61 257.021 107.667 256.248 106.739C254.764 103.772 254.393 100.82 254.748 97.5277L250.915 94.9465L250.003 94.2046C249.911 93.4627 250.977 92.0408 251.379 91.3298C253.868 87.5585 256.773 83.1072 260.606 80.6187C259.246 75.0237 259.756 69.6913 260.514 64.0653C259.54 62.257 258.86 60.5413 258.257 58.5939C256.758 58.2538 255.537 57.7902 254.408 56.6773C253.002 55.3017 252.291 53.3852 252.276 51.4377C252.245 48.8411 253.388 46.3681 255.908 45.3326C256.186 45.2244 257.129 45.0389 257.299 44.8689C257.469 44.7143 257.732 43.7406 257.855 43.4779C258.257 42.6278 258.844 41.8086 259.509 41.144C262.43 38.2383 266.928 37.6664 270.823 37.6664Z" fill="#D2A57A" fill-opacity="0.3"/>
<path d="M270.823 37.6664C273.249 37.9137 275.289 38.4546 277.562 39.3202C282.013 41.9168 284.146 45.1471 286.047 49.8612C286.99 52.1951 287.933 54.4826 289.617 56.3991C292.554 59.7067 296.557 61.005 300.483 62.7516C305.923 65.1782 312.214 69.0112 313.837 75.1937C314.733 78.594 314.594 82.1643 312.77 85.2401C310.931 88.3468 308.103 89.8769 304.903 91.2525C303.713 89.4751 302.77 87.6822 301.41 86.0129C296.572 80.0778 290.081 75.5955 282.322 74.8227L280.993 66.8474C279.138 68.563 277.391 70.0777 275.135 71.2833C273.96 71.9015 272.708 72.3034 271.487 72.8443C271.487 73.3389 271.611 74.2663 271.364 74.6836C271.163 74.7918 270.776 75.0391 270.575 75.07C267.793 75.9046 265.784 76.9711 263.45 78.7176L260.575 80.6033C259.215 75.0082 259.725 69.6759 260.483 64.0499C259.509 62.2415 258.829 60.5259 258.226 58.5784C256.727 58.2384 255.506 57.7747 254.377 56.6619C252.971 55.2863 252.26 53.3697 252.245 51.4223C252.214 48.8257 253.357 46.3527 255.877 45.3171C256.155 45.2089 257.098 45.0235 257.268 44.8534C257.438 44.6989 257.7 43.7252 257.824 43.4624C258.226 42.6123 258.813 41.7931 259.478 41.1285C262.43 38.2383 266.928 37.6664 270.823 37.6664Z" fill="#2D2D2D"/>
<path d="M258.257 58.5785C257.933 55.8583 257.639 53.2771 258.072 50.5568C258.149 50.0468 258.211 49.3358 258.474 48.8876C260.483 52.0097 263.234 54.4054 266.928 55.2246C270.436 56.0128 273.93 55.1627 277.222 53.8953C277.654 52.798 278.134 51.7315 279.293 51.2369C280.081 50.8969 280.962 50.835 281.75 51.2214C282.693 51.6851 283.342 52.5507 283.621 53.5398C283.93 54.5909 283.775 55.58 283.219 56.5229C282.6 57.5739 281.704 58.0066 280.607 58.3621C280.467 58.4085 280.019 58.4858 279.957 58.5476C279.88 58.6249 279.896 59.3822 279.911 59.5059L280.993 66.863C279.138 68.5786 277.392 70.0933 275.135 71.2988C273.96 71.9171 272.709 72.3189 271.488 72.8599C271.488 73.3545 271.611 74.2819 271.364 74.6992C271.163 74.8074 270.777 75.0547 270.576 75.0856C267.794 75.9202 265.784 76.9867 263.45 78.7332L260.576 80.6188C259.215 75.0238 259.725 69.6914 260.483 64.0654C259.525 62.2416 258.844 60.526 258.257 58.5785Z" fill="#F9A891"/>
<path d="M280.112 53.2615C280.406 53.1842 280.637 53.1688 280.931 53.277C281.503 53.4779 281.642 53.8798 281.843 54.3898C281.735 55.1781 281.58 55.5027 281.039 56.09C280.946 56.1673 280.9 56.1982 280.776 56.26C280.328 56.4455 280.143 56.3527 279.741 56.1673C279.354 55.6108 279.154 55.1935 279.246 54.4826C279.354 53.8489 279.664 53.6634 280.112 53.2615Z" fill="#391448"/>
<path d="M279.927 59.5059L281.009 66.8629C279.154 68.5786 277.407 70.0933 275.151 71.2988C273.976 71.9171 272.724 72.3189 271.503 72.8599C271.503 73.3545 271.627 74.2818 271.379 74.6992V70.0314C272.616 69.4441 273.868 69.0577 274.996 68.2231C277.871 66.0592 279.401 62.9835 279.927 59.5059Z" fill="#F37F70"/>
<path d="M260.498 64.0498C262.106 66.801 264.038 69.3512 267.283 70.1549C268.643 70.495 270.065 70.4795 271.379 70.0158V74.6836C271.178 74.7918 270.792 75.0391 270.591 75.07C267.809 75.9046 265.8 76.9711 263.466 78.7176L260.591 80.6032C259.215 75.0082 259.741 69.6913 260.498 64.0498Z" fill="#2D2D2D"/>
<path d="M271.379 74.6839C271.626 74.2666 271.503 73.3392 271.503 72.8446C272.708 72.3036 273.96 71.9172 275.15 71.2835C277.407 70.0934 279.153 68.5787 281.008 66.8477L282.337 74.823C290.096 75.5958 296.588 80.078 301.425 86.0132C302.786 87.6824 303.728 89.4753 304.919 91.2528L307.732 96.9251C306.851 97.7598 305.985 98.6871 304.98 99.3826L307.886 106.106C308.643 107.837 309.725 109.785 310.019 111.655C310.22 112.938 310.034 114.236 309.586 115.441C308.705 117.806 306.665 119.414 304.408 120.403L298.071 122.752L299.2 128.131C299.401 129.058 299.756 130.125 299.633 131.068L299.277 131.454L299.076 131.392C296.881 132.057 294.625 132.041 292.368 132.041C287.932 132.041 283.558 131.547 279.138 131.253L278.458 130.449C277.793 130.047 276.928 130.171 276.17 130.156L271.533 130.125C270.513 130.357 268.875 130.217 267.855 130.032L259.694 130.14C259.169 130.403 258.798 130.635 258.179 130.542L257.886 130.109L258.118 129.074C257.468 129.012 256.927 129.46 256.356 129.769C256.108 129.924 255.907 130.109 255.614 130.125L255.104 128.394L254.841 127.404L254.331 125.72C256.217 124.391 259.2 122.845 261.456 122.381C262.322 122.211 263.28 122.288 264.161 122.242L260.621 111.098L260.421 110.758C259.802 110.434 259.292 110.047 258.751 109.615C258.087 108.641 257.036 107.698 256.263 106.771C254.779 103.803 254.408 100.851 254.764 97.5588L250.931 94.9777L250.019 94.2358C249.926 93.4939 250.992 92.0719 251.394 91.3609C253.883 87.5897 256.788 83.1383 260.621 80.6499L263.496 78.7643C265.83 77.0177 267.839 75.9513 270.622 75.1166C270.792 75.0394 271.178 74.7766 271.379 74.6839Z" fill="#98723F"/>
<path d="M263.465 78.7178C262.043 80.6652 260.56 82.4118 259.277 84.4829C256.897 88.3314 255.521 93.1074 254.717 97.5278L250.884 94.9466L249.972 94.2047C249.88 93.4628 250.946 92.0409 251.348 91.3299C253.836 87.5586 256.742 83.1073 260.575 80.6189L263.465 78.7178Z" fill="#98723F"/>
<path d="M271.379 74.6839C271.627 74.2666 271.503 73.3392 271.503 72.8446C272.708 72.3036 273.96 71.9172 275.151 71.2835C277.407 70.0934 279.154 68.5787 281.008 66.8477L282.338 74.823C281.858 77.7133 280.838 79.7225 278.396 81.4845C276.804 82.6283 274.872 83.3083 272.878 82.9374C271.797 82.7365 270.715 82.041 270.127 81.1136C269.37 79.9389 269.215 78.6715 269.525 77.3423C269.741 76.4304 270.05 75.8122 270.606 75.0703C270.792 75.0394 271.178 74.7766 271.379 74.6839Z" fill="#F9A891"/>
<path d="M260.575 111.052L260.9 110.697C262.646 111.114 264.532 111.268 266.325 111.191C269.478 111.052 272.6 110.496 275.722 110.063C278.149 109.723 280.792 109.707 283.017 108.625C285.954 107.188 288.041 104.993 290.204 102.629C289.957 101.948 288.952 101.222 288.52 100.557C286.186 97.1416 284.795 91.8247 285.614 87.7289L285.784 86.8633L285.83 86.6624C286 85.8741 286.31 85.1632 286.742 84.4831C287.886 82.6747 289.71 81.5001 291.765 81.0209C292.322 80.8973 292.724 80.7891 293.218 81.0982L293.157 81.3301L291.549 81.6856C290.699 81.871 289.772 82.1956 289.061 82.7211C287.469 83.9267 286.464 85.5341 286.17 87.5125C286.031 88.4553 285.939 89.3054 285.939 90.2637C285.985 94.8387 287.407 99.1973 290.699 102.412C291.379 103.077 291.796 103.231 292.739 103.216H292.956L295.367 109.228L279.277 118.255C276.078 120.032 272.445 121.624 269.478 123.757C267.87 123.278 265.552 123 264.115 122.227L260.575 111.052Z" fill="#D2A57A"/>
<path d="M304.965 99.3823L307.871 106.106C308.628 107.837 309.71 109.784 310.004 111.654C310.205 112.937 310.019 114.236 309.571 115.441C308.69 117.806 306.65 119.413 304.393 120.403L298.056 122.752L299.185 128.131C299.386 129.058 299.741 130.124 299.617 131.067L299.262 131.454L299.061 131.392C296.866 132.056 294.61 132.041 292.353 132.041C287.917 132.041 283.543 131.546 279.123 131.253L278.443 130.449C277.778 130.047 276.912 130.171 276.155 130.155L271.518 130.124C270.498 130.356 268.86 130.217 267.84 130.032L259.679 130.14C259.153 130.403 258.782 130.634 258.164 130.542L257.871 130.109L258.102 129.073C257.453 129.012 256.912 129.46 256.34 129.769C256.093 129.923 255.892 130.109 255.599 130.124L255.088 128.393L254.826 127.404L254.316 125.719C256.201 124.39 259.184 122.845 261.441 122.381C262.306 122.211 263.265 122.288 264.146 122.242C265.583 123.015 267.902 123.293 269.509 123.772C272.477 121.639 276.109 120.047 279.308 118.27L295.398 109.243L292.987 103.231C297.454 102.86 301.101 101.732 304.965 99.3823Z" fill="#F9AD8D"/>
<path d="M255.057 128.362C256.294 127.837 258.659 126.23 259.864 126.338L259.756 126.863L259.601 126.925C258.427 127.373 257.438 128.038 256.448 128.826C256.387 129.151 256.325 129.429 256.325 129.754C256.077 129.908 255.877 130.094 255.583 130.109L255.057 128.362Z" fill="#FEFEFE"/>
<path d="M254.779 127.373C255.227 127.435 255.428 127.203 255.83 127.064C256.402 126.879 257.02 126.508 257.53 126.168C257.778 125.998 258.025 125.828 258.303 125.719C258.519 125.642 258.643 125.395 258.798 125.225L258.612 124.947H257.948C257.716 125.132 257.623 125.225 257.329 125.302L257.097 125.348L256.866 125.41L257.005 125.086C257.283 124.978 257.561 124.885 257.793 124.699L257.948 124.576C258.581 124.653 258.659 124.622 259.107 125.07L259.06 125.549L257.391 126.662C257.669 126.709 257.793 126.724 258.056 126.57C258.318 126.399 258.349 126.291 258.674 126.229L258.906 126.183C259.076 126.121 259.138 125.998 259.339 125.967C259.787 125.874 259.787 125.92 260.158 126.183L259.864 126.338C258.659 126.229 256.294 127.852 255.057 128.362L254.779 127.373Z" fill="#F9A891"/>
<path d="M259.663 130.125C260.529 129.46 261.441 128.981 262.415 128.502C264.285 128.811 266.047 129.352 267.824 130.017L259.663 130.125Z" fill="#3E214C"/>
<path d="M271.503 130.124C272.43 129.521 273.867 129.521 274.949 129.321L279.092 128.378C285.459 126.739 291.905 125.055 298.072 122.752L299.2 128.13C299.401 129.058 299.756 130.124 299.633 131.067L299.277 131.453L299.076 131.392C296.882 132.056 294.625 132.041 292.368 132.041C287.932 132.041 283.558 131.546 279.138 131.253L278.458 130.449C277.793 130.047 276.928 130.171 276.17 130.155L271.503 130.124Z" fill="#D2A57A"/>
<path d="M116.912 136.152H123.45C124.3 136.152 125.428 136.013 126.216 136.229C128.226 138.161 129.802 140.387 129.848 143.293L129.416 152.165C132.43 152.675 135.644 152.427 138.674 152.087C143.573 151.546 148.427 150.588 153.094 148.981C155.614 148.115 158.009 146.956 160.482 145.951L160.946 139.444C161.008 138.749 161.008 137.651 161.348 137.064C161.564 136.693 161.812 136.693 162.198 136.616C163.419 137.095 164.455 137.93 165.521 138.687C167.809 140.341 169.849 142.072 171.904 144.004C173.635 145.75 176.047 148.038 176 150.681C175.969 152.829 175.057 154.931 173.496 156.415C172.94 156.941 172.275 157.497 171.533 157.713L171.193 158.084C171.472 159.723 172.167 161.392 172.615 162.999C173.775 167.111 174.856 171.995 174.733 176.292L174.532 176.276C174.13 176.353 174.006 176.292 173.62 176.168L173.388 176.245L173.234 176.276C171.843 176.462 170.343 176.369 168.921 176.369L161.425 176.353L161.379 181.918L163.945 181.964L164.856 190.573C165.026 192.227 164.996 194.267 165.536 195.828C165.892 196.848 166.587 197.76 167.391 198.486L167.979 198.966C167.809 199.043 167.685 199.105 167.499 199.12C165.691 199.352 163.496 199.058 161.642 199.043H148.782L144.563 199.105C144.238 199.105 143.357 199.244 143.079 199.151C142.94 199.105 142.847 198.95 142.739 198.857C142.739 198.177 142.739 197.528 142.615 196.864L142.09 196.771L112.924 196.802L112.909 199.398C112.105 199.043 110.575 199.197 109.678 199.197L101.564 199.151L64.3766 199.136L53.882 199.074C51.3317 199.089 48.7815 199.244 46.2467 199.043C47.9932 198.811 49.9407 198.966 51.7027 198.95C46.1694 196.508 40.4198 192.706 36.2312 188.332L36.293 182.366L36.3394 182.242L36.2466 170.712C37.2976 170.264 39.276 170.635 40.497 170.696L47.375 170.975L59.9253 171.407L62.1973 171.454C60.8217 170.295 58.4261 169.584 56.8032 168.656C50.7289 165.179 44.7165 160.851 40.2652 155.395C37.7459 152.103 36.0921 148.888 35.5356 144.746C36.123 144.359 37.0812 144.344 37.7768 144.22L42.46 143.447L62.2746 140.356C66.525 139.692 71.2082 139.398 75.335 138.146C76.7724 137.713 77.7307 137.126 78.8744 136.152L86.216 136.168L116.912 136.152Z" fill="#D2A57A" fill-opacity="0.3"/>
<path d="M154.809 169.679C153.063 168.751 151.455 166.433 150.343 164.826C148.967 162.847 147.731 160.73 146.602 158.612C146.2 157.87 145.737 157.144 145.891 156.278C146.958 155.413 149.446 155.985 150.791 156.093L157.252 156.897C160.08 157.329 163.109 157.623 165.026 160.019C166.17 161.441 166.633 163.326 166.417 165.135C166.309 165.969 166.015 166.789 165.629 167.546C165.598 167.252 165.582 166.974 165.644 166.696L165.783 165.985C165.984 164.207 165.768 162.105 164.578 160.668C162.507 158.133 158.782 157.932 155.737 157.546L148.967 156.742L146.68 156.727C148.828 161.085 151.332 165.073 154.701 168.581C156.556 169.818 158.503 170.853 160.837 170.483C162.414 170.22 164.068 168.442 165.459 168.581L165.242 168.674C164.763 168.906 164.562 169.509 164.16 169.849C162.398 171.364 159.632 171.626 157.468 171.023C156.633 170.776 155.49 170.328 154.809 169.679Z" fill="#98723F"/>
<path d="M116.417 179.599C119.199 179.615 122.398 179.321 125.134 179.692L125.01 179.846L124.995 186.585L113.511 186.57C113.696 185.828 113.619 184.931 113.635 184.159L113.681 179.615L116.417 179.599Z" fill="#F37F70"/>
<path d="M154.748 168.193C151.363 164.684 148.874 160.696 146.726 156.338L149.014 156.353L155.783 157.157C158.813 157.543 162.538 157.744 164.624 160.279C165.814 161.716 166.031 163.818 165.83 165.596L165.691 166.307C165.629 166.585 165.644 166.863 165.675 167.157L165.521 167.775C168.457 170.155 171.873 172.737 173.666 176.152L173.434 176.23C171.178 173.061 168.735 170.449 165.552 168.193C164.176 168.038 162.522 169.831 160.93 170.094C158.55 170.48 156.602 169.429 154.748 168.193Z" fill="#391448"/>
<path d="M126.464 186.153C127.005 186.493 127.561 186.894 128.148 187.157C128.767 187.281 129.137 187.528 129.632 187.884C130.158 187.961 131.116 188.626 131.44 189.043C131.549 189.182 131.549 189.228 131.595 189.383L131.935 189.027C132.476 189.043 132.739 189.151 133.171 189.46L133.295 189.537C136.139 191.33 140.776 191.315 141.672 195.117C141.781 195.55 141.811 195.983 141.842 196.415L142.09 196.725L112.924 196.755L113.032 188.038H124.392C125.335 188.007 125.737 186.91 126.371 186.245L126.464 186.153Z" fill="#98723F"/>
<path d="M131.579 189.383L131.919 189.028C132.46 189.043 132.723 189.151 133.155 189.46C132.274 190.496 131.502 191.624 130.512 192.567C130.033 192.49 129.817 192.351 129.461 192.026C129.647 191.099 130.914 190.094 131.579 189.383Z" fill="#FEFEFE"/>
<path d="M128.148 187.173C128.766 187.296 129.137 187.544 129.632 187.899C128.967 188.595 127.36 190.758 126.556 191.052L125.613 190.465L125.582 190.032L128.148 187.173Z" fill="#FEFEFE"/>
<path d="M160.482 145.936L160.946 139.429C161.008 138.734 161.008 137.636 161.348 137.049C161.564 136.678 161.811 136.678 162.198 136.601C163.419 137.08 164.454 137.914 165.521 138.672C167.808 140.325 169.849 142.057 171.904 143.989C173.635 145.735 176.046 148.023 176 150.666C175.969 152.814 175.057 154.916 173.496 156.4C172.94 156.925 172.275 157.482 171.533 157.698L171.193 158.069C171.471 159.707 172.167 161.377 172.615 162.984C173.774 167.095 174.856 171.979 174.733 176.276L174.532 176.261C174.331 175.009 174.346 173.68 174.192 172.397C173.728 168.749 172.971 165.194 171.951 161.655C171.626 160.557 171.348 159.244 170.791 158.255L170.189 158.27C169.431 158.44 168.628 158.595 167.839 158.579C165.876 158.548 164.037 157.744 162.677 156.323C160.111 153.602 160.405 149.414 160.482 145.936Z" fill="#391448"/>
<path d="M160.482 146.324L160.946 139.817C161.007 139.122 161.007 138.025 161.347 137.437C161.564 137.066 161.811 137.066 162.198 136.989C163.419 137.468 164.454 138.303 165.521 139.06C167.808 140.714 169.848 142.445 171.904 144.377C173.635 146.124 176.046 148.411 176 151.054C175.969 153.202 175.057 155.304 173.496 156.788C172.939 157.314 172.275 157.87 171.533 158.087L171.641 157.901C172.028 157.283 172.754 156.757 173.249 156.201C174.671 154.624 175.582 152.399 175.134 150.281C174.902 149.199 174.161 148.287 173.496 147.453C170.606 143.836 166.51 140.652 162.599 138.179L162.167 137.916C161.811 140.528 161.687 143.141 161.579 145.768C161.471 148.906 161.023 153.218 163.063 155.861C164.037 157.113 165.613 158.241 167.221 158.427C168.21 158.55 169.184 158.427 170.173 158.658C169.416 158.828 168.612 158.983 167.824 158.968C165.861 158.937 164.021 158.133 162.661 156.711C160.111 153.991 160.405 149.802 160.482 146.324Z" fill="#98723F"/>
<path d="M116.912 136.152H123.45C124.3 136.152 125.428 136.013 126.216 136.229C128.226 138.161 129.802 140.387 129.849 143.293L129.416 152.165L127.638 179.738L125.119 179.692C122.383 179.321 119.184 179.615 116.402 179.599L113.666 179.615H108.859L108.844 152.35L82.8468 156.369C82.1512 155.967 81.1311 154.004 80.652 153.277L73.2486 142.211C68.4108 142.829 63.5885 144.236 58.9672 145.75C52.5529 147.852 45.0722 150.495 40.2344 155.395C37.7151 152.103 36.0613 148.888 35.5049 144.746C36.0922 144.359 37.0505 144.344 37.746 144.22L42.4292 143.447L62.2439 140.356C66.4943 139.692 71.1774 139.398 75.3042 138.146C76.7416 137.713 77.6999 137.126 78.8436 136.152L86.1853 136.168L116.912 136.152Z" fill="#391448"/>
<path d="M116.911 136.152H123.449C124.299 136.152 125.428 136.013 126.216 136.229C128.225 138.161 129.802 140.387 129.848 143.293L129.415 152.165L127.638 179.738L125.118 179.692C122.383 179.321 119.183 179.615 116.401 179.599C116.123 178.625 116.231 177.111 116.169 176.06L115.381 164.344L113.805 143.787C113.696 140.696 114.856 138.378 116.911 136.152Z" fill="#3E214C"/>
<path d="M40.2338 155.395C45.0715 150.511 52.5522 147.853 58.951 145.75C63.5724 144.236 68.3947 142.829 73.2324 142.211L80.6359 153.278C81.115 153.989 82.1351 155.967 82.8306 156.369L92.908 171.701C94.3763 173.989 96.4165 176.523 97.3748 179.043C98.0857 180.898 98.3021 182.953 97.993 184.916C97.5602 187.667 96.0146 190.202 93.758 191.856C92.4443 192.814 90.6205 193.587 88.9976 193.711C86.8337 193.865 84.7472 193.525 82.5988 193.309L71.1768 191.964L50.1565 189.553L36.5243 188.038C35.937 186.4 36.8489 184.02 36.2925 182.35L36.3388 182.227L36.2461 170.697C37.2971 170.248 39.2755 170.619 40.4965 170.681L47.3744 170.959L59.9248 171.392L62.1968 171.438C60.8212 170.279 58.4255 169.568 56.8026 168.641C50.6975 165.163 44.6851 160.836 40.2338 155.395Z" fill="#3E214C"/>
<path d="M59.8788 171.392L62.1508 171.439C63.0782 171.47 64.0365 171.995 64.8865 172.351L69.4152 174.19C75.644 176.493 81.6564 178.178 88.3179 178.332C86.7723 179.29 80.4199 178.394 78.5651 177.977C73.171 176.771 67.9314 174.978 62.6918 173.216C61.7799 172.907 59.0287 172.304 58.5496 171.531L59.8788 171.392Z" fill="#391448"/>
<path d="M171.904 143.988C172.769 142.551 173.867 141.237 174.825 139.862C176.371 137.651 177.793 135.318 178.844 132.845C182.491 124.297 181.811 114.622 182.769 105.534C183.295 100.526 184.454 95.6419 186.093 90.8815C187.885 91.0824 189.709 90.9742 191.502 90.9742L198.937 91.0206L226.897 91.1442L226.526 91.3606C228.303 91.917 230.405 91.206 232.213 91.6697C233.388 91.9788 234.563 91.2988 235.753 91.6697C236.232 91.8088 236.68 91.6234 237.159 91.577C238.272 91.4843 240.436 91.2833 241.41 91.7161L241.518 91.6852C243.651 91.0515 246.325 91.9634 248.52 91.4688C249.2 91.3142 250.544 90.8351 251.178 91.237L251.317 91.3297C250.915 92.0252 249.849 93.4472 249.941 94.2045L250.853 94.9464L254.686 97.5276C254.331 100.82 254.702 103.772 256.186 106.739C256.959 107.667 258.01 108.625 258.674 109.583C259.215 110.016 259.71 110.418 260.343 110.727L260.544 111.067L264.084 122.211C263.203 122.257 262.244 122.18 261.379 122.35C259.122 122.814 256.139 124.359 254.254 125.688L254.764 127.373L255.027 128.362L255.537 130.093C255.83 130.078 256.047 129.908 256.278 129.738C256.85 129.429 257.391 128.981 258.04 129.042L257.809 130.078L258.102 130.511C258.705 130.604 259.091 130.372 259.617 130.109L267.778 130.001C268.798 130.202 270.436 130.341 271.456 130.093L276.093 130.124C276.85 130.14 277.716 130.016 278.381 130.418L279.061 131.222C283.481 131.515 287.855 132.01 292.291 132.01C294.563 132.01 296.82 132.025 298.999 131.361L299.2 131.423L301.441 138.27C303.28 144.267 304.038 151.485 300.993 157.219C299.138 160.727 295.66 163.54 291.874 164.669C286.82 166.183 281.951 164.483 277.252 162.598L252.028 152.767C251.441 153.679 250.421 154.777 250.235 155.859C249.06 156.415 245.768 161.717 244.872 162.999L233.465 179.027L229.864 184.066C229.431 184.653 228.999 185.503 228.504 186.013C228.349 186.168 228.179 186.214 227.994 186.292C227.082 185.921 226.278 185.318 225.475 184.761L223.743 187.899C223.543 188.27 223.156 188.78 223.141 189.197C223.079 190.418 223.264 191.655 223.172 192.876L223.357 197.142L196.216 197.296V198.981C194.702 199.213 192.955 199.058 191.425 199.043C189.307 199.043 186.989 199.213 184.902 198.873C184.284 199.197 183.527 199.646 182.847 199.831C181.641 200.156 180.034 199.97 178.782 199.955C175.304 199.955 171.131 200.542 167.947 198.935L167.36 198.456C166.556 197.729 165.876 196.833 165.505 195.797C164.964 194.236 164.995 192.196 164.825 190.542L163.913 181.933L161.347 181.887L161.394 176.323L168.89 176.338C170.296 176.338 171.796 176.431 173.202 176.245L173.357 176.214L173.589 176.137C173.975 176.261 174.099 176.323 174.501 176.245L174.701 176.261C174.825 171.964 173.759 167.08 172.584 162.968C172.12 161.361 171.44 159.692 171.162 158.053L171.502 157.683C172.228 157.466 172.909 156.91 173.465 156.384C175.026 154.9 175.938 152.798 175.969 150.65C176.046 148.038 173.635 145.735 171.904 143.988Z" fill="#D2A57A" fill-opacity="0.3"/>
<path d="M201.224 151.005C201.966 150.974 202.182 150.851 202.77 151.361C203.311 152.582 201.611 156.369 201.101 157.682C199.663 161.407 197.932 165.673 194.037 167.358C192.182 168.146 190.173 168.177 188.303 167.42C187.7 167.172 186.896 166.832 186.448 166.353C187.02 166.183 188.442 166.848 189.091 167.002C191.039 167.481 192.754 167.172 194.439 166.121C197.777 164.035 199.215 159.97 200.56 156.461C201.116 155.008 201.75 153.509 202.105 151.995L201.781 151.685C198.303 152.458 195.057 152.999 191.657 154.174C189.369 154.962 186.881 155.982 185.536 158.115C184.748 159.352 184.454 160.511 184.655 161.964L184.686 162.196C184.841 163.277 185.444 164.313 185.505 165.379C184.733 164.638 184.269 163.37 184.099 162.319C183.805 160.511 184.145 158.625 185.243 157.141C186.031 156.075 187.128 155.348 188.257 154.715C192.074 152.582 196.927 151.716 201.224 151.005Z" fill="#98723F"/>
<path d="M180.544 150.915C178.828 149.555 177.669 147.7 177.407 145.505C177.113 143.048 177.623 140.745 179.168 138.782C181.657 135.644 186.016 133.171 189.509 131.332C190.42 130.853 191.549 130.142 192.569 130.003C192.785 129.972 193.079 130.204 193.28 130.312C193.651 131.1 193.45 132.538 193.45 133.419C193.404 137.808 193.465 143.156 191.951 147.314C191.24 149.277 189.74 150.698 187.87 151.564C186.186 152.337 183.79 152.476 182.028 151.811C181.796 151.719 181.595 151.61 181.394 151.487C181.997 151.255 183.156 151.641 183.852 151.657C185.938 151.703 188.118 150.899 189.617 149.447C192.847 146.324 192.584 135.366 192.693 130.93C190.359 131.703 188.118 133.156 186.077 134.485C183.589 136.108 180.606 137.994 179.076 140.637C177.731 142.94 177.716 146.278 179.091 148.596C179.539 149.354 180.343 149.926 180.529 150.822L180.544 150.915Z" fill="#98723F"/>
<path d="M216.819 179.429L225.521 184.777L223.79 187.915C223.589 188.286 223.203 188.796 223.187 189.213C223.125 190.434 223.311 191.671 223.218 192.892C222.909 191.717 223.048 190.233 223.017 188.997C220.591 189.167 217.963 188.749 215.598 189.151L215.49 189.568C214.887 188.687 214.053 187.915 213.311 187.142C213.172 186.276 216.263 180.712 216.819 179.429Z" fill="#F9AD8D"/>
<path d="M177.932 176.199L178.473 176.307L178.797 175.936L179.091 176.292L191.008 176.323L190.961 181.732C190.482 182.196 189.586 181.995 188.921 181.995H165.567L163.944 181.949L161.378 181.902L161.425 176.338L168.921 176.354C170.327 176.354 171.827 176.446 173.233 176.261L173.388 176.23L173.62 176.153C174.006 176.276 174.13 176.338 174.532 176.261L174.732 176.276C175.521 176.446 176.865 176.446 177.623 176.184L177.932 176.199Z" fill="#D2A57A"/>
<path d="M201.781 152.105L202.105 152.415C201.75 153.929 201.101 155.429 200.56 156.881C199.231 160.39 197.793 164.439 194.439 166.541C192.754 167.608 191.039 167.902 189.091 167.422C188.442 167.268 187.005 166.588 186.448 166.773L185.938 166.65L184.702 167.886L184.455 167.809L185.629 166.371L185.475 165.815C185.413 164.749 184.81 163.713 184.656 162.631L184.625 162.399C184.424 160.946 184.717 159.787 185.506 158.551C186.85 156.433 189.354 155.413 191.626 154.609C195.057 153.435 198.303 152.878 201.781 152.105Z" fill="#391448"/>
<path d="M165.567 182.01H188.952L187.963 191.037C187.808 192.551 187.793 194.545 187.221 195.952C186.726 197.173 185.923 198.054 184.902 198.873C184.284 199.197 183.527 199.646 182.847 199.831C181.641 200.156 180.034 199.97 178.782 199.955C180.08 197.234 181.054 194.561 180.065 191.531C178.72 187.389 173.851 184.947 170.034 183.602C168.627 183.108 167.004 182.768 165.691 182.072L165.567 182.01Z" fill="#98723F"/>
<path d="M208.813 187.513L209.555 186.987C210.792 187.374 212.708 190.11 213.373 191.238L215.49 189.569L215.598 189.151C217.963 188.749 220.591 189.151 223.017 188.997C223.048 190.218 222.909 191.702 223.218 192.892L223.404 197.158L196.263 197.312C196.248 196.802 196.217 196.246 196.294 195.751C196.387 195.179 196.495 194.808 196.958 194.437C197.762 193.773 198.891 193.309 199.818 192.783C202.26 191.423 205.135 190.017 207.345 188.348L207.422 188.286C207.87 187.791 208.195 187.667 208.813 187.513Z" fill="#98723F"/>
<path d="M207.438 188.255C207.87 187.791 208.195 187.667 208.829 187.513C210.08 188.858 211.642 190.28 212.322 192.026C211.997 192.428 211.703 192.675 211.271 192.938C209.988 191.315 209.029 189.599 207.438 188.255Z" fill="#FEFEFE"/>
<path d="M180.544 150.915L180.528 150.806C180.358 149.925 179.539 149.338 179.091 148.581C177.715 146.247 177.731 142.924 179.076 140.621C180.606 137.993 183.589 136.092 186.077 134.469C188.117 133.14 190.358 131.687 192.692 130.914C192.584 135.35 192.831 146.309 189.617 149.431C188.117 150.884 185.938 151.703 183.851 151.641C183.156 151.626 181.997 151.239 181.394 151.471C180.776 151.873 180.714 152.414 180.482 153.094C179.833 154.902 179.307 156.757 178.921 158.643C177.746 164.315 177.236 170.837 177.963 176.587L177.654 176.556C177.623 175.722 177.453 174.918 177.422 174.099C177.221 169.524 177.561 164.995 178.287 160.482C178.55 158.874 178.875 157.267 179.323 155.706C179.616 154.609 180.822 151.95 180.544 150.915Z" fill="#391448"/>
<path d="M163.944 181.964L165.567 182.011L165.691 182.088C167.004 182.784 168.627 183.124 170.034 183.618C173.851 184.963 178.72 187.405 180.065 191.547C181.038 194.576 180.08 197.25 178.782 199.971C175.304 199.971 171.131 200.558 167.947 198.951L167.36 198.471C166.556 197.745 165.876 196.849 165.505 195.813C164.964 194.252 164.995 192.212 164.825 190.558L163.944 181.964Z" fill="#98723F"/>
<path d="M250.9 94.9464L254.733 97.5276C254.378 100.82 254.749 103.772 256.232 106.739C257.005 107.667 258.056 108.625 258.721 109.583C259.262 110.016 259.756 110.418 260.39 110.727L260.591 111.067L264.13 122.211C263.249 122.257 262.291 122.18 261.426 122.35C259.169 122.814 256.186 124.359 254.3 125.688L254.81 127.373L255.073 128.362L255.583 130.093C255.877 130.078 256.093 129.908 256.325 129.738C256.897 129.429 257.438 128.981 258.087 129.042L257.855 130.078L258.149 130.511C258.752 130.604 259.138 130.372 259.664 130.109L267.824 130.001C268.844 130.202 270.483 130.341 271.503 130.093L276.14 130.124C276.897 130.14 277.763 130.016 278.427 130.418L279.107 131.222C279.107 132.041 279.231 133.123 278.721 133.787L278.134 134.097L278.118 134.22L255.336 134.251L246.557 134.267C245.104 134.267 243.481 134.127 242.044 134.313C241.395 134.05 240.405 134.158 239.71 134.158L234.888 134.143L211.441 134.205C210.359 134.205 209.57 134.174 208.767 133.339C207.608 132.134 206.958 129.104 206.371 127.481L199.679 108.455L197.917 103.478C197.654 102.752 197.159 101.793 197.221 101.021C197.252 100.588 197.592 99.9542 197.932 99.676C198.334 99.3514 198.72 99.3668 199.215 99.3514H208.489L226.464 99.3978L237.206 99.4132C239.246 99.4132 241.379 99.2586 243.404 99.475C244.517 99.5678 245.289 99.6914 246.062 100.572C247.098 101.763 247.422 103.772 247.917 105.256L250.9 94.9464Z" fill="#98723F"/>
<path d="M222.399 113.587C222.538 113.216 222.646 112.798 222.909 112.489C223.28 112.026 223.434 112.072 223.991 111.995C224.594 112.18 224.872 112.721 225.227 113.2C224.207 113.2 223.388 113.262 222.399 113.587Z" fill="#D2A57A"/>
<path d="M225.243 113.2L226.556 114.035C227.916 115.07 228.535 117.481 229.107 119.042L221.765 119.12C221.61 117.358 221.147 115.565 222.151 114.004L222.414 113.586C223.388 113.262 224.207 113.2 225.243 113.2Z" fill="#FEFEFE"/>
<path d="M243.435 99.5062C244.547 99.599 245.32 99.7226 246.093 100.604C247.129 101.794 247.453 103.803 247.948 105.287L251.997 118.44L252.415 119.491L254.285 125.689L254.795 127.373L255.058 128.363L255.568 130.094C255.568 131.253 255.892 133.216 256.603 134.128L271.688 134.081C273.775 134.081 276.093 133.896 278.149 134.128L278.133 134.251L255.351 134.282L255.428 134.066C255.274 133.494 254.918 133.046 254.656 132.52C254.192 131.578 253.836 130.496 253.512 129.506L248.21 112.381L245.768 104.375C245.32 102.999 244.918 101.345 243.867 100.294C243.62 100.001 243.527 99.8772 243.435 99.5062Z" fill="#D2A57A"/>
<path d="M256.325 129.738C256.897 129.429 257.438 128.981 258.087 129.043L257.855 130.078L258.149 130.511C258.751 130.604 259.138 130.372 259.663 130.109L267.824 130.001C268.844 130.202 270.483 130.341 271.503 130.094L276.139 130.125C276.897 130.14 277.762 130.016 278.427 130.418L279.107 131.222C279.107 132.041 279.231 133.123 278.721 133.788L278.133 134.097C276.078 133.865 273.759 134.05 271.673 134.05L256.588 134.097C255.877 133.185 255.552 131.222 255.552 130.063C255.877 130.078 256.078 129.908 256.325 129.738Z" fill="#391448"/>
<path d="M250.9 94.9464L254.733 97.5276C254.377 100.82 254.748 103.772 256.232 106.739C257.005 107.667 258.056 108.625 258.721 109.583C259.262 110.016 259.756 110.418 260.39 110.727L260.591 111.067L264.13 122.211C263.249 122.257 262.291 122.18 261.425 122.35C259.169 122.814 256.186 124.359 254.3 125.688L252.43 119.491L252.013 118.44L247.963 105.287L250.9 94.9464Z" fill="#F37F70"/>
<path d="M256.233 106.724C257.005 107.651 258.056 108.61 258.721 109.568L252.415 119.491L251.998 118.44C253.512 114.591 255.243 110.758 256.233 106.724Z" fill="#D2A57A"/>
<path d="M258.705 109.568C259.246 110.001 259.741 110.403 260.374 110.712L260.575 111.052L264.115 122.196C263.234 122.242 262.276 122.165 261.41 122.335C259.153 122.799 256.17 124.344 254.285 125.673L252.415 119.476L258.705 109.568Z" fill="#FEFEFE"/>
<path d="M279.107 131.253C283.528 131.546 287.902 132.041 292.338 132.041C294.61 132.041 296.866 132.056 299.046 131.392L299.247 131.453L301.488 138.301C303.327 144.297 304.084 151.515 301.04 157.25C299.185 160.758 295.707 163.571 291.92 164.699C286.866 166.214 281.998 164.514 277.299 162.628L252.075 152.798C251.487 153.71 250.467 154.808 250.282 155.89C249.107 156.446 245.815 161.747 244.919 163.03L233.512 179.058L229.911 184.097C229.478 184.684 229.045 185.534 228.551 186.044C228.396 186.199 228.226 186.245 228.041 186.322C227.129 185.952 226.325 185.349 225.521 184.792L216.82 179.445L215.119 178.44L228.829 151.778L232.956 143.834C233.744 142.319 234.501 140.588 235.552 139.243C237.376 136.925 239.494 135.673 242.059 134.328C243.497 134.158 245.12 134.297 246.572 134.282L255.351 134.266L278.134 134.236L278.149 134.112L278.736 133.803C279.231 133.154 279.107 132.056 279.107 131.253Z" fill="#3E214C"/>
<path d="M279.107 131.253C283.527 131.546 287.901 132.041 292.337 132.041C294.609 132.041 296.866 132.056 299.045 131.392L299.246 131.453L301.487 138.301C301.255 138.61 301.271 138.625 300.9 138.718C299.076 139.135 297.19 139.321 295.305 139.151C291.286 138.78 287.051 137.311 283.218 136.121C281.595 135.611 279.54 135.163 278.118 134.266L278.133 134.143L278.72 133.834C279.231 133.154 279.107 132.056 279.107 131.253Z" fill="#391448"/>
<path d="M126.649 26.4301L134.887 19.0267C139.848 14.8072 145.459 11.2523 151.61 9.02662C158.89 6.39909 167.02 5.71902 174.717 6.02814L189.184 7.23371L189.215 22.9216C189.215 24.8227 188.952 27.1566 189.261 28.9958C189.338 29.475 189.57 29.8923 189.926 30.2323C190.776 31.0515 191.75 31.1288 192.862 31.206L234.547 31.237L241.101 31.2679C241.657 31.0051 242.214 30.7424 242.662 30.2941C243.589 29.3668 243.466 28.2539 243.466 27.0329L243.682 28.2385C244.733 28.8567 245.923 29.2586 247.036 29.7532C252.368 32.1643 258.056 33.8645 263.682 35.4874C266.031 36.1674 268.659 36.5848 270.838 37.6667C266.928 37.6667 262.446 38.2385 259.524 41.1288C258.86 41.7934 258.272 42.6126 257.871 43.4627C257.747 43.7409 257.484 44.6992 257.314 44.8537C257.144 45.0238 256.201 45.2092 255.923 45.3174C253.388 46.353 252.26 48.8259 252.291 51.4226C252.322 53.3546 253.017 55.2866 254.424 56.6622C255.552 57.7595 256.758 58.2387 258.272 58.5787C258.86 60.5416 259.555 62.2418 260.529 64.0502C259.756 69.6916 259.246 75.0085 260.622 80.6036C256.789 83.092 253.883 87.5588 251.395 91.3146L251.255 91.2219C250.622 90.82 249.262 91.2992 248.597 91.4537C246.402 91.9483 243.728 91.0364 241.595 91.6701L241.487 91.701C240.498 91.2683 238.35 91.4692 237.237 91.5619C236.758 91.6083 236.294 91.7938 235.83 91.6547C234.64 91.2992 233.465 91.9638 232.291 91.6547C230.482 91.191 228.38 91.902 226.603 91.3455L226.974 91.1292L199.014 91.0055L191.58 90.9591C189.787 90.9746 187.963 91.0828 186.17 90.8664C184.532 95.6269 183.372 100.511 182.847 105.519C181.904 114.591 182.584 124.282 178.921 132.83C177.855 135.303 176.433 137.652 174.903 139.847C173.944 141.222 172.847 142.536 171.981 143.973C169.926 142.041 167.885 140.31 165.598 138.657C164.532 137.899 163.496 137.065 162.275 136.585C161.889 136.678 161.657 136.663 161.425 137.034C161.085 137.621 161.085 138.718 161.023 139.414L160.559 145.921C158.086 146.926 155.706 148.085 153.171 148.95C148.504 150.558 143.666 151.516 138.751 152.057C135.721 152.397 132.507 152.644 129.493 152.134L129.925 143.262C129.864 140.357 128.303 138.131 126.293 136.199C125.49 135.998 124.361 136.122 123.527 136.122H116.989L86.3084 136.137L86.9267 135.612C87.3749 135.241 87.8077 134.916 87.9468 134.313C88.0859 133.68 87.9159 132.922 87.5758 132.381L87.4985 132.273L87.6686 131.902L88.3641 131.701L88.9978 130.094L78.8432 130.109L78.8277 129.893C78.735 128.579 78.534 126.137 78.9514 124.932L90.497 126.972L96.5558 113.077L96.1849 112.999C95.2884 112.938 94.732 113.015 94.0674 112.288C92.7381 110.82 91.7335 107.868 90.9298 106.044L83.5418 89.1817C82.0426 85.7659 80.6515 81.16 78.1167 78.4088C74.2064 74.1584 67.993 72.5974 62.3825 72.3655L62.367 68.486L62.3516 64.6684C63.9435 64.7148 65.6282 64.2511 66.9575 63.3855C69.8477 61.4999 71.2079 59.0269 71.8725 55.7039L103.635 48.3313L103.619 34.0809C103.619 32.3498 103.372 30.155 103.666 28.4703C103.743 28.0685 104.067 27.6975 104.346 27.4039C105.876 25.8428 110.605 26.492 112.723 26.492C112.692 25.5491 112.537 24.4518 113.078 23.6326C113.434 23.0762 114.068 22.597 114.732 22.5043C115.381 22.4116 116.077 22.5661 116.571 23.0143C117.128 23.5089 117.375 24.0499 117.421 24.7763L117.545 26.2756C118.194 26.5847 119.307 26.4301 120.049 26.4456L126.649 26.4301Z" fill="#D2A57A" fill-opacity="0.3"/>
<path d="M171.255 104.097L175.799 108.641L171.44 112.999L166.911 108.564C167.128 108.054 167.731 107.605 168.117 107.219L171.255 104.097Z" fill="#98723F"/>
<path d="M186.108 90.8972C187.283 87.8678 189.106 83.1846 192.29 81.8091C193.171 81.4381 194.161 81.5154 195.026 81.8554C195.969 82.2264 196.865 83.061 197.638 83.6792C197.793 83.1383 197.53 82.3809 197.561 81.7936C197.684 79.0733 199.338 76.6467 201.703 75.333C204.145 73.9728 207.283 73.6328 209.972 74.452C211.811 75.0084 213.712 76.4613 214.593 78.1769L215.366 79.9543L215.521 79.7998C216.324 79.0579 217.097 78.6406 218.21 78.6869C220.142 78.7797 222.182 80.0007 223.403 81.4381C225.274 83.6174 227.283 87.8987 226.943 90.789C226.927 90.959 226.912 90.9745 226.881 91.1136L198.921 90.99L191.487 90.9436C189.725 90.9899 187.901 91.0981 186.108 90.8972Z" fill="#FEFEFE"/>
<path d="M96.4937 113.107L98.6885 107.651C99.0285 106.832 99.4768 105.426 100.296 104.993C100.976 104.637 102.29 104.792 103.063 104.792L110.636 104.807L133.31 104.746H139.199C140.327 104.746 141.533 104.653 142.615 104.9C142.955 105.317 143.156 105.487 143.094 106.075C143.032 106.616 142.615 107.28 142.383 107.775L140.791 111.222L135.118 124.282L131.656 131.855C132.275 132.582 132.568 133.154 132.506 134.143C132.46 134.792 132.135 135.364 131.61 135.766C130.466 136.662 127.669 136.121 126.2 136.23C125.397 136.029 124.268 136.152 123.434 136.152H116.896L86.2155 136.168L86.8337 135.642C87.2819 135.271 87.7147 134.947 87.8538 134.344C87.9929 133.71 87.8229 132.953 87.4829 132.412L87.4056 132.304L87.5756 131.933L88.2711 131.732L88.9048 130.124L78.7502 130.14L78.7348 129.923C78.642 128.61 78.4411 126.168 78.8584 124.962L90.4041 127.002L96.4937 113.107Z" fill="#3E214C"/>
<path d="M116.479 114.668H117.777C118.179 114.854 118.488 115.024 118.72 115.41C119.199 116.229 119.044 117.327 118.782 118.192C118.241 119.954 117.097 121.036 115.505 121.84C115.072 121.855 114.516 121.917 114.098 121.794C113.697 121.685 113.341 121.191 113.156 120.851C112.723 120.016 112.877 118.981 113.171 118.13C113.758 116.446 114.902 115.441 116.479 114.668Z" fill="#FEFEFE"/>
<path d="M78.8739 124.947L90.4195 126.987L89.1367 129.985L78.7502 129.908C78.6729 128.594 78.4565 126.152 78.8739 124.947Z" fill="#FCF2E3"/>
<path d="M86.2156 136.168L86.8338 135.642C87.282 135.271 87.7148 134.947 87.8539 134.344C87.993 133.71 87.823 132.953 87.483 132.412L87.4057 132.304L87.5757 131.933L88.2712 131.732C92.2898 132.025 96.4939 131.794 100.528 131.778L123.001 131.716L128.735 131.701C129.647 131.701 130.806 131.562 131.656 131.886C132.275 132.613 132.568 133.185 132.506 134.174C132.46 134.823 132.136 135.395 131.61 135.797C130.466 136.693 127.669 136.152 126.2 136.26C125.397 136.059 124.268 136.183 123.434 136.183H116.896L86.2156 136.168Z" fill="#D2A57A"/>
<path d="M192.878 31.2057L234.563 31.2366L241.116 31.2675C242.028 31.5612 242.924 31.9167 243.373 32.8595C243.759 33.6787 243.805 58.2847 243.512 59.0575C243.249 59.7376 242.723 60.2631 242.043 60.5258C240.853 60.9895 238.535 60.7113 237.221 60.7113L204.748 60.5567L195.428 60.6495C194.052 60.6495 191.564 60.974 190.358 60.3403C189.756 60.0158 189.338 59.413 189.184 58.7484C188.983 57.8983 189.122 56.6464 189.122 55.7499V48.5165C189.137 43.6478 188.797 38.5782 189.137 33.7405C189.168 33.2304 189.354 32.6276 189.678 32.2258C190.451 31.2211 191.718 31.2984 192.878 31.2057Z" fill="#391448"/>
<path d="M195.366 47.4034C196.155 47.187 197.252 47.3261 198.071 47.3261C199.787 47.3261 201.626 47.187 203.326 47.4034C203.543 47.9134 203.419 48.3771 203.342 48.9026C202.213 49.1654 200.683 49.0263 199.493 49.0417C198.21 49.0572 196.572 49.2736 195.335 48.9799C195.196 48.439 195.289 47.9598 195.366 47.4034Z" fill="#3E214C"/>
<path d="M195.196 51.7466C195.289 51.7002 195.335 51.6693 195.444 51.6539C196.448 51.4838 197.7 51.6075 198.736 51.6075H205.305C205.969 51.6075 207.546 51.4066 208.133 51.6075C208.257 51.6539 208.349 51.7621 208.442 51.8393L208.411 52.9213L208.164 53.0604C207.468 53.2922 206.016 53.1222 205.243 53.1222L197.994 53.1531C197.221 53.1531 195.815 53.354 195.15 52.9676L195.196 51.7466Z" fill="#FEFEFE"/>
<path d="M195.212 43.8183C195.907 43.5865 196.866 43.7101 197.592 43.7101L202.847 43.6947C205.645 43.6947 225.506 43.4783 225.985 43.7256C226.108 43.7874 226.17 43.9111 226.263 44.0038L226.17 45.1321C225.459 45.3485 224.47 45.2248 223.728 45.2248H217.901H195.413L195.135 44.9312L195.212 43.8183Z" fill="#FEFEFE"/>
<path d="M195.304 39.4899C196.232 39.289 197.468 39.4281 198.442 39.4127H205.32L219.988 39.4436C221.796 39.4436 224.454 39.119 226.17 39.5827C226.325 40.0464 226.216 40.541 226.17 41.0201C224.949 41.221 195.722 41.2365 195.273 40.9274C195.165 40.3864 195.196 40.0155 195.304 39.4899Z" fill="#FEFEFE"/>
<path d="M204.733 60.5569C207.685 60.2323 210.823 60.4487 213.806 60.4642C214.146 60.4642 215.676 60.5878 215.877 60.4796C216.263 60.2632 216.85 59.475 217.175 59.1349L220.884 55.4255L237.222 39.4749L237.052 55.6264C237.052 56.6774 236.711 59.9541 237.206 60.7269L204.733 60.5569Z" fill="#3E214C"/>
<path d="M157.962 26.4608C157.931 25.178 157.73 23.6787 158.75 22.705C159.245 22.2258 160.033 21.9786 160.713 22.0558C161.332 22.1331 161.996 22.535 162.367 23.045C163.047 23.9878 162.877 25.3943 162.862 26.5072H168.38C169.276 26.5072 170.296 26.4144 171.177 26.5381C171.641 26.5999 172.151 26.7854 172.506 27.11C172.924 27.4964 173.155 27.9137 173.279 28.4546C173.727 30.0002 173.434 32.3496 173.418 33.9879L173.387 46.26L173.403 80.3406C173.387 80.8043 173.325 81.2216 173.109 81.6234C172.8 82.2108 172.274 82.7826 171.61 82.9527C170.203 83.3236 168.024 83.0608 166.556 83.0608H153.48L121.44 83.0918H106.262C105.721 83.0763 105.211 82.9681 104.762 82.6435C104.191 82.2108 103.665 81.3298 103.619 80.6188V48.3466L103.603 34.0961C103.603 32.365 103.356 30.1703 103.65 28.4855C103.727 28.0837 104.051 27.7127 104.33 27.4191C105.86 25.858 110.589 26.5072 112.707 26.5072C112.676 25.5644 112.521 24.467 113.062 23.6478C113.418 23.0914 114.052 22.6122 114.716 22.5195C115.365 22.4268 116.061 22.5813 116.555 23.0296C117.112 23.5242 117.359 24.0651 117.405 24.7916L117.529 26.2908C118.178 26.5999 119.291 26.4453 120.033 26.4608L126.648 26.4453L157.962 26.4608Z" fill="#391448"/>
<path d="M112.707 26.5072C112.676 25.5644 112.522 24.467 113.063 23.6479C113.418 23.0914 114.052 22.6123 114.717 22.5196C115.366 22.4268 116.061 22.5814 116.556 23.0296C117.112 23.5242 117.36 24.0652 117.406 24.7916L117.421 31.2831C117.375 31.7314 117.375 31.8396 117.112 32.2105C115.69 32.4114 114.299 32.3496 112.877 32.3032C112.661 31.8241 112.738 31.0977 112.738 30.5722L112.707 26.5072Z" fill="#98723F"/>
<path d="M162.862 26.4916H168.38C169.277 26.4916 170.297 26.3989 171.178 26.5225C171.641 26.5844 172.151 26.7698 172.507 27.0944C172.924 27.4808 173.156 27.8981 173.28 28.4391L173.264 31.0821L162.862 31.0048V26.4916Z" fill="#D2A57A"/>
<path d="M157.963 26.4608C157.932 25.178 157.731 23.6787 158.751 22.705C159.246 22.2258 160.034 21.9786 160.714 22.0558C161.332 22.1331 161.997 22.535 162.368 23.045C163.048 23.9878 162.878 25.3943 162.862 26.5072L162.847 31.0203L162.661 32.5969C162.538 32.7051 162.445 32.8596 162.306 32.9369C162.213 32.9833 161.595 32.9369 161.456 32.9369L158.427 32.9523C157.87 32.3341 157.994 31.8241 157.947 31.0203L157.963 26.4608Z" fill="#98723F"/>
<path d="M154.779 43.5706L167.963 43.5552V54.1117L154.794 54.0653L154.779 43.5706Z" fill="#D2A57A"/>
<path d="M154.779 56.0128L167.978 56.0283V66.5848L154.794 66.5693L154.779 56.0128Z" fill="#D2A57A"/>
<path d="M123.836 43.5399L137.128 43.5554L137.097 54.0964H123.836V43.5399Z" fill="#D2A57A"/>
<path d="M139.245 43.5552H152.677V54.0807L139.261 54.0653L139.245 43.5552Z" fill="#D2A57A"/>
<path d="M123.805 55.9664H137.159V66.5538L123.82 66.5693L123.805 55.9664Z" fill="#D2A57A"/>
<path d="M154.763 68.192H167.963V78.9803L154.779 78.8721L154.763 68.192Z" fill="#D2A57A"/>
<path d="M108.241 43.5399H121.734V54.0809L108.241 54.0655V43.5399Z" fill="#D2A57A"/>
<path d="M139.168 55.9974H152.692V66.5848H139.215L139.168 55.9974Z" fill="#D2A57A"/>
<path d="M124.361 68.1615L137.174 68.1924V78.7334L136.742 78.9807L123.851 78.9653L123.867 68.3624L124.361 68.1615Z" fill="#D2A57A"/>
<path d="M108.287 55.8888L121.78 55.9197L121.796 66.5689L108.287 66.5535V55.8888Z" fill="#D2A57A"/>
<path d="M139.214 68.223L152.677 68.2385V78.9341L139.199 78.9495L139.214 68.223Z" fill="#D2A57A"/>
<path d="M108.302 68.192L121.795 68.2075L121.78 78.9031L108.318 78.9185L108.302 68.192Z" fill="#D2A57A"/>
<path d="M117.421 24.7761L117.545 26.2754C118.194 26.5845 119.307 26.4299 120.048 26.4454L126.664 26.4299L157.978 26.4608L157.962 31.0049C153.109 31.0204 118.24 30.7112 117.436 31.2677L117.421 24.7761Z" fill="#D2A57A"/>
</svg>
