<svg width="360" height="254" viewBox="0 0 360 254" fill="none" xmlns="http://www.w3.org/2000/svg">
<g opacity="0.5">
<path d="M246.899 74.8329C249.914 84.7232 256.781 108.639 289.286 113.901C321.791 119.164 333.15 97.5087 330.947 85.4936C327.055 64.2619 298.698 57.9824 272.117 43.7385C248.617 31.1449 241.465 57.0028 246.899 74.8329Z" fill="#D2A57A" fill-opacity="0.5"/>
<path d="M29.0177 209.493C29.0177 209.493 10.9341 187.547 17.3433 162.384C26.34 127.065 65.2136 118.468 92.7828 90.5174C120.352 62.5675 150.263 35.5465 193.912 46.7935C250.583 61.3954 232.06 105.097 274.141 123.993C306.742 138.632 324.996 137.076 338.272 156.753C351.549 176.431 341.02 209.493 341.02 209.493H29.0177Z" fill="#D2A57A" fill-opacity="0.5"/>
</g>
<path d="M83.9731 195.503C83.9731 195.503 65.6385 180.446 61.5986 165.223C61.5986 165.223 72.8917 169.419 89.542 190.25L83.9731 195.503Z" fill="#2D2D2D"/>
<path d="M283.421 198.065C283.421 198.065 295.968 182.696 308.515 179.034C308.515 179.034 304.547 190.708 288.218 203.222" fill="#2D2D2D"/>
<path d="M252.972 209.493C252.972 209.493 242.291 170.741 241.636 153.625C241.636 153.625 256.001 171.232 266.139 187.16C266.139 187.16 263.069 166.672 266.912 144.697C266.912 144.697 273.662 155.445 274.75 186.473C274.75 186.473 287.226 166.1 300.274 157.86C300.274 157.86 299.48 172.853 289.857 195.973C289.857 195.973 301.418 190.937 319.387 190.136C319.387 190.136 311.719 200.551 297.527 209.492H252.972V209.493Z" fill="url(#paint0_linear_165_8018)"/>
<path d="M49.0509 209.493C49.0509 209.493 57.3913 201.754 76.5627 200.467C76.5627 200.467 53.8535 190.479 45.7271 172.51C45.7271 172.51 64.8411 174.227 85.6281 191.166C85.6281 191.166 73.0816 168.39 74.3978 147.559C74.3978 147.559 90.9363 156.945 102.936 182.125C102.936 182.125 99.8636 161.637 106.92 143.325C106.92 143.325 124.68 171.509 133.16 209.494H49.0509V209.493Z" fill="url(#paint1_linear_165_8018)"/>
<path d="M-23 209.493H365" stroke="#2D2D2D" stroke-width="0.597705" stroke-miterlimit="10"/>
<path d="M90.937 110.19C90.937 110.19 91.509 113.386 91.8611 118.373H94.6278C94.6278 118.373 94.424 113.691 93.3404 109.875" fill="#2D2D2D"/>
<path d="M184.379 239.804C183.262 238.687 178.184 239.534 178.184 239.534L160.188 233.343L157.413 221.692L142.991 228.023L145.899 236.241C145.899 236.241 144.205 240.82 144.091 242.543C143.792 247.077 146.875 250.171 146.875 250.171L184.887 244.777C184.887 244.777 185.497 240.921 184.379 239.804Z" fill="url(#paint2_linear_165_8018)"/>
<path d="M159.424 230.123L144.864 233.315L142.993 228.025L157.416 221.689L159.424 230.123Z" fill="url(#paint3_linear_165_8018)"/>
<path d="M167.096 235.72L169.295 246.711L179.31 245.29L178.68 239.461L167.096 235.72Z" fill="url(#paint4_linear_165_8018)"/>
<path d="M160.898 232.649C160.825 232.327 160.504 232.121 160.184 232.199L145.41 235.56C145.087 235.632 144.886 235.953 144.959 236.274C145.022 236.552 145.269 236.739 145.542 236.739C145.585 236.739 145.63 236.735 145.675 236.724L145.707 236.717L154.29 242.973L155.392 249.297C155.443 249.587 155.695 249.792 155.981 249.792C156.015 249.792 156.049 249.789 156.084 249.783C156.409 249.726 156.627 249.416 156.57 249.091L155.461 242.732L160.477 233.351C160.781 233.265 160.97 232.96 160.898 232.649ZM158.93 233.71L154.633 241.745L147.253 236.366L158.93 233.71Z" fill="url(#paint5_linear_165_8018)"/>
<path d="M145.788 251.254C145.695 250.6 146.15 249.995 146.803 249.902L184.954 244.489C185.608 244.396 186.213 244.851 186.306 245.504C186.398 246.158 185.944 246.763 185.29 246.856L147.139 252.27C146.486 252.363 145.881 251.908 145.788 251.254Z" fill="url(#paint6_linear_165_8018)"/>
<path d="M80.2115 216.231L75.2828 222.609C75.2828 222.609 68.6512 225.502 66.8199 227.105C64.9885 228.707 63.043 232.183 63.043 232.183L77.0066 252.283H91.5995C91.5995 252.283 93.4883 248.794 92.3437 246.712C91.2571 244.735 87.2991 245.603 87.2991 245.603L84.5604 234.43L93.0514 225.63L80.2115 216.231Z" fill="url(#paint7_linear_165_8018)"/>
<path d="M93.0537 225.628L89.0192 229.806L78.2007 218.832L80.209 216.232L93.0537 225.628Z" fill="url(#paint8_linear_165_8018)"/>
<path d="M87.2996 245.602L86.354 251.903H77.5558L73.5625 245.997L86.1884 241.068L87.2996 245.602Z" fill="url(#paint9_linear_165_8018)"/>
<path d="M84.8493 234.919C85.1099 234.717 85.1619 234.338 84.9563 234.081L75.6853 222.097C75.4832 221.835 75.1079 221.788 74.8473 221.99C74.6225 222.164 74.5556 222.466 74.6703 222.713C74.6889 222.753 74.7122 222.792 74.7403 222.828L74.76 222.853L72.7015 233.272L67.4303 236.936C67.1883 237.104 67.1088 237.419 67.2295 237.678C67.2439 237.709 67.2612 237.739 67.2809 237.768C67.4692 238.039 67.8422 238.106 68.1129 237.918L73.4134 234.234L84.0346 234.832C84.2408 235.071 84.597 235.114 84.8493 234.919ZM83.0579 233.58L73.9609 233.067L75.7307 224.108L83.0579 233.58Z" fill="url(#paint10_linear_165_8018)"/>
<path d="M92.5347 253.477H77.0069C76.6154 253.477 76.249 253.285 76.0254 252.964L61.5944 232.192C61.2179 231.65 61.3524 230.905 61.8945 230.528C62.4372 230.153 63.1813 230.286 63.5579 230.828L77.6321 251.087H92.5347C93.1945 251.087 93.7301 251.623 93.7301 252.282C93.7301 252.942 93.1945 253.477 92.5347 253.477Z" fill="url(#paint11_linear_165_8018)"/>
<path d="M180.081 63.2256C180.644 62.8801 181.07 62.5442 181.186 62.2478C181.359 61.8055 180.694 60.8324 179.599 61.0691C179.574 61.0745 179.529 61.0858 179.496 61.0936C179.986 60.7876 180.346 60.4953 180.444 60.2443C180.612 59.8151 179.992 58.8223 178.742 59.0184C178.924 58.8647 179.057 58.7171 179.11 58.5826C179.283 58.1403 178.639 57.3107 177.522 57.404C176.565 57.484 174.714 58.0752 172.014 59.6866C171.089 60.2389 169.723 61.1952 168.796 61.8587C169.299 60.2646 170.388 56.4608 169.726 55.3377C169.327 54.6587 168.478 54.4065 167.924 54.7274C167.474 54.988 167.303 55.6897 167.046 56.3388C166.474 57.7889 165.826 58.8187 165.062 60.0016C164.299 61.1844 163.368 62.2047 162.926 63.0158C162.192 64.3636 160.794 68.7741 160.794 68.7741L140.72 85.4871L138.107 82.1872L127.139 88.1577C127.139 88.1577 136.381 101.702 141.636 100.442C146.01 99.3946 166.129 72.9365 166.129 72.9365C169.829 72.5564 174.333 68.7741 174.333 68.7741C177.748 66.6212 180.906 65.3056 181.247 64.4348C181.395 64.0528 180.918 63.2794 180.081 63.2256Z" fill="url(#paint12_linear_165_8018)"/>
<path d="M139.186 83.5415C138.277 84.9521 135.761 88.353 130.364 92.4055C128.445 90.0744 127.136 88.1558 127.136 88.1558L138.11 82.1847L139.186 83.5415Z" fill="url(#paint13_linear_165_8018)"/>
<path d="M179.77 63.2446C179.77 63.2446 178.93 63.302 177.653 63.8931C176.572 64.3928 173.317 66.2965 173.317 66.2965" stroke="#2D2D2D" stroke-width="0.298853" stroke-miterlimit="10" stroke-linecap="round" stroke-linejoin="round"/>
<path d="M179.084 61.1748C179.084 61.1748 178.289 61.4414 177.139 61.8616C175.493 62.4623 172.274 64.5799 172.274 64.5799" stroke="#2D2D2D" stroke-width="0.298853" stroke-miterlimit="10" stroke-linecap="round" stroke-linejoin="round"/>
<path d="M178.34 59.0286C178.34 59.0286 177.354 59.1152 176.165 59.744C174.191 60.7882 171 62.8772 171 62.8772" stroke="#2D2D2D" stroke-width="0.298853" stroke-miterlimit="10" stroke-linecap="round" stroke-linejoin="round"/>
<path d="M111.204 36.7012C111.204 36.7012 107.539 33.2322 103.798 34.7521C98.9797 36.7096 99.1202 41.2617 97.7168 43.854C96.3134 46.4462 92.2597 47.4988 93.1168 52.3713C93.6936 55.6491 97.4825 57.5946 97.5608 60.4792C97.6385 63.3637 93.1312 69.6007 94.6834 74.9801L127.206 70.8284C127.206 70.8284 128.679 68.0162 126.711 63.7444C126.009 62.2203 125.987 60.4678 126.662 58.9317C127.681 56.6144 128.759 54.4154 127.342 52.1376C124.523 47.6046 122.108 49.2136 123.282 43.854C124.457 38.4944 119.911 39.2313 119.02 37.9486C118.077 36.5925 117.324 34.8986 115.628 34.5477C112.393 33.8783 111.204 36.7012 111.204 36.7012Z" fill="url(#paint14_linear_165_8018)"/>
<path d="M131.012 110.439C131.012 110.439 134.091 113.151 137.169 124.293C139.626 133.186 159.599 227.161 159.599 227.161L136.143 231.896L113.167 139.245C113.167 139.245 102.204 127.224 105.1 110.438L131.012 110.439Z" fill="url(#paint15_linear_165_8018)"/>
<path d="M135.355 179.641C135.355 179.641 133.371 188.272 127.795 198.235L122.905 178.499L135.355 179.641Z" fill="url(#paint16_linear_165_8018)"/>
<path d="M105.1 110.439C105.1 110.439 97.4764 117.727 96.1572 127.256C94.8381 136.786 99.5875 143.196 99.5875 143.196L109.315 175.016L78.2314 217.266L97.4411 230.87C97.4411 230.87 135.623 184.871 135.608 178.461C135.603 176.147 118.259 110.439 118.259 110.439H105.1Z" fill="url(#paint17_linear_165_8018)"/>
<mask id="mask0_165_8018" style="mask-type:luminance" maskUnits="userSpaceOnUse" x="78" y="110" width="82" height="122">
<path d="M159.598 227.161C159.598 227.161 139.626 133.186 137.169 124.293C134.09 113.151 131.012 110.439 131.012 110.439H118.258H105.1C105.1 110.439 97.4764 117.728 96.1572 127.257C94.8375 136.786 99.5875 143.197 99.5875 143.197L109.315 175.017L78.2314 217.267L97.4411 230.871C97.4411 230.871 115.368 209.273 126.65 193.614L136.143 231.897L159.598 227.161Z" fill="white"/>
</mask>
<g mask="url(#mask0_165_8018)">
<path d="M94.6284 144.697C94.6284 144.697 111.702 150.62 117.174 140.348C123.698 128.102 102.935 116.179 101.124 124.725C99.312 133.271 122.26 126.837 115.754 111.451" stroke="white" stroke-width="0.298853" stroke-miterlimit="10"/>
<path d="M136.528 118.373C136.528 118.373 126.82 122.188 129.299 131.993C131.528 140.804 143.09 139.433 143.09 139.433" stroke="white" stroke-width="0.298853" stroke-miterlimit="10"/>
<path d="M96.6021 151.543C96.6021 151.543 112.111 147.45 115.544 157.275C118.97 167.077 102.936 173.426 102.936 173.426" stroke="white" stroke-width="0.298853" stroke-miterlimit="10"/>
<path d="M153.091 189.945C153.161 189.639 142.631 181.093 127.828 183.688C113.026 186.282 101.732 210.311 112.262 223.019" stroke="white" stroke-width="0.298853" stroke-miterlimit="10"/>
<path d="M124.625 203.109C127.143 196.803 137.46 191.547 147.439 198.185C154.206 202.687 154.993 212.149 150.644 218.024C144.552 226.253 137.169 222.84 135.992 220.18C133.857 215.353 149.757 209.184 154.206 230.315" stroke="white" stroke-width="0.298853" stroke-miterlimit="10"/>
<path d="M143.09 144.697C143.09 144.697 125.447 146.713 125.235 157.81C125.024 168.907 142.588 167.492 139.416 164.379C136.605 161.619 128.895 181.723 150.568 178.118" stroke="white" stroke-width="0.298853" stroke-miterlimit="10"/>
<path d="M89.542 189.335C89.542 189.335 110.227 207.048 91.8647 231.612" stroke="white" stroke-width="0.298853" stroke-miterlimit="10"/>
</g>
<path d="M122.991 198.595C129.954 189.271 135.614 180.93 135.608 178.461C135.605 177.086 129.478 153.321 124.507 134.264C125.407 132.678 125.861 131.878 126.872 130.162" stroke="#2D2D2D" stroke-width="0.298853" stroke-miterlimit="10" stroke-linecap="round" stroke-linejoin="round"/>
<path d="M123.828 65.4326C123.828 65.4326 126.094 64.9222 127.108 66.0919C128.121 67.261 138.802 82.7559 138.802 82.7559C138.802 82.7559 135.995 87.935 126.523 89.363" fill="url(#paint18_linear_165_8018)"/>
<path d="M132.353 87.7672C130.775 88.4367 128.851 89.0165 126.526 89.3631L125.193 77.5525L127.614 77.3433C127.614 77.3433 129.963 81.9217 132.353 87.7672Z" fill="url(#paint19_linear_165_8018)"/>
<path d="M123.828 65.4327C123.828 65.4327 100.592 70.1971 98.0264 71.5168C95.4611 72.8359 93.7749 77.9672 97.0002 86.5431C100.225 95.119 102.864 101.203 105.1 110.439C114.995 113.183 124.276 114.589 131.011 110.439C131.011 110.439 133.357 86.7631 123.828 65.4327Z" fill="url(#paint20_linear_165_8018)"/>
<path d="M105.587 86.7481C105.777 92.2488 105.27 100.52 104.23 107.067C102.186 99.6197 99.8191 94.0312 96.9979 86.5419C96.4959 85.209 96.1133 83.9539 95.8384 82.7883C101.009 85.2389 105.587 86.7481 105.587 86.7481Z" fill="url(#paint21_linear_165_8018)"/>
<path d="M123.361 52.0304C121.988 47.6875 119.833 43.4444 117.863 41.157C114.057 41.9364 112.376 39.8582 112.376 39.8582C112.376 39.8582 113.017 42.879 110.882 44.6625C111.408 45.7306 111.547 46.6816 111.207 47.2918C110.479 48.8333 108.581 49.0933 108.581 49.0933C108.581 49.0933 110.364 51.4877 109.19 53.5319C108.31 52.6473 106.166 51.8547 104.648 52.8905C102.716 54.2073 102.591 58.3906 107.699 58.9435L106.649 71.0554C106.649 71.0554 114.128 74.0278 118.102 73.2412L116.653 63.8052C121.459 63.6731 125.937 60.2035 123.361 52.0304Z" fill="url(#paint22_linear_165_8018)"/>
<path d="M89.3926 89.3972L87.8762 97.737L67.1592 88.6154C67.1592 88.6154 63.9058 84.0722 63.1808 83.0418C62.4558 82.0119 62.6369 78.6833 61.5784 77.9679C61.1223 77.66 59.4231 77.6433 59.1941 80.6767C59.071 82.3114 59.45 84.0226 59.5749 84.5289L57.4775 83.6239C57.4775 83.6239 52.623 80.3617 50.4103 79.6755C49.552 79.4089 48.8251 79.602 48.3721 79.8554C47.9692 79.5942 47.6052 79.3814 47.2627 79.275C45.6214 78.7658 44.7631 79.5888 44.5312 80.2822C44.5264 80.281 44.5205 80.278 44.5157 80.2768C42.303 79.59 41.5809 81.3001 41.7615 81.8984C41.8451 82.1751 42.1529 82.5911 42.9419 83.1571C42.1087 83.1601 41.5977 83.8714 41.7352 84.5593C41.8164 84.9646 43.6777 87.3847 46.0607 89.1754C48.1617 90.754 50.4784 92.2267 51.2112 92.4945C52.7754 93.0665 60.9113 94.5835 60.9113 94.5835C64.7002 97.7119 86.63 114.177 94.1994 113.357C100.002 112.729 102.936 91.3056 102.936 91.3056L89.3926 89.3972Z" fill="url(#paint23_linear_165_8018)"/>
<path d="M102.934 91.3055C102.934 91.3055 102.288 96.0034 101.003 101.066C94.279 99.6734 89.4674 96.1947 88.3198 95.3101L89.3897 89.3988L102.934 91.3055Z" fill="url(#paint24_linear_165_8018)"/>
<path d="M43.3145 83.1941C43.3145 83.1941 44.1823 83.261 45.2409 83.9478C46.0711 84.4863 48.236 86.3512 48.236 86.3512L51.4695 88.268" stroke="#2D2D2D" stroke-width="0.298853" stroke-miterlimit="10" stroke-linecap="round" stroke-linejoin="round"/>
<path d="M44.7739 80.5044C44.7739 80.5044 45.9759 80.7046 48.2932 82.4499C49.4976 83.3572 50.1993 83.989 50.1993 83.989L53.3295 85.9118" stroke="#2D2D2D" stroke-width="0.298853" stroke-miterlimit="10" stroke-linecap="round" stroke-linejoin="round"/>
<path d="M48.707 80.0406C48.707 80.0406 49.8229 80.6473 50.6239 81.2624C51.4248 81.8774 52.4122 82.5785 52.4122 82.5785L55.0015 84.1666" stroke="#2D2D2D" stroke-width="0.298853" stroke-miterlimit="10" stroke-linecap="round" stroke-linejoin="round"/>
<path d="M98.027 71.5171C98.027 71.5171 93.6237 72.719 91.09 82.1138C89.0363 89.7291 88.2832 94.5096 88.2832 94.5096C92.3578 97.0277 99.2158 99.1657 103.737 98.5644C103.737 98.5644 105.94 86.0503 106.253 80.5544C106.649 73.6156 100.988 70.2786 98.027 71.5171Z" fill="url(#paint25_linear_165_8018)"/>
<path d="M116.653 63.8051C116.653 63.8051 111.93 63.7925 109.569 60.1591C109.569 60.1591 110.511 65.8672 117.173 67.1929L116.653 63.8051Z" fill="url(#paint26_linear_165_8018)"/>
<path d="M104.788 109.178L103.968 111.639C103.968 111.639 112.596 115.022 121.458 114.367C128.04 113.881 131.804 111.386 131.804 111.386L131.132 108.759C131.132 108.759 121.859 114.787 104.788 109.178Z" fill="#2D2D2D"/>
<path d="M120.576 111.639L120.757 114.357C120.765 114.473 120.857 114.563 120.973 114.563C121.712 114.564 124.344 114.503 126.672 113.675C126.774 113.638 126.835 113.53 126.814 113.422L126.302 110.772C126.277 110.646 126.155 110.566 126.031 110.601C125.424 110.769 123.6 111.218 120.784 111.406C120.663 111.414 120.568 111.518 120.576 111.639Z" fill="url(#paint27_linear_165_8018)"/>
<path d="M97.074 120.891C96.4088 116.232 92.7819 116.427 92.7819 116.427C92.7819 116.427 92.7377 116.426 92.6719 116.427H80.3496V133.023H86.8305H92.7819H98.7338C98.7338 133.023 97.7034 125.298 97.074 120.891Z" fill="url(#paint28_linear_165_8018)"/>
<path d="M84.6411 120.891C83.9758 116.232 80.3489 116.427 80.3489 116.427C80.3489 116.427 76.7227 116.233 76.0568 120.891C75.4274 125.297 74.397 133.023 74.397 133.023H80.3483H86.2997C86.3009 133.023 85.271 125.298 84.6411 120.891Z" fill="#2D2D2D"/>
<path d="M84.4697 123.867H96.602" stroke="#2D2D2D" stroke-width="0.597705" stroke-miterlimit="10" stroke-linecap="round"/>
<path d="M93.6471 123.103L93.8486 124.569C93.8808 124.803 93.6985 125.012 93.4625 125.012H90.5181C90.2976 125.012 90.1105 124.849 90.0806 124.631L89.8792 123.164C89.8469 122.93 90.0292 122.721 90.2653 122.721H93.2102C93.4308 122.721 93.6173 122.884 93.6471 123.103Z" fill="#2D2D2D"/>
<path d="M87.8758 97.737C87.8758 97.737 84.3613 99.1171 82.4665 107.575C81.6465 111.238 81.8563 118.373 81.8563 118.373H78.8421C78.8421 118.373 77.6592 102.064 85.944 96.8865C85.944 96.8865 86.3719 96.7843 87.8758 97.737Z" fill="#2D2D2D"/>
<path d="M176.962 78.7599C176.962 78.7599 176.328 82.0748 176.243 82.4639C176.158 82.853 175.512 82.9032 175.205 84.3813C174.898 85.8594 176.289 88.6609 176.487 89.9083C176.685 91.1563 176.71 92.9183 178.757 93.216C180.649 93.4909 184.333 93.1777 185.222 92.1814C185.484 91.8885 184.977 90.1928 184.491 88.5443C184.125 87.3011 182.945 83.0185 182.945 83.0185L183.413 79.155" fill="url(#paint29_linear_165_8018)"/>
<path d="M175.161 83.7506C175.161 83.7506 174.479 84.108 174.107 85.1241C173.735 86.1396 173.835 87.1271 174.193 88.0571C174.551 88.9871 175.209 89.445 175.323 90.2172C175.438 90.99 175.429 94.0802 177.388 95.1387C179.348 96.1972 180.632 96.2086 182.577 95.8655C184.523 95.5224 185.524 94.495 185.782 94.0515C186.04 93.608 186.154 92.2918 185.481 91.8053" fill="url(#paint30_linear_165_8018)"/>
<path d="M185.63 92.6591C185.373 93.7642 182.077 95.0816 178.772 94.1802C176.773 93.6351 176.537 91.209 176.34 89.9598C176.143 88.7106 174.409 86.9982 174.738 84.5661C174.94 83.0713 175.699 82.1675 176.322 82.0952C176.322 82.0952 176.044 83.6217 176.722 84.2661C178.052 81.4049 181.975 82.0259 182.947 83.0187C183.594 83.6797 184.522 87.2582 184.887 88.5014C185.37 90.1505 185.878 91.591 185.63 92.6591Z" fill="url(#paint31_linear_165_8018)"/>
<path d="M195.758 79.3593C195.758 79.3593 195.674 82.7327 195.653 83.1308C195.633 83.5289 195.003 83.6837 194.941 85.1917C194.88 86.6997 196.709 89.2369 197.108 90.4353C197.506 91.6343 197.818 93.3689 199.887 93.3282C201.798 93.2912 205.382 92.3815 206.096 91.253C206.307 90.9213 205.53 89.3314 204.783 87.7839C204.219 86.6172 202.356 82.5839 202.356 82.5839L202.187 78.6958" fill="url(#paint32_linear_165_8018)"/>
<path d="M194.796 84.5773C194.796 84.5773 194.182 85.0411 193.981 86.1044C193.779 87.1671 194.039 88.1247 194.544 88.9842C195.048 89.8431 195.772 90.1873 196.011 90.9309C196.25 91.6744 196.744 94.7251 198.851 95.4495C200.958 96.1745 202.225 95.9761 204.089 95.3204C205.953 94.6642 206.773 93.4879 206.955 93.0079C207.137 92.5285 207.035 91.2112 206.292 90.8406" fill="url(#paint33_linear_165_8018)"/>
<path d="M206.577 91.659C206.504 92.7911 203.467 94.6284 200.059 94.2787C197.998 94.0672 197.369 91.7116 196.971 90.5114C196.573 89.3112 194.583 87.9048 194.511 85.4512C194.466 83.9432 195.068 82.9283 195.67 82.755C195.67 82.755 195.646 84.3066 196.419 84.8314C197.265 81.7915 201.237 81.7646 202.357 82.5852C203.104 83.1321 204.603 86.511 205.165 87.6777C205.912 89.2263 206.648 90.5646 206.577 91.659Z" fill="url(#paint34_linear_165_8018)"/>
<path d="M181.724 43.8538C181.724 43.8538 178.03 47.8859 177.093 52.6681C176.155 57.4504 174.843 79.1118 174.843 79.1118C175.605 81.1135 182.75 81.7507 184.545 80.4214L189.543 61.0683L191.066 60.7306L193.052 80.1447C194.105 81.9999 201.638 81.7507 203.068 79.8625L204.662 49.3867L181.724 43.8538Z" fill="url(#paint35_linear_165_8018)"/>
<path d="M184.222 24.1481C184.222 24.1481 181.603 23.5301 178.43 23.9132C176.486 24.1481 166.165 26.1313 166.165 26.1313C166.165 26.1313 162.311 25.8629 160.17 26.1313C158.028 26.3997 154.927 27.9878 154.927 28.5048C154.927 29.0218 155.296 29.3912 156.514 29.4647C157.733 29.5388 161.13 28.7265 161.906 29.0589C162.681 29.3912 162.46 30.0188 161.869 30.2405C161.278 30.4623 160.059 30.7576 159.8 31.5328C159.542 32.308 160.317 33.3791 161.61 32.8991C162.902 32.4192 166.084 32.6469 167.336 31.721C169.446 31.8215 176.047 32.1359 177.746 32.2106C179.777 32.3002 185.131 31.9518 185.131 31.9518L184.222 24.1481Z" fill="url(#paint36_linear_165_8018)"/>
<path d="M217.752 26.9449C217.752 26.9449 220.43 26.6825 223.524 27.4853C225.418 27.9772 235.383 31.3207 235.383 31.3207C235.383 31.3207 239.237 31.5688 241.324 32.1211C243.41 32.6733 246.272 34.6607 246.204 35.173C246.134 35.6852 245.719 36.002 244.502 35.9123C243.284 35.8227 240.026 34.5639 239.213 34.7898C238.4 35.0158 238.536 35.6673 239.092 35.9661C239.648 36.2644 240.816 36.7198 240.969 37.5231C241.121 38.3258 240.21 39.284 238.993 38.6355C237.776 37.9869 234.592 37.7885 233.475 36.7031C231.371 36.5214 224.788 35.9512 223.094 35.7987C221.069 35.6164 215.81 34.5567 215.81 34.5567L217.752 26.9449Z" fill="url(#paint37_linear_165_8018)"/>
<path d="M224.56 27.6536C224.56 27.6536 213.198 24.64 209.384 23.9365C209.384 23.9365 200.087 22.0543 193.108 22.5905C188.224 22.9652 181.532 23.7046 181.532 23.7046C180.425 25.6986 180.701 32.6218 182.695 35.0592C182.695 35.0592 184.56 35.0036 186.611 35.0843C184.156 37.7674 181.6 40.9711 179.983 44.1294C179.983 44.1294 183.859 52.2911 192.557 53.4596C201.256 54.6275 204.994 52.6658 204.994 52.6658C204.994 52.6658 209.348 41.6441 212.129 36.7334C216.604 37.7495 220.032 38.6843 220.032 38.6843C222.846 38.6831 225.905 29.5657 224.56 27.6536Z" fill="url(#paint38_linear_165_8018)"/>
<path d="M205.582 22.382C205.582 22.382 202.619 23.5337 202.896 26.2521C203.201 29.243 206.064 30.5323 207.438 30.5323C210.757 30.5323 213.014 28.4337 213.014 28.4337" fill="url(#paint39_linear_165_8018)"/>
<path d="M201.853 20.7316C201.912 21.1202 201.999 21.4632 202.257 22.055C202.994 24.9156 204.988 28.6991 209.251 29.9991C213.825 31.3941 216.534 29.8502 217.775 27.7152C219.016 25.5802 219.369 23.2713 221.697 21.847C224.024 20.422 223.355 14.8502 221.391 11.8306C217.059 5.17217 199.788 6.97306 201.853 20.7316Z" fill="url(#paint40_linear_165_8018)"/>
<path d="M225.741 14.2021C225.777 17.9085 223.45 21.781 222.619 21.9544C221.079 22.2759 213.722 19.9114 214.99 18.4416C215.994 16.5774 215.852 15.1262 215.852 15.1262C215.422 16.1937 214.666 17.5289 214.083 18.0065C211.448 20.1696 211.719 16.8237 211.719 16.8237C211.719 16.8237 210.983 18.5911 209.455 19.1368C207.932 19.6813 206.617 19.2276 206.617 19.2276C205.644 16.5391 203.76 16.881 202.99 17.4877C201.277 18.8355 202.257 22.0548 202.257 22.0548C202.257 22.0548 198.159 17.8846 199.781 11.9643C201.064 7.28188 206.871 5.5581 209.715 7.02248C220.564 2.09141 225.697 9.61891 225.741 14.2021Z" fill="#2D2D2D"/>
<path d="M230.18 230.485L230.973 241.71C230.973 241.71 241.537 242.374 246.389 240.048L245.563 225.094" fill="url(#paint41_linear_165_8018)"/>
<path d="M246.391 240.049L235.424 240.751C234.312 239.15 232.113 237.973 228.814 237.224C228.814 237.224 224.421 239.938 216.924 244.658C211.903 245.847 207.509 247.545 209.428 253.785H248.495C248.495 253.785 249.53 243.704 246.391 240.049Z" fill="url(#paint42_linear_165_8018)"/>
<path d="M248.649 250.756C249.218 250.897 248.658 253.786 248.658 253.786H208.748C208.31 252.171 208.405 250.911 208.978 250.756H248.649Z" fill="url(#paint43_linear_165_8018)"/>
<path d="M276.57 218.069L271.499 209.308L260.605 219.777L270.884 231.052L276.57 218.069Z" fill="url(#paint44_linear_165_8018)"/>
<path d="M247.632 138.121L254.457 177.819L276.411 216.749C276.411 216.749 269.777 223.969 258.686 226.257C258.686 226.257 240.409 196.293 235.645 184.92C231.31 174.57 229.851 140.411 229.851 140.411" fill="url(#paint45_linear_165_8018)"/>
<path d="M217.351 126.326C215.078 140.695 222.337 191.084 227.996 235.116C234.596 236.032 243.676 235.039 247.721 232.658L245.86 153.193C245.86 153.193 254.674 141.935 252.678 132.194L217.351 126.326Z" fill="url(#paint46_linear_165_8018)"/>
<path d="M234.329 129.666C234.329 129.666 233.566 176.058 234.329 185.977C235.093 195.897 238.13 231.612 238.13 231.612" stroke="white" stroke-width="0.448279" stroke-miterlimit="10"/>
<path d="M247.05 203.983L245.861 153.193C245.861 153.193 246.771 152.031 247.939 150.131" stroke="white" stroke-width="0.298853" stroke-miterlimit="10" stroke-linecap="round" stroke-linejoin="round"/>
<path d="M235.66 43.5836C235.66 43.5836 229.323 50.6251 228.178 57.4031C227.286 62.6898 229.886 65.4225 234.661 66.1439L234.441 71.4378C234.441 71.4378 241.807 72.1192 247.88 69.6549L245.911 64.9049C250.788 63.0777 254.317 59.5417 255.527 54.4104C258.019 43.8477 244.991 33.373 235.66 43.5836Z" fill="url(#paint47_linear_165_8018)"/>
<path d="M234.66 66.144C234.66 66.144 239.098 66.468 241.635 63.9785C241.635 63.9785 240.548 67.5379 234.535 69.1576L234.66 66.144Z" fill="url(#paint48_linear_165_8018)"/>
<path d="M212.482 44.5484C213.117 42.9053 214.051 40.3496 214.044 39.545C214.034 38.346 212.886 36.3473 212.842 35.4071C212.77 33.8955 212.428 33.2584 211.799 33.4694C211.799 33.4694 210.832 33.6284 210.459 34.5195C209.724 36.2768 210.459 38.7561 210.459 38.7561C210.459 38.7561 209.613 40.8008 208.911 42.3883C206.849 44.0248 206.121 48.5471 206.268 49.5213C206.917 53.8302 213.712 74.6609 217.331 75.1043H229.996L212.752 47.3559C212.752 47.3559 212.155 45.3936 212.482 44.5484Z" fill="url(#paint49_linear_165_8018)"/>
<path d="M255.14 133.605C248.787 136.253 242.493 137.048 236.259 136.163L234.406 131.573L232.661 135.464C226.767 134.012 220.922 131.077 215.124 126.797C215.124 126.797 221.46 89.0045 226.504 81.4913C231.555 73.9841 234.442 71.4379 234.442 71.4379L247.878 69.6567C247.878 69.6567 254.555 76.2136 254.794 80.6725C255.087 86.3088 253.264 105.555 252.797 112.596C252.325 119.637 255.14 133.605 255.14 133.605Z" fill="url(#paint50_linear_165_8018)"/>
<g opacity="0.5">
<path d="M236.545 94.7006L221.663 95.1788C222.649 91.3893 223.671 87.9406 224.675 85.3107L225.745 86.0339L236.545 94.7006Z" fill="url(#paint51_linear_165_8018)"/>
</g>
<path d="M208.532 70.8026L199.721 47.1263L198.899 44.0798C198.899 44.0798 198.9 41.7995 198.501 39.9461C198.102 38.0932 198.177 37.1141 198.612 35.4955C199.047 33.877 199.538 33.2446 199.318 32.773C198.868 31.8053 196.739 32.1705 196.154 33.4669C195.569 34.7628 194.603 37.2474 193.838 36.8942C192.946 36.483 191.491 35.6342 191.491 35.6342L190.597 34.8566L186.61 35.0849L185.463 35.0526C185.463 35.0526 183.655 37.0759 183.655 38.1631C183.655 39.2509 185.439 42.5096 187.052 44.3093C187.824 45.1706 191.742 48.519 191.742 48.519C191.742 48.519 194.595 71.276 199.116 79.574C200.811 82.685 219.024 86.8337 219.024 86.8337L222.225 73.0022L208.532 70.8026Z" fill="url(#paint52_linear_165_8018)"/>
<path d="M222.225 73.0038L219.027 86.8347C219.027 86.8347 216.654 86.2908 213.54 85.454C215.226 80.6485 217.581 74.3128 218.304 72.3762L222.225 73.0038Z" fill="url(#paint53_linear_165_8018)"/>
<path d="M232.961 94.2854L215.679 90.2366L219.346 72.3383C219.346 72.3383 237.42 74.0985 241.411 76.2114C245.401 78.3237 247.044 84.0748 246.105 87.4781C245.167 90.8821 240.862 96.2471 232.961 94.2854Z" fill="url(#paint54_linear_165_8018)"/>
<path d="M236.753 37.6621C240.305 35.4112 243.012 37.4404 243.012 37.4404C243.012 37.4404 244.678 33.3766 250.046 34.8374C257.579 36.8869 257.579 47.798 257.579 47.798C257.579 47.798 262.231 47.6319 262.231 54.2784C262.231 60.9248 247.003 67.5379 247.003 67.5379L244.651 61.865C244.651 61.865 250.379 58.7833 248.791 55.423C247.05 51.7399 242.425 55.4313 242.425 55.4313C242.425 55.4313 238.7 51.358 241.691 48.8655C241.691 48.8655 240.299 49.4597 238.858 45.9702C238.858 45.9702 238.166 42.7857 237.473 42.7576C236.781 42.7301 235.263 44.0444 235.263 44.0444C235.263 44.0444 233.125 39.9603 236.753 37.6621Z" fill="#2D2D2D"/>
<path d="M276.571 218.069C276.571 218.069 279.772 216.36 289.857 219.114L285.534 250.629L280.538 253.785H268.093C268.093 253.785 261.668 244.148 275.621 242.377L270.919 231.547L266.616 228.417C266.616 228.417 268.589 225.869 271.755 224.808L276.571 218.069Z" fill="url(#paint55_linear_165_8018)"/>
<path d="M187.759 35.2599C187.759 35.2599 189.521 37.4439 191.695 38.7887" stroke="#2D2D2D" stroke-width="0.298853" stroke-miterlimit="10" stroke-linecap="round" stroke-linejoin="round"/>
<path d="M185.439 35.5463C185.439 35.5463 187.251 38.6364 190.227 40.4295" stroke="#2D2D2D" stroke-width="0.298853" stroke-miterlimit="10" stroke-linecap="round" stroke-linejoin="round"/>
<path d="M184.569 37.0249C184.569 37.0249 185.782 40.2394 188.7 42.0988" stroke="#2D2D2D" stroke-width="0.298853" stroke-miterlimit="10" stroke-linecap="round" stroke-linejoin="round"/>
<path d="M233.975 149.176L233.092 149.024C221.545 147.032 221.452 134.821 221.452 134.698L221.455 133.802L223.248 133.808L223.245 134.704C223.245 135.158 223.364 145.526 233.396 147.257L234.28 147.41L233.975 149.176Z" fill="white"/>
<path d="M228.302 231.612C228.302 231.612 239.573 232.77 246.899 229.68" stroke="white" stroke-width="0.448279" stroke-miterlimit="10" stroke-linecap="round"/>
<path d="M258.137 223.06C258.137 223.06 269.277 219.78 274.141 214.114" stroke="white" stroke-width="0.448279" stroke-miterlimit="10" stroke-linecap="round"/>
<path d="M287.228 218.459L282.987 248.46L279.464 250.756H266.824C266.053 251.216 266.824 253.785 266.824 253.785H280.538L285.534 250.628L289.965 218.902C289.564 218.644 287.304 217.958 287.228 218.459Z" fill="url(#paint56_linear_165_8018)"/>
<path d="M239.773 1.80507C239.773 2.80085 240.581 3.60835 241.579 3.60835C242.574 3.60835 243.382 2.80085 243.382 1.80507C243.382 0.808098 242.574 0 241.579 0C240.581 0 239.773 0.808098 239.773 1.80507Z" fill="white"/>
<path d="M-1.55322 127.257C-1.55322 127.931 -1.00692 128.478 -0.332703 128.478C0.341509 128.478 0.888409 127.931 0.888409 127.257C0.888409 126.582 0.342107 126.035 -0.332703 126.035C-1.00692 126.035 -1.55322 126.582 -1.55322 127.257Z" fill="url(#paint57_linear_165_8018)"/>
<path d="M199.324 117.61C199.324 118.284 199.871 118.831 200.545 118.831C201.219 118.831 201.766 118.284 201.766 117.61C201.766 116.936 201.22 116.39 200.545 116.39C199.871 116.389 199.324 116.936 199.324 117.61Z" fill="url(#paint58_linear_165_8018)"/>
<path d="M301.7 30.5321C301.7 31.7676 302.701 32.7688 303.937 32.7688C305.172 32.7688 306.173 31.767 306.173 30.5321C306.173 29.2967 305.172 28.2955 303.937 28.2955C302.702 28.2955 301.7 29.2973 301.7 30.5321Z" fill="url(#paint59_linear_165_8018)"/>
<path d="M343.752 138.746C343.752 139.424 344.301 139.974 344.98 139.974C345.657 139.974 346.207 139.424 346.207 138.746C346.207 138.068 345.658 137.518 344.98 137.518C344.302 137.519 343.752 138.068 343.752 138.746Z" fill="url(#paint60_linear_165_8018)"/>
<path d="M1.18359 37.1427C1.18359 38.6758 2.42682 39.919 3.95994 39.919C5.49365 39.919 6.73628 38.6758 6.73628 37.1427C6.73628 35.6096 5.49305 34.3663 3.95994 34.3663C2.42682 34.3663 1.18359 35.6096 1.18359 37.1427Z" fill="white"/>
<path d="M55.854 64.9886C55.854 66.3986 56.9974 67.542 58.4074 67.542C59.8174 67.542 60.9608 66.3986 60.9608 64.9886C60.9608 63.5786 59.8174 62.4352 58.4074 62.4352C56.9974 62.4352 55.854 63.5786 55.854 64.9886Z" fill="url(#paint61_linear_165_8018)"/>
<path d="M58.7437 108.759C58.7437 109.371 59.2397 109.868 59.8524 109.868C60.465 109.868 60.9605 109.372 60.9605 108.759C60.9605 108.147 60.4644 107.651 59.8524 107.651C59.2403 107.651 58.7437 108.147 58.7437 108.759Z" fill="url(#paint62_linear_165_8018)"/>
<path d="M69.1895 27.6289C69.1895 28.4442 69.8505 29.1053 70.6658 29.1053C71.4811 29.1053 72.1421 28.4442 72.1421 27.6289C72.1421 26.8137 71.4811 26.1526 70.6658 26.1526C69.8505 26.1526 69.1895 26.8137 69.1895 27.6289Z" fill="url(#paint63_linear_165_8018)"/>
<path d="M155.705 145.974C155.705 146.789 156.366 147.45 157.181 147.45C157.996 147.45 158.657 146.789 158.657 145.974C158.657 145.158 157.996 144.497 157.181 144.497C156.366 144.497 155.705 145.158 155.705 145.974Z" fill="url(#paint64_linear_165_8018)"/>
<path d="M155.316 58.7368C155.316 59.7672 156.152 60.6028 157.182 60.6028C158.213 60.6028 159.048 59.7672 159.048 58.7368C159.048 57.7063 158.213 56.8707 157.182 56.8707C156.152 56.8707 155.316 57.7063 155.316 58.7368Z" fill="url(#paint65_linear_165_8018)"/>
<path d="M140.477 6.54923C140.477 8.1732 141.793 9.48994 143.418 9.48994C145.042 9.48994 146.359 8.1732 146.359 6.54923C146.359 4.92526 145.042 3.60852 143.418 3.60852C141.794 3.60852 140.477 4.92526 140.477 6.54923Z" fill="white"/>
<path d="M86.3022 149.024C87.1446 149.024 87.8275 148.341 87.8275 147.499C87.8275 146.656 87.1446 145.974 86.3022 145.974C85.4598 145.974 84.7769 146.656 84.7769 147.499C84.7769 148.341 85.4598 149.024 86.3022 149.024Z" fill="white"/>
<path d="M44.1641 155.712C44.1641 156.575 44.864 157.275 45.7271 157.275C46.5902 157.275 47.2901 156.575 47.2901 155.712C47.2901 154.849 46.5902 154.149 45.7271 154.149C44.864 154.149 44.1641 154.849 44.1641 155.712Z" fill="white"/>
<path d="M327.598 126.326C327.598 127.796 328.791 128.989 330.261 128.989C331.731 128.989 332.924 127.797 332.924 126.326C332.924 124.855 331.731 123.663 330.261 123.663C328.791 123.663 327.598 124.855 327.598 126.326Z" fill="white"/>
<path d="M175.617 123.663C175.617 125.134 176.809 126.326 178.279 126.326C179.75 126.326 180.942 125.134 180.942 123.663C180.942 122.192 179.75 121 178.279 121C176.809 121 175.617 122.193 175.617 123.663Z" fill="white"/>
<path d="M18.4872 111.605C3.95936 102.044 -5.10245 67.8171 24.6675 57.7123C32.565 55.0316 44.0092 55.7757 47.7873 58.3226C52.4279 61.451 49.0604 65.9529 44.7731 61.9471C36.199 53.9354 32.8758 18.5883 60.9608 13.2275C87.876 8.09019 98.734 29.3273 98.734 29.3273" stroke="white" stroke-width="0.597705" stroke-miterlimit="10" stroke-linecap="round"/>
<path d="M250 24.1194C250 24.1194 271.453 2.76755 301.699 15.5172C332.015 28.2962 323.927 63.2446 323.927 63.2446" stroke="white" stroke-width="0.597705" stroke-miterlimit="10" stroke-linecap="round"/>
<path d="M147.149 33.1847C144.039 31.8004 142.5 36.034 142.5 36.034C142.5 36.034 138.762 33.5206 137.065 36.4715C135.993 38.3346 137.886 40.5933 140.04 41.8742C142.305 43.2214 144.965 43.5974 144.965 43.5974C144.965 43.5974 146.893 41.7259 147.929 39.3028C148.914 36.9993 149.113 34.0592 147.149 33.1847Z" fill="url(#paint66_linear_165_8018)"/>
<path d="M243.699 20.6874C243.036 18.8847 240.718 19.9265 240.718 19.9265C240.718 19.9265 240.265 17.4251 238.403 17.8985C237.228 18.1973 237.058 19.8518 237.387 21.2271C237.732 22.6736 238.626 23.8983 238.626 23.8983C238.626 23.8983 240.142 23.9425 241.53 23.4093C242.849 22.9019 244.117 21.826 243.699 20.6874Z" fill="url(#paint67_linear_165_8018)"/>
<defs>
<linearGradient id="paint0_linear_165_8018" x1="280.512" y1="162.476" x2="280.512" y2="204.445" gradientUnits="userSpaceOnUse">
<stop stop-color="#D2A57A"/>
<stop offset="0.9947" stop-color="#98723F"/>
</linearGradient>
<linearGradient id="paint1_linear_165_8018" x1="89.4437" y1="147.864" x2="89.4437" y2="213.91" gradientUnits="userSpaceOnUse">
<stop stop-color="#3E214C"/>
<stop offset="0.9947" stop-color="#391448"/>
</linearGradient>
<linearGradient id="paint2_linear_165_8018" x1="156.445" y1="219.663" x2="166.816" y2="249.517" gradientUnits="userSpaceOnUse">
<stop stop-color="#FFD2B6"/>
<stop offset="1" stop-color="#FFB793"/>
</linearGradient>
<linearGradient id="paint3_linear_165_8018" x1="149.794" y1="223.675" x2="152.696" y2="232.03" gradientUnits="userSpaceOnUse">
<stop stop-color="#FFD2B6"/>
<stop offset="1" stop-color="#FFB793"/>
</linearGradient>
<linearGradient id="paint4_linear_165_8018" x1="170.962" y1="234.376" x2="175.244" y2="246.703" gradientUnits="userSpaceOnUse">
<stop stop-color="#3E214C"/>
<stop offset="0.9947" stop-color="#391448"/>
</linearGradient>
<linearGradient id="paint5_linear_165_8018" x1="152.458" y1="233.107" x2="158.02" y2="249.119" gradientUnits="userSpaceOnUse">
<stop stop-color="#3E214C"/>
<stop offset="1" stop-color="#391448"/>
</linearGradient>
<linearGradient id="paint6_linear_165_8018" x1="164.44" y1="243.752" x2="167.655" y2="253.007" gradientUnits="userSpaceOnUse">
<stop stop-color="#3E214C"/>
<stop offset="1" stop-color="#391448"/>
</linearGradient>
<linearGradient id="paint7_linear_165_8018" x1="76.4592" y1="220.172" x2="81.4524" y2="247.635" gradientUnits="userSpaceOnUse">
<stop stop-color="#FFD2B6"/>
<stop offset="1" stop-color="#FFB793"/>
</linearGradient>
<linearGradient id="paint8_linear_165_8018" x1="84.6264" y1="216.726" x2="86.6142" y2="227.659" gradientUnits="userSpaceOnUse">
<stop stop-color="#FFD2B6"/>
<stop offset="1" stop-color="#FFB793"/>
</linearGradient>
<linearGradient id="paint9_linear_165_8018" x1="86.4011" y1="242.214" x2="78.0078" y2="250.989" gradientUnits="userSpaceOnUse">
<stop stop-color="#3E214C"/>
<stop offset="0.9947" stop-color="#391448"/>
</linearGradient>
<linearGradient id="paint10_linear_165_8018" x1="80.8786" y1="227.457" x2="68.6991" y2="239.245" gradientUnits="userSpaceOnUse">
<stop stop-color="#3E214C"/>
<stop offset="1" stop-color="#391448"/>
</linearGradient>
<linearGradient id="paint11_linear_165_8018" x1="75.0344" y1="228.03" x2="80.0766" y2="255.762" gradientUnits="userSpaceOnUse">
<stop stop-color="#3E214C"/>
<stop offset="1" stop-color="#391448"/>
</linearGradient>
<linearGradient id="paint12_linear_165_8018" x1="127.138" y1="77.5569" x2="181.273" y2="77.5569" gradientUnits="userSpaceOnUse">
<stop stop-color="#FFD2B6"/>
<stop offset="1" stop-color="#FFB793"/>
</linearGradient>
<linearGradient id="paint13_linear_165_8018" x1="137.793" y1="82.6829" x2="129.324" y2="89.8553" gradientUnits="userSpaceOnUse">
<stop stop-color="#FFD2B6"/>
<stop offset="1" stop-color="#FFB793"/>
</linearGradient>
<linearGradient id="paint14_linear_165_8018" x1="108.147" y1="71.4575" x2="115.043" y2="34.9103" gradientUnits="userSpaceOnUse">
<stop stop-color="#A6714C"/>
<stop offset="0.9947" stop-color="#BD8A62"/>
</linearGradient>
<linearGradient id="paint15_linear_165_8018" x1="121.996" y1="117.541" x2="137.588" y2="203.299" gradientUnits="userSpaceOnUse">
<stop stop-color="#D2A57A"/>
<stop offset="0.9947" stop-color="#98723F"/>
</linearGradient>
<linearGradient id="paint16_linear_165_8018" x1="129.709" y1="178.496" x2="122.613" y2="195.893" gradientUnits="userSpaceOnUse">
<stop stop-color="#D2A57A"/>
<stop offset="0.9947" stop-color="#98723F"/>
</linearGradient>
<linearGradient id="paint17_linear_165_8018" x1="93.2759" y1="122.763" x2="108.868" y2="208.52" gradientUnits="userSpaceOnUse">
<stop stop-color="#D2A57A"/>
<stop offset="0.9947" stop-color="#98723F"/>
</linearGradient>
<linearGradient id="paint18_linear_165_8018" x1="128.446" y1="60.0831" x2="136.242" y2="108.107" gradientUnits="userSpaceOnUse">
<stop stop-color="#391448"/>
<stop offset="0.9947" stop-color="#3B1A4A"/>
</linearGradient>
<linearGradient id="paint19_linear_165_8018" x1="127.23" y1="74.9536" x2="131.078" y2="98.6547" gradientUnits="userSpaceOnUse">
<stop stop-color="#391448"/>
<stop offset="0.9947" stop-color="#3B1849"/>
</linearGradient>
<linearGradient id="paint20_linear_165_8018" x1="109.336" y1="63.0595" x2="117.345" y2="112.398" gradientUnits="userSpaceOnUse">
<stop stop-color="#391448"/>
<stop offset="0.9947" stop-color="#3A1749"/>
</linearGradient>
<linearGradient id="paint21_linear_165_8018" x1="99.8706" y1="79.5791" x2="104.2" y2="106.249" gradientUnits="userSpaceOnUse">
<stop stop-color="#391448"/>
<stop offset="0.9947" stop-color="#3A1849"/>
</linearGradient>
<linearGradient id="paint22_linear_165_8018" x1="115.885" y1="39.873" x2="109.929" y2="85.4662" gradientUnits="userSpaceOnUse">
<stop stop-color="#FFD2B6"/>
<stop offset="1" stop-color="#FFB793"/>
</linearGradient>
<linearGradient id="paint23_linear_165_8018" x1="41.7127" y1="95.6099" x2="102.936" y2="95.6099" gradientUnits="userSpaceOnUse">
<stop stop-color="#FFD2B6"/>
<stop offset="1" stop-color="#FFB793"/>
</linearGradient>
<linearGradient id="paint24_linear_165_8018" x1="88.3202" y1="95.2324" x2="102.934" y2="95.2324" gradientUnits="userSpaceOnUse">
<stop stop-color="#FFD2B6"/>
<stop offset="1" stop-color="#FFB793"/>
</linearGradient>
<linearGradient id="paint25_linear_165_8018" x1="93.8012" y1="65.3239" x2="102.064" y2="116.223" gradientUnits="userSpaceOnUse">
<stop stop-color="#391448"/>
<stop offset="0.9947" stop-color="#3E214C"/>
</linearGradient>
<linearGradient id="paint26_linear_165_8018" x1="116.113" y1="70.8916" x2="114.263" y2="65.4535" gradientUnits="userSpaceOnUse">
<stop stop-color="#FFD2B6"/>
<stop offset="1" stop-color="#FFB793"/>
</linearGradient>
<linearGradient id="paint27_linear_165_8018" x1="123.388" y1="111.191" x2="123.907" y2="114.71" gradientUnits="userSpaceOnUse">
<stop stop-color="#98723F"/>
<stop offset="1" stop-color="#E8A770"/>
</linearGradient>
<linearGradient id="paint28_linear_165_8018" x1="80.3494" y1="124.725" x2="98.7336" y2="124.725" gradientUnits="userSpaceOnUse">
<stop stop-color="#98723F"/>
<stop offset="1" stop-color="#E8A770"/>
</linearGradient>
<linearGradient id="paint29_linear_165_8018" x1="175.264" y1="86.3182" x2="184.813" y2="85.5816" gradientUnits="userSpaceOnUse">
<stop stop-color="#FFD2B6"/>
<stop offset="1" stop-color="#FFB793"/>
</linearGradient>
<linearGradient id="paint30_linear_165_8018" x1="173.872" y1="89.9084" x2="185.984" y2="89.9084" gradientUnits="userSpaceOnUse">
<stop stop-color="#98723F"/>
<stop offset="0.9947" stop-color="#FFB793"/>
</linearGradient>
<linearGradient id="paint31_linear_165_8018" x1="174.696" y1="88.2876" x2="185.695" y2="88.2876" gradientUnits="userSpaceOnUse">
<stop stop-color="#391448"/>
<stop offset="1" stop-color="#3E214C"/>
</linearGradient>
<linearGradient id="paint32_linear_165_8018" x1="195.315" y1="87.0936" x2="204.616" y2="84.8092" gradientUnits="userSpaceOnUse">
<stop stop-color="#FFD2B6"/>
<stop offset="1" stop-color="#FFB793"/>
</linearGradient>
<linearGradient id="paint33_linear_165_8018" x1="194.529" y1="90.8627" x2="206.478" y2="88.8873" gradientUnits="userSpaceOnUse">
<stop stop-color="#98723F"/>
<stop offset="0.9947" stop-color="#FFB793"/>
</linearGradient>
<linearGradient id="paint34_linear_165_8018" x1="195.077" y1="89.1292" x2="205.928" y2="87.3353" gradientUnits="userSpaceOnUse">
<stop stop-color="#391448"/>
<stop offset="1" stop-color="#3E214C"/>
</linearGradient>
<linearGradient id="paint35_linear_165_8018" x1="189.103" y1="86.1254" x2="190.278" y2="46.5293" gradientUnits="userSpaceOnUse">
<stop stop-color="#3E214C"/>
<stop offset="1" stop-color="#391448"/>
</linearGradient>
<linearGradient id="paint36_linear_165_8018" x1="154.927" y1="28.4032" x2="185.132" y2="28.4032" gradientUnits="userSpaceOnUse">
<stop stop-color="#FFD2B6"/>
<stop offset="1" stop-color="#FFB793"/>
</linearGradient>
<linearGradient id="paint37_linear_165_8018" x1="246.216" y1="35.073" x2="216.282" y2="31.0404" gradientUnits="userSpaceOnUse">
<stop stop-color="#FFD2B6"/>
<stop offset="1" stop-color="#FFB793"/>
</linearGradient>
<linearGradient id="paint38_linear_165_8018" x1="205.986" y1="53.9388" x2="196.632" y2="7.7308" gradientUnits="userSpaceOnUse">
<stop stop-color="#98723F"/>
<stop offset="1" stop-color="#FFB793"/>
</linearGradient>
<linearGradient id="paint39_linear_165_8018" x1="208.081" y1="45.8597" x2="207.971" y2="30.5727" gradientUnits="userSpaceOnUse">
<stop stop-color="#FFD2B6"/>
<stop offset="1" stop-color="#FFB793"/>
</linearGradient>
<linearGradient id="paint40_linear_165_8018" x1="-641.733" y1="-378.698" x2="1325.8" y2="537.467" gradientUnits="userSpaceOnUse">
<stop stop-color="#FFD2B6"/>
<stop offset="1" stop-color="#FFB793"/>
</linearGradient>
<linearGradient id="paint41_linear_165_8018" x1="230.18" y1="233.446" x2="246.39" y2="233.446" gradientUnits="userSpaceOnUse">
<stop stop-color="#FFD2B6"/>
<stop offset="1" stop-color="#FFB793"/>
</linearGradient>
<linearGradient id="paint42_linear_165_8018" x1="227.686" y1="239.123" x2="229.245" y2="253.818" gradientUnits="userSpaceOnUse">
<stop stop-color="#E8A770"/>
<stop offset="1" stop-color="#98723F"/>
</linearGradient>
<linearGradient id="paint43_linear_165_8018" x1="228.429" y1="249.384" x2="229.034" y2="255.088" gradientUnits="userSpaceOnUse">
<stop stop-color="#3E214C"/>
<stop offset="0.9947" stop-color="#391448"/>
</linearGradient>
<linearGradient id="paint44_linear_165_8018" x1="267.829" y1="211.766" x2="269.641" y2="228.849" gradientUnits="userSpaceOnUse">
<stop stop-color="#FFD2B6"/>
<stop offset="1" stop-color="#FFB793"/>
</linearGradient>
<linearGradient id="paint45_linear_165_8018" x1="251.167" y1="116.922" x2="253.303" y2="183.993" gradientUnits="userSpaceOnUse">
<stop stop-color="#3E214C"/>
<stop offset="1" stop-color="#391448"/>
</linearGradient>
<linearGradient id="paint46_linear_165_8018" x1="234.537" y1="135.103" x2="243.82" y2="222.632" gradientUnits="userSpaceOnUse">
<stop stop-color="#3E214C"/>
<stop offset="1" stop-color="#391448"/>
</linearGradient>
<linearGradient id="paint47_linear_165_8018" x1="-673.504" y1="-628.418" x2="1436.57" y2="949.347" gradientUnits="userSpaceOnUse">
<stop stop-color="#FFD2B6"/>
<stop offset="1" stop-color="#FFB793"/>
</linearGradient>
<linearGradient id="paint48_linear_165_8018" x1="76.4324" y1="-54.3044" x2="447.606" y2="223.232" gradientUnits="userSpaceOnUse">
<stop stop-color="#FFD2B6"/>
<stop offset="1" stop-color="#FFB793"/>
</linearGradient>
<linearGradient id="paint49_linear_165_8018" x1="206.25" y1="54.2674" x2="229.996" y2="54.2674" gradientUnits="userSpaceOnUse">
<stop stop-color="#FFD2B6"/>
<stop offset="1" stop-color="#FFB793"/>
</linearGradient>
<linearGradient id="paint50_linear_165_8018" x1="236.267" y1="72.5498" x2="235.159" y2="128.826" gradientUnits="userSpaceOnUse">
<stop stop-color="#D2A57A"/>
<stop offset="0.9947" stop-color="#98723F"/>
</linearGradient>
<linearGradient id="paint51_linear_165_8018" x1="235.681" y1="84.4084" x2="219.505" y2="102.263" gradientUnits="userSpaceOnUse">
<stop stop-color="#D2A57A"/>
<stop offset="0.9947" stop-color="#98723F"/>
</linearGradient>
<linearGradient id="paint52_linear_165_8018" x1="210.051" y1="90.7797" x2="193.836" y2="10.6791" gradientUnits="userSpaceOnUse">
<stop stop-color="#FFD2B6"/>
<stop offset="1" stop-color="#FFB793"/>
</linearGradient>
<linearGradient id="paint53_linear_165_8018" x1="219.32" y1="72.2276" x2="216.687" y2="85.0464" gradientUnits="userSpaceOnUse">
<stop stop-color="#FFD2B6"/>
<stop offset="1" stop-color="#FFB793"/>
</linearGradient>
<linearGradient id="paint54_linear_165_8018" x1="231.325" y1="72.4505" x2="230.217" y2="128.725" gradientUnits="userSpaceOnUse">
<stop stop-color="#D2A57A"/>
<stop offset="0.9947" stop-color="#98723F"/>
</linearGradient>
<linearGradient id="paint55_linear_165_8018" x1="284.57" y1="220.954" x2="271.116" y2="250.361" gradientUnits="userSpaceOnUse">
<stop stop-color="#E8A770"/>
<stop offset="1" stop-color="#98723F"/>
</linearGradient>
<linearGradient id="paint56_linear_165_8018" x1="288.911" y1="222.75" x2="275.201" y2="252.719" gradientUnits="userSpaceOnUse">
<stop stop-color="#3E214C"/>
<stop offset="0.9947" stop-color="#391448"/>
</linearGradient>
<linearGradient id="paint57_linear_165_8018" x1="255.716" y1="-64.1979" x2="-53.0083" y2="166.645" gradientUnits="userSpaceOnUse">
<stop stop-color="#98723F"/>
<stop offset="1" stop-color="#D2A57A"/>
</linearGradient>
<linearGradient id="paint58_linear_165_8018" x1="264.277" y1="69.9558" x2="-44.4499" y2="300.802" gradientUnits="userSpaceOnUse">
<stop stop-color="#98723F"/>
<stop offset="1" stop-color="#D2A57A"/>
</linearGradient>
<linearGradient id="paint59_linear_165_8018" x1="305.5" y1="29" x2="303" y2="32.5" gradientUnits="userSpaceOnUse">
<stop stop-color="#98723F"/>
<stop offset="1" stop-color="#D2A57A"/>
</linearGradient>
<linearGradient id="paint60_linear_165_8018" x1="409.061" y1="90.8311" x2="98.6437" y2="322.941" gradientUnits="userSpaceOnUse">
<stop stop-color="#98723F"/>
<stop offset="1" stop-color="#D2A57A"/>
</linearGradient>
<linearGradient id="paint61_linear_165_8018" x1="60.5" y1="64" x2="56.5" y2="67.5" gradientUnits="userSpaceOnUse">
<stop stop-color="#98723F"/>
<stop offset="1" stop-color="#D2A57A"/>
</linearGradient>
<linearGradient id="paint62_linear_165_8018" x1="209.193" y1="-2.90705" x2="-99.5345" y2="227.938" gradientUnits="userSpaceOnUse">
<stop stop-color="#98723F"/>
<stop offset="1" stop-color="#D2A57A"/>
</linearGradient>
<linearGradient id="paint63_linear_165_8018" x1="239.457" y1="-98.5805" x2="-69.2704" y2="132.263" gradientUnits="userSpaceOnUse">
<stop stop-color="#98723F"/>
<stop offset="1" stop-color="#D2A57A"/>
</linearGradient>
<linearGradient id="paint64_linear_165_8018" x1="325.972" y1="19.764" x2="17.2449" y2="250.608" gradientUnits="userSpaceOnUse">
<stop stop-color="#98723F"/>
<stop offset="1" stop-color="#D2A57A"/>
</linearGradient>
<linearGradient id="paint65_linear_165_8018" x1="291.137" y1="-41.4253" x2="-17.5909" y2="189.419" gradientUnits="userSpaceOnUse">
<stop stop-color="#98723F"/>
<stop offset="1" stop-color="#D2A57A"/>
</linearGradient>
<linearGradient id="paint66_linear_165_8018" x1="141.888" y1="34.7255" x2="145.78" y2="43.8818" gradientUnits="userSpaceOnUse">
<stop stop-color="#391448"/>
<stop offset="1" stop-color="#3E214C"/>
</linearGradient>
<linearGradient id="paint67_linear_165_8018" x1="241.006" y1="19.1642" x2="238.831" y2="24.3403" gradientUnits="userSpaceOnUse">
<stop stop-color="#391448"/>
<stop offset="1" stop-color="#3E214C"/>
</linearGradient>
</defs>
</svg>
