<svg width="28" height="28" viewBox="0 0 28 28" fill="none" xmlns="http://www.w3.org/2000/svg">
<path d="M14.0001 4.66699C15.2378 4.66699 16.4247 5.15866 17.2999 6.03383C18.1751 6.909 18.6667 8.09598 18.6667 9.33366C18.6667 10.5713 18.1751 11.7583 17.2999 12.6335C16.4247 13.5087 15.2378 14.0003 14.0001 14.0003C12.7624 14.0003 11.5754 13.5087 10.7003 12.6335C9.82508 11.7583 9.33342 10.5713 9.33342 9.33366C9.33342 8.09598 9.82508 6.909 10.7003 6.03383C11.5754 5.15866 12.7624 4.66699 14.0001 4.66699ZM14.0001 7.00033C13.3812 7.00033 12.7878 7.24616 12.3502 7.68374C11.9126 8.12133 11.6667 8.71482 11.6667 9.33366C11.6667 9.9525 11.9126 10.546 12.3502 10.9836C12.7878 11.4212 13.3812 11.667 14.0001 11.667C14.6189 11.667 15.2124 11.4212 15.65 10.9836C16.0876 10.546 16.3334 9.9525 16.3334 9.33366C16.3334 8.71482 16.0876 8.12133 15.65 7.68374C15.2124 7.24616 14.6189 7.00033 14.0001 7.00033ZM14.0001 15.167C17.1151 15.167 23.3334 16.7187 23.3334 19.8337V23.3337H4.66675V19.8337C4.66675 16.7187 10.8851 15.167 14.0001 15.167ZM14.0001 17.3837C10.5351 17.3837 6.88341 19.087 6.88341 19.8337V21.117H21.1167V19.8337C21.1167 19.087 17.4651 17.3837 14.0001 17.3837Z" fill="white"/>
</svg>
