<svg width="14" height="12" viewBox="0 0 14 12" fill="none" xmlns="http://www.w3.org/2000/svg">
<g clip-path="url(#clip0_16_1423)">
<path d="M6.82265 2.9874C8.97753 2.9874 10.8993 4.0524 11.8374 5.7374C11.502 6.3474 11.0301 6.8724 10.4672 7.2974L11.2689 8.0024C12.0592 7.3874 12.6846 6.6174 13.0769 5.7374C12.0933 3.5424 9.6655 1.9874 6.82265 1.9874C6.10056 1.9874 5.4069 2.0874 4.75305 2.2724L5.69119 3.0974C6.06076 3.0324 6.43602 2.9874 6.82265 2.9874ZM6.21427 3.5574L7.39122 4.5924C7.7153 4.7174 7.97685 4.9474 8.11899 5.2324L9.29593 6.2674C9.34142 6.0974 9.37553 5.9174 9.37553 5.7324C9.38122 4.4924 8.2327 3.4874 6.82265 3.4874C6.61227 3.4874 6.41327 3.5124 6.21427 3.5574ZM1.14262 1.9224L2.66639 3.2624C1.73962 3.9024 1.00616 4.7524 0.568359 5.7374C1.55199 7.9324 3.97979 9.4874 6.82265 9.4874C7.68687 9.4874 8.51699 9.3424 9.27887 9.0774L11.2234 10.7874L12.0251 10.0824L1.9443 1.2124L1.14262 1.9224ZM5.4069 5.6724L6.89087 6.9774C6.86813 6.9824 6.84539 6.9874 6.82265 6.9874C6.03802 6.9874 5.40122 6.4274 5.40122 5.7374C5.40122 5.7124 5.4069 5.6974 5.4069 5.6724ZM3.47376 3.9724L4.46876 4.8474C4.33799 5.1224 4.26407 5.4224 4.26407 5.7374C4.26407 6.9774 5.41259 7.9874 6.82265 7.9874C7.18085 7.9874 7.52199 7.9224 7.82902 7.8074L8.38622 8.2974C7.88587 8.4174 7.36279 8.4874 6.82265 8.4874C4.66776 8.4874 2.74599 7.4224 1.80785 5.7374C2.20585 5.0224 2.78579 4.4324 3.47376 3.9724Z" fill="#9B9B9B"/>
</g>
<defs>
<clipPath id="clip0_16_1423">
<rect width="13.6457" height="12" fill="white"/>
</clipPath>
</defs>
</svg>
