<svg width="340" height="207" viewBox="0 0 340 207" fill="none" xmlns="http://www.w3.org/2000/svg">
<path d="M48.2672 105.866H45.2846H30.8464V162.081C30.8464 162.081 31.7923 178.696 44.1303 178.696H45.2846H48.2672H49.4215C61.7595 178.696 62.7054 162.081 62.7054 162.081V105.866H48.2672Z" fill="white"/>
<path d="M62.7054 109.609H30.8464V112.911H62.7054V109.609Z" fill="#E5CFB5"/>
<path d="M74.5329 111.088C73.2596 107.569 70.4012 105.865 70.0478 100.273C69.7515 95.616 68.2652 92.0872 63.489 91.1725C58.9051 90.2941 58.2503 86.8484 54.0302 88.0178C50.8443 88.9013 50.5741 95.7096 49.5399 98.8486C48.9474 95.0339 45.8655 89.6809 45.6836 86.0637C45.4809 82.1035 47.6897 78.4291 48.2094 74.5C48.7395 70.5034 47.409 66.2938 44.6753 63.3314C38.8337 57.0013 27.9665 56.9025 22.9513 49.902C23.8036 54.5326 24.7651 59.4023 27.847 62.9572C28.9228 64.1941 30.2117 65.2231 31.407 66.3509C34.2811 69.0742 36.6042 72.4783 37.5968 76.3138C39.2027 82.4932 37.285 89.2599 38.9845 95.3562C37.7527 92.5757 34.1147 91.2244 31.9268 88.8597C29.1827 85.9026 28.7617 81.3031 25.9396 78.4187C23.2163 75.633 18.9443 75.1341 15.0516 75.2432C11.1642 75.3524 7.14159 75.8877 3.47241 74.5988C4.97439 78.2836 10.3015 78.507 12.9364 81.4902C15.2699 84.1303 14.9425 88.2621 16.8966 91.1933C18.3882 93.4332 20.9972 94.6493 23.5749 95.4237C26.1475 96.1929 28.85 96.6399 31.2563 97.8456C35.3361 99.8881 36.6354 102.081 39.182 105.865L55.9635 105.849C56.7795 101.733 58.6037 98.0327 58.6037 98.0327C60.4383 101.037 61.6076 105.844 61.6076 105.844C62.013 107.216 62.5431 111.145 64.097 112.912C66.4721 115.615 68.3275 115.194 71.0872 117.501C73.8469 119.809 77.1938 121.602 80.7903 121.799C78.3736 118.426 75.9465 114.991 74.5329 111.088Z" fill="url(#paint0_linear_164_1184)"/>
<path d="M57.2524 101.307C56.6963 97.5858 55.5374 92.4771 55.5374 92.4771C56.7951 94.1349 58.6037 98.0328 58.6037 98.0328L57.2524 101.307Z" fill="url(#paint1_linear_164_1184)"/>
<path d="M289.641 178.695H287.262V37.5026C287.262 36.8457 287.795 36.313 288.452 36.313C289.109 36.313 289.641 36.8457 289.641 37.5026L289.641 178.695Z" fill="#E5CFB5"/>
<path d="M204.809 25.5213C204.202 25.2692 203.915 24.5728 204.167 23.9663L212.296 4.40789C212.548 3.80139 213.245 3.51398 213.851 3.76605C214.458 4.01811 214.745 4.71452 214.493 5.32103L206.364 24.8794C206.111 25.4859 205.415 25.7733 204.809 25.5213Z" fill="#E5CFB5"/>
<path d="M331.45 65.4024C331.198 66.0089 330.502 66.2963 329.895 66.0442L200.615 12.3089C200.009 12.0569 199.721 11.3605 199.973 10.754C200.226 10.1475 200.922 9.86005 201.528 10.1121L330.808 63.8474C331.415 64.0995 331.702 64.7959 331.45 65.4024Z" fill="#E5CFB5"/>
<path d="M288.452 54.3085C292.195 54.3085 295.23 51.2736 295.23 47.5298C295.23 43.7861 292.195 40.7512 288.452 40.7512C284.708 40.7512 281.673 43.7861 281.673 47.5298C281.673 51.2736 284.708 54.3085 288.452 54.3085Z" fill="#E5CFB5"/>
<path d="M210.749 24.7708C210.981 24.0541 211.07 23.3889 211.056 22.7767C210.969 18.9557 205.105 16.5188 202.335 19.1517C201.891 19.5737 201.483 20.1064 201.139 20.7768C201.139 20.7768 190.69 19.4614 187.73 26.5836C187.301 27.6163 193.302 31.0921 201.133 34.3471C208.965 37.602 215.661 39.4039 216.091 38.3717C219.051 31.2496 210.749 24.7708 210.749 24.7708Z" fill="#E5CFB5"/>
<path d="M0 178.695H340" stroke="#2D2D2D" stroke-width="0.519714" stroke-miterlimit="10"/>
<path d="M97.3836 201.434H87.6218L89.5198 182.469H106.603L97.3836 201.434Z" fill="url(#paint2_linear_164_1184)"/>
<path d="M242.616 201.434H252.378L250.48 182.469H233.397L242.616 201.434Z" fill="url(#paint3_linear_164_1184)"/>
<path d="M245.31 89.1267H170H94.6905C84.316 89.1267 76.4793 98.5304 78.3502 108.735L83.5131 136.896L89.4841 168.345H170H250.516L256.487 136.896L261.65 108.735C263.521 98.5309 255.684 89.1267 245.31 89.1267Z" fill="#EBD9C2"/>
<path d="M248.793 158.393H91.2073V187.453H248.793V158.393Z" fill="#EBD9C2"/>
<path d="M204.206 139.48C176.871 138.489 170 141.671 170 141.671C170 141.671 163.129 138.489 135.794 139.48C111.507 140.36 91.2073 144.991 91.2073 144.991V158.393H170H248.793V144.991C248.793 144.991 228.493 140.36 204.206 139.48Z" fill="#DDC4A8"/>
<path d="M61.1601 137.617L77.5321 184.228C78.2108 186.159 80.035 187.453 82.0827 187.453H101.074L90.3124 129.824C88.5927 120.615 79.0045 115.166 70.213 118.4C62.451 121.256 58.4191 129.814 61.1601 137.617Z" fill="#E5CFB5"/>
<path d="M278.84 137.617L262.468 184.228C261.79 186.159 259.965 187.453 257.918 187.453H238.927L249.688 129.824C251.408 120.615 260.996 115.166 269.787 118.4C277.55 121.256 281.581 129.814 278.84 137.617Z" fill="#E5CFB5"/>
<path d="M214.613 112.547L214.812 121.305C214.812 121.305 224.897 122.765 231.532 122.168C238.166 121.57 244.46 119.561 244.46 119.561L239.891 109.296" fill="url(#paint4_linear_164_1184)"/>
<path d="M242.681 115.562C231.575 117.708 217.74 117.547 214.726 117.479L214.612 112.547L239.89 109.294L242.681 115.562Z" fill="url(#paint5_linear_164_1184)"/>
<path d="M194.861 60.5146C195.866 55.3367 200.709 55.885 200.709 55.885C200.709 55.885 202.81 49.5803 211.856 52.2299C220.902 54.8799 230.866 74.6633 230.866 74.6633C228.587 82.6716 216.833 84.7 205.487 86.8121C205.629 81.1597 202.92 74.9486 199.521 68.6029C199.521 68.6029 193.797 65.996 194.861 60.5146Z" fill="#2D2D2D"/>
<path d="M196.2 99.5544L195.099 103.589L179.262 100.006L175.295 104.641C175.295 104.641 195.271 115.892 199.517 116.368C203.912 116.861 207.512 101.368 207.512 101.368" fill="url(#paint6_linear_164_1184)"/>
<path d="M207.513 101.368C207.513 101.368 206.972 103.686 206.063 106.498C200.299 104.923 196.573 102.418 195.606 101.722L196.198 99.5544L207.513 101.368Z" fill="url(#paint7_linear_164_1184)"/>
<path d="M241.994 110.658V110.664C234.12 115.424 219.402 116.448 214.132 116.666C213.929 113.075 213.747 110.383 213.42 109.874C212.983 109.203 208.658 107.157 208.182 105.657C207.996 105.047 208.046 104.36 208.093 103.777C203.909 104.256 197.475 102.644 195.677 101.246C195.677 101.246 198.307 89.9634 201.259 85.13C202.901 82.4431 218.882 79.5639 221.564 78.379C223.305 77.6669 227.639 75.4166 229.687 74.7098C231.631 74.0341 233.71 74.0289 235.622 75.3022C236.49 75.8843 236.516 93.4559 238.761 104.879C240.04 107.119 241.131 109.078 241.994 110.658Z" fill="url(#paint8_linear_164_1184)"/>
<path d="M247.076 162.083L253.864 165.591C253.864 165.591 262.078 162.716 263.933 163.158C265.788 163.6 267.289 167.581 269.107 173.081C273.288 176.783 278.195 183.183 279.726 185.749C281.728 189.104 276.475 191.019 274.814 188.579C273.72 186.971 271.865 185.63 271.865 185.63L242.313 173.224L247.076 162.083Z" fill="url(#paint9_linear_164_1184)"/>
<path d="M267.71 169.045C265.073 169.854 262.912 169.76 261.245 168.905C259.558 168.04 257.524 166.074 257.171 164.514C258.654 163.773 262.859 162.756 263.93 163.011C265.291 163.333 266.611 165.706 267.71 169.045Z" fill="url(#paint10_linear_164_1184)"/>
<path d="M212.669 125.42C212.438 125.633 196.397 141.208 194.951 144.792C193.559 148.242 191.842 156.069 200.424 160.516C210.41 165.691 244.099 176.439 244.099 176.439C247.5 172.626 249.644 168.153 249.991 162.736C249.991 162.736 229.535 149.449 218.438 147.379C219.689 142.984 226.126 128.44 225.936 125.75C221.623 125.183 217.042 125.125 212.669 125.42Z" fill="url(#paint11_linear_164_1184)"/>
<path d="M240.956 175.427C236.653 174.024 228.535 171.342 220.485 168.489C220.469 168.484 220.459 168.479 220.443 168.474L217.59 143.101L220.084 142.727C219.58 144.047 219.139 145.232 218.811 146.193C218.78 146.282 218.754 146.37 218.723 146.453C218.608 146.796 218.515 147.108 218.437 147.378C218.988 147.482 219.565 147.612 220.162 147.768C220.313 147.81 220.464 147.851 220.62 147.893C220.812 147.945 221.004 148.002 221.197 148.059C221.389 148.116 221.586 148.174 221.779 148.236C222.761 148.543 223.79 148.906 224.84 149.317C225.261 149.478 225.682 149.65 226.108 149.821C227.386 150.346 228.701 150.928 230.016 151.546C230.453 151.749 230.895 151.957 231.331 152.175C232.729 152.846 234.117 153.553 235.473 154.27C235.821 154.452 236.175 154.639 236.518 154.821C236.554 154.841 236.596 154.862 236.632 154.883C236.944 157.326 239.969 167.112 240.956 175.427Z" fill="url(#paint12_linear_164_1184)"/>
<path d="M247.963 135.968C248.793 126.878 244.46 119.561 244.46 119.561C230.262 122.149 214.812 121.305 214.812 121.305L212.668 125.42C214.257 125.478 216.265 126.952 216.819 129.55L225.604 128.925L228.163 128.796L245.191 143.099C245.191 143.099 247.655 139.338 247.963 135.968Z" fill="url(#paint13_linear_164_1184)"/>
<path d="M235.077 183.818C235.077 183.818 236.077 193.647 236.212 194.868C236.348 196.088 238.022 198.457 238.483 200.443C239.145 203.29 238.178 206.418 238.178 206.418H211.811C211.811 206.418 210.402 202.803 212.376 200.862C212.829 200.417 214.408 200.413 215.843 199.524C218.96 197.594 223.18 195.258 223.18 195.258L221.502 183.818" fill="url(#paint14_linear_164_1184)"/>
<path d="M238.181 206.418H235.967C235.816 204.89 235.686 202.79 235.889 201.356C236.133 199.667 237.053 198.653 237.62 198.175C237.829 198.175 238.535 199.717 238.713 200.441C239.449 203.434 238.181 206.418 238.181 206.418Z" fill="url(#paint15_linear_164_1184)"/>
<path d="M242.973 144.925C241.646 145.311 237.63 145.887 234.699 146.318C236.404 164.893 236.419 188.904 236.419 188.904C233.01 190.258 223.35 191.648 221.011 190.332C221.011 190.332 213.474 150.694 213.531 137.644C213.557 132.078 215.787 128.043 219.669 126.548C224.198 124.805 235.637 126.57 235.637 126.57L247.918 135.075C247.981 135.32 248.693 143.266 242.973 144.925Z" fill="url(#paint16_linear_164_1184)"/>
<path d="M217.617 171.117C215.624 159.088 213.5 144.595 213.531 137.644C213.557 132.078 215.787 128.043 219.669 126.548C224.198 124.805 235.637 126.57 235.637 126.57" stroke="#2D2D2D" stroke-width="0.259857" stroke-miterlimit="10" stroke-linecap="round" stroke-linejoin="round"/>
<path d="M234.687 145.856C234.687 145.856 234.433 140.366 232.932 136.959" stroke="#2D2D2D" stroke-width="0.259857" stroke-miterlimit="10" stroke-linecap="round" stroke-linejoin="round"/>
<path d="M252.499 94.8791C251.977 93.1391 246.924 87.4685 246.924 87.4685L235.181 93.506L239.486 98.6236C236.84 102.438 232.933 111.165 228.44 119.311L222.464 122.642C222.464 122.642 219.187 124.292 218.565 124.981C218.004 125.604 215.682 129.121 215.611 129.252C215.462 129.531 215.902 129.934 216.537 130.044C216.388 130.314 216.29 130.511 216.269 130.594C216.139 131.107 217.36 131.756 218.21 131.069C218.362 130.947 218.741 130.615 219.161 130.147C218.772 130.81 218.476 131.354 218.447 131.513C218.358 131.985 219.293 132.761 220.514 132.148C220.918 131.946 222.47 130.231 223.438 129.141C223.051 130.672 222.757 133.034 222.848 133.226C222.975 133.493 223.966 133.516 224.562 133.122C225.521 132.487 227.08 128.674 227.08 128.674L229.111 127.17C229.111 127.17 235.028 126.647 234.058 122.203C234.058 122.203 253.717 98.9422 252.499 94.8791Z" fill="url(#paint17_linear_164_1184)"/>
<path d="M248.299 89.0561C247.832 90.2983 245.805 94.6742 239.485 98.6241L235.182 93.5049L246.922 87.4658C246.922 87.4658 247.504 88.1207 248.299 89.0561Z" fill="url(#paint18_linear_164_1184)"/>
<path d="M237.525 96.2943L237.474 96.2332C237.489 96.2332 237.505 96.2281 237.52 96.223C237.52 96.2485 237.525 96.2689 237.525 96.2943Z" fill="url(#paint19_linear_164_1184)"/>
<path d="M237.521 96.2178C237.526 96.2438 237.526 96.2698 237.531 96.2958L235.182 93.5049L246.922 87.4658C246.922 87.4658 247.369 87.9699 248.008 88.7183C245.285 92.7929 241.725 95.168 237.521 96.2178Z" fill="url(#paint20_linear_164_1184)"/>
<path d="M223.918 128.643C223.918 128.643 224.257 127.389 224.477 127.016C224.697 126.643 226.57 125.245 226.57 125.245" stroke="#2D2D2D" stroke-width="0.259857" stroke-miterlimit="10" stroke-linecap="round" stroke-linejoin="round"/>
<path d="M219.339 130.053C219.339 130.053 221.347 127.002 221.779 126.647C222.212 126.291 224.584 124.562 224.584 124.562" stroke="#2D2D2D" stroke-width="0.259857" stroke-miterlimit="10" stroke-linecap="round" stroke-linejoin="round"/>
<path d="M216.681 129.747C216.681 129.747 219.071 126.366 219.553 125.705C220.036 125.044 222.909 123.468 222.909 123.468" stroke="#2D2D2D" stroke-width="0.259857" stroke-miterlimit="10" stroke-linecap="round" stroke-linejoin="round"/>
<path d="M229.537 86.8713L236.276 96.4917C241.246 95.5775 245.387 92.9649 248.418 88.0848C248.418 88.0848 237.756 76.7046 235.623 75.303" fill="url(#paint21_linear_164_1184)"/>
<mask id="mask0_164_1184" style="mask-type:luminance" maskUnits="userSpaceOnUse" x="195" y="74" width="54" height="43">
<path d="M248.419 88.0843C248.284 88.3026 248.149 88.5105 248.009 88.7184C245.285 92.7929 241.725 95.168 237.521 96.2179C237.526 96.2438 237.526 96.2698 237.531 96.2958C237.692 97.8394 237.874 99.3777 238.093 100.859C236.128 104.268 233.68 109.356 230.936 114.637C224.289 116.087 217.398 116.533 214.134 116.669C213.931 113.077 213.749 110.385 213.422 109.876C212.985 109.206 208.656 107.158 208.183 105.656C207.996 105.048 208.048 104.362 208.095 103.78C203.911 104.258 197.477 102.647 195.679 101.249C195.679 101.249 198.308 89.9657 201.26 85.1324C202.903 82.4454 218.884 79.5662 221.566 78.3813C223.307 77.6693 227.641 75.4189 229.689 74.7121C231.633 74.0365 233.711 74.0313 235.624 75.3046C237.755 76.7026 248.419 88.0843 248.419 88.0843Z" fill="white"/>
</mask>
<g mask="url(#mask0_164_1184)">
<path d="M195.677 86.8118C196.635 86.7442 215.582 87.1506 241.994 71.2079" stroke="white" stroke-width="1.03943" stroke-miterlimit="10"/>
<path d="M193.405 91.1886C206.945 91.8288 223.35 90.1341 244.924 76.0638" stroke="white" stroke-width="0.519714" stroke-miterlimit="10"/>
<path d="M194.446 95.1006C211.215 98.1331 230.264 93.3195 247.788 80.2539" stroke="white" stroke-width="1.55914" stroke-miterlimit="10"/>
<path d="M194.446 99.5547C215.581 103.218 230.866 99.5547 248.838 85.118" stroke="white" stroke-width="0.519714" stroke-miterlimit="10"/>
<path d="M195.713 106.626C220.57 108.45 237.992 102.37 250.105 90.1969" stroke="white" stroke-width="1.55914" stroke-miterlimit="10"/>
<path d="M197.086 111.327C221.852 114.129 239.5 108.742 252.083 97.0555" stroke="white" stroke-width="0.519714" stroke-miterlimit="10"/>
</g>
<path d="M238.093 100.859C237.968 101.072 237.838 101.301 237.713 101.529L229.959 87.4711L236.274 96.4933C236.679 96.4205 237.079 96.3322 237.474 96.2334C237.49 96.2334 237.505 96.2282 237.521 96.2231C237.521 96.249 237.526 96.2698 237.526 96.2958C237.692 97.8446 237.879 99.3777 238.093 100.859Z" fill="url(#paint22_linear_164_1184)"/>
<path d="M216.814 71.3548L215.147 68.6279C215.147 68.6279 215.91 66.4586 215.046 64.425C214.132 63.0087 212.324 63.1776 211.528 63.8424C210.495 64.7051 210.166 66.0834 210.166 66.0886C204.294 67.233 201.905 63.3185 201.905 63.3185C201.939 66.6691 199.516 68.6014 199.516 68.6014C199.516 68.6014 199.517 77.2842 205.024 79.4738C206.326 79.9914 208.803 79.954 210.642 79.1656L213.357 85.7343C213.357 85.7343 219.39 85.3777 221.579 78.9764L216.814 71.3548Z" fill="url(#paint23_linear_164_1184)"/>
<path d="M210.642 79.1656C210.642 79.1656 214.791 77.0504 214.741 72.2207C214.741 72.2207 216.483 77.5956 211.646 81.5937L210.642 79.1656Z" fill="url(#paint24_linear_164_1184)"/>
<path d="M208.334 93.983C208.131 97.2364 208.095 103.78 208.095 103.78C207.497 103.847 206.847 103.873 206.172 103.863L208.334 93.983Z" fill="url(#paint25_linear_164_1184)"/>
<path d="M199.085 134.57C196.509 128.9 188.996 126.995 188.996 126.995L158.019 126.737C158.019 126.737 147.381 128.118 143.835 133.195C139.558 139.316 149.353 144.334 158.152 140.848C158.152 140.848 163.129 143.381 172.121 141.994C172.121 141.994 181.29 142.668 188.544 140.472C196.064 138.194 196.438 134.57 196.438 134.57L196.296 134.425C197.89 134.51 199.085 134.57 199.085 134.57Z" fill="url(#paint26_linear_164_1184)"/>
<path d="M191.664 117.309C188.323 111.098 185.298 107.843 185.298 107.843C184.586 107.129 183.674 106.444 182.712 105.822C179.561 103.784 175.874 102.73 172.121 102.73H172.12C168.557 102.73 165.051 103.682 162.003 105.528C160.858 106.222 159.759 107.008 158.944 107.843C158.944 107.843 155.919 111.098 152.577 117.309C152.577 117.309 155.808 119.405 160.515 120.695C160.162 125.667 158.944 132.366 158.944 132.366C158.944 132.366 166.357 134.328 172.12 134.328C177.883 134.328 185.297 132.366 185.297 132.366C185.297 132.366 184.079 125.667 183.725 120.695C188.433 119.405 191.664 117.309 191.664 117.309Z" fill="url(#paint27_linear_164_1184)"/>
<path d="M174.938 97.7389H172.225H169.513C169.513 97.7389 168.135 103.287 167.384 104.979C167.384 104.979 168.278 106.863 172.225 106.863C176.158 106.863 177.067 104.979 177.067 104.979C176.315 103.287 174.938 97.7389 174.938 97.7389Z" fill="url(#paint28_linear_164_1184)"/>
<path d="M176.662 103.894C175.685 104.554 174.095 105.354 172.12 105.354C170.342 105.354 168.83 104.59 167.801 103.863C168.555 101.602 169.511 97.7405 169.511 97.7405H174.937C174.937 97.7405 175.903 101.638 176.662 103.894Z" fill="url(#paint29_linear_164_1184)"/>
<path d="M194.29 102.742C194.29 102.742 179.436 105.435 172.883 109.57C166.33 105.435 151.476 102.742 151.476 102.742C149.731 104.59 148.088 107.876 148.088 107.876L172.883 114.755L197.679 107.876C197.679 107.876 196.036 104.59 194.29 102.742Z" fill="url(#paint30_linear_164_1184)"/>
<path d="M198.653 106.047C198.653 106.047 190.649 106.193 175.297 110.291C175.297 110.291 173.91 110.075 172.884 110.075C171.858 110.075 170.47 110.291 170.47 110.291C155.119 106.193 147.114 106.047 147.114 106.047L146.719 106.504L157.162 109.983L172.884 111.45L188.605 109.983L199.049 106.504L198.653 106.047Z" fill="url(#paint31_linear_164_1184)"/>
<path d="M170.472 110.631C170.472 110.631 152.992 106.504 146.718 106.504L154.966 135.823L171.436 137.862L170.472 110.631Z" fill="url(#paint32_linear_164_1184)"/>
<path d="M175.295 110.631C175.295 110.631 192.776 106.504 199.05 106.504L190.803 135.823L174.332 137.862L175.295 110.631Z" fill="url(#paint33_linear_164_1184)"/>
<path d="M174.342 138.065L175.295 110.631L172.883 110.624L170.472 110.631L171.425 138.065C171.425 138.065 171.342 138.452 172.883 138.452C174.425 138.452 174.342 138.065 174.342 138.065Z" fill="url(#paint34_linear_164_1184)"/>
<path d="M174.579 109.782C174.579 109.782 181.801 107.036 188.544 106.047C188.544 106.047 181.561 106.531 174.579 109.782Z" fill="#F0C572"/>
<path d="M155.138 104.381C155.138 104.381 160.889 105.435 166.125 107.352C166.125 107.352 159.656 104.559 155.138 104.381Z" fill="#F0C572"/>
<path d="M174.117 109.609C174.117 109.609 177.288 107.575 181.373 106.667C181.373 106.667 177.174 108.042 174.117 109.609Z" fill="#F0C572"/>
<path d="M190.348 127.403C190.303 127.463 190.263 127.568 190.246 127.696C190.208 127.957 190.271 128.321 190.609 128.601C191.215 129.103 193.425 128.795 194.745 128.256C196.063 127.716 196.241 126.125 196.241 126.125C196.241 126.125 197.181 125.564 197.382 123.906C197.504 122.886 197.104 122.546 197.104 122.546C197.104 122.546 198.282 120.137 195.779 118.121L195.21 120.147C195.21 120.147 194.623 120.637 193.681 120.883C192.237 121.261 191.623 121.37 190.877 121.676C189.112 122.399 189.875 124.331 190.626 124.4C190.626 124.4 189.411 124.728 189.11 125.544C188.64 126.817 189.739 127.503 190.348 127.403Z" fill="url(#paint35_linear_164_1184)"/>
<path d="M189.348 125.151C189.867 124.923 192.766 124.47 194.066 124.02C195.558 123.503 196.024 122.924 196.064 122.874C196.004 122.904 195.187 123.315 194.481 123.548C193.753 123.792 190.626 124.4 190.626 124.4C190.626 124.4 189.808 124.622 189.348 125.151Z" fill="url(#paint36_linear_164_1184)"/>
<path d="M190.245 127.697C190.6 127.608 191.759 127.415 192.993 127.064C194.502 126.636 194.801 126.293 194.801 126.293C194.475 126.437 193.719 126.677 192.294 127.022C191.469 127.222 190.346 127.404 190.346 127.404C190.302 127.463 190.262 127.568 190.245 127.697Z" fill="url(#paint37_linear_164_1184)"/>
<path d="M193.577 130.292C185.246 127.616 173.009 136.347 173.009 136.347C173.009 136.347 171.474 135.805 170.203 135.805C168.932 135.805 165.602 139.262 164.204 139.974C162.806 140.686 162.043 141.169 162.043 141.728C162.043 142.287 163.975 146.303 165.704 146.151C167.432 145.999 170.281 143.291 171.093 142.948C171.905 142.605 174.001 142.458 174.001 142.458C174.001 142.458 190.916 142.755 194.94 141.654C200.457 140.144 201.908 132.969 193.577 130.292Z" fill="url(#paint38_linear_164_1184)"/>
<path d="M176.711 148.023C176.576 146.532 176.067 144.024 174.983 143.312C173.898 142.6 171.492 142.702 170.942 142.408C170.393 142.115 169.132 141.016 169.132 141.016C169.132 141.016 158.877 129.824 149.972 130.616C141.066 131.408 140.912 138.727 146.078 141.405C149.845 143.359 166.781 146.763 166.781 146.763C166.781 146.763 168.226 146.899 168.565 147.679C168.904 148.458 170.409 154.968 171.094 155.396C172.289 156.142 177.551 155.425 177.754 153.828C177.861 152.985 176.847 149.515 176.711 148.023Z" fill="url(#paint39_linear_164_1184)"/>
<path d="M164.087 126.327C163.164 125.883 160.311 124.279 160.311 124.279L155.909 120.493C155.909 120.493 158.872 120.418 159.568 119.931C160.264 119.443 160.642 118.866 160.755 118.101C160.868 117.335 160.554 117.145 158.789 117.131C157.024 117.116 154.896 115.915 153.476 115.968C152.056 116.021 147.82 116.497 147.82 116.497L144.986 122.91C144.986 122.91 146.181 123.367 146.562 123.698C147.096 124.162 148.66 126.187 150.316 127.507C150.316 127.507 154.443 129.837 154.782 130.004C155.122 130.17 157.812 130.421 158.489 130.315C158.831 130.261 159.338 129.945 159.756 129.647C160.551 129.716 161.384 129.752 161.72 129.699C162.224 129.62 163.084 128.973 163.49 128.649C164.124 128.78 164.613 128.837 164.761 128.749C165.564 128.276 165.01 126.772 164.087 126.327Z" fill="url(#paint40_linear_164_1184)"/>
<path d="M162.883 128.299C162.883 128.299 159.425 127.248 158.51 126.773C157.595 126.299 154.782 123.858 154.782 123.858" stroke="#2D2D2D" stroke-width="0.259857" stroke-miterlimit="10" stroke-linecap="round" stroke-linejoin="round"/>
<path d="M152.473 125.668C152.473 125.668 155.282 127.739 156.044 128.223C156.807 128.706 159.603 129.519 159.603 129.519" stroke="#2D2D2D" stroke-width="0.259857" stroke-miterlimit="10" stroke-linecap="round" stroke-linejoin="round"/>
<path d="M148.985 187.453C148.985 187.453 149.791 193.224 149.74 194.037C149.256 195.257 148.121 197.409 147.96 200.392C147.82 202.989 149.231 206.417 149.231 206.417H183.295C183.295 206.417 186.218 202.934 182.685 200.696C182.219 200.402 180.092 201.256 178.3 200.312C173.584 197.828 165.186 194.205 165.186 194.205L163.289 182.763" fill="url(#paint41_linear_164_1184)"/>
<path d="M165.618 189.839C158.838 192.538 150.617 192.771 140.547 189.839L135.905 142.908L121.753 144.425L120.32 125.171L120.2 123.55L133.89 121.653C133.89 121.653 152.08 124.807 154.668 128.222C157.521 131.99 165.618 189.839 165.618 189.839Z" fill="url(#paint42_linear_164_1184)"/>
<path d="M165.618 189.839C158.836 192.536 150.619 192.77 140.547 189.839L139.97 184.018C143.489 184.923 154.096 187.131 164.813 184.226H164.818C165.317 187.703 165.618 189.839 165.618 189.839Z" fill="url(#paint43_linear_164_1184)"/>
<path d="M135.936 142.408C135.936 142.408 135.428 136.806 136.19 133.722" stroke="white" stroke-width="0.259857" stroke-miterlimit="10" stroke-linecap="round" stroke-linejoin="round"/>
<path d="M139.706 71.2134C133.223 71.0913 117.549 73.2039 111.777 76.1891C106.268 79.0387 105.474 93.1521 102.899 105.946C100.749 116.625 99.6355 125.943 99.6355 125.943C99.6355 125.943 105.97 132.32 121.43 129.628C135.78 127.128 138.555 123.548 136.191 121.435C136.191 121.435 136.371 120.747 137.412 118.412C141.09 110.161 146.476 95.2502 148.625 89.1269H163.129C163.129 89.1269 154.929 77.188 150.092 73.3364C148.3 71.9103 143.222 71.2799 139.706 71.2134Z" fill="url(#paint44_linear_164_1184)"/>
<path d="M111.159 99.8951L108.177 100.744C109.753 101.505 112.992 102.532 115.218 102.445" fill="url(#paint45_linear_164_1184)"/>
<path d="M151.674 54.8649C151.674 54.8649 153.082 61.696 147.449 61.4564C142.594 61.2501 146.94 54.1461 146.94 54.1461" fill="url(#paint46_linear_164_1184)"/>
<path d="M130.121 59.1784C129.911 62.1891 130.146 64.5875 130.795 66.4954L124.615 74.1991C124.615 74.1991 128.247 78.7768 136.873 77.1553C136.873 77.1553 137.604 74.366 138.069 72.7855C145.267 75.7707 148.783 71.2362 149.218 67.0453C149.665 62.7457 150.506 57.2326 150.506 57.2326C155.062 44.2626 131.187 43.9164 130.121 59.1784Z" fill="url(#paint47_linear_164_1184)"/>
<path d="M111.159 99.8954C111.159 99.8954 113.356 108.914 114.96 110.762C118.476 114.812 144.986 122.91 144.986 122.91L148.088 116.667L127.22 103.473L125.056 96.5796L111.159 99.8954Z" fill="url(#paint48_linear_164_1184)"/>
<path d="M125.569 98.2241C124.177 99.0712 119.452 101.737 112.202 103.769C111.584 101.649 111.158 99.8976 111.158 99.8976L125.055 96.5818L125.569 98.2241Z" fill="url(#paint49_linear_164_1184)"/>
<path d="M110.346 182.763L110.481 194.898C110.481 194.898 108.99 197.139 108.329 198.155C107.668 199.172 105.024 201.155 104.77 202.629C104.516 204.104 105.532 206.418 105.532 206.418H128.784C128.784 206.418 129.767 203.375 129.055 199.748C128.723 198.052 126.14 195.071 126.14 195.071L125.394 183.75" fill="url(#paint50_linear_164_1184)"/>
<path d="M123.074 200.904C123.074 200.904 121.752 201.701 121.243 202.972C120.735 204.243 121.345 206.022 121.345 206.022" stroke="#2D2D2D" stroke-width="0.259857" stroke-miterlimit="10" stroke-linecap="round" stroke-linejoin="round"/>
<path d="M118.343 200.904C118.343 200.904 117.021 201.701 116.512 202.972C116.004 204.243 116.614 206.022 116.614 206.022" stroke="#2D2D2D" stroke-width="0.259857" stroke-miterlimit="10" stroke-linecap="round" stroke-linejoin="round"/>
<path d="M113.97 200.904C113.97 200.904 112.648 201.701 112.139 202.972C111.631 204.243 112.241 206.022 112.241 206.022" stroke="#2D2D2D" stroke-width="0.259857" stroke-miterlimit="10" stroke-linecap="round" stroke-linejoin="round"/>
<path d="M109.82 200.904C109.82 200.904 108.498 201.701 107.99 202.972C107.481 204.243 108.091 206.022 108.091 206.022" stroke="#2D2D2D" stroke-width="0.259857" stroke-miterlimit="10" stroke-linecap="round" stroke-linejoin="round"/>
<path d="M129.94 189.839C115.498 194.59 103.611 189.839 103.611 189.839H103.606C103.585 183.01 103.481 160.176 103.782 147.313C101.872 147.161 98.296 146.045 97.0425 144.314C92.468 137.996 99.6353 125.945 99.6353 125.945C100.697 126.845 105.375 129.1 107.697 128.735C110.799 126.142 115.397 123.81 120.32 125.171C121.696 125.551 123.408 126.657 124.051 127.482C126.175 130.206 129.592 185.64 129.94 189.839Z" fill="url(#paint51_linear_164_1184)"/>
<path d="M129.939 189.839C115.497 194.589 103.611 189.839 103.611 189.839H103.606C103.6 188.436 103.59 186.352 103.585 183.816C103.585 183.816 117.139 187.802 129.487 183.322C129.721 186.726 129.877 189.091 129.939 189.839Z" fill="url(#paint52_linear_164_1184)"/>
<path d="M151.674 45.6519C145.853 43.0372 140.805 46.1342 140.805 46.1342C140.805 46.1342 138.728 42.8345 135.427 43.967C133.375 44.6712 132.621 46.6482 132.711 48.3945C131.061 47.6746 128.259 47.6102 126.087 49.5321C120.436 54.5323 129.216 68.5583 129.216 68.5583L133.547 63.3742C133.547 63.3742 130.618 59.1349 133.487 57.412C135.903 55.9615 137.952 59.4197 137.952 59.4197C139.18 59.3822 141.817 58.1911 142.086 55.7978C142.086 55.7978 144.3 57.8979 147.854 58.1911C157.109 58.9545 157.494 48.2666 151.674 45.6519Z" fill="url(#paint53_linear_164_1184)"/>
<path d="M138.069 72.7848C138.069 72.7848 134.852 70.2377 134.276 66.2717C134.276 66.2717 133.278 73.0348 137.268 75.6697L138.069 72.7848Z" fill="url(#paint54_linear_164_1184)"/>
<path d="M148.624 89.1271C148.624 89.1271 149.581 86.2889 149.934 85.2193C150.324 84.0417 149.898 86.4272 150.553 87.359C151.697 88.9857 153.663 89.1276 153.663 89.1276L148.624 89.1271Z" fill="url(#paint55_linear_164_1184)"/>
<path d="M103.803 146.636C103.803 146.636 103.803 138.128 104.957 133.722" stroke="white" stroke-width="0.259857" stroke-miterlimit="10" stroke-linecap="round" stroke-linejoin="round"/>
<path d="M108.177 100.745L107.364 97.3871C111.817 96.3887 122.667 93.6503 124.879 92.8624L126.005 97.0482C121.565 99.1837 112.786 101.014 108.177 100.745Z" fill="#FCF9E9"/>
<path d="M124.615 92.0488L121.599 79.5928" stroke="white" stroke-width="0.259857" stroke-miterlimit="10" stroke-linecap="round" stroke-linejoin="round"/>
<path d="M163.251 94.5012C163.251 94.5012 162.03 92.9748 160.015 93.0055C158 93.0361 157.115 96.8212 159.191 98.806C161.267 100.79 163.465 98.9894 163.465 98.9894L163.251 94.5012Z" fill="url(#paint56_linear_164_1184)"/>
<path d="M181.541 94.5012C181.541 94.5012 182.762 92.9748 184.777 93.0055C186.791 93.0361 187.677 96.8212 185.601 98.806C183.525 100.791 181.327 98.9894 181.327 98.9894L181.541 94.5012Z" fill="url(#paint57_linear_164_1184)"/>
<path d="M165.008 80.2265C165.008 80.2265 159.88 79.9823 158.536 83.5236C157.193 87.0649 162.213 96.5284 162.213 96.5284H182.647C182.647 96.5284 189.98 84.6223 183.691 80.2229C179.417 73.0831 169.343 71.4959 165.008 80.2265Z" fill="url(#paint58_linear_164_1184)"/>
<path d="M182.605 97.8054C182.361 100.5 178.82 103.956 172.809 104.015C166.8 104.074 162.091 100.851 162.212 96.633C162.261 94.9262 162.47 93.3749 162.703 92.1296C162.703 92.1317 162.703 92.1317 162.703 92.1317C162.703 92.1317 166.747 91.69 167.968 86.1534C167.968 86.1534 170.089 89.6667 173.752 90.4801C176.627 91.1203 180.468 90.5549 181.988 90.2815C182.222 92.9705 182.813 95.5156 182.605 97.8054Z" fill="url(#paint59_linear_164_1184)"/>
<path d="M185.501 93.6937L184.838 92.4152L180.623 95.1977C180.107 93.7342 178.873 92.7026 177.431 92.7026C175.527 92.7026 173.983 94.5034 173.983 96.7246C173.983 96.7605 173.987 96.7948 173.988 96.8307C173.628 96.6955 173.207 96.5874 172.781 96.5874C172.355 96.5874 171.935 96.6955 171.574 96.8312C171.575 96.7953 171.579 96.761 171.579 96.7251C171.579 94.5039 170.033 92.7031 168.128 92.7031C166.688 92.7031 165.455 93.7342 164.939 95.1972L160.725 92.4152L160.062 93.6937L164.725 96.1036C164.698 96.3068 164.68 96.5131 164.68 96.7246C164.68 98.9438 166.223 100.745 168.128 100.745C169.756 100.745 171.119 99.4271 171.481 97.6586C172.318 97.3576 173.242 97.3576 174.08 97.658C174.441 99.4266 175.803 100.745 177.431 100.745C179.336 100.745 180.881 98.9438 180.881 96.7246C180.881 96.5131 180.863 96.3068 180.836 96.1036L185.501 93.6937ZM168.128 100.13C166.514 100.13 165.206 98.6044 165.206 96.7251C165.206 94.8438 166.514 93.32 168.128 93.32C169.743 93.32 171.051 94.8438 171.051 96.7251C171.051 96.8416 171.046 96.9569 171.036 97.0708C170.724 97.2303 170.528 97.368 170.528 97.368L170.852 97.9527C170.429 99.2255 169.371 100.13 168.128 100.13ZM177.432 100.13C176.191 100.13 175.134 99.227 174.71 97.9558L175.035 97.368C175.035 97.368 174.837 97.2293 174.525 97.0692C174.515 96.9559 174.51 96.8416 174.51 96.7251C174.51 94.8438 175.818 93.32 177.432 93.32C179.046 93.32 180.354 94.8438 180.354 96.7251C180.354 98.6044 179.046 100.13 177.432 100.13Z" fill="#2D2D2D"/>
<path d="M221.58 40.7514C221.58 40.7514 232.952 32.7884 243.681 39.7531C259.684 50.1421 245.788 69.1964 245.788 69.1964" stroke="white" stroke-width="0.519714" stroke-miterlimit="10" stroke-linecap="round"/>
<path d="M80.6874 90.0015C70.8533 85.3932 62.2375 68.6984 72.5876 54.3086C87.4332 33.6686 120.201 54.3086 111.698 63.3178C105.396 69.9951 86.1256 42.5131 105.252 22.6871C122.548 4.75904 155.528 9.6984 160.632 27.746C161.853 32.0633 155.493 33.1203 155.528 26.7544C155.596 14.3743 177.432 1.1304 194.802 16.1792" stroke="white" stroke-width="0.519714" stroke-miterlimit="10" stroke-linecap="round"/>
<path d="M106.805 6.07239C105.939 6.07239 105.237 6.77452 105.237 7.64192C105.237 8.50777 105.939 9.2099 106.805 9.2099C107.672 9.2099 108.375 8.50777 108.375 7.64192C108.374 6.77504 107.672 6.07239 106.805 6.07239Z" fill="white"/>
<path d="M316.643 114.192C316.643 114.778 316.168 115.254 315.582 115.254C314.996 115.254 314.521 114.778 314.521 114.192C314.521 113.606 314.996 113.131 315.582 113.131C316.168 113.131 316.643 113.606 316.643 114.192Z" fill="url(#paint60_linear_164_1184)"/>
<path d="M64.6589 82.419C64.6589 83.0052 64.1834 83.4807 63.5977 83.4807C63.0114 83.4807 62.5359 83.0052 62.5359 82.419C62.5359 81.8327 63.0114 81.3572 63.5977 81.3572C64.1839 81.3577 64.6589 81.8327 64.6589 82.419Z" fill="url(#paint61_linear_164_1184)"/>
<path d="M62.1017 34.1412C62.1017 35.2154 61.2312 36.086 60.1569 36.086C59.0827 36.086 58.2122 35.2149 58.2122 34.1412C58.2122 33.0669 59.0827 32.1964 60.1569 32.1964C61.2312 32.1969 62.1017 33.0675 62.1017 34.1412Z" fill="url(#paint62_linear_164_1184)"/>
<path d="M311.849 32.9677C311.849 34.3007 310.768 35.3817 309.435 35.3817C308.102 35.3817 307.021 34.3007 307.021 32.9677C307.021 31.6346 308.102 30.5536 309.435 30.5536C310.768 30.5536 311.849 31.6346 311.849 32.9677Z" fill="white"/>
<path d="M266.727 57.4968C266.727 58.7228 265.733 59.7171 264.506 59.7171C263.28 59.7171 262.286 58.7228 262.286 57.4968C262.286 56.2708 263.28 55.2766 264.506 55.2766C265.732 55.2766 266.727 56.2708 266.727 57.4968Z" fill="url(#paint63_linear_164_1184)"/>
<path d="M263.25 86.0439C263.25 86.5761 262.819 87.0079 262.287 87.0079C261.754 87.0079 261.323 86.5766 261.323 86.0439C261.323 85.5117 261.754 85.0803 262.287 85.0803C262.818 85.0803 263.25 85.5117 263.25 86.0439Z" fill="url(#paint64_linear_164_1184)"/>
<path d="M260.77 21.9601C260.77 22.669 260.195 23.2438 259.487 23.2438C258.778 23.2438 258.203 22.669 258.203 21.9601C258.203 21.2512 258.778 20.6764 259.487 20.6764C260.195 20.6764 260.77 21.2512 260.77 21.9601Z" fill="url(#paint65_linear_164_1184)"/>
<path d="M180.243 52.0603C180.243 52.9563 179.516 53.6828 178.62 53.6828C177.724 53.6828 176.998 52.9563 176.998 52.0603C176.998 51.1643 177.724 50.4377 178.62 50.4377C179.516 50.4377 180.243 51.1643 180.243 52.0603Z" fill="url(#paint66_linear_164_1184)"/>
<path d="M169.384 2.55699C169.384 3.96905 168.239 5.11398 166.826 5.11398C165.413 5.11398 164.269 3.96905 164.269 2.55699C164.269 1.14493 165.414 0 166.826 0C168.238 0 169.384 1.14441 169.384 2.55699Z" fill="url(#paint67_linear_164_1184)"/>
<path d="M275.666 83.4313C276.398 83.4313 276.992 82.8375 276.992 82.105C276.992 81.3725 276.398 80.7787 275.666 80.7787C274.933 80.7787 274.339 81.3725 274.339 82.105C274.339 82.8375 274.933 83.4313 275.666 83.4313Z" fill="white"/>
<path d="M279.71 117.74C279.71 118.49 279.102 119.099 278.351 119.099C277.601 119.099 276.992 118.49 276.992 117.74C276.992 116.989 277.601 116.381 278.351 116.381C279.102 116.381 279.71 116.99 279.71 117.74Z" fill="white"/>
<path d="M27.9869 130.23C27.9869 131.508 26.95 132.545 25.6715 132.545C24.393 132.545 23.3562 131.508 23.3562 130.23C23.3562 128.95 24.393 127.914 25.6715 127.914C26.95 127.914 27.9869 128.95 27.9869 130.23Z" fill="white"/>
<defs>
<linearGradient id="paint0_linear_164_1184" x1="42.1312" y1="59.0901" x2="42.1312" y2="111.546" gradientUnits="userSpaceOnUse">
<stop stop-color="#3E214C"/>
<stop offset="0.9947" stop-color="#391448"/>
</linearGradient>
<linearGradient id="paint1_linear_164_1184" x1="58.0499" y1="100.004" x2="56.4907" y2="95.7331" gradientUnits="userSpaceOnUse">
<stop stop-color="#3E214C"/>
<stop offset="0.9947" stop-color="#391448"/>
</linearGradient>
<linearGradient id="paint2_linear_164_1184" x1="97.1124" y1="221.677" x2="97.1124" y2="176.354" gradientUnits="userSpaceOnUse">
<stop stop-color="#D2A57A"/>
<stop offset="1" stop-color="#98723F"/>
</linearGradient>
<linearGradient id="paint3_linear_164_1184" x1="242.887" y1="221.677" x2="242.887" y2="176.354" gradientUnits="userSpaceOnUse">
<stop stop-color="#D2A57A"/>
<stop offset="1" stop-color="#98723F"/>
</linearGradient>
<linearGradient id="paint4_linear_164_1184" x1="228.653" y1="112.16" x2="231.702" y2="137.81" gradientUnits="userSpaceOnUse">
<stop stop-color="#FFD2B6"/>
<stop offset="1" stop-color="#FFB793"/>
</linearGradient>
<linearGradient id="paint5_linear_164_1184" x1="228.115" y1="111.569" x2="229.861" y2="126.258" gradientUnits="userSpaceOnUse">
<stop stop-color="#FFD2B6"/>
<stop offset="1" stop-color="#FFB793"/>
</linearGradient>
<linearGradient id="paint6_linear_164_1184" x1="163.988" y1="99.5073" x2="194.613" y2="106.772" gradientUnits="userSpaceOnUse">
<stop stop-color="#FFD2B6"/>
<stop offset="1" stop-color="#FFB793"/>
</linearGradient>
<linearGradient id="paint7_linear_164_1184" x1="191.246" y1="100.246" x2="202.762" y2="102.978" gradientUnits="userSpaceOnUse">
<stop stop-color="#FFD2B6"/>
<stop offset="1" stop-color="#FFB793"/>
</linearGradient>
<linearGradient id="paint8_linear_164_1184" x1="213.362" y1="78.3604" x2="220.989" y2="110.797" gradientUnits="userSpaceOnUse">
<stop stop-color="#3E214C"/>
<stop offset="0.9947" stop-color="#391448"/>
</linearGradient>
<linearGradient id="paint9_linear_164_1184" x1="258.746" y1="159.141" x2="262.015" y2="186.644" gradientUnits="userSpaceOnUse">
<stop stop-color="#3E214C"/>
<stop offset="1" stop-color="#391448"/>
</linearGradient>
<linearGradient id="paint10_linear_164_1184" x1="267.872" y1="171.433" x2="261.059" y2="164.519" gradientUnits="userSpaceOnUse">
<stop stop-color="#98723F"/>
<stop offset="1" stop-color="#D2A57A"/>
</linearGradient>
<linearGradient id="paint11_linear_164_1184" x1="220.981" y1="151.149" x2="211.22" y2="88.3086" gradientUnits="userSpaceOnUse">
<stop stop-color="#98723F"/>
<stop offset="1" stop-color="#D2A57A"/>
</linearGradient>
<linearGradient id="paint12_linear_164_1184" x1="232.114" y1="183.408" x2="226.887" y2="141.068" gradientUnits="userSpaceOnUse">
<stop stop-color="#98723F"/>
<stop offset="1" stop-color="#D2A57A"/>
</linearGradient>
<linearGradient id="paint13_linear_164_1184" x1="233.588" y1="149.191" x2="223.826" y2="86.3505" gradientUnits="userSpaceOnUse">
<stop stop-color="#98723F"/>
<stop offset="1" stop-color="#D2A57A"/>
</linearGradient>
<linearGradient id="paint14_linear_164_1184" x1="222.572" y1="182.466" x2="225.149" y2="204.141" gradientUnits="userSpaceOnUse">
<stop stop-color="#3E214C"/>
<stop offset="1" stop-color="#391448"/>
</linearGradient>
<linearGradient id="paint15_linear_164_1184" x1="237.46" y1="207.054" x2="237.257" y2="198.208" gradientUnits="userSpaceOnUse">
<stop stop-color="#98723F"/>
<stop offset="1" stop-color="#D2A57A"/>
</linearGradient>
<linearGradient id="paint16_linear_164_1184" x1="232.176" y1="149.41" x2="222.415" y2="86.5699" gradientUnits="userSpaceOnUse">
<stop stop-color="#98723F"/>
<stop offset="1" stop-color="#D2A57A"/>
</linearGradient>
<linearGradient id="paint17_linear_164_1184" x1="252.15" y1="86.39" x2="221.762" y2="125.515" gradientUnits="userSpaceOnUse">
<stop stop-color="#FFD2B6"/>
<stop offset="1" stop-color="#FFB793"/>
</linearGradient>
<linearGradient id="paint18_linear_164_1184" x1="246.388" y1="85.7571" x2="238.734" y2="95.6108" gradientUnits="userSpaceOnUse">
<stop stop-color="#FFD2B6"/>
<stop offset="1" stop-color="#FFB793"/>
</linearGradient>
<linearGradient id="paint19_linear_164_1184" x1="237.529" y1="96.2253" x2="237.499" y2="96.2645" gradientUnits="userSpaceOnUse">
<stop stop-color="#FFD2B6"/>
<stop offset="1" stop-color="#FFB793"/>
</linearGradient>
<linearGradient id="paint20_linear_164_1184" x1="245.984" y1="85.5051" x2="238.697" y2="94.8872" gradientUnits="userSpaceOnUse">
<stop stop-color="#FFD2B6"/>
<stop offset="1" stop-color="#FFB793"/>
</linearGradient>
<linearGradient id="paint21_linear_164_1184" x1="235.604" y1="73.1289" x2="243.239" y2="105.604" gradientUnits="userSpaceOnUse">
<stop stop-color="#3E214C"/>
<stop offset="0.9947" stop-color="#391448"/>
</linearGradient>
<linearGradient id="paint22_linear_164_1184" x1="229.959" y1="94.5003" x2="238.092" y2="94.5003" gradientUnits="userSpaceOnUse">
<stop stop-color="#3E214C"/>
<stop offset="0.9947" stop-color="#391448"/>
</linearGradient>
<linearGradient id="paint23_linear_164_1184" x1="208.861" y1="64.3063" x2="213.265" y2="90.5477" gradientUnits="userSpaceOnUse">
<stop stop-color="#FFD2B6"/>
<stop offset="1" stop-color="#FFB793"/>
</linearGradient>
<linearGradient id="paint24_linear_164_1184" x1="215.803" y1="73.0522" x2="211.888" y2="79.7125" gradientUnits="userSpaceOnUse">
<stop stop-color="#FFD2B6"/>
<stop offset="1" stop-color="#FFB793"/>
</linearGradient>
<linearGradient id="paint25_linear_164_1184" x1="206.172" y1="98.9241" x2="208.334" y2="98.9241" gradientUnits="userSpaceOnUse">
<stop stop-color="#3E214C"/>
<stop offset="0.9947" stop-color="#391448"/>
</linearGradient>
<linearGradient id="paint26_linear_164_1184" x1="170.942" y1="127.317" x2="170.942" y2="142.457" gradientUnits="userSpaceOnUse">
<stop stop-color="#D2A57A"/>
<stop offset="1" stop-color="#98723F"/>
</linearGradient>
<linearGradient id="paint27_linear_164_1184" x1="172.121" y1="88.578" x2="172.121" y2="117.284" gradientUnits="userSpaceOnUse">
<stop stop-color="#3E214C"/>
<stop offset="0.9947" stop-color="#391448"/>
</linearGradient>
<linearGradient id="paint28_linear_164_1184" x1="172.225" y1="107.697" x2="172.225" y2="99.9187" gradientUnits="userSpaceOnUse">
<stop stop-color="#FFA36D"/>
<stop offset="1" stop-color="#FFB793"/>
</linearGradient>
<linearGradient id="paint29_linear_164_1184" x1="172.231" y1="108.572" x2="172.231" y2="103.454" gradientUnits="userSpaceOnUse">
<stop stop-color="#FFA36D"/>
<stop offset="1" stop-color="#FFB793"/>
</linearGradient>
<linearGradient id="paint30_linear_164_1184" x1="193.81" y1="115.212" x2="154.074" y2="97.8161" gradientUnits="userSpaceOnUse">
<stop stop-color="#FFE1A4"/>
<stop offset="1" stop-color="#FFFFE3"/>
</linearGradient>
<linearGradient id="paint31_linear_164_1184" x1="172.883" y1="95.3522" x2="172.883" y2="105.882" gradientUnits="userSpaceOnUse">
<stop stop-color="#3E214C"/>
<stop offset="0.9947" stop-color="#391448"/>
</linearGradient>
<linearGradient id="paint32_linear_164_1184" x1="159.077" y1="106.569" x2="159.077" y2="138.2" gradientUnits="userSpaceOnUse">
<stop stop-color="#D2A57A"/>
<stop offset="0.9947" stop-color="#98723F"/>
</linearGradient>
<linearGradient id="paint33_linear_164_1184" x1="186.691" y1="106.569" x2="186.691" y2="138.2" gradientUnits="userSpaceOnUse">
<stop stop-color="#D2A57A"/>
<stop offset="0.9947" stop-color="#98723F"/>
</linearGradient>
<linearGradient id="paint34_linear_164_1184" x1="172.883" y1="90.4683" x2="172.883" y2="115.877" gradientUnits="userSpaceOnUse">
<stop stop-color="#3E214C"/>
<stop offset="0.9947" stop-color="#391448"/>
</linearGradient>
<linearGradient id="paint35_linear_164_1184" x1="193.201" y1="127.9" x2="193.201" y2="117.262" gradientUnits="userSpaceOnUse">
<stop stop-color="#FFA36D"/>
<stop offset="1" stop-color="#FFB793"/>
</linearGradient>
<linearGradient id="paint36_linear_164_1184" x1="192.706" y1="124.77" x2="192.706" y2="123.072" gradientUnits="userSpaceOnUse">
<stop stop-color="#FFA36D"/>
<stop offset="1" stop-color="#FFB793"/>
</linearGradient>
<linearGradient id="paint37_linear_164_1184" x1="192.523" y1="127.462" x2="192.523" y2="126.414" gradientUnits="userSpaceOnUse">
<stop stop-color="#FFA36D"/>
<stop offset="1" stop-color="#FFB793"/>
</linearGradient>
<linearGradient id="paint38_linear_164_1184" x1="182.021" y1="144.778" x2="179.165" y2="131.45" gradientUnits="userSpaceOnUse">
<stop stop-color="#FFA36D"/>
<stop offset="1" stop-color="#FFB793"/>
</linearGradient>
<linearGradient id="paint39_linear_164_1184" x1="159.793" y1="153.017" x2="160.834" y2="132.363" gradientUnits="userSpaceOnUse">
<stop stop-color="#FFA36D"/>
<stop offset="1" stop-color="#FFB793"/>
</linearGradient>
<linearGradient id="paint40_linear_164_1184" x1="121.135" y1="95.7228" x2="157.334" y2="123.923" gradientUnits="userSpaceOnUse">
<stop stop-color="#FFD2B6"/>
<stop offset="1" stop-color="#FFB793"/>
</linearGradient>
<linearGradient id="paint41_linear_164_1184" x1="163.922" y1="182.118" x2="166.733" y2="207.103" gradientUnits="userSpaceOnUse">
<stop stop-color="#FFD2B6"/>
<stop offset="1" stop-color="#FFB793"/>
</linearGradient>
<linearGradient id="paint42_linear_164_1184" x1="138.394" y1="120.098" x2="145.699" y2="185.03" gradientUnits="userSpaceOnUse">
<stop stop-color="#3E214C"/>
<stop offset="1" stop-color="#391448"/>
</linearGradient>
<linearGradient id="paint43_linear_164_1184" x1="151.913" y1="182.897" x2="153.743" y2="192.727" gradientUnits="userSpaceOnUse">
<stop stop-color="#3E214C"/>
<stop offset="1" stop-color="#391448"/>
</linearGradient>
<linearGradient id="paint44_linear_164_1184" x1="99.6354" y1="100.75" x2="163.129" y2="100.75" gradientUnits="userSpaceOnUse">
<stop stop-color="#98723F"/>
<stop offset="1" stop-color="#D2A57A"/>
</linearGradient>
<linearGradient id="paint45_linear_164_1184" x1="108.176" y1="101.173" x2="115.218" y2="101.173" gradientUnits="userSpaceOnUse">
<stop stop-color="#98723F"/>
<stop offset="1" stop-color="#D2A57A"/>
</linearGradient>
<linearGradient id="paint46_linear_164_1184" x1="149.67" y1="54.1257" x2="147.471" y2="61.5882" gradientUnits="userSpaceOnUse">
<stop stop-color="#A6714C"/>
<stop offset="0.9947" stop-color="#BD8A62"/>
</linearGradient>
<linearGradient id="paint47_linear_164_1184" x1="146.957" y1="47.6253" x2="131.969" y2="78.4685" gradientUnits="userSpaceOnUse">
<stop stop-color="#FFD2B6"/>
<stop offset="1" stop-color="#FFB793"/>
</linearGradient>
<linearGradient id="paint48_linear_164_1184" x1="118.947" y1="102.892" x2="152.416" y2="128.965" gradientUnits="userSpaceOnUse">
<stop stop-color="#FFD2B6"/>
<stop offset="1" stop-color="#FFB793"/>
</linearGradient>
<linearGradient id="paint49_linear_164_1184" x1="115.44" y1="97.6915" x2="123.916" y2="104.295" gradientUnits="userSpaceOnUse">
<stop stop-color="#FFD2B6"/>
<stop offset="1" stop-color="#FFB793"/>
</linearGradient>
<linearGradient id="paint50_linear_164_1184" x1="114.68" y1="181.705" x2="117.472" y2="206.52" gradientUnits="userSpaceOnUse">
<stop stop-color="#FFD2B6"/>
<stop offset="1" stop-color="#FFB793"/>
</linearGradient>
<linearGradient id="paint51_linear_164_1184" x1="108.941" y1="123.386" x2="116.34" y2="189.161" gradientUnits="userSpaceOnUse">
<stop stop-color="#3E214C"/>
<stop offset="1" stop-color="#391448"/>
</linearGradient>
<linearGradient id="paint52_linear_164_1184" x1="116.762" y1="181.649" x2="116.762" y2="192.292" gradientUnits="userSpaceOnUse">
<stop stop-color="#3E214C"/>
<stop offset="1" stop-color="#391448"/>
</linearGradient>
<linearGradient id="paint53_linear_164_1184" x1="138.647" y1="62.2901" x2="140.924" y2="45.0325" gradientUnits="userSpaceOnUse">
<stop stop-color="#A6714C"/>
<stop offset="0.9947" stop-color="#BD8A62"/>
</linearGradient>
<linearGradient id="paint54_linear_164_1184" x1="133.813" y1="69.4555" x2="140.482" y2="74.6511" gradientUnits="userSpaceOnUse">
<stop stop-color="#FFD2B6"/>
<stop offset="1" stop-color="#FFB793"/>
</linearGradient>
<linearGradient id="paint55_linear_164_1184" x1="148.624" y1="87.0134" x2="153.663" y2="87.0134" gradientUnits="userSpaceOnUse">
<stop stop-color="#98723F"/>
<stop offset="1" stop-color="#D2A57A"/>
</linearGradient>
<linearGradient id="paint56_linear_164_1184" x1="160.734" y1="100.634" x2="160.734" y2="91.1206" gradientUnits="userSpaceOnUse">
<stop stop-color="#FFA36D"/>
<stop offset="1" stop-color="#FFB793"/>
</linearGradient>
<linearGradient id="paint57_linear_164_1184" x1="184.058" y1="100.634" x2="184.058" y2="91.1206" gradientUnits="userSpaceOnUse">
<stop stop-color="#FFA36D"/>
<stop offset="1" stop-color="#FFB793"/>
</linearGradient>
<linearGradient id="paint58_linear_164_1184" x1="172.273" y1="91.9856" x2="172.273" y2="75.1798" gradientUnits="userSpaceOnUse">
<stop stop-color="#A6714C"/>
<stop offset="0.9947" stop-color="#BD8A62"/>
</linearGradient>
<linearGradient id="paint59_linear_164_1184" x1="172.429" y1="110.2" x2="172.429" y2="94.4394" gradientUnits="userSpaceOnUse">
<stop stop-color="#FFA36D"/>
<stop offset="1" stop-color="#FFB793"/>
</linearGradient>
<linearGradient id="paint60_linear_164_1184" x1="92.9449" y1="-52.28" x2="361.385" y2="148.44" gradientUnits="userSpaceOnUse">
<stop stop-color="#98723F"/>
<stop offset="1" stop-color="#D2A57A"/>
</linearGradient>
<linearGradient id="paint61_linear_164_1184" x1="8.1813" y1="40.9828" x2="276.625" y2="241.706" gradientUnits="userSpaceOnUse">
<stop stop-color="#98723F"/>
<stop offset="1" stop-color="#D2A57A"/>
</linearGradient>
<linearGradient id="paint62_linear_164_1184" x1="58.5555" y1="32.5834" x2="61.3888" y2="35.889" gradientUnits="userSpaceOnUse">
<stop stop-color="#98723F"/>
<stop offset="1" stop-color="#D2A57A"/>
</linearGradient>
<linearGradient id="paint63_linear_164_1184" x1="262.556" y1="56.6669" x2="266.333" y2="59.5002" gradientUnits="userSpaceOnUse">
<stop stop-color="#98723F"/>
<stop offset="1" stop-color="#D2A57A"/>
</linearGradient>
<linearGradient id="paint64_linear_164_1184" x1="132.432" y1="-11.0517" x2="400.875" y2="189.672" gradientUnits="userSpaceOnUse">
<stop stop-color="#98723F"/>
<stop offset="1" stop-color="#D2A57A"/>
</linearGradient>
<linearGradient id="paint65_linear_164_1184" x1="112.72" y1="-87.7817" x2="381.164" y2="112.941" gradientUnits="userSpaceOnUse">
<stop stop-color="#98723F"/>
<stop offset="1" stop-color="#D2A57A"/>
</linearGradient>
<linearGradient id="paint66_linear_164_1184" x1="62.1441" y1="-35.0321" x2="330.588" y2="165.691" gradientUnits="userSpaceOnUse">
<stop stop-color="#98723F"/>
<stop offset="1" stop-color="#D2A57A"/>
</linearGradient>
<linearGradient id="paint67_linear_164_1184" x1="164.333" y1="1.88889" x2="167.639" y2="5.19445" gradientUnits="userSpaceOnUse">
<stop stop-color="#98723F"/>
<stop offset="1" stop-color="#D2A57A"/>
</linearGradient>
</defs>
</svg>
