<svg width="13" height="12" viewBox="0 0 13 12" fill="none" xmlns="http://www.w3.org/2000/svg">
<path d="M0 8.51064V10.4746H5.23732V9.23732H1.24386V8.51064C1.24386 8.09165 3.29296 7.13584 5.23732 7.13584C5.86579 7.14239 6.48772 7.2275 7.09002 7.38461L8.08511 6.38953C7.16858 6.08183 6.21931 5.91162 5.23732 5.89198C3.48936 5.89198 0 6.76268 0 8.51064ZM5.23732 0C3.79051 0 2.61866 1.17185 2.61866 2.61866C2.61866 4.06547 3.79051 5.23732 5.23732 5.23732C6.68412 5.23732 7.85597 4.06547 7.85597 2.61866C7.85597 1.17185 6.68412 0 5.23732 0ZM5.23732 3.92799C4.51718 3.92799 3.92799 3.34534 3.92799 2.61866C3.92799 1.89198 4.51718 1.30933 5.23732 1.30933C5.95745 1.30933 6.54664 1.89853 6.54664 2.61866C6.54664 3.33879 5.96399 3.92799 5.23732 3.92799ZM12.8969 6.12111L12.2422 6.77578L10.9002 5.46645L11.5548 4.81178C11.6923 4.6743 11.9214 4.6743 12.0589 4.81178L12.8969 5.64975C13.0344 5.78723 13.0344 6.01637 12.8969 6.15385M6.54664 9.78069L10.5139 5.81342L11.856 7.12275L7.92799 11.0966H6.54664V9.78069Z" fill="#9B9B9B"/>
</svg>
