<svg width="17" height="17" viewBox="0 0 17 17" fill="none" xmlns="http://www.w3.org/2000/svg">
<path d="M10.6252 2.83325C9.87372 2.83325 9.15305 3.13176 8.62169 3.66312C8.09034 4.19447 7.79183 4.91514 7.79183 5.66659C7.79183 6.41803 8.09034 7.1387 8.62169 7.67005C9.15305 8.20141 9.87372 8.49992 10.6252 8.49992C11.3766 8.49992 12.0973 8.20141 12.6286 7.67005C13.16 7.1387 13.4585 6.41803 13.4585 5.66659C13.4585 4.91514 13.16 4.19447 12.6286 3.66312C12.0973 3.13176 11.3766 2.83325 10.6252 2.83325ZM10.6252 4.17909C11.4468 4.17909 12.1127 4.84492 12.1127 5.66659C12.1127 6.48825 11.4468 7.15409 10.6252 7.15409C10.2307 7.15409 9.8523 6.99737 9.57334 6.71841C9.29438 6.43945 9.13766 6.06109 9.13766 5.66659C9.13766 5.27208 9.29438 4.89372 9.57334 4.61476C9.8523 4.3358 10.2307 4.17909 10.6252 4.17909ZM2.8335 4.95825V7.08325H0.708496V8.49992H2.8335V10.6249H4.25016V8.49992H6.37516V7.08325H4.25016V4.95825H2.8335ZM10.6252 9.20825C8.73391 9.20825 4.9585 10.1503 4.9585 12.0416V14.1666H16.2918V12.0416C16.2918 10.1503 12.5164 9.20825 10.6252 9.20825ZM10.6252 10.5541C12.7289 10.5541 14.946 11.5883 14.946 12.0416V12.8208H6.30433V12.0416C6.30433 11.5883 8.50016 10.5541 10.6252 10.5541Z" fill="#9B9B9B"/>
</svg>
