<svg width="17" height="17" viewBox="0 0 17 17" fill="none" xmlns="http://www.w3.org/2000/svg">
<path d="M11.333 3.54175V2.83341C11.333 2.45769 11.1838 2.09736 10.9181 1.83168C10.6524 1.566 10.2921 1.41675 9.91634 1.41675H7.08301C6.70728 1.41675 6.34695 1.566 6.08127 1.83168C5.8156 2.09736 5.66634 2.45769 5.66634 2.83341V3.54175C4.91489 3.54175 4.19422 3.84026 3.66287 4.37161C3.13152 4.90297 2.83301 5.62363 2.83301 6.37508V14.1667C2.83301 14.5425 2.98226 14.9028 3.24794 15.1685C3.51362 15.4342 3.87395 15.5834 4.24967 15.5834H12.7497C13.1254 15.5834 13.4857 15.4342 13.7514 15.1685C14.0171 14.9028 14.1663 14.5425 14.1663 14.1667V6.37508C14.1663 5.62363 13.8678 4.90297 13.3365 4.37161C12.8051 3.84026 12.0845 3.54175 11.333 3.54175ZM7.08301 2.83341H9.91634V3.54175H7.08301V2.83341ZM8.49967 6.37508L9.91634 7.79175L8.49967 9.20842L7.08301 7.79175L8.49967 6.37508ZM12.7497 14.1667H4.24967V11.3334H5.66634V12.7501H6.37467V11.3334H12.7497V14.1667ZM12.7497 10.6251H4.24967V6.37508C4.24967 5.99936 4.39893 5.63902 4.66461 5.37335C4.93028 5.10767 5.29062 4.95842 5.66634 4.95842H11.333C11.7087 4.95842 12.0691 5.10767 12.3347 5.37335C12.6004 5.63902 12.7497 5.99936 12.7497 6.37508V10.6251Z" fill="#9B9B9B"/>
</svg>
