<svg width="17" height="17" viewBox="0 0 17 17" fill="none" xmlns="http://www.w3.org/2000/svg">
<path d="M4.95833 7.79159H6.375V9.20825H4.95833V7.79159ZM14.875 3.54159V13.4583C14.875 14.2445 14.2446 14.8749 13.4583 14.8749H3.54167C2.75542 14.8749 2.125 14.2374 2.125 13.4583V3.54159C2.125 2.76242 2.7625 2.12492 3.54167 2.12492H4.25V0.708252H5.66667V2.12492H11.3333V0.708252H12.75V2.12492H13.4583C14.2446 2.12492 14.875 2.76242 14.875 3.54159ZM3.54167 4.95825H13.4583V3.54159H3.54167V4.95825ZM13.4583 13.4583V6.37492H3.54167V13.4583H13.4583ZM10.625 9.20825V7.79159H12.0417V9.20825H10.625ZM7.79167 9.20825V7.79159H9.20833V9.20825H7.79167ZM4.95833 10.6249H6.375V12.0416H4.95833V10.6249ZM10.625 12.0416V10.6249H12.0417V12.0416H10.625ZM7.79167 12.0416V10.6249H9.20833V12.0416H7.79167Z" fill="#9B9B9B"/>
</svg>
