<svg width="17" height="17" viewBox="0 0 17 17" fill="none" xmlns="http://www.w3.org/2000/svg">
<path d="M15.5833 2.125H1.41667C0.644583 2.15333 0.0283333 2.76958 0 3.54167V13.4583C0.0283333 14.2304 0.644583 14.8467 1.41667 14.875H15.5833C16.3554 14.8467 16.9717 14.2304 17 13.4583V3.54167C16.9717 2.76958 16.3554 2.15333 15.5833 2.125ZM15.5833 13.4583H1.41667V3.54167H15.5833V13.4583ZM9.91667 12.0417V11.1562C9.91667 9.98042 7.55083 9.38542 6.375 9.38542C5.19917 9.38542 2.83333 9.98042 2.83333 11.1562V12.0417H9.91667ZM6.375 4.95833C5.90535 4.95833 5.45493 5.1449 5.12283 5.477C4.79074 5.80909 4.60417 6.25951 4.60417 6.72917C4.60417 6.96172 4.64997 7.19199 4.73896 7.40684C4.82796 7.62168 4.95839 7.8169 5.12283 7.98133C5.45493 8.31343 5.90535 8.5 6.375 8.5C6.60755 8.5 6.83782 8.4542 7.05267 8.3652C7.26752 8.27621 7.46273 8.14577 7.62717 7.98133C7.7916 7.8169 7.92204 7.62168 8.01104 7.40684C8.10003 7.19199 8.14583 6.96172 8.14583 6.72917C8.14583 6.49662 8.10003 6.26635 8.01104 6.0515C7.92204 5.83665 7.7916 5.64144 7.62717 5.477C7.46273 5.31256 7.26752 5.18212 7.05267 5.09313C6.83782 5.00414 6.60755 4.95833 6.375 4.95833ZM9.91667 4.95833V5.66667H14.1667V4.95833H9.91667ZM9.91667 6.375V7.08333H14.1667V6.375H9.91667ZM9.91667 7.79167V8.5H12.75V7.79167H9.91667Z" fill="#9B9B9B"/>
</svg>
