<svg width="17" height="17" viewBox="0 0 17 17" fill="none" xmlns="http://www.w3.org/2000/svg">
<path d="M8.49984 2.125C4.604 2.125 1.4165 4.66083 1.4165 7.79167C1.45192 9.31458 2.16734 10.7454 3.36442 11.6875C3.36442 12.1125 3.06692 13.2246 1.4165 14.875C3.09525 14.7971 4.70317 14.1667 5.99942 13.1042C6.80692 13.3379 7.65692 13.4583 8.49984 13.4583C12.3957 13.4583 15.5832 10.9225 15.5832 7.79167C15.5832 4.66083 12.3957 2.125 8.49984 2.125ZM8.49984 12.0417C5.369 12.0417 2.83317 10.1362 2.83317 7.79167C2.83317 5.44708 5.369 3.54167 8.49984 3.54167C11.6307 3.54167 14.1665 5.44708 14.1665 7.79167C14.1665 10.1362 11.6307 12.0417 8.49984 12.0417ZM12.0415 8.5V7.08333H10.6248V8.5H12.0415ZM9.20817 8.5V7.08333H7.7915V8.5H9.20817ZM6.37484 8.5V7.08333H4.95817V8.5H6.37484Z" fill="#9B9B9B"/>
</svg>
