<svg width="17" height="17" viewBox="0 0 17 17" fill="none" xmlns="http://www.w3.org/2000/svg">
<path d="M15.5833 2.125H1.41667C1.04094 2.125 0.680609 2.27426 0.414932 2.53993C0.149256 2.80561 0 3.16594 0 3.54167L0 13.4583C0 13.8341 0.149256 14.1944 0.414932 14.4601C0.680609 14.7257 1.04094 14.875 1.41667 14.875H15.5833C15.9591 14.875 16.3194 14.7257 16.5851 14.4601C16.8507 14.1944 17 13.8341 17 13.4583V3.54167C17 3.16594 16.8507 2.80561 16.5851 2.53993C16.3194 2.27426 15.9591 2.125 15.5833 2.125ZM15.5833 13.4583H1.41667V3.54167H15.5833V13.4583ZM13.4583 12.75L14.875 11.3333L13.8125 9.91667H12.6438C12.4879 9.47042 12.3958 8.99583 12.3958 8.5C12.3958 8.00417 12.4879 7.52958 12.6438 7.08333H13.8125L14.875 5.66667L13.4583 4.25C12.5375 4.95833 11.8504 5.93583 11.5317 7.08333C11.4042 7.53667 11.3333 8.01125 11.3333 8.5C11.3333 8.98875 11.4042 9.46333 11.5317 9.91667C11.8504 11.0571 12.5375 12.0417 13.4583 12.75ZM6.375 8.5C6.93858 8.5 7.47909 8.27612 7.8776 7.8776C8.27612 7.47909 8.5 6.93858 8.5 6.375C8.5 5.81141 8.27612 5.27091 7.8776 4.8724C7.47909 4.47388 6.93858 4.25 6.375 4.25C5.81141 4.25 5.27091 4.47388 4.8724 4.8724C4.47388 5.27091 4.25 5.81141 4.25 6.375C4.25 6.93858 4.47388 7.47909 4.8724 7.8776C5.27091 8.27612 5.81141 8.5 6.375 8.5ZM6.375 5.66667C6.56286 5.66667 6.74303 5.74129 6.87587 5.87413C7.00871 6.00697 7.08333 6.18714 7.08333 6.375C7.08333 6.56286 7.00871 6.74303 6.87587 6.87587C6.74303 7.00871 6.56286 7.08333 6.375 7.08333C6.18714 7.08333 6.00697 7.00871 5.87413 6.87587C5.74129 6.74303 5.66667 6.56286 5.66667 6.375C5.66667 6.18714 5.74129 6.00697 5.87413 5.87413C6.00697 5.74129 6.18714 5.66667 6.375 5.66667ZM10.625 11.7513C10.625 9.98042 7.81292 9.20833 6.375 9.20833C4.93708 9.20833 2.125 9.98042 2.125 11.7513V12.75H10.625V11.7513ZM3.89583 11.3333C4.40583 10.9792 5.45417 10.625 6.375 10.625C7.29583 10.625 8.33708 10.9792 8.85417 11.3333H3.89583Z" fill="#9B9B9B"/>
</svg>
