<svg width="17" height="17" viewBox="0 0 17 17" fill="none" xmlns="http://www.w3.org/2000/svg">
<path d="M9.91667 14.8749C11.2837 14.8749 12.4808 14.0462 12.75 12.7499L11.5104 12.1266C11.3333 12.8987 10.8587 13.4583 9.91667 13.4583H6.44583C7.03375 12.7499 7.50833 11.8008 7.50833 10.6249C7.50833 10.377 7.48708 10.1362 7.4375 9.91659H9.91667V8.49992H6.95583C6.375 7.38075 5.66667 6.79992 5.66667 5.66659C5.66667 4.2995 6.77875 3.18742 8.14583 3.18742C9.20833 3.18742 10.1221 3.86034 10.4692 4.80242L11.7796 4.24992C11.2129 2.79784 9.80333 1.77075 8.14583 1.77075C5.9925 1.77075 4.25 3.51325 4.25 5.66659C4.25 6.92742 4.80958 7.72075 5.3125 8.49992H4.25V9.91659H5.99958C6.05625 10.1362 6.09167 10.3699 6.09167 10.6249C6.09167 12.5374 4.25 13.4583 4.25 13.4583V14.8749H9.91667Z" fill="#9B9B9B"/>
</svg>
