<svg width="17" height="17" viewBox="0 0 17 17" fill="none" xmlns="http://www.w3.org/2000/svg">
<g clip-path="url(#clip0_70_717)">
<path d="M13.6002 6.72917L11.3335 5.45417V2.83333H12.396V4.81667L14.096 5.80833L13.6002 6.72917ZM15.7252 8.2875C16.0793 8.78333 16.2918 9.35 16.2918 9.91667V16.2917H14.8752V14.1667H2.12516V16.2917H0.708496V5.66667H2.12516V12.0417H7.79183V7.50833C7.36683 6.72917 7.0835 5.87917 7.0835 4.95833C7.0835 2.19583 9.27933 0 12.0418 0C14.8043 0 17.0002 2.19583 17.0002 4.95833C17.0002 6.23333 16.5043 7.36667 15.7252 8.2875ZM8.50016 4.95833C8.50016 6.94167 10.0585 8.5 12.0418 8.5C14.0252 8.5 15.5835 6.94167 15.5835 4.95833C15.5835 2.975 14.0252 1.41667 12.0418 1.41667C10.0585 1.41667 8.50016 2.975 8.50016 4.95833ZM4.9585 11.3333C6.16266 11.3333 7.0835 10.4125 7.0835 9.20833C7.0835 8.00417 6.16266 7.08333 4.9585 7.08333C3.75433 7.08333 2.8335 8.00417 2.8335 9.20833C2.8335 10.4125 3.75433 11.3333 4.9585 11.3333Z" fill="#9B9B9B"/>
</g>
<defs>
<clipPath id="clip0_70_717">
<rect width="17" height="17" fill="white"/>
</clipPath>
</defs>
</svg>
