<svg width="17" height="17" viewBox="0 0 17 17" fill="none" xmlns="http://www.w3.org/2000/svg">
<path d="M8.50016 7.08317C10.0656 7.08317 11.3335 5.81525 11.3335 4.24984C11.3335 2.68442 10.0656 1.4165 8.50016 1.4165C6.93475 1.4165 5.66683 2.68442 5.66683 4.24984C5.66683 5.81525 6.93475 7.08317 8.50016 7.08317ZM8.50016 2.83317C9.27933 2.83317 9.91683 3.47067 9.91683 4.24984C9.91683 5.029 9.27933 5.6665 8.50016 5.6665C7.721 5.6665 7.0835 5.029 7.0835 4.24984C7.0835 3.47067 7.721 2.83317 8.50016 2.83317ZM13.0264 8.8965C11.8364 8.28734 10.2922 7.7915 8.50016 7.7915C6.70808 7.7915 5.16391 8.28734 3.97391 8.8965C3.26558 9.25775 2.8335 9.98734 2.8335 10.7807V15.5832H4.25016V10.7807C4.25016 10.5115 4.39183 10.2707 4.60433 10.1573C5.46141 9.72525 6.82141 9.20817 8.50016 9.20817C9.0385 9.20817 9.54141 9.25775 10.0089 9.34984L8.911 11.6873H6.90641C5.82975 11.6873 4.9585 12.5586 4.9585 13.6353C4.9585 14.7119 5.82975 15.5832 6.90641 15.5832H12.7502C13.5293 15.5832 14.1668 14.9457 14.1668 14.1665V10.7807C14.1668 9.98734 13.7347 9.25775 13.0264 8.8965ZM7.74933 14.1665H6.90641C6.616 14.1665 6.37516 13.9257 6.37516 13.6353C6.37516 13.3448 6.616 13.104 6.90641 13.104H8.24516L7.74933 14.1665ZM12.7502 14.1665H9.31475L11.3972 9.72525C11.7797 9.86692 12.1127 10.0157 12.396 10.1573C12.6085 10.2707 12.7502 10.5115 12.7502 10.7807V14.1665Z" fill="#9B9B9B"/>
</svg>
