<svg width="17" height="17" viewBox="0 0 17 17" fill="none" xmlns="http://www.w3.org/2000/svg">
<path d="M2.98922 7.99714L7.99714 2.98922C9.66172 1.33172 12.3463 1.33172 14.0109 2.98922C15.6684 4.64672 15.6684 7.33839 14.0109 9.00297L9.00297 14.0109C7.33839 15.6684 4.64672 15.6684 2.98922 14.0109C1.33172 12.3463 1.33172 9.66172 2.98922 7.99714ZM3.99505 9.00297C3.2513 9.73963 3.00339 10.7951 3.25839 11.7371L7.5013 7.5013L10.5046 10.5046L13.0051 7.99714C14.1171 6.89214 14.1171 5.10005 13.0051 3.99505C11.9001 2.88297 10.108 2.88297 9.00297 3.99505L3.99505 9.00297Z" fill="#9B9B9B"/>
</svg>
